  0
SECTION
  2
BLOCKS
  0
ENDSEC
  0
SECTION
  2
ENTITIES
  0
LINE
  8
0
 10
0
 11
0
 20
15
 21
45
  0
LINE
  8
0
 10
0
 11
16.667
 20
45
 21
45
  0
LINE
  8
0
 10
16.667
 11
16.667
 20
45
 21
75
  0
LINE
  8
0
 10
16.667
 11
0
 20
75
 21
75
  0
LINE
  8
0
 10
0
 11
0
 20
75
 21
105
  0
LINE
  8
0
 10
0
 11
16.667
 20
105
 21
105
  0
LINE
  8
0
 10
16.667
 11
16.667
 20
105
 21
135
  0
LINE
  8
0
 10
16.667
 11
0
 20
135
 21
135
  0
LINE
  8
0
 10
0
 11
0
 20
135
 21
165
  0
LINE
  8
0
 10
0
 11
16.667
 20
165
 21
165
  0
LINE
  8
0
 10
16.667
 11
16.667
 20
165
 21
195
  0
LINE
  8
0
 10
16.667
 11
0
 20
195
 21
195
  0
LINE
  8
0
 10
0
 11
0
 20
195
 21
225
  0
LINE
  8
0
 10
0
 11
16.667
 20
225
 21
225
  0
LINE
  8
0
 10
16.667
 11
16.667
 20
225
 21
255
  0
LINE
  8
0
 10
16.667
 11
0
 20
255
 21
255
  0
LINE
  8
0
 10
0
 11
0
 20
255
 21
285
  0
LINE
  8
0
 10
0
 11
16.667
 20
285
 21
285
  0
LINE
  8
0
 10
16.667
 11
16.667
 20
285
 21
300
  0
LINE
  8
0
 10
16.667
 11
250
 20
300
 21
300
  0
LINE
  8
0
 10
250
 11
250
 20
300
 21
285
  0
LINE
  8
0
 10
250
 11
233.333
 20
285
 21
285
  0
LINE
  8
0
 10
233.333
 11
233.333
 20
285
 21
255
  0
LINE
  8
0
 10
233.333
 11
250
 20
255
 21
255
  0
LINE
  8
0
 10
250
 11
250
 20
255
 21
225
  0
LINE
  8
0
 10
250
 11
233.333
 20
225
 21
225
  0
LINE
  8
0
 10
233.333
 11
233.333
 20
225
 21
195
  0
LINE
  8
0
 10
233.333
 11
250
 20
195
 21
195
  0
LINE
  8
0
 10
250
 11
250
 20
195
 21
165
  0
LINE
  8
0
 10
250
 11
233.333
 20
165
 21
165
  0
LINE
  8
0
 10
233.333
 11
233.333
 20
165
 21
135
  0
LINE
  8
0
 10
233.333
 11
250
 20
135
 21
135
  0
LINE
  8
0
 10
250
 11
250
 20
135
 21
105
  0
LINE
  8
0
 10
250
 11
233.333
 20
105
 21
105
  0
LINE
  8
0
 10
233.333
 11
233.333
 20
105
 21
75
  0
LINE
  8
0
 10
233.333
 11
250
 20
75
 21
75
  0
LINE
  8
0
 10
250
 11
250
 20
75
 21
45
  0
LINE
  8
0
 10
250
 11
233.333
 20
45
 21
45
  0
LINE
  8
0
 10
233.333
 11
233.333
 20
45
 21
15
  0
LINE
  8
0
 10
233.333
 11
250
 20
15
 21
15
  0
LINE
  8
0
 10
250
 11
250
 20
15
 21
0
  0
LINE
  8
0
 10
250
 11
16.667
 20
0
 21
0
  0
LINE
  8
0
 10
16.667
 11
16.667
 20
0
 21
15
  0
LINE
  8
0
 10
16.667
 11
0
 20
15
 21
15
  0
LINE
  8
0
 10
16.92
 11
125
 20
301.1
 21
488.3
  0
LINE
  8
0
 10
125
 11
233.08
 20
488.3
 21
301.1
  0
LINE
  8
0
 10
233.08
 11
16.92
 20
301.1
 21
301.1
  0
LINE
  8
0
 10
51.336
 11
51.468
 20
169.68
 21
170.334
  0
LINE
  8
0
 10
51.468
 11
51.825
 20
170.334
 21
170.868
  0
LINE
  8
0
 10
51.825
 11
52.359
 20
170.868
 21
171.225
  0
LINE
  8
0
 10
52.359
 11
53.01
 20
171.225
 21
171.357
  0
LINE
  8
0
 10
53.01
 11
53.661
 20
171.357
 21
171.225
  0
LINE
  8
0
 10
53.661
 11
54.192
 20
171.225
 21
170.868
  0
LINE
  8
0
 10
54.192
 11
54.552
 20
170.868
 21
170.334
  0
LINE
  8
0
 10
54.552
 11
54.684
 20
170.334
 21
169.68
  0
LINE
  8
0
 10
54.684
 11
54.552
 20
169.68
 21
169.029
  0
LINE
  8
0
 10
54.552
 11
54.192
 20
169.029
 21
168.498
  0
LINE
  8
0
 10
54.192
 11
53.661
 20
168.498
 21
168.141
  0
LINE
  8
0
 10
53.661
 11
53.01
 20
168.141
 21
168.009
  0
LINE
  8
0
 10
53.01
 11
52.359
 20
168.009
 21
168.141
  0
LINE
  8
0
 10
52.359
 11
51.825
 20
168.141
 21
168.498
  0
LINE
  8
0
 10
51.825
 11
51.468
 20
168.498
 21
169.032
  0
LINE
  8
0
 10
51.468
 11
51.336
 20
169.032
 21
169.68
  0
LINE
  8
0
 10
51.336
 11
51.468
 20
189.414
 21
190.065
  0
LINE
  8
0
 10
51.468
 11
51.825
 20
190.065
 21
190.599
  0
LINE
  8
0
 10
51.825
 11
52.359
 20
190.599
 21
190.959
  0
LINE
  8
0
 10
52.359
 11
53.01
 20
190.959
 21
191.091
  0
LINE
  8
0
 10
53.01
 11
53.661
 20
191.091
 21
190.959
  0
LINE
  8
0
 10
53.661
 11
54.192
 20
190.959
 21
190.599
  0
LINE
  8
0
 10
54.192
 11
54.552
 20
190.599
 21
190.065
  0
LINE
  8
0
 10
54.552
 11
54.684
 20
190.065
 21
189.414
  0
LINE
  8
0
 10
54.684
 11
54.552
 20
189.414
 21
188.76
  0
LINE
  8
0
 10
54.552
 11
54.192
 20
188.76
 21
188.229
  0
LINE
  8
0
 10
54.192
 11
53.661
 20
188.229
 21
187.869
  0
LINE
  8
0
 10
53.661
 11
53.01
 20
187.869
 21
187.74
  0
LINE
  8
0
 10
53.01
 11
52.359
 20
187.74
 21
187.869
  0
LINE
  8
0
 10
52.359
 11
51.825
 20
187.869
 21
188.229
  0
LINE
  8
0
 10
51.825
 11
51.468
 20
188.229
 21
188.76
  0
LINE
  8
0
 10
51.468
 11
51.336
 20
188.76
 21
189.414
  0
LINE
  8
0
 10
51.336
 11
51.468
 20
209.145
 21
209.799
  0
LINE
  8
0
 10
51.468
 11
51.825
 20
209.799
 21
210.333
  0
LINE
  8
0
 10
51.825
 11
52.359
 20
210.333
 21
210.693
  0
LINE
  8
0
 10
52.359
 11
53.01
 20
210.693
 21
210.825
  0
LINE
  8
0
 10
53.01
 11
53.661
 20
210.825
 21
210.693
  0
LINE
  8
0
 10
53.661
 11
54.192
 20
210.693
 21
210.333
  0
LINE
  8
0
 10
54.192
 11
54.552
 20
210.333
 21
209.799
  0
LINE
  8
0
 10
54.552
 11
54.684
 20
209.799
 21
209.145
  0
LINE
  8
0
 10
54.684
 11
54.552
 20
209.145
 21
208.494
  0
LINE
  8
0
 10
54.552
 11
54.192
 20
208.494
 21
207.96
  0
LINE
  8
0
 10
54.192
 11
53.661
 20
207.96
 21
207.603
  0
LINE
  8
0
 10
53.661
 11
53.01
 20
207.603
 21
207.471
  0
LINE
  8
0
 10
53.01
 11
52.359
 20
207.471
 21
207.603
  0
LINE
  8
0
 10
52.359
 11
51.825
 20
207.603
 21
207.96
  0
LINE
  8
0
 10
51.825
 11
51.468
 20
207.96
 21
208.494
  0
LINE
  8
0
 10
51.468
 11
51.336
 20
208.494
 21
209.145
  0
LINE
  8
0
 10
51.336
 11
51.468
 20
228.879
 21
229.533
  0
LINE
  8
0
 10
51.468
 11
51.825
 20
229.533
 21
230.064
  0
LINE
  8
0
 10
51.825
 11
52.359
 20
230.064
 21
230.424
  0
LINE
  8
0
 10
52.359
 11
53.01
 20
230.424
 21
230.556
  0
LINE
  8
0
 10
53.01
 11
53.661
 20
230.556
 21
230.424
  0
LINE
  8
0
 10
53.661
 11
54.192
 20
230.424
 21
230.064
  0
LINE
  8
0
 10
54.192
 11
54.552
 20
230.064
 21
229.533
  0
LINE
  8
0
 10
54.552
 11
54.684
 20
229.533
 21
228.879
  0
LINE
  8
0
 10
54.684
 11
54.552
 20
228.879
 21
228.228
  0
LINE
  8
0
 10
54.552
 11
54.192
 20
228.228
 21
227.697
  0
LINE
  8
0
 10
54.192
 11
53.661
 20
227.697
 21
227.337
  0
LINE
  8
0
 10
53.661
 11
53.01
 20
227.337
 21
227.205
  0
LINE
  8
0
 10
53.01
 11
52.359
 20
227.205
 21
227.337
  0
LINE
  8
0
 10
52.359
 11
51.825
 20
227.337
 21
227.697
  0
LINE
  8
0
 10
51.825
 11
51.468
 20
227.697
 21
228.228
  0
LINE
  8
0
 10
51.468
 11
51.336
 20
228.228
 21
228.879
  0
LINE
  8
0
 10
51.336
 11
51.468
 20
248.613
 21
249.264
  0
LINE
  8
0
 10
51.468
 11
51.825
 20
249.264
 21
249.798
  0
LINE
  8
0
 10
51.825
 11
52.359
 20
249.798
 21
250.155
  0
LINE
  8
0
 10
52.359
 11
53.01
 20
250.155
 21
250.287
  0
LINE
  8
0
 10
53.01
 11
53.661
 20
250.287
 21
250.155
  0
LINE
  8
0
 10
53.661
 11
54.192
 20
250.155
 21
249.798
  0
LINE
  8
0
 10
54.192
 11
54.552
 20
249.798
 21
249.264
  0
LINE
  8
0
 10
54.552
 11
54.684
 20
249.264
 21
248.613
  0
LINE
  8
0
 10
54.684
 11
54.552
 20
248.613
 21
247.959
  0
LINE
  8
0
 10
54.552
 11
54.192
 20
247.959
 21
247.428
  0
LINE
  8
0
 10
54.192
 11
53.661
 20
247.428
 21
247.071
  0
LINE
  8
0
 10
53.661
 11
53.01
 20
247.071
 21
246.939
  0
LINE
  8
0
 10
53.01
 11
52.359
 20
246.939
 21
247.071
  0
LINE
  8
0
 10
52.359
 11
51.825
 20
247.071
 21
247.428
  0
LINE
  8
0
 10
51.825
 11
51.468
 20
247.428
 21
247.959
  0
LINE
  8
0
 10
51.468
 11
51.336
 20
247.959
 21
248.613
  0
LINE
  8
0
 10
51.336
 11
51.468
 20
268.341
 21
268.995
  0
LINE
  8
0
 10
51.468
 11
51.825
 20
268.995
 21
269.529
  0
LINE
  8
0
 10
51.825
 11
52.359
 20
269.529
 21
269.886
  0
LINE
  8
0
 10
52.359
 11
53.01
 20
269.886
 21
270.018
  0
LINE
  8
0
 10
53.01
 11
53.661
 20
270.018
 21
269.886
  0
LINE
  8
0
 10
53.661
 11
54.192
 20
269.886
 21
269.529
  0
LINE
  8
0
 10
54.192
 11
54.552
 20
269.529
 21
268.995
  0
LINE
  8
0
 10
54.552
 11
54.684
 20
268.995
 21
268.341
  0
LINE
  8
0
 10
54.684
 11
54.552
 20
268.341
 21
267.69
  0
LINE
  8
0
 10
54.552
 11
54.192
 20
267.69
 21
267.159
  0
LINE
  8
0
 10
54.192
 11
53.661
 20
267.159
 21
266.799
  0
LINE
  8
0
 10
53.661
 11
53.01
 20
266.799
 21
266.67
  0
LINE
  8
0
 10
53.01
 11
52.359
 20
266.67
 21
266.799
  0
LINE
  8
0
 10
52.359
 11
51.825
 20
266.799
 21
267.159
  0
LINE
  8
0
 10
51.825
 11
51.468
 20
267.159
 21
267.69
  0
LINE
  8
0
 10
51.468
 11
51.336
 20
267.69
 21
268.341
  0
LINE
  8
0
 10
51.963
 11
52.224
 20
144.981
 21
149.988
  0
LINE
  8
0
 10
52.224
 11
53.004
 20
149.988
 21
154.911
  0
LINE
  8
0
 10
53.004
 11
54.297
 20
154.911
 21
159.732
  0
LINE
  8
0
 10
54.297
 11
56.097
 20
159.732
 21
164.439
  0
LINE
  8
0
 10
56.097
 11
58.392
 20
164.439
 21
169.011
  0
LINE
  8
0
 10
58.392
 11
61.179
 20
169.011
 21
173.436
  0
LINE
  8
0
 10
61.179
 11
64.449
 20
173.436
 21
177.696
  0
LINE
  8
0
 10
64.449
 11
68.199
 20
177.696
 21
181.776
  0
LINE
  8
0
 10
68.199
 11
73.791
 20
181.776
 21
186.795
  0
LINE
  8
0
 10
73.791
 11
79.98
 20
186.795
 21
191.292
  0
LINE
  8
0
 10
79.98
 11
86.673
 20
191.292
 21
195.237
  0
LINE
  8
0
 10
86.673
 11
93.78
 20
195.237
 21
198.591
  0
LINE
  8
0
 10
93.78
 11
101.211
 20
198.591
 21
201.318
  0
LINE
  8
0
 10
101.211
 11
108.867
 20
201.318
 21
203.379
  0
LINE
  8
0
 10
108.867
 11
116.664
 20
203.379
 21
204.744
  0
LINE
  8
0
 10
116.664
 11
124.506
 20
204.744
 21
205.371
  0
LINE
  8
0
 10
124.506
 11
124.506
 20
205.371
 21
217.068
  0
LINE
  8
0
 10
124.506
 11
124.557
 20
217.068
 21
217.566
  0
LINE
  8
0
 10
124.557
 11
124.701
 20
217.566
 21
218.031
  0
LINE
  8
0
 10
124.701
 11
124.929
 20
218.031
 21
218.448
  0
LINE
  8
0
 10
124.929
 11
125.229
 20
218.448
 21
218.814
  0
LINE
  8
0
 10
125.229
 11
125.595
 20
218.814
 21
219.114
  0
LINE
  8
0
 10
125.595
 11
126.012
 20
219.114
 21
219.342
  0
LINE
  8
0
 10
126.012
 11
126.477
 20
219.342
 21
219.483
  0
LINE
  8
0
 10
126.477
 11
126.975
 20
219.483
 21
219.534
  0
LINE
  8
0
 10
126.975
 11
127.47
 20
219.534
 21
219.483
  0
LINE
  8
0
 10
127.47
 11
127.935
 20
219.483
 21
219.342
  0
LINE
  8
0
 10
127.935
 11
128.352
 20
219.342
 21
219.114
  0
LINE
  8
0
 10
128.352
 11
128.718
 20
219.114
 21
218.814
  0
LINE
  8
0
 10
128.718
 11
129.018
 20
218.814
 21
218.448
  0
LINE
  8
0
 10
129.018
 11
129.246
 20
218.448
 21
218.031
  0
LINE
  8
0
 10
129.246
 11
129.39
 20
218.031
 21
217.566
  0
LINE
  8
0
 10
129.39
 11
129.441
 20
217.566
 21
217.068
  0
LINE
  8
0
 10
129.441
 11
129.441
 20
217.068
 21
205.371
  0
LINE
  8
0
 10
129.441
 11
137.238
 20
205.371
 21
204.738
  0
LINE
  8
0
 10
137.238
 11
145.002
 20
204.738
 21
203.367
  0
LINE
  8
0
 10
145.002
 11
152.637
 20
203.367
 21
201.288
  0
LINE
  8
0
 10
152.637
 11
160.056
 20
201.288
 21
198.537
  0
LINE
  8
0
 10
160.056
 11
167.163
 20
198.537
 21
195.156
  0
LINE
  8
0
 10
167.163
 11
173.871
 20
195.156
 21
191.181
  0
LINE
  8
0
 10
173.871
 11
180.087
 20
191.181
 21
186.645
  0
LINE
  8
0
 10
180.087
 11
185.715
 20
186.645
 21
181.587
  0
LINE
  8
0
 10
185.715
 11
189.483
 20
181.587
 21
177.492
  0
LINE
  8
0
 10
189.483
 11
192.771
 20
177.492
 21
173.229
  0
LINE
  8
0
 10
192.771
 11
195.573
 20
173.229
 21
168.813
  0
LINE
  8
0
 10
195.573
 11
197.88
 20
168.813
 21
164.259
  0
LINE
  8
0
 10
197.88
 11
199.689
 20
164.259
 21
159.582
  0
LINE
  8
0
 10
199.689
 11
200.988
 20
159.582
 21
154.8
  0
LINE
  8
0
 10
200.988
 11
201.774
 20
154.8
 21
149.928
  0
LINE
  8
0
 10
201.774
 11
202.038
 20
149.928
 21
144.981
  0
LINE
  8
0
 10
202.038
 11
201.987
 20
144.981
 21
144.486
  0
LINE
  8
0
 10
201.987
 11
201.843
 20
144.486
 21
144.021
  0
LINE
  8
0
 10
201.843
 11
201.615
 20
144.021
 21
143.604
  0
LINE
  8
0
 10
201.615
 11
201.315
 20
143.604
 21
143.238
  0
LINE
  8
0
 10
201.315
 11
200.949
 20
143.238
 21
142.938
  0
LINE
  8
0
 10
200.949
 11
200.532
 20
142.938
 21
142.71
  0
LINE
  8
0
 10
200.532
 11
200.067
 20
142.71
 21
142.566
  0
LINE
  8
0
 10
200.067
 11
199.572
 20
142.566
 21
142.515
  0
LINE
  8
0
 10
199.572
 11
199.074
 20
142.515
 21
142.566
  0
LINE
  8
0
 10
199.074
 11
198.612
 20
142.566
 21
142.71
  0
LINE
  8
0
 10
198.612
 11
198.192
 20
142.71
 21
142.938
  0
LINE
  8
0
 10
198.192
 11
197.826
 20
142.938
 21
143.238
  0
LINE
  8
0
 10
197.826
 11
197.526
 20
143.238
 21
143.604
  0
LINE
  8
0
 10
197.526
 11
197.298
 20
143.604
 21
144.021
  0
LINE
  8
0
 10
197.298
 11
197.154
 20
144.021
 21
144.486
  0
LINE
  8
0
 10
197.154
 11
197.106
 20
144.486
 21
144.981
  0
LINE
  8
0
 10
197.106
 11
196.857
 20
144.981
 21
147.405
  0
LINE
  8
0
 10
196.857
 11
196.149
 20
147.405
 21
149.664
  0
LINE
  8
0
 10
196.149
 11
195.027
 20
149.664
 21
151.707
  0
LINE
  8
0
 10
195.027
 11
193.542
 20
151.707
 21
153.492
  0
LINE
  8
0
 10
193.542
 11
191.745
 20
153.492
 21
154.962
  0
LINE
  8
0
 10
191.745
 11
189.681
 20
154.962
 21
156.072
  0
LINE
  8
0
 10
189.681
 11
187.401
 20
156.072
 21
156.777
  0
LINE
  8
0
 10
187.401
 11
184.956
 20
156.777
 21
157.02
  0
LINE
  8
0
 10
184.956
 11
182.535
 20
157.02
 21
156.777
  0
LINE
  8
0
 10
182.535
 11
180.276
 20
156.777
 21
156.072
  0
LINE
  8
0
 10
180.276
 11
178.233
 20
156.072
 21
154.962
  0
LINE
  8
0
 10
178.233
 11
176.451
 20
154.962
 21
153.492
  0
LINE
  8
0
 10
176.451
 11
174.981
 20
153.492
 21
151.707
  0
LINE
  8
0
 10
174.981
 11
173.868
 20
151.707
 21
149.664
  0
LINE
  8
0
 10
173.868
 11
173.166
 20
149.664
 21
147.405
  0
LINE
  8
0
 10
173.166
 11
172.92
 20
147.405
 21
144.981
  0
LINE
  8
0
 10
172.92
 11
172.872
 20
144.981
 21
144.486
  0
LINE
  8
0
 10
172.872
 11
172.728
 20
144.486
 21
144.021
  0
LINE
  8
0
 10
172.728
 11
172.5
 20
144.021
 21
143.604
  0
LINE
  8
0
 10
172.5
 11
172.2
 20
143.604
 21
143.238
  0
LINE
  8
0
 10
172.2
 11
171.834
 20
143.238
 21
142.938
  0
LINE
  8
0
 10
171.834
 11
171.414
 20
142.938
 21
142.71
  0
LINE
  8
0
 10
171.414
 11
170.952
 20
142.71
 21
142.566
  0
LINE
  8
0
 10
170.952
 11
170.457
 20
142.566
 21
142.515
  0
LINE
  8
0
 10
170.457
 11
169.959
 20
142.515
 21
142.566
  0
LINE
  8
0
 10
169.959
 11
169.494
 20
142.566
 21
142.71
  0
LINE
  8
0
 10
169.494
 11
169.077
 20
142.71
 21
142.938
  0
LINE
  8
0
 10
169.077
 11
168.711
 20
142.938
 21
143.238
  0
LINE
  8
0
 10
168.711
 11
168.411
 20
143.238
 21
143.604
  0
LINE
  8
0
 10
168.411
 11
168.186
 20
143.604
 21
144.021
  0
LINE
  8
0
 10
168.186
 11
168.042
 20
144.021
 21
144.486
  0
LINE
  8
0
 10
168.042
 11
167.991
 20
144.486
 21
144.981
  0
LINE
  8
0
 10
167.991
 11
167.748
 20
144.981
 21
147.405
  0
LINE
  8
0
 10
167.748
 11
167.043
 20
147.405
 21
149.664
  0
LINE
  8
0
 10
167.043
 11
165.933
 20
149.664
 21
151.707
  0
LINE
  8
0
 10
165.933
 11
164.46
 20
151.707
 21
153.492
  0
LINE
  8
0
 10
164.46
 11
162.678
 20
153.492
 21
154.962
  0
LINE
  8
0
 10
162.678
 11
160.632
 20
154.962
 21
156.072
  0
LINE
  8
0
 10
160.632
 11
158.376
 20
156.072
 21
156.777
  0
LINE
  8
0
 10
158.376
 11
155.952
 20
156.777
 21
157.02
  0
LINE
  8
0
 10
155.952
 11
153.528
 20
157.02
 21
156.777
  0
LINE
  8
0
 10
153.528
 11
151.272
 20
156.777
 21
156.072
  0
LINE
  8
0
 10
151.272
 11
149.226
 20
156.072
 21
154.962
  0
LINE
  8
0
 10
149.226
 11
147.444
 20
154.962
 21
153.492
  0
LINE
  8
0
 10
147.444
 11
145.974
 20
153.492
 21
151.707
  0
LINE
  8
0
 10
145.974
 11
144.861
 20
151.707
 21
149.664
  0
LINE
  8
0
 10
144.861
 11
144.159
 20
149.664
 21
147.405
  0
LINE
  8
0
 10
144.159
 11
143.916
 20
147.405
 21
144.981
  0
LINE
  8
0
 10
143.916
 11
143.865
 20
144.981
 21
144.486
  0
LINE
  8
0
 10
143.865
 11
143.721
 20
144.486
 21
144.021
  0
LINE
  8
0
 10
143.721
 11
143.493
 20
144.021
 21
143.604
  0
LINE
  8
0
 10
143.493
 11
143.193
 20
143.604
 21
143.238
  0
LINE
  8
0
 10
143.193
 11
142.827
 20
143.238
 21
142.938
  0
LINE
  8
0
 10
142.827
 11
142.407
 20
142.938
 21
142.71
  0
LINE
  8
0
 10
142.407
 11
141.945
 20
142.71
 21
142.566
  0
LINE
  8
0
 10
141.945
 11
141.45
 20
142.566
 21
142.515
  0
LINE
  8
0
 10
141.45
 11
140.952
 20
142.515
 21
142.566
  0
LINE
  8
0
 10
140.952
 11
140.49
 20
142.566
 21
142.71
  0
LINE
  8
0
 10
140.49
 11
140.07
 20
142.71
 21
142.938
  0
LINE
  8
0
 10
140.07
 11
139.704
 20
142.938
 21
143.238
  0
LINE
  8
0
 10
139.704
 11
139.404
 20
143.238
 21
143.604
  0
LINE
  8
0
 10
139.404
 11
139.176
 20
143.604
 21
144.021
  0
LINE
  8
0
 10
139.176
 11
139.032
 20
144.021
 21
144.486
  0
LINE
  8
0
 10
139.032
 11
138.981
 20
144.486
 21
144.981
  0
LINE
  8
0
 10
138.981
 11
138.795
 20
144.981
 21
147.099
  0
LINE
  8
0
 10
138.795
 11
138.258
 20
147.099
 21
149.097
  0
LINE
  8
0
 10
138.258
 11
137.397
 20
149.097
 21
150.942
  0
LINE
  8
0
 10
137.397
 11
136.254
 20
150.942
 21
152.601
  0
LINE
  8
0
 10
136.254
 11
134.853
 20
152.601
 21
154.044
  0
LINE
  8
0
 10
134.853
 11
133.227
 20
154.044
 21
155.238
  0
LINE
  8
0
 10
133.227
 11
131.415
 20
155.238
 21
156.15
  0
LINE
  8
0
 10
131.415
 11
129.441
 20
156.15
 21
156.75
  0
LINE
  8
0
 10
129.441
 11
129.441
 20
156.75
 21
61.242
  0
LINE
  8
0
 10
129.441
 11
129.651
 20
61.242
 21
59.166
  0
LINE
  8
0
 10
129.651
 11
130.254
 20
59.166
 21
57.228
  0
LINE
  8
0
 10
130.254
 11
131.208
 20
57.228
 21
55.473
  0
LINE
  8
0
 10
131.208
 11
132.468
 20
55.473
 21
53.946
  0
LINE
  8
0
 10
132.468
 11
133.998
 20
53.946
 21
52.683
  0
LINE
  8
0
 10
133.998
 11
135.753
 20
52.683
 21
51.729
  0
LINE
  8
0
 10
135.753
 11
137.688
 20
51.729
 21
51.126
  0
LINE
  8
0
 10
137.688
 11
139.767
 20
51.126
 21
50.916
  0
LINE
  8
0
 10
139.767
 11
141.843
 20
50.916
 21
51.126
  0
LINE
  8
0
 10
141.843
 11
143.781
 20
51.126
 21
51.729
  0
LINE
  8
0
 10
143.781
 11
145.536
 20
51.729
 21
52.683
  0
LINE
  8
0
 10
145.536
 11
147.063
 20
52.683
 21
53.946
  0
LINE
  8
0
 10
147.063
 11
148.326
 20
53.946
 21
55.473
  0
LINE
  8
0
 10
148.326
 11
149.277
 20
55.473
 21
57.228
  0
LINE
  8
0
 10
149.277
 11
149.88
 20
57.228
 21
59.166
  0
LINE
  8
0
 10
149.88
 11
150.09
 20
59.166
 21
61.242
  0
LINE
  8
0
 10
150.09
 11
150.06
 20
61.242
 21
62.052
  0
LINE
  8
0
 10
150.06
 11
149.967
 20
62.052
 21
62.847
  0
LINE
  8
0
 10
149.967
 11
149.814
 20
62.847
 21
63.63
  0
LINE
  8
0
 10
149.814
 11
149.601
 20
63.63
 21
64.398
  0
LINE
  8
0
 10
149.601
 11
149.331
 20
64.398
 21
65.145
  0
LINE
  8
0
 10
149.331
 11
149.001
 20
65.145
 21
65.868
  0
LINE
  8
0
 10
149.001
 11
148.614
 20
65.868
 21
66.57
  0
LINE
  8
0
 10
148.614
 11
148.17
 20
66.57
 21
67.242
  0
LINE
  8
0
 10
148.17
 11
147.921
 20
67.242
 21
67.677
  0
LINE
  8
0
 10
147.921
 11
147.768
 20
67.677
 21
68.136
  0
LINE
  8
0
 10
147.768
 11
147.711
 20
68.136
 21
68.61
  0
LINE
  8
0
 10
147.711
 11
147.744
 20
68.61
 21
69.081
  0
LINE
  8
0
 10
147.744
 11
147.864
 20
69.081
 21
69.537
  0
LINE
  8
0
 10
147.864
 11
148.074
 20
69.537
 21
69.966
  0
LINE
  8
0
 10
148.074
 11
148.368
 20
69.966
 21
70.353
  0
LINE
  8
0
 10
148.368
 11
148.743
 20
70.353
 21
70.683
  0
LINE
  8
0
 10
148.743
 11
149.175
 20
70.683
 21
70.932
  0
LINE
  8
0
 10
149.175
 11
149.634
 20
70.932
 21
71.085
  0
LINE
  8
0
 10
149.634
 11
150.108
 20
71.085
 21
71.142
  0
LINE
  8
0
 10
150.108
 11
150.579
 20
71.142
 21
71.109
  0
LINE
  8
0
 10
150.579
 11
151.035
 20
71.109
 21
70.989
  0
LINE
  8
0
 10
151.035
 11
151.464
 20
70.989
 21
70.779
  0
LINE
  8
0
 10
151.464
 11
151.851
 20
70.779
 21
70.488
  0
LINE
  8
0
 10
151.851
 11
152.178
 20
70.488
 21
70.113
  0
LINE
  8
0
 10
152.178
 11
152.835
 20
70.113
 21
69.117
  0
LINE
  8
0
 10
152.835
 11
153.408
 20
69.117
 21
68.079
  0
LINE
  8
0
 10
153.408
 11
153.897
 20
68.079
 21
67.008
  0
LINE
  8
0
 10
153.897
 11
154.299
 20
67.008
 21
65.904
  0
LINE
  8
0
 10
154.299
 11
154.614
 20
65.904
 21
64.77
  0
LINE
  8
0
 10
154.614
 11
154.839
 20
64.77
 21
63.615
  0
LINE
  8
0
 10
154.839
 11
154.974
 20
63.615
 21
62.436
  0
LINE
  8
0
 10
154.974
 11
155.022
 20
62.436
 21
61.242
  0
LINE
  8
0
 10
155.022
 11
154.71
 20
61.242
 21
58.173
  0
LINE
  8
0
 10
154.71
 11
153.822
 20
58.173
 21
55.308
  0
LINE
  8
0
 10
153.822
 11
152.412
 20
55.308
 21
52.716
  0
LINE
  8
0
 10
152.412
 11
150.549
 20
52.716
 21
50.457
  0
LINE
  8
0
 10
150.549
 11
148.29
 20
50.457
 21
48.591
  0
LINE
  8
0
 10
148.29
 11
145.698
 20
48.591
 21
47.184
  0
LINE
  8
0
 10
145.698
 11
142.836
 20
47.184
 21
46.293
  0
LINE
  8
0
 10
142.836
 11
139.764
 20
46.293
 21
45.981
  0
LINE
  8
0
 10
139.764
 11
136.695
 20
45.981
 21
46.293
  0
LINE
  8
0
 10
136.695
 11
133.833
 20
46.293
 21
47.184
  0
LINE
  8
0
 10
133.833
 11
131.241
 20
47.184
 21
48.591
  0
LINE
  8
0
 10
131.241
 11
128.982
 20
48.591
 21
50.457
  0
LINE
  8
0
 10
128.982
 11
127.119
 20
50.457
 21
52.716
  0
LINE
  8
0
 10
127.119
 11
125.709
 20
52.716
 21
55.308
  0
LINE
  8
0
 10
125.709
 11
124.818
 20
55.308
 21
58.173
  0
LINE
  8
0
 10
124.818
 11
124.509
 20
58.173
 21
61.242
  0
LINE
  8
0
 10
124.509
 11
124.509
 20
61.242
 21
156.771
  0
LINE
  8
0
 10
124.509
 11
122.526
 20
156.771
 21
156.177
  0
LINE
  8
0
 10
122.526
 11
120.699
 20
156.177
 21
155.268
  0
LINE
  8
0
 10
120.699
 11
119.067
 20
155.268
 21
154.074
  0
LINE
  8
0
 10
119.067
 11
117.657
 20
154.074
 21
152.628
  0
LINE
  8
0
 10
117.657
 11
116.502
 20
152.628
 21
150.963
  0
LINE
  8
0
 10
116.502
 11
115.638
 20
150.963
 21
149.112
  0
LINE
  8
0
 10
115.638
 11
115.095
 20
149.112
 21
147.108
  0
LINE
  8
0
 10
115.095
 11
114.906
 20
147.108
 21
144.981
  0
LINE
  8
0
 10
114.906
 11
114.858
 20
144.981
 21
144.486
  0
LINE
  8
0
 10
114.858
 11
114.714
 20
144.486
 21
144.021
  0
LINE
  8
0
 10
114.714
 11
114.486
 20
144.021
 21
143.604
  0
LINE
  8
0
 10
114.486
 11
114.186
 20
143.604
 21
143.238
  0
LINE
  8
0
 10
114.186
 11
113.82
 20
143.238
 21
142.938
  0
LINE
  8
0
 10
113.82
 11
113.403
 20
142.938
 21
142.71
  0
LINE
  8
0
 10
113.403
 11
112.938
 20
142.71
 21
142.566
  0
LINE
  8
0
 10
112.938
 11
112.443
 20
142.566
 21
142.515
  0
LINE
  8
0
 10
112.443
 11
111.945
 20
142.515
 21
142.566
  0
LINE
  8
0
 10
111.945
 11
111.48
 20
142.566
 21
142.71
  0
LINE
  8
0
 10
111.48
 11
111.063
 20
142.71
 21
142.938
  0
LINE
  8
0
 10
111.063
 11
110.697
 20
142.938
 21
143.238
  0
LINE
  8
0
 10
110.697
 11
110.397
 20
143.238
 21
143.604
  0
LINE
  8
0
 10
110.397
 11
110.169
 20
143.604
 21
144.021
  0
LINE
  8
0
 10
110.169
 11
110.025
 20
144.021
 21
144.486
  0
LINE
  8
0
 10
110.025
 11
109.974
 20
144.486
 21
144.981
  0
LINE
  8
0
 10
109.974
 11
109.731
 20
144.981
 21
147.405
  0
LINE
  8
0
 10
109.731
 11
109.029
 20
147.405
 21
149.661
  0
LINE
  8
0
 10
109.029
 11
107.916
 20
149.661
 21
151.707
  0
LINE
  8
0
 10
107.916
 11
106.446
 20
151.707
 21
153.489
  0
LINE
  8
0
 10
106.446
 11
104.664
 20
153.489
 21
154.959
  0
LINE
  8
0
 10
104.664
 11
102.618
 20
154.959
 21
156.072
  0
LINE
  8
0
 10
102.618
 11
100.362
 20
156.072
 21
156.774
  0
LINE
  8
0
 10
100.362
 11
97.938
 20
156.774
 21
157.017
  0
LINE
  8
0
 10
97.938
 11
95.514
 20
157.017
 21
156.774
  0
LINE
  8
0
 10
95.514
 11
93.258
 20
156.774
 21
156.072
  0
LINE
  8
0
 10
93.258
 11
91.212
 20
156.072
 21
154.959
  0
LINE
  8
0
 10
91.212
 11
89.43
 20
154.959
 21
153.489
  0
LINE
  8
0
 10
89.43
 11
87.96
 20
153.489
 21
151.707
  0
LINE
  8
0
 10
87.96
 11
86.85
 20
151.707
 21
149.661
  0
LINE
  8
0
 10
86.85
 11
86.145
 20
149.661
 21
147.405
  0
LINE
  8
0
 10
86.145
 11
85.902
 20
147.405
 21
144.981
  0
LINE
  8
0
 10
85.902
 11
85.851
 20
144.981
 21
144.483
  0
LINE
  8
0
 10
85.851
 11
85.707
 20
144.483
 21
144.021
  0
LINE
  8
0
 10
85.707
 11
85.479
 20
144.021
 21
143.601
  0
LINE
  8
0
 10
85.479
 11
85.179
 20
143.601
 21
143.238
  0
LINE
  8
0
 10
85.179
 11
84.813
 20
143.238
 21
142.938
  0
LINE
  8
0
 10
84.813
 11
84.396
 20
142.938
 21
142.71
  0
LINE
  8
0
 10
84.396
 11
83.931
 20
142.71
 21
142.566
  0
LINE
  8
0
 10
83.931
 11
83.436
 20
142.566
 21
142.515
  0
LINE
  8
0
 10
83.436
 11
82.938
 20
142.515
 21
142.566
  0
LINE
  8
0
 10
82.938
 11
82.476
 20
142.566
 21
142.71
  0
LINE
  8
0
 10
82.476
 11
82.056
 20
142.71
 21
142.938
  0
LINE
  8
0
 10
82.056
 11
81.69
 20
142.938
 21
143.238
  0
LINE
  8
0
 10
81.69
 11
81.39
 20
143.238
 21
143.604
  0
LINE
  8
0
 10
81.39
 11
81.162
 20
143.604
 21
144.021
  0
LINE
  8
0
 10
81.162
 11
81.021
 20
144.021
 21
144.483
  0
LINE
  8
0
 10
81.021
 11
80.97
 20
144.483
 21
144.981
  0
LINE
  8
0
 10
80.97
 11
80.724
 20
144.981
 21
147.405
  0
LINE
  8
0
 10
80.724
 11
80.022
 20
147.405
 21
149.661
  0
LINE
  8
0
 10
80.022
 11
78.909
 20
149.661
 21
151.707
  0
LINE
  8
0
 10
78.909
 11
77.439
 20
151.707
 21
153.489
  0
LINE
  8
0
 10
77.439
 11
75.657
 20
153.489
 21
154.959
  0
LINE
  8
0
 10
75.657
 11
73.611
 20
154.959
 21
156.072
  0
LINE
  8
0
 10
73.611
 11
71.355
 20
156.072
 21
156.774
  0
LINE
  8
0
 10
71.355
 11
68.931
 20
156.774
 21
157.017
  0
LINE
  8
0
 10
68.931
 11
66.51
 20
157.017
 21
156.774
  0
LINE
  8
0
 10
66.51
 11
64.251
 20
156.774
 21
156.072
  0
LINE
  8
0
 10
64.251
 11
62.208
 20
156.072
 21
154.959
  0
LINE
  8
0
 10
62.208
 11
60.426
 20
154.959
 21
153.489
  0
LINE
  8
0
 10
60.426
 11
58.953
 20
153.489
 21
151.707
  0
LINE
  8
0
 10
58.953
 11
57.843
 20
151.707
 21
149.661
  0
LINE
  8
0
 10
57.843
 11
57.141
 20
149.661
 21
147.405
  0
LINE
  8
0
 10
57.141
 11
56.895
 20
147.405
 21
144.981
  0
LINE
  8
0
 10
56.895
 11
56.844
 20
144.981
 21
144.483
  0
LINE
  8
0
 10
56.844
 11
56.703
 20
144.483
 21
144.021
  0
LINE
  8
0
 10
56.703
 11
56.475
 20
144.021
 21
143.604
  0
LINE
  8
0
 10
56.475
 11
56.172
 20
143.604
 21
143.238
  0
LINE
  8
0
 10
56.172
 11
55.809
 20
143.238
 21
142.938
  0
LINE
  8
0
 10
55.809
 11
55.389
 20
142.938
 21
142.71
  0
LINE
  8
0
 10
55.389
 11
54.924
 20
142.71
 21
142.566
  0
LINE
  8
0
 10
54.924
 11
54.429
 20
142.566
 21
142.515
  0
LINE
  8
0
 10
54.429
 11
53.931
 20
142.515
 21
142.566
  0
LINE
  8
0
 10
53.931
 11
53.469
 20
142.566
 21
142.71
  0
LINE
  8
0
 10
53.469
 11
53.049
 20
142.71
 21
142.938
  0
LINE
  8
0
 10
53.049
 11
52.683
 20
142.938
 21
143.238
  0
LINE
  8
0
 10
52.683
 11
52.383
 20
143.238
 21
143.604
  0
LINE
  8
0
 10
52.383
 11
52.155
 20
143.604
 21
144.021
  0
LINE
  8
0
 10
52.155
 11
52.014
 20
144.021
 21
144.483
  0
LINE
  8
0
 10
52.014
 11
51.963
 20
144.483
 21
144.981
  0
LINE
  8
0
 10
56.268
 11
56.4
 20
179.547
 21
180.201
  0
LINE
  8
0
 10
56.4
 11
56.76
 20
180.201
 21
180.735
  0
LINE
  8
0
 10
56.76
 11
57.291
 20
180.735
 21
181.092
  0
LINE
  8
0
 10
57.291
 11
57.945
 20
181.092
 21
181.224
  0
LINE
  8
0
 10
57.945
 11
58.596
 20
181.224
 21
181.092
  0
LINE
  8
0
 10
58.596
 11
59.127
 20
181.092
 21
180.735
  0
LINE
  8
0
 10
59.127
 11
59.484
 20
180.735
 21
180.201
  0
LINE
  8
0
 10
59.484
 11
59.616
 20
180.201
 21
179.547
  0
LINE
  8
0
 10
59.616
 11
59.484
 20
179.547
 21
178.896
  0
LINE
  8
0
 10
59.484
 11
59.127
 20
178.896
 21
178.365
  0
LINE
  8
0
 10
59.127
 11
58.596
 20
178.365
 21
178.005
  0
LINE
  8
0
 10
58.596
 11
57.945
 20
178.005
 21
177.873
  0
LINE
  8
0
 10
57.945
 11
57.291
 20
177.873
 21
178.005
  0
LINE
  8
0
 10
57.291
 11
56.76
 20
178.005
 21
178.365
  0
LINE
  8
0
 10
56.76
 11
56.4
 20
178.365
 21
178.896
  0
LINE
  8
0
 10
56.4
 11
56.268
 20
178.896
 21
179.547
  0
LINE
  8
0
 10
56.268
 11
56.4
 20
199.281
 21
199.932
  0
LINE
  8
0
 10
56.4
 11
56.76
 20
199.932
 21
200.463
  0
LINE
  8
0
 10
56.76
 11
57.291
 20
200.463
 21
200.823
  0
LINE
  8
0
 10
57.291
 11
57.945
 20
200.823
 21
200.955
  0
LINE
  8
0
 10
57.945
 11
58.596
 20
200.955
 21
200.823
  0
LINE
  8
0
 10
58.596
 11
59.127
 20
200.823
 21
200.463
  0
LINE
  8
0
 10
59.127
 11
59.484
 20
200.463
 21
199.932
  0
LINE
  8
0
 10
59.484
 11
59.616
 20
199.932
 21
199.281
  0
LINE
  8
0
 10
59.616
 11
59.484
 20
199.281
 21
198.627
  0
LINE
  8
0
 10
59.484
 11
59.127
 20
198.627
 21
198.096
  0
LINE
  8
0
 10
59.127
 11
58.596
 20
198.096
 21
197.736
  0
LINE
  8
0
 10
58.596
 11
57.945
 20
197.736
 21
197.604
  0
LINE
  8
0
 10
57.945
 11
57.291
 20
197.604
 21
197.736
  0
LINE
  8
0
 10
57.291
 11
56.76
 20
197.736
 21
198.096
  0
LINE
  8
0
 10
56.76
 11
56.4
 20
198.096
 21
198.627
  0
LINE
  8
0
 10
56.4
 11
56.268
 20
198.627
 21
199.281
  0
LINE
  8
0
 10
56.268
 11
56.4
 20
219.015
 21
219.669
  0
LINE
  8
0
 10
56.4
 11
56.76
 20
219.669
 21
220.2
  0
LINE
  8
0
 10
56.76
 11
57.291
 20
220.2
 21
220.56
  0
LINE
  8
0
 10
57.291
 11
57.945
 20
220.56
 21
220.692
  0
LINE
  8
0
 10
57.945
 11
58.596
 20
220.692
 21
220.56
  0
LINE
  8
0
 10
58.596
 11
59.127
 20
220.56
 21
220.2
  0
LINE
  8
0
 10
59.127
 11
59.484
 20
220.2
 21
219.669
  0
LINE
  8
0
 10
59.484
 11
59.616
 20
219.669
 21
219.015
  0
LINE
  8
0
 10
59.616
 11
59.484
 20
219.015
 21
218.364
  0
LINE
  8
0
 10
59.484
 11
59.127
 20
218.364
 21
217.833
  0
LINE
  8
0
 10
59.127
 11
58.596
 20
217.833
 21
217.473
  0
LINE
  8
0
 10
58.596
 11
57.945
 20
217.473
 21
217.341
  0
LINE
  8
0
 10
57.945
 11
57.291
 20
217.341
 21
217.473
  0
LINE
  8
0
 10
57.291
 11
56.76
 20
217.473
 21
217.833
  0
LINE
  8
0
 10
56.76
 11
56.4
 20
217.833
 21
218.364
  0
LINE
  8
0
 10
56.4
 11
56.268
 20
218.364
 21
219.015
  0
LINE
  8
0
 10
56.268
 11
56.4
 20
238.746
 21
239.397
  0
LINE
  8
0
 10
56.4
 11
56.76
 20
239.397
 21
239.931
  0
LINE
  8
0
 10
56.76
 11
57.291
 20
239.931
 21
240.291
  0
LINE
  8
0
 10
57.291
 11
57.945
 20
240.291
 21
240.42
  0
LINE
  8
0
 10
57.945
 11
58.596
 20
240.42
 21
240.291
  0
LINE
  8
0
 10
58.596
 11
59.127
 20
240.291
 21
239.931
  0
LINE
  8
0
 10
59.127
 11
59.484
 20
239.931
 21
239.397
  0
LINE
  8
0
 10
59.484
 11
59.616
 20
239.397
 21
238.746
  0
LINE
  8
0
 10
59.616
 11
59.484
 20
238.746
 21
238.095
  0
LINE
  8
0
 10
59.484
 11
59.127
 20
238.095
 21
237.561
  0
LINE
  8
0
 10
59.127
 11
58.596
 20
237.561
 21
237.204
  0
LINE
  8
0
 10
58.596
 11
57.945
 20
237.204
 21
237.072
  0
LINE
  8
0
 10
57.945
 11
57.291
 20
237.072
 21
237.204
  0
LINE
  8
0
 10
57.291
 11
56.76
 20
237.204
 21
237.561
  0
LINE
  8
0
 10
56.76
 11
56.4
 20
237.561
 21
238.095
  0
LINE
  8
0
 10
56.4
 11
56.268
 20
238.095
 21
238.746
  0
LINE
  8
0
 10
56.268
 11
56.4
 20
258.477
 21
259.128
  0
LINE
  8
0
 10
56.4
 11
56.76
 20
259.128
 21
259.662
  0
LINE
  8
0
 10
56.76
 11
57.291
 20
259.662
 21
260.019
  0
LINE
  8
0
 10
57.291
 11
57.945
 20
260.019
 21
260.151
  0
LINE
  8
0
 10
57.945
 11
58.596
 20
260.151
 21
260.019
  0
LINE
  8
0
 10
58.596
 11
59.127
 20
260.019
 21
259.662
  0
LINE
  8
0
 10
59.127
 11
59.484
 20
259.662
 21
259.128
  0
LINE
  8
0
 10
59.484
 11
59.616
 20
259.128
 21
258.477
  0
LINE
  8
0
 10
59.616
 11
59.484
 20
258.477
 21
257.826
  0
LINE
  8
0
 10
59.484
 11
59.127
 20
257.826
 21
257.292
  0
LINE
  8
0
 10
59.127
 11
58.596
 20
257.292
 21
256.935
  0
LINE
  8
0
 10
58.596
 11
57.945
 20
256.935
 21
256.803
  0
LINE
  8
0
 10
57.945
 11
57.291
 20
256.803
 21
256.935
  0
LINE
  8
0
 10
57.291
 11
56.76
 20
256.935
 21
257.292
  0
LINE
  8
0
 10
56.76
 11
56.4
 20
257.292
 21
257.826
  0
LINE
  8
0
 10
56.4
 11
56.268
 20
257.826
 21
258.477
  0
LINE
  8
0
 10
61.2
 11
61.332
 20
189.414
 21
190.065
  0
LINE
  8
0
 10
61.332
 11
61.692
 20
190.065
 21
190.599
  0
LINE
  8
0
 10
61.692
 11
62.226
 20
190.599
 21
190.959
  0
LINE
  8
0
 10
62.226
 11
62.877
 20
190.959
 21
191.091
  0
LINE
  8
0
 10
62.877
 11
63.528
 20
191.091
 21
190.959
  0
LINE
  8
0
 10
63.528
 11
64.059
 20
190.959
 21
190.599
  0
LINE
  8
0
 10
64.059
 11
64.419
 20
190.599
 21
190.065
  0
LINE
  8
0
 10
64.419
 11
64.551
 20
190.065
 21
189.414
  0
LINE
  8
0
 10
64.551
 11
64.419
 20
189.414
 21
188.76
  0
LINE
  8
0
 10
64.419
 11
64.059
 20
188.76
 21
188.229
  0
LINE
  8
0
 10
64.059
 11
63.528
 20
188.229
 21
187.869
  0
LINE
  8
0
 10
63.528
 11
62.877
 20
187.869
 21
187.74
  0
LINE
  8
0
 10
62.877
 11
62.226
 20
187.74
 21
187.869
  0
LINE
  8
0
 10
62.226
 11
61.692
 20
187.869
 21
188.229
  0
LINE
  8
0
 10
61.692
 11
61.332
 20
188.229
 21
188.76
  0
LINE
  8
0
 10
61.332
 11
61.2
 20
188.76
 21
189.414
  0
LINE
  8
0
 10
61.2
 11
61.332
 20
209.145
 21
209.799
  0
LINE
  8
0
 10
61.332
 11
61.692
 20
209.799
 21
210.333
  0
LINE
  8
0
 10
61.692
 11
62.226
 20
210.333
 21
210.693
  0
LINE
  8
0
 10
62.226
 11
62.877
 20
210.693
 21
210.825
  0
LINE
  8
0
 10
62.877
 11
63.528
 20
210.825
 21
210.693
  0
LINE
  8
0
 10
63.528
 11
64.059
 20
210.693
 21
210.333
  0
LINE
  8
0
 10
64.059
 11
64.419
 20
210.333
 21
209.799
  0
LINE
  8
0
 10
64.419
 11
64.551
 20
209.799
 21
209.145
  0
LINE
  8
0
 10
64.551
 11
64.419
 20
209.145
 21
208.494
  0
LINE
  8
0
 10
64.419
 11
64.059
 20
208.494
 21
207.96
  0
LINE
  8
0
 10
64.059
 11
63.528
 20
207.96
 21
207.603
  0
LINE
  8
0
 10
63.528
 11
62.877
 20
207.603
 21
207.471
  0
LINE
  8
0
 10
62.877
 11
62.226
 20
207.471
 21
207.603
  0
LINE
  8
0
 10
62.226
 11
61.692
 20
207.603
 21
207.96
  0
LINE
  8
0
 10
61.692
 11
61.332
 20
207.96
 21
208.494
  0
LINE
  8
0
 10
61.332
 11
61.2
 20
208.494
 21
209.145
  0
LINE
  8
0
 10
61.2
 11
61.332
 20
228.879
 21
229.533
  0
LINE
  8
0
 10
61.332
 11
61.692
 20
229.533
 21
230.064
  0
LINE
  8
0
 10
61.692
 11
62.226
 20
230.064
 21
230.424
  0
LINE
  8
0
 10
62.226
 11
62.877
 20
230.424
 21
230.556
  0
LINE
  8
0
 10
62.877
 11
63.528
 20
230.556
 21
230.424
  0
LINE
  8
0
 10
63.528
 11
64.059
 20
230.424
 21
230.064
  0
LINE
  8
0
 10
64.059
 11
64.419
 20
230.064
 21
229.533
  0
LINE
  8
0
 10
64.419
 11
64.551
 20
229.533
 21
228.879
  0
LINE
  8
0
 10
64.551
 11
64.419
 20
228.879
 21
228.228
  0
LINE
  8
0
 10
64.419
 11
64.059
 20
228.228
 21
227.697
  0
LINE
  8
0
 10
64.059
 11
63.528
 20
227.697
 21
227.337
  0
LINE
  8
0
 10
63.528
 11
62.877
 20
227.337
 21
227.205
  0
LINE
  8
0
 10
62.877
 11
62.226
 20
227.205
 21
227.337
  0
LINE
  8
0
 10
62.226
 11
61.692
 20
227.337
 21
227.697
  0
LINE
  8
0
 10
61.692
 11
61.332
 20
227.697
 21
228.228
  0
LINE
  8
0
 10
61.332
 11
61.2
 20
228.228
 21
228.879
  0
LINE
  8
0
 10
61.2
 11
61.332
 20
248.613
 21
249.264
  0
LINE
  8
0
 10
61.332
 11
61.692
 20
249.264
 21
249.798
  0
LINE
  8
0
 10
61.692
 11
62.226
 20
249.798
 21
250.155
  0
LINE
  8
0
 10
62.226
 11
62.877
 20
250.155
 21
250.287
  0
LINE
  8
0
 10
62.877
 11
63.528
 20
250.287
 21
250.155
  0
LINE
  8
0
 10
63.528
 11
64.059
 20
250.155
 21
249.798
  0
LINE
  8
0
 10
64.059
 11
64.419
 20
249.798
 21
249.264
  0
LINE
  8
0
 10
64.419
 11
64.551
 20
249.264
 21
248.613
  0
LINE
  8
0
 10
64.551
 11
64.419
 20
248.613
 21
247.959
  0
LINE
  8
0
 10
64.419
 11
64.059
 20
247.959
 21
247.428
  0
LINE
  8
0
 10
64.059
 11
63.528
 20
247.428
 21
247.071
  0
LINE
  8
0
 10
63.528
 11
62.877
 20
247.071
 21
246.939
  0
LINE
  8
0
 10
62.877
 11
62.226
 20
246.939
 21
247.071
  0
LINE
  8
0
 10
62.226
 11
61.692
 20
247.071
 21
247.428
  0
LINE
  8
0
 10
61.692
 11
61.332
 20
247.428
 21
247.959
  0
LINE
  8
0
 10
61.332
 11
61.2
 20
247.959
 21
248.613
  0
LINE
  8
0
 10
61.2
 11
61.332
 20
268.341
 21
268.995
  0
LINE
  8
0
 10
61.332
 11
61.692
 20
268.995
 21
269.529
  0
LINE
  8
0
 10
61.692
 11
62.226
 20
269.529
 21
269.886
  0
LINE
  8
0
 10
62.226
 11
62.877
 20
269.886
 21
270.018
  0
LINE
  8
0
 10
62.877
 11
63.528
 20
270.018
 21
269.886
  0
LINE
  8
0
 10
63.528
 11
64.059
 20
269.886
 21
269.529
  0
LINE
  8
0
 10
64.059
 11
64.419
 20
269.529
 21
268.995
  0
LINE
  8
0
 10
64.419
 11
64.551
 20
268.995
 21
268.341
  0
LINE
  8
0
 10
64.551
 11
64.419
 20
268.341
 21
267.69
  0
LINE
  8
0
 10
64.419
 11
64.059
 20
267.69
 21
267.159
  0
LINE
  8
0
 10
64.059
 11
63.528
 20
267.159
 21
266.799
  0
LINE
  8
0
 10
63.528
 11
62.877
 20
266.799
 21
266.67
  0
LINE
  8
0
 10
62.877
 11
62.226
 20
266.67
 21
266.799
  0
LINE
  8
0
 10
62.226
 11
61.692
 20
266.799
 21
267.159
  0
LINE
  8
0
 10
61.692
 11
61.332
 20
267.159
 21
267.69
  0
LINE
  8
0
 10
61.332
 11
61.2
 20
267.69
 21
268.341
  0
LINE
  8
0
 10
66.132
 11
66.264
 20
199.281
 21
199.932
  0
LINE
  8
0
 10
66.264
 11
66.624
 20
199.932
 21
200.463
  0
LINE
  8
0
 10
66.624
 11
67.155
 20
200.463
 21
200.823
  0
LINE
  8
0
 10
67.155
 11
67.809
 20
200.823
 21
200.955
  0
LINE
  8
0
 10
67.809
 11
68.46
 20
200.955
 21
200.823
  0
LINE
  8
0
 10
68.46
 11
68.994
 20
200.823
 21
200.463
  0
LINE
  8
0
 10
68.994
 11
69.354
 20
200.463
 21
199.932
  0
LINE
  8
0
 10
69.354
 11
69.486
 20
199.932
 21
199.281
  0
LINE
  8
0
 10
69.486
 11
69.354
 20
199.281
 21
198.627
  0
LINE
  8
0
 10
69.354
 11
68.994
 20
198.627
 21
198.096
  0
LINE
  8
0
 10
68.994
 11
68.46
 20
198.096
 21
197.736
  0
LINE
  8
0
 10
68.46
 11
67.809
 20
197.736
 21
197.604
  0
LINE
  8
0
 10
67.809
 11
67.155
 20
197.604
 21
197.736
  0
LINE
  8
0
 10
67.155
 11
66.624
 20
197.736
 21
198.096
  0
LINE
  8
0
 10
66.624
 11
66.264
 20
198.096
 21
198.627
  0
LINE
  8
0
 10
66.264
 11
66.132
 20
198.627
 21
199.281
  0
LINE
  8
0
 10
66.132
 11
66.264
 20
219.015
 21
219.669
  0
LINE
  8
0
 10
66.264
 11
66.624
 20
219.669
 21
220.2
  0
LINE
  8
0
 10
66.624
 11
67.155
 20
220.2
 21
220.56
  0
LINE
  8
0
 10
67.155
 11
67.809
 20
220.56
 21
220.692
  0
LINE
  8
0
 10
67.809
 11
68.46
 20
220.692
 21
220.56
  0
LINE
  8
0
 10
68.46
 11
68.994
 20
220.56
 21
220.2
  0
LINE
  8
0
 10
68.994
 11
69.354
 20
220.2
 21
219.669
  0
LINE
  8
0
 10
69.354
 11
69.486
 20
219.669
 21
219.015
  0
LINE
  8
0
 10
69.486
 11
69.354
 20
219.015
 21
218.364
  0
LINE
  8
0
 10
69.354
 11
68.994
 20
218.364
 21
217.833
  0
LINE
  8
0
 10
68.994
 11
68.46
 20
217.833
 21
217.473
  0
LINE
  8
0
 10
68.46
 11
67.809
 20
217.473
 21
217.341
  0
LINE
  8
0
 10
67.809
 11
67.155
 20
217.341
 21
217.473
  0
LINE
  8
0
 10
67.155
 11
66.624
 20
217.473
 21
217.833
  0
LINE
  8
0
 10
66.624
 11
66.264
 20
217.833
 21
218.364
  0
LINE
  8
0
 10
66.264
 11
66.132
 20
218.364
 21
219.015
  0
LINE
  8
0
 10
66.132
 11
66.264
 20
238.746
 21
239.397
  0
LINE
  8
0
 10
66.264
 11
66.624
 20
239.397
 21
239.931
  0
LINE
  8
0
 10
66.624
 11
67.155
 20
239.931
 21
240.291
  0
LINE
  8
0
 10
67.155
 11
67.809
 20
240.291
 21
240.42
  0
LINE
  8
0
 10
67.809
 11
68.46
 20
240.42
 21
240.291
  0
LINE
  8
0
 10
68.46
 11
68.994
 20
240.291
 21
239.931
  0
LINE
  8
0
 10
68.994
 11
69.354
 20
239.931
 21
239.397
  0
LINE
  8
0
 10
69.354
 11
69.486
 20
239.397
 21
238.746
  0
LINE
  8
0
 10
69.486
 11
69.354
 20
238.746
 21
238.095
  0
LINE
  8
0
 10
69.354
 11
68.994
 20
238.095
 21
237.561
  0
LINE
  8
0
 10
68.994
 11
68.46
 20
237.561
 21
237.204
  0
LINE
  8
0
 10
68.46
 11
67.809
 20
237.204
 21
237.072
  0
LINE
  8
0
 10
67.809
 11
67.155
 20
237.072
 21
237.204
  0
LINE
  8
0
 10
67.155
 11
66.624
 20
237.204
 21
237.561
  0
LINE
  8
0
 10
66.624
 11
66.264
 20
237.561
 21
238.095
  0
LINE
  8
0
 10
66.264
 11
66.132
 20
238.095
 21
238.746
  0
LINE
  8
0
 10
66.132
 11
66.264
 20
258.477
 21
259.128
  0
LINE
  8
0
 10
66.264
 11
66.624
 20
259.128
 21
259.662
  0
LINE
  8
0
 10
66.624
 11
67.155
 20
259.662
 21
260.019
  0
LINE
  8
0
 10
67.155
 11
67.809
 20
260.019
 21
260.151
  0
LINE
  8
0
 10
67.809
 11
68.46
 20
260.151
 21
260.019
  0
LINE
  8
0
 10
68.46
 11
68.994
 20
260.019
 21
259.662
  0
LINE
  8
0
 10
68.994
 11
69.354
 20
259.662
 21
259.128
  0
LINE
  8
0
 10
69.354
 11
69.486
 20
259.128
 21
258.477
  0
LINE
  8
0
 10
69.486
 11
69.354
 20
258.477
 21
257.826
  0
LINE
  8
0
 10
69.354
 11
68.994
 20
257.826
 21
257.292
  0
LINE
  8
0
 10
68.994
 11
68.46
 20
257.292
 21
256.935
  0
LINE
  8
0
 10
68.46
 11
67.809
 20
256.935
 21
256.803
  0
LINE
  8
0
 10
67.809
 11
67.155
 20
256.803
 21
256.935
  0
LINE
  8
0
 10
67.155
 11
66.624
 20
256.935
 21
257.292
  0
LINE
  8
0
 10
66.624
 11
66.264
 20
257.292
 21
257.826
  0
LINE
  8
0
 10
66.264
 11
66.132
 20
257.826
 21
258.477
  0
LINE
  8
0
 10
71.067
 11
71.196
 20
189.414
 21
190.065
  0
LINE
  8
0
 10
71.196
 11
71.556
 20
190.065
 21
190.599
  0
LINE
  8
0
 10
71.556
 11
72.09
 20
190.599
 21
190.959
  0
LINE
  8
0
 10
72.09
 11
72.741
 20
190.959
 21
191.091
  0
LINE
  8
0
 10
72.741
 11
73.392
 20
191.091
 21
190.959
  0
LINE
  8
0
 10
73.392
 11
73.923
 20
190.959
 21
190.599
  0
LINE
  8
0
 10
73.923
 11
74.283
 20
190.599
 21
190.065
  0
LINE
  8
0
 10
74.283
 11
74.415
 20
190.065
 21
189.414
  0
LINE
  8
0
 10
74.415
 11
74.283
 20
189.414
 21
188.76
  0
LINE
  8
0
 10
74.283
 11
73.923
 20
188.76
 21
188.229
  0
LINE
  8
0
 10
73.923
 11
73.392
 20
188.229
 21
187.869
  0
LINE
  8
0
 10
73.392
 11
72.741
 20
187.869
 21
187.74
  0
LINE
  8
0
 10
72.741
 11
72.09
 20
187.74
 21
187.869
  0
LINE
  8
0
 10
72.09
 11
71.556
 20
187.869
 21
188.229
  0
LINE
  8
0
 10
71.556
 11
71.196
 20
188.229
 21
188.76
  0
LINE
  8
0
 10
71.196
 11
71.067
 20
188.76
 21
189.414
  0
LINE
  8
0
 10
71.067
 11
71.196
 20
209.145
 21
209.799
  0
LINE
  8
0
 10
71.196
 11
71.556
 20
209.799
 21
210.333
  0
LINE
  8
0
 10
71.556
 11
72.09
 20
210.333
 21
210.693
  0
LINE
  8
0
 10
72.09
 11
72.741
 20
210.693
 21
210.825
  0
LINE
  8
0
 10
72.741
 11
73.392
 20
210.825
 21
210.693
  0
LINE
  8
0
 10
73.392
 11
73.923
 20
210.693
 21
210.333
  0
LINE
  8
0
 10
73.923
 11
74.283
 20
210.333
 21
209.799
  0
LINE
  8
0
 10
74.283
 11
74.415
 20
209.799
 21
209.145
  0
LINE
  8
0
 10
74.415
 11
74.283
 20
209.145
 21
208.494
  0
LINE
  8
0
 10
74.283
 11
73.923
 20
208.494
 21
207.96
  0
LINE
  8
0
 10
73.923
 11
73.392
 20
207.96
 21
207.603
  0
LINE
  8
0
 10
73.392
 11
72.741
 20
207.603
 21
207.471
  0
LINE
  8
0
 10
72.741
 11
72.09
 20
207.471
 21
207.603
  0
LINE
  8
0
 10
72.09
 11
71.556
 20
207.603
 21
207.96
  0
LINE
  8
0
 10
71.556
 11
71.196
 20
207.96
 21
208.494
  0
LINE
  8
0
 10
71.196
 11
71.067
 20
208.494
 21
209.145
  0
LINE
  8
0
 10
71.067
 11
71.196
 20
228.879
 21
229.533
  0
LINE
  8
0
 10
71.196
 11
71.556
 20
229.533
 21
230.064
  0
LINE
  8
0
 10
71.556
 11
72.09
 20
230.064
 21
230.424
  0
LINE
  8
0
 10
72.09
 11
72.741
 20
230.424
 21
230.556
  0
LINE
  8
0
 10
72.741
 11
73.392
 20
230.556
 21
230.424
  0
LINE
  8
0
 10
73.392
 11
73.923
 20
230.424
 21
230.064
  0
LINE
  8
0
 10
73.923
 11
74.283
 20
230.064
 21
229.533
  0
LINE
  8
0
 10
74.283
 11
74.415
 20
229.533
 21
228.879
  0
LINE
  8
0
 10
74.415
 11
74.283
 20
228.879
 21
228.228
  0
LINE
  8
0
 10
74.283
 11
73.923
 20
228.228
 21
227.697
  0
LINE
  8
0
 10
73.923
 11
73.392
 20
227.697
 21
227.337
  0
LINE
  8
0
 10
73.392
 11
72.741
 20
227.337
 21
227.205
  0
LINE
  8
0
 10
72.741
 11
72.09
 20
227.205
 21
227.337
  0
LINE
  8
0
 10
72.09
 11
71.556
 20
227.337
 21
227.697
  0
LINE
  8
0
 10
71.556
 11
71.196
 20
227.697
 21
228.228
  0
LINE
  8
0
 10
71.196
 11
71.067
 20
228.228
 21
228.879
  0
LINE
  8
0
 10
71.067
 11
71.196
 20
248.613
 21
249.264
  0
LINE
  8
0
 10
71.196
 11
71.556
 20
249.264
 21
249.798
  0
LINE
  8
0
 10
71.556
 11
72.09
 20
249.798
 21
250.155
  0
LINE
  8
0
 10
72.09
 11
72.741
 20
250.155
 21
250.287
  0
LINE
  8
0
 10
72.741
 11
73.392
 20
250.287
 21
250.155
  0
LINE
  8
0
 10
73.392
 11
73.923
 20
250.155
 21
249.798
  0
LINE
  8
0
 10
73.923
 11
74.283
 20
249.798
 21
249.264
  0
LINE
  8
0
 10
74.283
 11
74.415
 20
249.264
 21
248.613
  0
LINE
  8
0
 10
74.415
 11
74.283
 20
248.613
 21
247.959
  0
LINE
  8
0
 10
74.283
 11
73.923
 20
247.959
 21
247.428
  0
LINE
  8
0
 10
73.923
 11
73.392
 20
247.428
 21
247.071
  0
LINE
  8
0
 10
73.392
 11
72.741
 20
247.071
 21
246.939
  0
LINE
  8
0
 10
72.741
 11
72.09
 20
246.939
 21
247.071
  0
LINE
  8
0
 10
72.09
 11
71.556
 20
247.071
 21
247.428
  0
LINE
  8
0
 10
71.556
 11
71.196
 20
247.428
 21
247.959
  0
LINE
  8
0
 10
71.196
 11
71.067
 20
247.959
 21
248.613
  0
LINE
  8
0
 10
71.067
 11
71.196
 20
268.341
 21
268.995
  0
LINE
  8
0
 10
71.196
 11
71.556
 20
268.995
 21
269.529
  0
LINE
  8
0
 10
71.556
 11
72.09
 20
269.529
 21
269.886
  0
LINE
  8
0
 10
72.09
 11
72.741
 20
269.886
 21
270.018
  0
LINE
  8
0
 10
72.741
 11
73.392
 20
270.018
 21
269.886
  0
LINE
  8
0
 10
73.392
 11
73.923
 20
269.886
 21
269.529
  0
LINE
  8
0
 10
73.923
 11
74.283
 20
269.529
 21
268.995
  0
LINE
  8
0
 10
74.283
 11
74.415
 20
268.995
 21
268.341
  0
LINE
  8
0
 10
74.415
 11
74.283
 20
268.341
 21
267.69
  0
LINE
  8
0
 10
74.283
 11
73.923
 20
267.69
 21
267.159
  0
LINE
  8
0
 10
73.923
 11
73.392
 20
267.159
 21
266.799
  0
LINE
  8
0
 10
73.392
 11
72.741
 20
266.799
 21
266.67
  0
LINE
  8
0
 10
72.741
 11
72.09
 20
266.67
 21
266.799
  0
LINE
  8
0
 10
72.09
 11
71.556
 20
266.799
 21
267.159
  0
LINE
  8
0
 10
71.556
 11
71.196
 20
267.159
 21
267.69
  0
LINE
  8
0
 10
71.196
 11
71.067
 20
267.69
 21
268.341
  0
LINE
  8
0
 10
75.999
 11
76.131
 20
199.281
 21
199.932
  0
LINE
  8
0
 10
76.131
 11
76.488
 20
199.932
 21
200.463
  0
LINE
  8
0
 10
76.488
 11
77.022
 20
200.463
 21
200.823
  0
LINE
  8
0
 10
77.022
 11
77.673
 20
200.823
 21
200.955
  0
LINE
  8
0
 10
77.673
 11
78.324
 20
200.955
 21
200.823
  0
LINE
  8
0
 10
78.324
 11
78.858
 20
200.823
 21
200.463
  0
LINE
  8
0
 10
78.858
 11
79.215
 20
200.463
 21
199.932
  0
LINE
  8
0
 10
79.215
 11
79.347
 20
199.932
 21
199.281
  0
LINE
  8
0
 10
79.347
 11
79.215
 20
199.281
 21
198.627
  0
LINE
  8
0
 10
79.215
 11
78.858
 20
198.627
 21
198.096
  0
LINE
  8
0
 10
78.858
 11
78.324
 20
198.096
 21
197.736
  0
LINE
  8
0
 10
78.324
 11
77.673
 20
197.736
 21
197.604
  0
LINE
  8
0
 10
77.673
 11
77.022
 20
197.604
 21
197.736
  0
LINE
  8
0
 10
77.022
 11
76.488
 20
197.736
 21
198.096
  0
LINE
  8
0
 10
76.488
 11
76.131
 20
198.096
 21
198.627
  0
LINE
  8
0
 10
76.131
 11
75.999
 20
198.627
 21
199.281
  0
LINE
  8
0
 10
75.999
 11
76.131
 20
219.015
 21
219.669
  0
LINE
  8
0
 10
76.131
 11
76.488
 20
219.669
 21
220.2
  0
LINE
  8
0
 10
76.488
 11
77.022
 20
220.2
 21
220.56
  0
LINE
  8
0
 10
77.022
 11
77.673
 20
220.56
 21
220.692
  0
LINE
  8
0
 10
77.673
 11
78.324
 20
220.692
 21
220.56
  0
LINE
  8
0
 10
78.324
 11
78.858
 20
220.56
 21
220.2
  0
LINE
  8
0
 10
78.858
 11
79.215
 20
220.2
 21
219.669
  0
LINE
  8
0
 10
79.215
 11
79.347
 20
219.669
 21
219.015
  0
LINE
  8
0
 10
79.347
 11
79.215
 20
219.015
 21
218.364
  0
LINE
  8
0
 10
79.215
 11
78.858
 20
218.364
 21
217.833
  0
LINE
  8
0
 10
78.858
 11
78.324
 20
217.833
 21
217.473
  0
LINE
  8
0
 10
78.324
 11
77.673
 20
217.473
 21
217.341
  0
LINE
  8
0
 10
77.673
 11
77.022
 20
217.341
 21
217.473
  0
LINE
  8
0
 10
77.022
 11
76.488
 20
217.473
 21
217.833
  0
LINE
  8
0
 10
76.488
 11
76.131
 20
217.833
 21
218.364
  0
LINE
  8
0
 10
76.131
 11
75.999
 20
218.364
 21
219.015
  0
LINE
  8
0
 10
75.999
 11
76.131
 20
238.746
 21
239.397
  0
LINE
  8
0
 10
76.131
 11
76.488
 20
239.397
 21
239.931
  0
LINE
  8
0
 10
76.488
 11
77.022
 20
239.931
 21
240.291
  0
LINE
  8
0
 10
77.022
 11
77.673
 20
240.291
 21
240.42
  0
LINE
  8
0
 10
77.673
 11
78.324
 20
240.42
 21
240.291
  0
LINE
  8
0
 10
78.324
 11
78.858
 20
240.291
 21
239.931
  0
LINE
  8
0
 10
78.858
 11
79.215
 20
239.931
 21
239.397
  0
LINE
  8
0
 10
79.215
 11
79.347
 20
239.397
 21
238.746
  0
LINE
  8
0
 10
79.347
 11
79.215
 20
238.746
 21
238.095
  0
LINE
  8
0
 10
79.215
 11
78.858
 20
238.095
 21
237.561
  0
LINE
  8
0
 10
78.858
 11
78.324
 20
237.561
 21
237.204
  0
LINE
  8
0
 10
78.324
 11
77.673
 20
237.204
 21
237.072
  0
LINE
  8
0
 10
77.673
 11
77.022
 20
237.072
 21
237.204
  0
LINE
  8
0
 10
77.022
 11
76.488
 20
237.204
 21
237.561
  0
LINE
  8
0
 10
76.488
 11
76.131
 20
237.561
 21
238.095
  0
LINE
  8
0
 10
76.131
 11
75.999
 20
238.095
 21
238.746
  0
LINE
  8
0
 10
75.999
 11
76.131
 20
258.477
 21
259.128
  0
LINE
  8
0
 10
76.131
 11
76.488
 20
259.128
 21
259.662
  0
LINE
  8
0
 10
76.488
 11
77.022
 20
259.662
 21
260.019
  0
LINE
  8
0
 10
77.022
 11
77.673
 20
260.019
 21
260.151
  0
LINE
  8
0
 10
77.673
 11
78.324
 20
260.151
 21
260.019
  0
LINE
  8
0
 10
78.324
 11
78.858
 20
260.019
 21
259.662
  0
LINE
  8
0
 10
78.858
 11
79.215
 20
259.662
 21
259.128
  0
LINE
  8
0
 10
79.215
 11
79.347
 20
259.128
 21
258.477
  0
LINE
  8
0
 10
79.347
 11
79.215
 20
258.477
 21
257.826
  0
LINE
  8
0
 10
79.215
 11
78.858
 20
257.826
 21
257.292
  0
LINE
  8
0
 10
78.858
 11
78.324
 20
257.292
 21
256.935
  0
LINE
  8
0
 10
78.324
 11
77.673
 20
256.935
 21
256.803
  0
LINE
  8
0
 10
77.673
 11
77.022
 20
256.803
 21
256.935
  0
LINE
  8
0
 10
77.022
 11
76.488
 20
256.935
 21
257.292
  0
LINE
  8
0
 10
76.488
 11
76.131
 20
257.292
 21
257.826
  0
LINE
  8
0
 10
76.131
 11
75.999
 20
257.826
 21
258.477
  0
LINE
  8
0
 10
80.931
 11
81.063
 20
209.145
 21
209.799
  0
LINE
  8
0
 10
81.063
 11
81.423
 20
209.799
 21
210.333
  0
LINE
  8
0
 10
81.423
 11
81.954
 20
210.333
 21
210.693
  0
LINE
  8
0
 10
81.954
 11
82.605
 20
210.693
 21
210.825
  0
LINE
  8
0
 10
82.605
 11
83.259
 20
210.825
 21
210.693
  0
LINE
  8
0
 10
83.259
 11
83.79
 20
210.693
 21
210.333
  0
LINE
  8
0
 10
83.79
 11
84.15
 20
210.333
 21
209.799
  0
LINE
  8
0
 10
84.15
 11
84.279
 20
209.799
 21
209.145
  0
LINE
  8
0
 10
84.279
 11
84.15
 20
209.145
 21
208.494
  0
LINE
  8
0
 10
84.15
 11
83.79
 20
208.494
 21
207.96
  0
LINE
  8
0
 10
83.79
 11
83.259
 20
207.96
 21
207.603
  0
LINE
  8
0
 10
83.259
 11
82.605
 20
207.603
 21
207.471
  0
LINE
  8
0
 10
82.605
 11
81.954
 20
207.471
 21
207.603
  0
LINE
  8
0
 10
81.954
 11
81.423
 20
207.603
 21
207.96
  0
LINE
  8
0
 10
81.423
 11
81.063
 20
207.96
 21
208.494
  0
LINE
  8
0
 10
81.063
 11
80.931
 20
208.494
 21
209.145
  0
LINE
  8
0
 10
80.931
 11
81.063
 20
228.879
 21
229.533
  0
LINE
  8
0
 10
81.063
 11
81.423
 20
229.533
 21
230.064
  0
LINE
  8
0
 10
81.423
 11
81.954
 20
230.064
 21
230.424
  0
LINE
  8
0
 10
81.954
 11
82.605
 20
230.424
 21
230.556
  0
LINE
  8
0
 10
82.605
 11
83.259
 20
230.556
 21
230.424
  0
LINE
  8
0
 10
83.259
 11
83.79
 20
230.424
 21
230.064
  0
LINE
  8
0
 10
83.79
 11
84.15
 20
230.064
 21
229.533
  0
LINE
  8
0
 10
84.15
 11
84.279
 20
229.533
 21
228.879
  0
LINE
  8
0
 10
84.279
 11
84.15
 20
228.879
 21
228.228
  0
LINE
  8
0
 10
84.15
 11
83.79
 20
228.228
 21
227.697
  0
LINE
  8
0
 10
83.79
 11
83.259
 20
227.697
 21
227.337
  0
LINE
  8
0
 10
83.259
 11
82.605
 20
227.337
 21
227.205
  0
LINE
  8
0
 10
82.605
 11
81.954
 20
227.205
 21
227.337
  0
LINE
  8
0
 10
81.954
 11
81.423
 20
227.337
 21
227.697
  0
LINE
  8
0
 10
81.423
 11
81.063
 20
227.697
 21
228.228
  0
LINE
  8
0
 10
81.063
 11
80.931
 20
228.228
 21
228.879
  0
LINE
  8
0
 10
80.931
 11
81.063
 20
248.613
 21
249.264
  0
LINE
  8
0
 10
81.063
 11
81.423
 20
249.264
 21
249.798
  0
LINE
  8
0
 10
81.423
 11
81.954
 20
249.798
 21
250.155
  0
LINE
  8
0
 10
81.954
 11
82.605
 20
250.155
 21
250.287
  0
LINE
  8
0
 10
82.605
 11
83.259
 20
250.287
 21
250.155
  0
LINE
  8
0
 10
83.259
 11
83.79
 20
250.155
 21
249.798
  0
LINE
  8
0
 10
83.79
 11
84.15
 20
249.798
 21
249.264
  0
LINE
  8
0
 10
84.15
 11
84.279
 20
249.264
 21
248.613
  0
LINE
  8
0
 10
84.279
 11
84.15
 20
248.613
 21
247.959
  0
LINE
  8
0
 10
84.15
 11
83.79
 20
247.959
 21
247.428
  0
LINE
  8
0
 10
83.79
 11
83.259
 20
247.428
 21
247.071
  0
LINE
  8
0
 10
83.259
 11
82.605
 20
247.071
 21
246.939
  0
LINE
  8
0
 10
82.605
 11
81.954
 20
246.939
 21
247.071
  0
LINE
  8
0
 10
81.954
 11
81.423
 20
247.071
 21
247.428
  0
LINE
  8
0
 10
81.423
 11
81.063
 20
247.428
 21
247.959
  0
LINE
  8
0
 10
81.063
 11
80.931
 20
247.959
 21
248.613
  0
LINE
  8
0
 10
80.931
 11
81.063
 20
268.341
 21
268.995
  0
LINE
  8
0
 10
81.063
 11
81.423
 20
268.995
 21
269.529
  0
LINE
  8
0
 10
81.423
 11
81.954
 20
269.529
 21
269.886
  0
LINE
  8
0
 10
81.954
 11
82.605
 20
269.886
 21
270.018
  0
LINE
  8
0
 10
82.605
 11
83.259
 20
270.018
 21
269.886
  0
LINE
  8
0
 10
83.259
 11
83.79
 20
269.886
 21
269.529
  0
LINE
  8
0
 10
83.79
 11
84.15
 20
269.529
 21
268.995
  0
LINE
  8
0
 10
84.15
 11
84.279
 20
268.995
 21
268.341
  0
LINE
  8
0
 10
84.279
 11
84.15
 20
268.341
 21
267.69
  0
LINE
  8
0
 10
84.15
 11
83.79
 20
267.69
 21
267.159
  0
LINE
  8
0
 10
83.79
 11
83.259
 20
267.159
 21
266.799
  0
LINE
  8
0
 10
83.259
 11
82.605
 20
266.799
 21
266.67
  0
LINE
  8
0
 10
82.605
 11
81.954
 20
266.67
 21
266.799
  0
LINE
  8
0
 10
81.954
 11
81.423
 20
266.799
 21
267.159
  0
LINE
  8
0
 10
81.423
 11
81.063
 20
267.159
 21
267.69
  0
LINE
  8
0
 10
81.063
 11
80.931
 20
267.69
 21
268.341
  0
LINE
  8
0
 10
85.863
 11
85.995
 20
199.281
 21
199.932
  0
LINE
  8
0
 10
85.995
 11
86.355
 20
199.932
 21
200.463
  0
LINE
  8
0
 10
86.355
 11
86.886
 20
200.463
 21
200.823
  0
LINE
  8
0
 10
86.886
 11
87.537
 20
200.823
 21
200.955
  0
LINE
  8
0
 10
87.537
 11
88.191
 20
200.955
 21
200.823
  0
LINE
  8
0
 10
88.191
 11
88.722
 20
200.823
 21
200.463
  0
LINE
  8
0
 10
88.722
 11
89.082
 20
200.463
 21
199.932
  0
LINE
  8
0
 10
89.082
 11
89.214
 20
199.932
 21
199.281
  0
LINE
  8
0
 10
89.214
 11
89.082
 20
199.281
 21
198.627
  0
LINE
  8
0
 10
89.082
 11
88.722
 20
198.627
 21
198.096
  0
LINE
  8
0
 10
88.722
 11
88.191
 20
198.096
 21
197.736
  0
LINE
  8
0
 10
88.191
 11
87.537
 20
197.736
 21
197.604
  0
LINE
  8
0
 10
87.537
 11
86.886
 20
197.604
 21
197.736
  0
LINE
  8
0
 10
86.886
 11
86.355
 20
197.736
 21
198.096
  0
LINE
  8
0
 10
86.355
 11
85.995
 20
198.096
 21
198.627
  0
LINE
  8
0
 10
85.995
 11
85.863
 20
198.627
 21
199.281
  0
LINE
  8
0
 10
85.863
 11
85.995
 20
219.015
 21
219.669
  0
LINE
  8
0
 10
85.995
 11
86.355
 20
219.669
 21
220.2
  0
LINE
  8
0
 10
86.355
 11
86.886
 20
220.2
 21
220.56
  0
LINE
  8
0
 10
86.886
 11
87.537
 20
220.56
 21
220.692
  0
LINE
  8
0
 10
87.537
 11
88.191
 20
220.692
 21
220.56
  0
LINE
  8
0
 10
88.191
 11
88.722
 20
220.56
 21
220.2
  0
LINE
  8
0
 10
88.722
 11
89.082
 20
220.2
 21
219.669
  0
LINE
  8
0
 10
89.082
 11
89.214
 20
219.669
 21
219.015
  0
LINE
  8
0
 10
89.214
 11
89.082
 20
219.015
 21
218.364
  0
LINE
  8
0
 10
89.082
 11
88.722
 20
218.364
 21
217.833
  0
LINE
  8
0
 10
88.722
 11
88.191
 20
217.833
 21
217.473
  0
LINE
  8
0
 10
88.191
 11
87.537
 20
217.473
 21
217.341
  0
LINE
  8
0
 10
87.537
 11
86.886
 20
217.341
 21
217.473
  0
LINE
  8
0
 10
86.886
 11
86.355
 20
217.473
 21
217.833
  0
LINE
  8
0
 10
86.355
 11
85.995
 20
217.833
 21
218.364
  0
LINE
  8
0
 10
85.995
 11
85.863
 20
218.364
 21
219.015
  0
LINE
  8
0
 10
85.863
 11
85.995
 20
238.746
 21
239.397
  0
LINE
  8
0
 10
85.995
 11
86.355
 20
239.397
 21
239.931
  0
LINE
  8
0
 10
86.355
 11
86.886
 20
239.931
 21
240.291
  0
LINE
  8
0
 10
86.886
 11
87.537
 20
240.291
 21
240.42
  0
LINE
  8
0
 10
87.537
 11
88.191
 20
240.42
 21
240.291
  0
LINE
  8
0
 10
88.191
 11
88.722
 20
240.291
 21
239.931
  0
LINE
  8
0
 10
88.722
 11
89.082
 20
239.931
 21
239.397
  0
LINE
  8
0
 10
89.082
 11
89.214
 20
239.397
 21
238.746
  0
LINE
  8
0
 10
89.214
 11
89.082
 20
238.746
 21
238.095
  0
LINE
  8
0
 10
89.082
 11
88.722
 20
238.095
 21
237.561
  0
LINE
  8
0
 10
88.722
 11
88.191
 20
237.561
 21
237.204
  0
LINE
  8
0
 10
88.191
 11
87.537
 20
237.204
 21
237.072
  0
LINE
  8
0
 10
87.537
 11
86.886
 20
237.072
 21
237.204
  0
LINE
  8
0
 10
86.886
 11
86.355
 20
237.204
 21
237.561
  0
LINE
  8
0
 10
86.355
 11
85.995
 20
237.561
 21
238.095
  0
LINE
  8
0
 10
85.995
 11
85.863
 20
238.095
 21
238.746
  0
LINE
  8
0
 10
85.863
 11
85.995
 20
258.477
 21
259.128
  0
LINE
  8
0
 10
85.995
 11
86.355
 20
259.128
 21
259.662
  0
LINE
  8
0
 10
86.355
 11
86.886
 20
259.662
 21
260.019
  0
LINE
  8
0
 10
86.886
 11
87.537
 20
260.019
 21
260.151
  0
LINE
  8
0
 10
87.537
 11
88.191
 20
260.151
 21
260.019
  0
LINE
  8
0
 10
88.191
 11
88.722
 20
260.019
 21
259.662
  0
LINE
  8
0
 10
88.722
 11
89.082
 20
259.662
 21
259.128
  0
LINE
  8
0
 10
89.082
 11
89.214
 20
259.128
 21
258.477
  0
LINE
  8
0
 10
89.214
 11
89.082
 20
258.477
 21
257.826
  0
LINE
  8
0
 10
89.082
 11
88.722
 20
257.826
 21
257.292
  0
LINE
  8
0
 10
88.722
 11
88.191
 20
257.292
 21
256.935
  0
LINE
  8
0
 10
88.191
 11
87.537
 20
256.935
 21
256.803
  0
LINE
  8
0
 10
87.537
 11
86.886
 20
256.803
 21
256.935
  0
LINE
  8
0
 10
86.886
 11
86.355
 20
256.935
 21
257.292
  0
LINE
  8
0
 10
86.355
 11
85.995
 20
257.292
 21
257.826
  0
LINE
  8
0
 10
85.995
 11
85.863
 20
257.826
 21
258.477
  0
LINE
  8
0
 10
90.798
 11
90.927
 20
209.145
 21
209.799
  0
LINE
  8
0
 10
90.927
 11
91.287
 20
209.799
 21
210.333
  0
LINE
  8
0
 10
91.287
 11
91.818
 20
210.333
 21
210.693
  0
LINE
  8
0
 10
91.818
 11
92.469
 20
210.693
 21
210.825
  0
LINE
  8
0
 10
92.469
 11
93.123
 20
210.825
 21
210.693
  0
LINE
  8
0
 10
93.123
 11
93.657
 20
210.693
 21
210.333
  0
LINE
  8
0
 10
93.657
 11
94.014
 20
210.333
 21
209.799
  0
LINE
  8
0
 10
94.014
 11
94.146
 20
209.799
 21
209.145
  0
LINE
  8
0
 10
94.146
 11
94.014
 20
209.145
 21
208.494
  0
LINE
  8
0
 10
94.014
 11
93.657
 20
208.494
 21
207.96
  0
LINE
  8
0
 10
93.657
 11
93.123
 20
207.96
 21
207.603
  0
LINE
  8
0
 10
93.123
 11
92.469
 20
207.603
 21
207.471
  0
LINE
  8
0
 10
92.469
 11
91.818
 20
207.471
 21
207.603
  0
LINE
  8
0
 10
91.818
 11
91.287
 20
207.603
 21
207.96
  0
LINE
  8
0
 10
91.287
 11
90.927
 20
207.96
 21
208.494
  0
LINE
  8
0
 10
90.927
 11
90.798
 20
208.494
 21
209.145
  0
LINE
  8
0
 10
90.798
 11
90.927
 20
228.879
 21
229.533
  0
LINE
  8
0
 10
90.927
 11
91.287
 20
229.533
 21
230.064
  0
LINE
  8
0
 10
91.287
 11
91.818
 20
230.064
 21
230.424
  0
LINE
  8
0
 10
91.818
 11
92.469
 20
230.424
 21
230.556
  0
LINE
  8
0
 10
92.469
 11
93.123
 20
230.556
 21
230.424
  0
LINE
  8
0
 10
93.123
 11
93.657
 20
230.424
 21
230.064
  0
LINE
  8
0
 10
93.657
 11
94.014
 20
230.064
 21
229.533
  0
LINE
  8
0
 10
94.014
 11
94.146
 20
229.533
 21
228.879
  0
LINE
  8
0
 10
94.146
 11
94.014
 20
228.879
 21
228.228
  0
LINE
  8
0
 10
94.014
 11
93.657
 20
228.228
 21
227.697
  0
LINE
  8
0
 10
93.657
 11
93.123
 20
227.697
 21
227.337
  0
LINE
  8
0
 10
93.123
 11
92.469
 20
227.337
 21
227.205
  0
LINE
  8
0
 10
92.469
 11
91.818
 20
227.205
 21
227.337
  0
LINE
  8
0
 10
91.818
 11
91.287
 20
227.337
 21
227.697
  0
LINE
  8
0
 10
91.287
 11
90.927
 20
227.697
 21
228.228
  0
LINE
  8
0
 10
90.927
 11
90.798
 20
228.228
 21
228.879
  0
LINE
  8
0
 10
90.798
 11
90.927
 20
248.613
 21
249.264
  0
LINE
  8
0
 10
90.927
 11
91.287
 20
249.264
 21
249.798
  0
LINE
  8
0
 10
91.287
 11
91.818
 20
249.798
 21
250.155
  0
LINE
  8
0
 10
91.818
 11
92.469
 20
250.155
 21
250.287
  0
LINE
  8
0
 10
92.469
 11
93.123
 20
250.287
 21
250.155
  0
LINE
  8
0
 10
93.123
 11
93.657
 20
250.155
 21
249.798
  0
LINE
  8
0
 10
93.657
 11
94.014
 20
249.798
 21
249.264
  0
LINE
  8
0
 10
94.014
 11
94.146
 20
249.264
 21
248.613
  0
LINE
  8
0
 10
94.146
 11
94.014
 20
248.613
 21
247.959
  0
LINE
  8
0
 10
94.014
 11
93.657
 20
247.959
 21
247.428
  0
LINE
  8
0
 10
93.657
 11
93.123
 20
247.428
 21
247.071
  0
LINE
  8
0
 10
93.123
 11
92.469
 20
247.071
 21
246.939
  0
LINE
  8
0
 10
92.469
 11
91.818
 20
246.939
 21
247.071
  0
LINE
  8
0
 10
91.818
 11
91.287
 20
247.071
 21
247.428
  0
LINE
  8
0
 10
91.287
 11
90.927
 20
247.428
 21
247.959
  0
LINE
  8
0
 10
90.927
 11
90.798
 20
247.959
 21
248.613
  0
LINE
  8
0
 10
90.798
 11
90.927
 20
268.341
 21
268.995
  0
LINE
  8
0
 10
90.927
 11
91.287
 20
268.995
 21
269.529
  0
LINE
  8
0
 10
91.287
 11
91.818
 20
269.529
 21
269.886
  0
LINE
  8
0
 10
91.818
 11
92.469
 20
269.886
 21
270.018
  0
LINE
  8
0
 10
92.469
 11
93.123
 20
270.018
 21
269.886
  0
LINE
  8
0
 10
93.123
 11
93.657
 20
269.886
 21
269.529
  0
LINE
  8
0
 10
93.657
 11
94.014
 20
269.529
 21
268.995
  0
LINE
  8
0
 10
94.014
 11
94.146
 20
268.995
 21
268.341
  0
LINE
  8
0
 10
94.146
 11
94.014
 20
268.341
 21
267.69
  0
LINE
  8
0
 10
94.014
 11
93.657
 20
267.69
 21
267.159
  0
LINE
  8
0
 10
93.657
 11
93.123
 20
267.159
 21
266.799
  0
LINE
  8
0
 10
93.123
 11
92.469
 20
266.799
 21
266.67
  0
LINE
  8
0
 10
92.469
 11
91.818
 20
266.67
 21
266.799
  0
LINE
  8
0
 10
91.818
 11
91.287
 20
266.799
 21
267.159
  0
LINE
  8
0
 10
91.287
 11
90.927
 20
267.159
 21
267.69
  0
LINE
  8
0
 10
90.927
 11
90.798
 20
267.69
 21
268.341
  0
LINE
  8
0
 10
95.73
 11
95.859
 20
219.015
 21
219.669
  0
LINE
  8
0
 10
95.859
 11
96.219
 20
219.669
 21
220.2
  0
LINE
  8
0
 10
96.219
 11
96.753
 20
220.2
 21
220.56
  0
LINE
  8
0
 10
96.753
 11
97.404
 20
220.56
 21
220.692
  0
LINE
  8
0
 10
97.404
 11
98.055
 20
220.692
 21
220.56
  0
LINE
  8
0
 10
98.055
 11
98.589
 20
220.56
 21
220.2
  0
LINE
  8
0
 10
98.589
 11
98.946
 20
220.2
 21
219.669
  0
LINE
  8
0
 10
98.946
 11
99.078
 20
219.669
 21
219.015
  0
LINE
  8
0
 10
99.078
 11
98.946
 20
219.015
 21
218.364
  0
LINE
  8
0
 10
98.946
 11
98.589
 20
218.364
 21
217.833
  0
LINE
  8
0
 10
98.589
 11
98.055
 20
217.833
 21
217.473
  0
LINE
  8
0
 10
98.055
 11
97.404
 20
217.473
 21
217.341
  0
LINE
  8
0
 10
97.404
 11
96.753
 20
217.341
 21
217.473
  0
LINE
  8
0
 10
96.753
 11
96.219
 20
217.473
 21
217.833
  0
LINE
  8
0
 10
96.219
 11
95.859
 20
217.833
 21
218.364
  0
LINE
  8
0
 10
95.859
 11
95.73
 20
218.364
 21
219.015
  0
LINE
  8
0
 10
95.73
 11
95.859
 20
238.746
 21
239.397
  0
LINE
  8
0
 10
95.859
 11
96.219
 20
239.397
 21
239.931
  0
LINE
  8
0
 10
96.219
 11
96.753
 20
239.931
 21
240.291
  0
LINE
  8
0
 10
96.753
 11
97.404
 20
240.291
 21
240.42
  0
LINE
  8
0
 10
97.404
 11
98.055
 20
240.42
 21
240.291
  0
LINE
  8
0
 10
98.055
 11
98.589
 20
240.291
 21
239.931
  0
LINE
  8
0
 10
98.589
 11
98.946
 20
239.931
 21
239.397
  0
LINE
  8
0
 10
98.946
 11
99.078
 20
239.397
 21
238.746
  0
LINE
  8
0
 10
99.078
 11
98.946
 20
238.746
 21
238.095
  0
LINE
  8
0
 10
98.946
 11
98.589
 20
238.095
 21
237.561
  0
LINE
  8
0
 10
98.589
 11
98.055
 20
237.561
 21
237.204
  0
LINE
  8
0
 10
98.055
 11
97.404
 20
237.204
 21
237.072
  0
LINE
  8
0
 10
97.404
 11
96.753
 20
237.072
 21
237.204
  0
LINE
  8
0
 10
96.753
 11
96.219
 20
237.204
 21
237.561
  0
LINE
  8
0
 10
96.219
 11
95.859
 20
237.561
 21
238.095
  0
LINE
  8
0
 10
95.859
 11
95.73
 20
238.095
 21
238.746
  0
LINE
  8
0
 10
95.73
 11
95.859
 20
258.477
 21
259.128
  0
LINE
  8
0
 10
95.859
 11
96.219
 20
259.128
 21
259.662
  0
LINE
  8
0
 10
96.219
 11
96.753
 20
259.662
 21
260.019
  0
LINE
  8
0
 10
96.753
 11
97.404
 20
260.019
 21
260.151
  0
LINE
  8
0
 10
97.404
 11
98.055
 20
260.151
 21
260.019
  0
LINE
  8
0
 10
98.055
 11
98.589
 20
260.019
 21
259.662
  0
LINE
  8
0
 10
98.589
 11
98.946
 20
259.662
 21
259.128
  0
LINE
  8
0
 10
98.946
 11
99.078
 20
259.128
 21
258.477
  0
LINE
  8
0
 10
99.078
 11
98.946
 20
258.477
 21
257.826
  0
LINE
  8
0
 10
98.946
 11
98.589
 20
257.826
 21
257.292
  0
LINE
  8
0
 10
98.589
 11
98.055
 20
257.292
 21
256.935
  0
LINE
  8
0
 10
98.055
 11
97.404
 20
256.935
 21
256.803
  0
LINE
  8
0
 10
97.404
 11
96.753
 20
256.803
 21
256.935
  0
LINE
  8
0
 10
96.753
 11
96.219
 20
256.935
 21
257.292
  0
LINE
  8
0
 10
96.219
 11
95.859
 20
257.292
 21
257.826
  0
LINE
  8
0
 10
95.859
 11
95.73
 20
257.826
 21
258.477
  0
LINE
  8
0
 10
100.662
 11
100.794
 20
209.145
 21
209.799
  0
LINE
  8
0
 10
100.794
 11
101.151
 20
209.799
 21
210.333
  0
LINE
  8
0
 10
101.151
 11
101.685
 20
210.333
 21
210.693
  0
LINE
  8
0
 10
101.685
 11
102.336
 20
210.693
 21
210.825
  0
LINE
  8
0
 10
102.336
 11
102.987
 20
210.825
 21
210.693
  0
LINE
  8
0
 10
102.987
 11
103.521
 20
210.693
 21
210.333
  0
LINE
  8
0
 10
103.521
 11
103.878
 20
210.333
 21
209.799
  0
LINE
  8
0
 10
103.878
 11
104.01
 20
209.799
 21
209.145
  0
LINE
  8
0
 10
104.01
 11
103.878
 20
209.145
 21
208.494
  0
LINE
  8
0
 10
103.878
 11
103.521
 20
208.494
 21
207.96
  0
LINE
  8
0
 10
103.521
 11
102.987
 20
207.96
 21
207.603
  0
LINE
  8
0
 10
102.987
 11
102.336
 20
207.603
 21
207.471
  0
LINE
  8
0
 10
102.336
 11
101.685
 20
207.471
 21
207.603
  0
LINE
  8
0
 10
101.685
 11
101.151
 20
207.603
 21
207.96
  0
LINE
  8
0
 10
101.151
 11
100.794
 20
207.96
 21
208.494
  0
LINE
  8
0
 10
100.794
 11
100.662
 20
208.494
 21
209.145
  0
LINE
  8
0
 10
100.662
 11
100.794
 20
228.879
 21
229.533
  0
LINE
  8
0
 10
100.794
 11
101.151
 20
229.533
 21
230.064
  0
LINE
  8
0
 10
101.151
 11
101.685
 20
230.064
 21
230.424
  0
LINE
  8
0
 10
101.685
 11
102.336
 20
230.424
 21
230.556
  0
LINE
  8
0
 10
102.336
 11
102.987
 20
230.556
 21
230.424
  0
LINE
  8
0
 10
102.987
 11
103.521
 20
230.424
 21
230.064
  0
LINE
  8
0
 10
103.521
 11
103.878
 20
230.064
 21
229.533
  0
LINE
  8
0
 10
103.878
 11
104.01
 20
229.533
 21
228.879
  0
LINE
  8
0
 10
104.01
 11
103.878
 20
228.879
 21
228.228
  0
LINE
  8
0
 10
103.878
 11
103.521
 20
228.228
 21
227.697
  0
LINE
  8
0
 10
103.521
 11
102.987
 20
227.697
 21
227.337
  0
LINE
  8
0
 10
102.987
 11
102.336
 20
227.337
 21
227.205
  0
LINE
  8
0
 10
102.336
 11
101.685
 20
227.205
 21
227.337
  0
LINE
  8
0
 10
101.685
 11
101.151
 20
227.337
 21
227.697
  0
LINE
  8
0
 10
101.151
 11
100.794
 20
227.697
 21
228.228
  0
LINE
  8
0
 10
100.794
 11
100.662
 20
228.228
 21
228.879
  0
LINE
  8
0
 10
100.662
 11
100.794
 20
248.613
 21
249.264
  0
LINE
  8
0
 10
100.794
 11
101.151
 20
249.264
 21
249.798
  0
LINE
  8
0
 10
101.151
 11
101.685
 20
249.798
 21
250.155
  0
LINE
  8
0
 10
101.685
 11
102.336
 20
250.155
 21
250.287
  0
LINE
  8
0
 10
102.336
 11
102.987
 20
250.287
 21
250.155
  0
LINE
  8
0
 10
102.987
 11
103.521
 20
250.155
 21
249.798
  0
LINE
  8
0
 10
103.521
 11
103.878
 20
249.798
 21
249.264
  0
LINE
  8
0
 10
103.878
 11
104.01
 20
249.264
 21
248.613
  0
LINE
  8
0
 10
104.01
 11
103.878
 20
248.613
 21
247.959
  0
LINE
  8
0
 10
103.878
 11
103.521
 20
247.959
 21
247.428
  0
LINE
  8
0
 10
103.521
 11
102.987
 20
247.428
 21
247.071
  0
LINE
  8
0
 10
102.987
 11
102.336
 20
247.071
 21
246.939
  0
LINE
  8
0
 10
102.336
 11
101.685
 20
246.939
 21
247.071
  0
LINE
  8
0
 10
101.685
 11
101.151
 20
247.071
 21
247.428
  0
LINE
  8
0
 10
101.151
 11
100.794
 20
247.428
 21
247.959
  0
LINE
  8
0
 10
100.794
 11
100.662
 20
247.959
 21
248.613
  0
LINE
  8
0
 10
100.662
 11
100.794
 20
268.341
 21
268.995
  0
LINE
  8
0
 10
100.794
 11
101.151
 20
268.995
 21
269.529
  0
LINE
  8
0
 10
101.151
 11
101.685
 20
269.529
 21
269.886
  0
LINE
  8
0
 10
101.685
 11
102.336
 20
269.886
 21
270.018
  0
LINE
  8
0
 10
102.336
 11
102.987
 20
270.018
 21
269.886
  0
LINE
  8
0
 10
102.987
 11
103.521
 20
269.886
 21
269.529
  0
LINE
  8
0
 10
103.521
 11
103.878
 20
269.529
 21
268.995
  0
LINE
  8
0
 10
103.878
 11
104.01
 20
268.995
 21
268.341
  0
LINE
  8
0
 10
104.01
 11
103.878
 20
268.341
 21
267.69
  0
LINE
  8
0
 10
103.878
 11
103.521
 20
267.69
 21
267.159
  0
LINE
  8
0
 10
103.521
 11
102.987
 20
267.159
 21
266.799
  0
LINE
  8
0
 10
102.987
 11
102.336
 20
266.799
 21
266.67
  0
LINE
  8
0
 10
102.336
 11
101.685
 20
266.67
 21
266.799
  0
LINE
  8
0
 10
101.685
 11
101.151
 20
266.799
 21
267.159
  0
LINE
  8
0
 10
101.151
 11
100.794
 20
267.159
 21
267.69
  0
LINE
  8
0
 10
100.794
 11
100.662
 20
267.69
 21
268.341
  0
LINE
  8
0
 10
105.594
 11
105.726
 20
219.015
 21
219.669
  0
LINE
  8
0
 10
105.726
 11
106.086
 20
219.669
 21
220.2
  0
LINE
  8
0
 10
106.086
 11
106.617
 20
220.2
 21
220.56
  0
LINE
  8
0
 10
106.617
 11
107.268
 20
220.56
 21
220.692
  0
LINE
  8
0
 10
107.268
 11
107.922
 20
220.692
 21
220.56
  0
LINE
  8
0
 10
107.922
 11
108.453
 20
220.56
 21
220.2
  0
LINE
  8
0
 10
108.453
 11
108.813
 20
220.2
 21
219.669
  0
LINE
  8
0
 10
108.813
 11
108.942
 20
219.669
 21
219.015
  0
LINE
  8
0
 10
108.942
 11
108.813
 20
219.015
 21
218.364
  0
LINE
  8
0
 10
108.813
 11
108.453
 20
218.364
 21
217.833
  0
LINE
  8
0
 10
108.453
 11
107.922
 20
217.833
 21
217.473
  0
LINE
  8
0
 10
107.922
 11
107.268
 20
217.473
 21
217.341
  0
LINE
  8
0
 10
107.268
 11
106.617
 20
217.341
 21
217.473
  0
LINE
  8
0
 10
106.617
 11
106.086
 20
217.473
 21
217.833
  0
LINE
  8
0
 10
106.086
 11
105.726
 20
217.833
 21
218.364
  0
LINE
  8
0
 10
105.726
 11
105.594
 20
218.364
 21
219.015
  0
LINE
  8
0
 10
105.594
 11
105.726
 20
238.746
 21
239.397
  0
LINE
  8
0
 10
105.726
 11
106.086
 20
239.397
 21
239.931
  0
LINE
  8
0
 10
106.086
 11
106.617
 20
239.931
 21
240.291
  0
LINE
  8
0
 10
106.617
 11
107.268
 20
240.291
 21
240.42
  0
LINE
  8
0
 10
107.268
 11
107.922
 20
240.42
 21
240.291
  0
LINE
  8
0
 10
107.922
 11
108.453
 20
240.291
 21
239.931
  0
LINE
  8
0
 10
108.453
 11
108.813
 20
239.931
 21
239.397
  0
LINE
  8
0
 10
108.813
 11
108.942
 20
239.397
 21
238.746
  0
LINE
  8
0
 10
108.942
 11
108.813
 20
238.746
 21
238.095
  0
LINE
  8
0
 10
108.813
 11
108.453
 20
238.095
 21
237.561
  0
LINE
  8
0
 10
108.453
 11
107.922
 20
237.561
 21
237.204
  0
LINE
  8
0
 10
107.922
 11
107.268
 20
237.204
 21
237.072
  0
LINE
  8
0
 10
107.268
 11
106.617
 20
237.072
 21
237.204
  0
LINE
  8
0
 10
106.617
 11
106.086
 20
237.204
 21
237.561
  0
LINE
  8
0
 10
106.086
 11
105.726
 20
237.561
 21
238.095
  0
LINE
  8
0
 10
105.726
 11
105.594
 20
238.095
 21
238.746
  0
LINE
  8
0
 10
105.594
 11
105.726
 20
258.477
 21
259.128
  0
LINE
  8
0
 10
105.726
 11
106.086
 20
259.128
 21
259.662
  0
LINE
  8
0
 10
106.086
 11
106.617
 20
259.662
 21
260.019
  0
LINE
  8
0
 10
106.617
 11
107.268
 20
260.019
 21
260.151
  0
LINE
  8
0
 10
107.268
 11
107.922
 20
260.151
 21
260.019
  0
LINE
  8
0
 10
107.922
 11
108.453
 20
260.019
 21
259.662
  0
LINE
  8
0
 10
108.453
 11
108.813
 20
259.662
 21
259.128
  0
LINE
  8
0
 10
108.813
 11
108.942
 20
259.128
 21
258.477
  0
LINE
  8
0
 10
108.942
 11
108.813
 20
258.477
 21
257.826
  0
LINE
  8
0
 10
108.813
 11
108.453
 20
257.826
 21
257.292
  0
LINE
  8
0
 10
108.453
 11
107.922
 20
257.292
 21
256.935
  0
LINE
  8
0
 10
107.922
 11
107.268
 20
256.935
 21
256.803
  0
LINE
  8
0
 10
107.268
 11
106.617
 20
256.803
 21
256.935
  0
LINE
  8
0
 10
106.617
 11
106.086
 20
256.935
 21
257.292
  0
LINE
  8
0
 10
106.086
 11
105.726
 20
257.292
 21
257.826
  0
LINE
  8
0
 10
105.726
 11
105.594
 20
257.826
 21
258.477
  0
LINE
  8
0
 10
110.529
 11
110.658
 20
209.145
 21
209.799
  0
LINE
  8
0
 10
110.658
 11
111.018
 20
209.799
 21
210.333
  0
LINE
  8
0
 10
111.018
 11
111.549
 20
210.333
 21
210.693
  0
LINE
  8
0
 10
111.549
 11
112.203
 20
210.693
 21
210.825
  0
LINE
  8
0
 10
112.203
 11
112.854
 20
210.825
 21
210.693
  0
LINE
  8
0
 10
112.854
 11
113.385
 20
210.693
 21
210.333
  0
LINE
  8
0
 10
113.385
 11
113.745
 20
210.333
 21
209.799
  0
LINE
  8
0
 10
113.745
 11
113.877
 20
209.799
 21
209.145
  0
LINE
  8
0
 10
113.877
 11
113.745
 20
209.145
 21
208.494
  0
LINE
  8
0
 10
113.745
 11
113.385
 20
208.494
 21
207.96
  0
LINE
  8
0
 10
113.385
 11
112.854
 20
207.96
 21
207.603
  0
LINE
  8
0
 10
112.854
 11
112.203
 20
207.603
 21
207.471
  0
LINE
  8
0
 10
112.203
 11
111.549
 20
207.471
 21
207.603
  0
LINE
  8
0
 10
111.549
 11
111.018
 20
207.603
 21
207.96
  0
LINE
  8
0
 10
111.018
 11
110.661
 20
207.96
 21
208.494
  0
LINE
  8
0
 10
110.661
 11
110.529
 20
208.494
 21
209.145
  0
LINE
  8
0
 10
110.529
 11
110.658
 20
228.879
 21
229.533
  0
LINE
  8
0
 10
110.658
 11
111.018
 20
229.533
 21
230.064
  0
LINE
  8
0
 10
111.018
 11
111.549
 20
230.064
 21
230.424
  0
LINE
  8
0
 10
111.549
 11
112.203
 20
230.424
 21
230.556
  0
LINE
  8
0
 10
112.203
 11
112.854
 20
230.556
 21
230.424
  0
LINE
  8
0
 10
112.854
 11
113.385
 20
230.424
 21
230.064
  0
LINE
  8
0
 10
113.385
 11
113.745
 20
230.064
 21
229.533
  0
LINE
  8
0
 10
113.745
 11
113.877
 20
229.533
 21
228.879
  0
LINE
  8
0
 10
113.877
 11
113.745
 20
228.879
 21
228.228
  0
LINE
  8
0
 10
113.745
 11
113.385
 20
228.228
 21
227.697
  0
LINE
  8
0
 10
113.385
 11
112.854
 20
227.697
 21
227.337
  0
LINE
  8
0
 10
112.854
 11
112.203
 20
227.337
 21
227.205
  0
LINE
  8
0
 10
112.203
 11
111.549
 20
227.205
 21
227.337
  0
LINE
  8
0
 10
111.549
 11
111.018
 20
227.337
 21
227.697
  0
LINE
  8
0
 10
111.018
 11
110.661
 20
227.697
 21
228.228
  0
LINE
  8
0
 10
110.661
 11
110.529
 20
228.228
 21
228.879
  0
LINE
  8
0
 10
110.529
 11
110.658
 20
248.613
 21
249.264
  0
LINE
  8
0
 10
110.658
 11
111.018
 20
249.264
 21
249.798
  0
LINE
  8
0
 10
111.018
 11
111.549
 20
249.798
 21
250.155
  0
LINE
  8
0
 10
111.549
 11
112.203
 20
250.155
 21
250.287
  0
LINE
  8
0
 10
112.203
 11
112.854
 20
250.287
 21
250.155
  0
LINE
  8
0
 10
112.854
 11
113.385
 20
250.155
 21
249.798
  0
LINE
  8
0
 10
113.385
 11
113.745
 20
249.798
 21
249.264
  0
LINE
  8
0
 10
113.745
 11
113.877
 20
249.264
 21
248.613
  0
LINE
  8
0
 10
113.877
 11
113.745
 20
248.613
 21
247.959
  0
LINE
  8
0
 10
113.745
 11
113.385
 20
247.959
 21
247.428
  0
LINE
  8
0
 10
113.385
 11
112.854
 20
247.428
 21
247.071
  0
LINE
  8
0
 10
112.854
 11
112.203
 20
247.071
 21
246.939
  0
LINE
  8
0
 10
112.203
 11
111.549
 20
246.939
 21
247.071
  0
LINE
  8
0
 10
111.549
 11
111.018
 20
247.071
 21
247.428
  0
LINE
  8
0
 10
111.018
 11
110.661
 20
247.428
 21
247.959
  0
LINE
  8
0
 10
110.661
 11
110.529
 20
247.959
 21
248.613
  0
LINE
  8
0
 10
110.529
 11
110.658
 20
268.341
 21
268.995
  0
LINE
  8
0
 10
110.658
 11
111.018
 20
268.995
 21
269.529
  0
LINE
  8
0
 10
111.018
 11
111.549
 20
269.529
 21
269.886
  0
LINE
  8
0
 10
111.549
 11
112.203
 20
269.886
 21
270.018
  0
LINE
  8
0
 10
112.203
 11
112.854
 20
270.018
 21
269.886
  0
LINE
  8
0
 10
112.854
 11
113.385
 20
269.886
 21
269.529
  0
LINE
  8
0
 10
113.385
 11
113.745
 20
269.529
 21
268.995
  0
LINE
  8
0
 10
113.745
 11
113.877
 20
268.995
 21
268.341
  0
LINE
  8
0
 10
113.877
 11
113.745
 20
268.341
 21
267.69
  0
LINE
  8
0
 10
113.745
 11
113.385
 20
267.69
 21
267.159
  0
LINE
  8
0
 10
113.385
 11
112.854
 20
267.159
 21
266.799
  0
LINE
  8
0
 10
112.854
 11
112.203
 20
266.799
 21
266.67
  0
LINE
  8
0
 10
112.203
 11
111.549
 20
266.67
 21
266.799
  0
LINE
  8
0
 10
111.549
 11
111.018
 20
266.799
 21
267.159
  0
LINE
  8
0
 10
111.018
 11
110.661
 20
267.159
 21
267.69
  0
LINE
  8
0
 10
110.661
 11
110.529
 20
267.69
 21
268.341
  0
LINE
  8
0
 10
115.461
 11
115.593
 20
219.015
 21
219.669
  0
LINE
  8
0
 10
115.593
 11
115.95
 20
219.669
 21
220.2
  0
LINE
  8
0
 10
115.95
 11
116.481
 20
220.2
 21
220.56
  0
LINE
  8
0
 10
116.481
 11
117.135
 20
220.56
 21
220.692
  0
LINE
  8
0
 10
117.135
 11
117.786
 20
220.692
 21
220.56
  0
LINE
  8
0
 10
117.786
 11
118.317
 20
220.56
 21
220.2
  0
LINE
  8
0
 10
118.317
 11
118.677
 20
220.2
 21
219.669
  0
LINE
  8
0
 10
118.677
 11
118.809
 20
219.669
 21
219.015
  0
LINE
  8
0
 10
118.809
 11
118.677
 20
219.015
 21
218.364
  0
LINE
  8
0
 10
118.677
 11
118.317
 20
218.364
 21
217.833
  0
LINE
  8
0
 10
118.317
 11
117.786
 20
217.833
 21
217.473
  0
LINE
  8
0
 10
117.786
 11
117.135
 20
217.473
 21
217.341
  0
LINE
  8
0
 10
117.135
 11
116.481
 20
217.341
 21
217.473
  0
LINE
  8
0
 10
116.481
 11
115.95
 20
217.473
 21
217.833
  0
LINE
  8
0
 10
115.95
 11
115.593
 20
217.833
 21
218.364
  0
LINE
  8
0
 10
115.593
 11
115.461
 20
218.364
 21
219.015
  0
LINE
  8
0
 10
115.461
 11
115.593
 20
238.746
 21
239.397
  0
LINE
  8
0
 10
115.593
 11
115.95
 20
239.397
 21
239.931
  0
LINE
  8
0
 10
115.95
 11
116.481
 20
239.931
 21
240.291
  0
LINE
  8
0
 10
116.481
 11
117.135
 20
240.291
 21
240.42
  0
LINE
  8
0
 10
117.135
 11
117.786
 20
240.42
 21
240.291
  0
LINE
  8
0
 10
117.786
 11
118.317
 20
240.291
 21
239.931
  0
LINE
  8
0
 10
118.317
 11
118.677
 20
239.931
 21
239.397
  0
LINE
  8
0
 10
118.677
 11
118.809
 20
239.397
 21
238.746
  0
LINE
  8
0
 10
118.809
 11
118.677
 20
238.746
 21
238.095
  0
LINE
  8
0
 10
118.677
 11
118.317
 20
238.095
 21
237.561
  0
LINE
  8
0
 10
118.317
 11
117.786
 20
237.561
 21
237.204
  0
LINE
  8
0
 10
117.786
 11
117.135
 20
237.204
 21
237.072
  0
LINE
  8
0
 10
117.135
 11
116.481
 20
237.072
 21
237.204
  0
LINE
  8
0
 10
116.481
 11
115.95
 20
237.204
 21
237.561
  0
LINE
  8
0
 10
115.95
 11
115.593
 20
237.561
 21
238.095
  0
LINE
  8
0
 10
115.593
 11
115.461
 20
238.095
 21
238.746
  0
LINE
  8
0
 10
115.461
 11
115.593
 20
258.477
 21
259.128
  0
LINE
  8
0
 10
115.593
 11
115.95
 20
259.128
 21
259.662
  0
LINE
  8
0
 10
115.95
 11
116.481
 20
259.662
 21
260.019
  0
LINE
  8
0
 10
116.481
 11
117.135
 20
260.019
 21
260.151
  0
LINE
  8
0
 10
117.135
 11
117.786
 20
260.151
 21
260.019
  0
LINE
  8
0
 10
117.786
 11
118.317
 20
260.019
 21
259.662
  0
LINE
  8
0
 10
118.317
 11
118.677
 20
259.662
 21
259.128
  0
LINE
  8
0
 10
118.677
 11
118.809
 20
259.128
 21
258.477
  0
LINE
  8
0
 10
118.809
 11
118.677
 20
258.477
 21
257.826
  0
LINE
  8
0
 10
118.677
 11
118.317
 20
257.826
 21
257.292
  0
LINE
  8
0
 10
118.317
 11
117.786
 20
257.292
 21
256.935
  0
LINE
  8
0
 10
117.786
 11
117.135
 20
256.935
 21
256.803
  0
LINE
  8
0
 10
117.135
 11
116.481
 20
256.803
 21
256.935
  0
LINE
  8
0
 10
116.481
 11
115.95
 20
256.935
 21
257.292
  0
LINE
  8
0
 10
115.95
 11
115.593
 20
257.292
 21
257.826
  0
LINE
  8
0
 10
115.593
 11
115.461
 20
257.826
 21
258.477
  0
LINE
  8
0
 10
120.393
 11
120.525
 20
228.879
 21
229.533
  0
LINE
  8
0
 10
120.525
 11
120.882
 20
229.533
 21
230.064
  0
LINE
  8
0
 10
120.882
 11
121.416
 20
230.064
 21
230.424
  0
LINE
  8
0
 10
121.416
 11
122.067
 20
230.424
 21
230.556
  0
LINE
  8
0
 10
122.067
 11
122.718
 20
230.556
 21
230.424
  0
LINE
  8
0
 10
122.718
 11
123.249
 20
230.424
 21
230.064
  0
LINE
  8
0
 10
123.249
 11
123.609
 20
230.064
 21
229.533
  0
LINE
  8
0
 10
123.609
 11
123.741
 20
229.533
 21
228.879
  0
LINE
  8
0
 10
123.741
 11
123.609
 20
228.879
 21
228.228
  0
LINE
  8
0
 10
123.609
 11
123.249
 20
228.228
 21
227.697
  0
LINE
  8
0
 10
123.249
 11
122.718
 20
227.697
 21
227.337
  0
LINE
  8
0
 10
122.718
 11
122.067
 20
227.337
 21
227.205
  0
LINE
  8
0
 10
122.067
 11
121.416
 20
227.205
 21
227.337
  0
LINE
  8
0
 10
121.416
 11
120.882
 20
227.337
 21
227.697
  0
LINE
  8
0
 10
120.882
 11
120.525
 20
227.697
 21
228.228
  0
LINE
  8
0
 10
120.525
 11
120.393
 20
228.228
 21
228.879
  0
LINE
  8
0
 10
120.393
 11
120.525
 20
248.613
 21
249.264
  0
LINE
  8
0
 10
120.525
 11
120.882
 20
249.264
 21
249.798
  0
LINE
  8
0
 10
120.882
 11
121.416
 20
249.798
 21
250.155
  0
LINE
  8
0
 10
121.416
 11
122.067
 20
250.155
 21
250.287
  0
LINE
  8
0
 10
122.067
 11
122.718
 20
250.287
 21
250.155
  0
LINE
  8
0
 10
122.718
 11
123.249
 20
250.155
 21
249.798
  0
LINE
  8
0
 10
123.249
 11
123.609
 20
249.798
 21
249.264
  0
LINE
  8
0
 10
123.609
 11
123.741
 20
249.264
 21
248.613
  0
LINE
  8
0
 10
123.741
 11
123.609
 20
248.613
 21
247.959
  0
LINE
  8
0
 10
123.609
 11
123.249
 20
247.959
 21
247.428
  0
LINE
  8
0
 10
123.249
 11
122.718
 20
247.428
 21
247.071
  0
LINE
  8
0
 10
122.718
 11
122.067
 20
247.071
 21
246.939
  0
LINE
  8
0
 10
122.067
 11
121.416
 20
246.939
 21
247.071
  0
LINE
  8
0
 10
121.416
 11
120.882
 20
247.071
 21
247.428
  0
LINE
  8
0
 10
120.882
 11
120.525
 20
247.428
 21
247.959
  0
LINE
  8
0
 10
120.525
 11
120.393
 20
247.959
 21
248.613
  0
LINE
  8
0
 10
120.393
 11
120.525
 20
268.341
 21
268.995
  0
LINE
  8
0
 10
120.525
 11
120.882
 20
268.995
 21
269.529
  0
LINE
  8
0
 10
120.882
 11
121.416
 20
269.529
 21
269.886
  0
LINE
  8
0
 10
121.416
 11
122.067
 20
269.886
 21
270.018
  0
LINE
  8
0
 10
122.067
 11
122.718
 20
270.018
 21
269.886
  0
LINE
  8
0
 10
122.718
 11
123.249
 20
269.886
 21
269.529
  0
LINE
  8
0
 10
123.249
 11
123.609
 20
269.529
 21
268.995
  0
LINE
  8
0
 10
123.609
 11
123.741
 20
268.995
 21
268.341
  0
LINE
  8
0
 10
123.741
 11
123.609
 20
268.341
 21
267.69
  0
LINE
  8
0
 10
123.609
 11
123.249
 20
267.69
 21
267.159
  0
LINE
  8
0
 10
123.249
 11
122.718
 20
267.159
 21
266.799
  0
LINE
  8
0
 10
122.718
 11
122.067
 20
266.799
 21
266.67
  0
LINE
  8
0
 10
122.067
 11
121.416
 20
266.67
 21
266.799
  0
LINE
  8
0
 10
121.416
 11
120.882
 20
266.799
 21
267.159
  0
LINE
  8
0
 10
120.882
 11
120.525
 20
267.159
 21
267.69
  0
LINE
  8
0
 10
120.525
 11
120.393
 20
267.69
 21
268.341
  0
LINE
  8
0
 10
125.325
 11
125.457
 20
238.746
 21
239.397
  0
LINE
  8
0
 10
125.457
 11
125.814
 20
239.397
 21
239.931
  0
LINE
  8
0
 10
125.814
 11
126.348
 20
239.931
 21
240.291
  0
LINE
  8
0
 10
126.348
 11
126.999
 20
240.291
 21
240.42
  0
LINE
  8
0
 10
126.999
 11
127.653
 20
240.42
 21
240.291
  0
LINE
  8
0
 10
127.653
 11
128.184
 20
240.291
 21
239.931
  0
LINE
  8
0
 10
128.184
 11
128.541
 20
239.931
 21
239.397
  0
LINE
  8
0
 10
128.541
 11
128.673
 20
239.397
 21
238.746
  0
LINE
  8
0
 10
128.673
 11
128.541
 20
238.746
 21
238.095
  0
LINE
  8
0
 10
128.541
 11
128.184
 20
238.095
 21
237.561
  0
LINE
  8
0
 10
128.184
 11
127.65
 20
237.561
 21
237.204
  0
LINE
  8
0
 10
127.65
 11
126.999
 20
237.204
 21
237.072
  0
LINE
  8
0
 10
126.999
 11
126.348
 20
237.072
 21
237.204
  0
LINE
  8
0
 10
126.348
 11
125.814
 20
237.204
 21
237.561
  0
LINE
  8
0
 10
125.814
 11
125.457
 20
237.561
 21
238.095
  0
LINE
  8
0
 10
125.457
 11
125.325
 20
238.095
 21
238.746
  0
LINE
  8
0
 10
125.325
 11
125.457
 20
258.477
 21
259.128
  0
LINE
  8
0
 10
125.457
 11
125.814
 20
259.128
 21
259.662
  0
LINE
  8
0
 10
125.814
 11
126.348
 20
259.662
 21
260.019
  0
LINE
  8
0
 10
126.348
 11
126.999
 20
260.019
 21
260.151
  0
LINE
  8
0
 10
126.999
 11
127.653
 20
260.151
 21
260.019
  0
LINE
  8
0
 10
127.653
 11
128.184
 20
260.019
 21
259.662
  0
LINE
  8
0
 10
128.184
 11
128.541
 20
259.662
 21
259.128
  0
LINE
  8
0
 10
128.541
 11
128.673
 20
259.128
 21
258.477
  0
LINE
  8
0
 10
128.673
 11
128.541
 20
258.477
 21
257.826
  0
LINE
  8
0
 10
128.541
 11
128.184
 20
257.826
 21
257.292
  0
LINE
  8
0
 10
128.184
 11
127.65
 20
257.292
 21
256.935
  0
LINE
  8
0
 10
127.65
 11
126.999
 20
256.935
 21
256.803
  0
LINE
  8
0
 10
126.999
 11
126.348
 20
256.803
 21
256.935
  0
LINE
  8
0
 10
126.348
 11
125.814
 20
256.935
 21
257.292
  0
LINE
  8
0
 10
125.814
 11
125.457
 20
257.292
 21
257.826
  0
LINE
  8
0
 10
125.457
 11
125.325
 20
257.826
 21
258.477
  0
LINE
  8
0
 10
130.257
 11
130.389
 20
228.879
 21
229.533
  0
LINE
  8
0
 10
130.389
 11
130.749
 20
229.533
 21
230.064
  0
LINE
  8
0
 10
130.749
 11
131.283
 20
230.064
 21
230.424
  0
LINE
  8
0
 10
131.283
 11
131.934
 20
230.424
 21
230.556
  0
LINE
  8
0
 10
131.934
 11
132.585
 20
230.556
 21
230.424
  0
LINE
  8
0
 10
132.585
 11
133.119
 20
230.424
 21
230.064
  0
LINE
  8
0
 10
133.119
 11
133.476
 20
230.064
 21
229.533
  0
LINE
  8
0
 10
133.476
 11
133.608
 20
229.533
 21
228.879
  0
LINE
  8
0
 10
133.608
 11
133.476
 20
228.879
 21
228.228
  0
LINE
  8
0
 10
133.476
 11
133.119
 20
228.228
 21
227.697
  0
LINE
  8
0
 10
133.119
 11
132.585
 20
227.697
 21
227.337
  0
LINE
  8
0
 10
132.585
 11
131.934
 20
227.337
 21
227.205
  0
LINE
  8
0
 10
131.934
 11
131.283
 20
227.205
 21
227.337
  0
LINE
  8
0
 10
131.283
 11
130.749
 20
227.337
 21
227.697
  0
LINE
  8
0
 10
130.749
 11
130.389
 20
227.697
 21
228.228
  0
LINE
  8
0
 10
130.389
 11
130.257
 20
228.228
 21
228.879
  0
LINE
  8
0
 10
130.257
 11
130.389
 20
248.613
 21
249.264
  0
LINE
  8
0
 10
130.389
 11
130.749
 20
249.264
 21
249.798
  0
LINE
  8
0
 10
130.749
 11
131.283
 20
249.798
 21
250.155
  0
LINE
  8
0
 10
131.283
 11
131.934
 20
250.155
 21
250.287
  0
LINE
  8
0
 10
131.934
 11
132.585
 20
250.287
 21
250.155
  0
LINE
  8
0
 10
132.585
 11
133.119
 20
250.155
 21
249.798
  0
LINE
  8
0
 10
133.119
 11
133.476
 20
249.798
 21
249.264
  0
LINE
  8
0
 10
133.476
 11
133.608
 20
249.264
 21
248.613
  0
LINE
  8
0
 10
133.608
 11
133.476
 20
248.613
 21
247.959
  0
LINE
  8
0
 10
133.476
 11
133.119
 20
247.959
 21
247.428
  0
LINE
  8
0
 10
133.119
 11
132.585
 20
247.428
 21
247.071
  0
LINE
  8
0
 10
132.585
 11
131.934
 20
247.071
 21
246.939
  0
LINE
  8
0
 10
131.934
 11
131.283
 20
246.939
 21
247.071
  0
LINE
  8
0
 10
131.283
 11
130.749
 20
247.071
 21
247.428
  0
LINE
  8
0
 10
130.749
 11
130.389
 20
247.428
 21
247.959
  0
LINE
  8
0
 10
130.389
 11
130.257
 20
247.959
 21
248.613
  0
LINE
  8
0
 10
130.257
 11
130.389
 20
268.341
 21
268.995
  0
LINE
  8
0
 10
130.389
 11
130.749
 20
268.995
 21
269.529
  0
LINE
  8
0
 10
130.749
 11
131.283
 20
269.529
 21
269.886
  0
LINE
  8
0
 10
131.283
 11
131.934
 20
269.886
 21
270.018
  0
LINE
  8
0
 10
131.934
 11
132.585
 20
270.018
 21
269.886
  0
LINE
  8
0
 10
132.585
 11
133.119
 20
269.886
 21
269.529
  0
LINE
  8
0
 10
133.119
 11
133.476
 20
269.529
 21
268.995
  0
LINE
  8
0
 10
133.476
 11
133.608
 20
268.995
 21
268.341
  0
LINE
  8
0
 10
133.608
 11
133.476
 20
268.341
 21
267.69
  0
LINE
  8
0
 10
133.476
 11
133.119
 20
267.69
 21
267.159
  0
LINE
  8
0
 10
133.119
 11
132.585
 20
267.159
 21
266.799
  0
LINE
  8
0
 10
132.585
 11
131.934
 20
266.799
 21
266.67
  0
LINE
  8
0
 10
131.934
 11
131.283
 20
266.67
 21
266.799
  0
LINE
  8
0
 10
131.283
 11
130.749
 20
266.799
 21
267.159
  0
LINE
  8
0
 10
130.749
 11
130.389
 20
267.159
 21
267.69
  0
LINE
  8
0
 10
130.389
 11
130.257
 20
267.69
 21
268.341
  0
LINE
  8
0
 10
135.189
 11
135.321
 20
219.015
 21
219.669
  0
LINE
  8
0
 10
135.321
 11
135.681
 20
219.669
 21
220.2
  0
LINE
  8
0
 10
135.681
 11
136.215
 20
220.2
 21
220.56
  0
LINE
  8
0
 10
136.215
 11
136.866
 20
220.56
 21
220.692
  0
LINE
  8
0
 10
136.866
 11
137.52
 20
220.692
 21
220.56
  0
LINE
  8
0
 10
137.52
 11
138.051
 20
220.56
 21
220.2
  0
LINE
  8
0
 10
138.051
 11
138.411
 20
220.2
 21
219.669
  0
LINE
  8
0
 10
138.411
 11
138.543
 20
219.669
 21
219.015
  0
LINE
  8
0
 10
138.543
 11
138.411
 20
219.015
 21
218.364
  0
LINE
  8
0
 10
138.411
 11
138.051
 20
218.364
 21
217.833
  0
LINE
  8
0
 10
138.051
 11
137.52
 20
217.833
 21
217.473
  0
LINE
  8
0
 10
137.52
 11
136.866
 20
217.473
 21
217.341
  0
LINE
  8
0
 10
136.866
 11
136.215
 20
217.341
 21
217.473
  0
LINE
  8
0
 10
136.215
 11
135.681
 20
217.473
 21
217.833
  0
LINE
  8
0
 10
135.681
 11
135.321
 20
217.833
 21
218.364
  0
LINE
  8
0
 10
135.321
 11
135.189
 20
218.364
 21
219.015
  0
LINE
  8
0
 10
135.189
 11
135.321
 20
238.746
 21
239.397
  0
LINE
  8
0
 10
135.321
 11
135.681
 20
239.397
 21
239.931
  0
LINE
  8
0
 10
135.681
 11
136.215
 20
239.931
 21
240.291
  0
LINE
  8
0
 10
136.215
 11
136.866
 20
240.291
 21
240.42
  0
LINE
  8
0
 10
136.866
 11
137.52
 20
240.42
 21
240.291
  0
LINE
  8
0
 10
137.52
 11
138.051
 20
240.291
 21
239.931
  0
LINE
  8
0
 10
138.051
 11
138.411
 20
239.931
 21
239.397
  0
LINE
  8
0
 10
138.411
 11
138.543
 20
239.397
 21
238.746
  0
LINE
  8
0
 10
138.543
 11
138.411
 20
238.746
 21
238.095
  0
LINE
  8
0
 10
138.411
 11
138.051
 20
238.095
 21
237.561
  0
LINE
  8
0
 10
138.051
 11
137.52
 20
237.561
 21
237.204
  0
LINE
  8
0
 10
137.52
 11
136.866
 20
237.204
 21
237.072
  0
LINE
  8
0
 10
136.866
 11
136.215
 20
237.072
 21
237.204
  0
LINE
  8
0
 10
136.215
 11
135.681
 20
237.204
 21
237.561
  0
LINE
  8
0
 10
135.681
 11
135.321
 20
237.561
 21
238.095
  0
LINE
  8
0
 10
135.321
 11
135.189
 20
238.095
 21
238.746
  0
LINE
  8
0
 10
135.189
 11
135.321
 20
258.477
 21
259.128
  0
LINE
  8
0
 10
135.321
 11
135.681
 20
259.128
 21
259.662
  0
LINE
  8
0
 10
135.681
 11
136.215
 20
259.662
 21
260.019
  0
LINE
  8
0
 10
136.215
 11
136.866
 20
260.019
 21
260.151
  0
LINE
  8
0
 10
136.866
 11
137.52
 20
260.151
 21
260.019
  0
LINE
  8
0
 10
137.52
 11
138.051
 20
260.019
 21
259.662
  0
LINE
  8
0
 10
138.051
 11
138.411
 20
259.662
 21
259.128
  0
LINE
  8
0
 10
138.411
 11
138.543
 20
259.128
 21
258.477
  0
LINE
  8
0
 10
138.543
 11
138.411
 20
258.477
 21
257.826
  0
LINE
  8
0
 10
138.411
 11
138.051
 20
257.826
 21
257.292
  0
LINE
  8
0
 10
138.051
 11
137.52
 20
257.292
 21
256.935
  0
LINE
  8
0
 10
137.52
 11
136.866
 20
256.935
 21
256.803
  0
LINE
  8
0
 10
136.866
 11
136.215
 20
256.803
 21
256.935
  0
LINE
  8
0
 10
136.215
 11
135.681
 20
256.935
 21
257.292
  0
LINE
  8
0
 10
135.681
 11
135.321
 20
257.292
 21
257.826
  0
LINE
  8
0
 10
135.321
 11
135.189
 20
257.826
 21
258.477
  0
LINE
  8
0
 10
140.124
 11
140.256
 20
209.145
 21
209.799
  0
LINE
  8
0
 10
140.256
 11
140.613
 20
209.799
 21
210.333
  0
LINE
  8
0
 10
140.613
 11
141.147
 20
210.333
 21
210.693
  0
LINE
  8
0
 10
141.147
 11
141.801
 20
210.693
 21
210.825
  0
LINE
  8
0
 10
141.801
 11
142.452
 20
210.825
 21
210.693
  0
LINE
  8
0
 10
142.452
 11
142.983
 20
210.693
 21
210.333
  0
LINE
  8
0
 10
142.983
 11
143.343
 20
210.333
 21
209.799
  0
LINE
  8
0
 10
143.343
 11
143.475
 20
209.799
 21
209.145
  0
LINE
  8
0
 10
143.475
 11
143.343
 20
209.145
 21
208.494
  0
LINE
  8
0
 10
143.343
 11
142.983
 20
208.494
 21
207.96
  0
LINE
  8
0
 10
142.983
 11
142.452
 20
207.96
 21
207.603
  0
LINE
  8
0
 10
142.452
 11
141.801
 20
207.603
 21
207.471
  0
LINE
  8
0
 10
141.801
 11
141.147
 20
207.471
 21
207.603
  0
LINE
  8
0
 10
141.147
 11
140.613
 20
207.603
 21
207.96
  0
LINE
  8
0
 10
140.613
 11
140.256
 20
207.96
 21
208.494
  0
LINE
  8
0
 10
140.256
 11
140.124
 20
208.494
 21
209.145
  0
LINE
  8
0
 10
140.124
 11
140.256
 20
228.879
 21
229.533
  0
LINE
  8
0
 10
140.256
 11
140.613
 20
229.533
 21
230.064
  0
LINE
  8
0
 10
140.613
 11
141.147
 20
230.064
 21
230.424
  0
LINE
  8
0
 10
141.147
 11
141.801
 20
230.424
 21
230.556
  0
LINE
  8
0
 10
141.801
 11
142.452
 20
230.556
 21
230.424
  0
LINE
  8
0
 10
142.452
 11
142.983
 20
230.424
 21
230.064
  0
LINE
  8
0
 10
142.983
 11
143.343
 20
230.064
 21
229.533
  0
LINE
  8
0
 10
143.343
 11
143.475
 20
229.533
 21
228.879
  0
LINE
  8
0
 10
143.475
 11
143.343
 20
228.879
 21
228.228
  0
LINE
  8
0
 10
143.343
 11
142.983
 20
228.228
 21
227.697
  0
LINE
  8
0
 10
142.983
 11
142.452
 20
227.697
 21
227.337
  0
LINE
  8
0
 10
142.452
 11
141.801
 20
227.337
 21
227.205
  0
LINE
  8
0
 10
141.801
 11
141.147
 20
227.205
 21
227.337
  0
LINE
  8
0
 10
141.147
 11
140.613
 20
227.337
 21
227.697
  0
LINE
  8
0
 10
140.613
 11
140.256
 20
227.697
 21
228.228
  0
LINE
  8
0
 10
140.256
 11
140.124
 20
228.228
 21
228.879
  0
LINE
  8
0
 10
140.124
 11
140.256
 20
248.613
 21
249.264
  0
LINE
  8
0
 10
140.256
 11
140.613
 20
249.264
 21
249.798
  0
LINE
  8
0
 10
140.613
 11
141.147
 20
249.798
 21
250.155
  0
LINE
  8
0
 10
141.147
 11
141.801
 20
250.155
 21
250.287
  0
LINE
  8
0
 10
141.801
 11
142.452
 20
250.287
 21
250.155
  0
LINE
  8
0
 10
142.452
 11
142.983
 20
250.155
 21
249.798
  0
LINE
  8
0
 10
142.983
 11
143.343
 20
249.798
 21
249.264
  0
LINE
  8
0
 10
143.343
 11
143.475
 20
249.264
 21
248.613
  0
LINE
  8
0
 10
143.475
 11
143.343
 20
248.613
 21
247.959
  0
LINE
  8
0
 10
143.343
 11
142.983
 20
247.959
 21
247.428
  0
LINE
  8
0
 10
142.983
 11
142.452
 20
247.428
 21
247.071
  0
LINE
  8
0
 10
142.452
 11
141.801
 20
247.071
 21
246.939
  0
LINE
  8
0
 10
141.801
 11
141.147
 20
246.939
 21
247.071
  0
LINE
  8
0
 10
141.147
 11
140.613
 20
247.071
 21
247.428
  0
LINE
  8
0
 10
140.613
 11
140.256
 20
247.428
 21
247.959
  0
LINE
  8
0
 10
140.256
 11
140.124
 20
247.959
 21
248.613
  0
LINE
  8
0
 10
140.124
 11
140.256
 20
268.341
 21
268.995
  0
LINE
  8
0
 10
140.256
 11
140.613
 20
268.995
 21
269.529
  0
LINE
  8
0
 10
140.613
 11
141.147
 20
269.529
 21
269.886
  0
LINE
  8
0
 10
141.147
 11
141.801
 20
269.886
 21
270.018
  0
LINE
  8
0
 10
141.801
 11
142.452
 20
270.018
 21
269.886
  0
LINE
  8
0
 10
142.452
 11
142.983
 20
269.886
 21
269.529
  0
LINE
  8
0
 10
142.983
 11
143.343
 20
269.529
 21
268.995
  0
LINE
  8
0
 10
143.343
 11
143.475
 20
268.995
 21
268.341
  0
LINE
  8
0
 10
143.475
 11
143.343
 20
268.341
 21
267.69
  0
LINE
  8
0
 10
143.343
 11
142.983
 20
267.69
 21
267.159
  0
LINE
  8
0
 10
142.983
 11
142.452
 20
267.159
 21
266.799
  0
LINE
  8
0
 10
142.452
 11
141.801
 20
266.799
 21
266.67
  0
LINE
  8
0
 10
141.801
 11
141.147
 20
266.67
 21
266.799
  0
LINE
  8
0
 10
141.147
 11
140.613
 20
266.799
 21
267.159
  0
LINE
  8
0
 10
140.613
 11
140.256
 20
267.159
 21
267.69
  0
LINE
  8
0
 10
140.256
 11
140.124
 20
267.69
 21
268.341
  0
LINE
  8
0
 10
145.056
 11
145.188
 20
219.015
 21
219.669
  0
LINE
  8
0
 10
145.188
 11
145.548
 20
219.669
 21
220.2
  0
LINE
  8
0
 10
145.548
 11
146.079
 20
220.2
 21
220.56
  0
LINE
  8
0
 10
146.079
 11
146.73
 20
220.56
 21
220.692
  0
LINE
  8
0
 10
146.73
 11
147.384
 20
220.692
 21
220.56
  0
LINE
  8
0
 10
147.384
 11
147.915
 20
220.56
 21
220.2
  0
LINE
  8
0
 10
147.915
 11
148.275
 20
220.2
 21
219.669
  0
LINE
  8
0
 10
148.275
 11
148.407
 20
219.669
 21
219.015
  0
LINE
  8
0
 10
148.407
 11
148.275
 20
219.015
 21
218.364
  0
LINE
  8
0
 10
148.275
 11
147.915
 20
218.364
 21
217.833
  0
LINE
  8
0
 10
147.915
 11
147.384
 20
217.833
 21
217.473
  0
LINE
  8
0
 10
147.384
 11
146.73
 20
217.473
 21
217.341
  0
LINE
  8
0
 10
146.73
 11
146.079
 20
217.341
 21
217.473
  0
LINE
  8
0
 10
146.079
 11
145.548
 20
217.473
 21
217.833
  0
LINE
  8
0
 10
145.548
 11
145.188
 20
217.833
 21
218.364
  0
LINE
  8
0
 10
145.188
 11
145.056
 20
218.364
 21
219.015
  0
LINE
  8
0
 10
145.056
 11
145.188
 20
238.746
 21
239.397
  0
LINE
  8
0
 10
145.188
 11
145.548
 20
239.397
 21
239.931
  0
LINE
  8
0
 10
145.548
 11
146.079
 20
239.931
 21
240.291
  0
LINE
  8
0
 10
146.079
 11
146.73
 20
240.291
 21
240.42
  0
LINE
  8
0
 10
146.73
 11
147.384
 20
240.42
 21
240.291
  0
LINE
  8
0
 10
147.384
 11
147.915
 20
240.291
 21
239.931
  0
LINE
  8
0
 10
147.915
 11
148.275
 20
239.931
 21
239.397
  0
LINE
  8
0
 10
148.275
 11
148.407
 20
239.397
 21
238.746
  0
LINE
  8
0
 10
148.407
 11
148.275
 20
238.746
 21
238.095
  0
LINE
  8
0
 10
148.275
 11
147.915
 20
238.095
 21
237.561
  0
LINE
  8
0
 10
147.915
 11
147.384
 20
237.561
 21
237.204
  0
LINE
  8
0
 10
147.384
 11
146.73
 20
237.204
 21
237.072
  0
LINE
  8
0
 10
146.73
 11
146.079
 20
237.072
 21
237.204
  0
LINE
  8
0
 10
146.079
 11
145.548
 20
237.204
 21
237.561
  0
LINE
  8
0
 10
145.548
 11
145.188
 20
237.561
 21
238.095
  0
LINE
  8
0
 10
145.188
 11
145.056
 20
238.095
 21
238.746
  0
LINE
  8
0
 10
145.056
 11
145.188
 20
258.477
 21
259.128
  0
LINE
  8
0
 10
145.188
 11
145.548
 20
259.128
 21
259.662
  0
LINE
  8
0
 10
145.548
 11
146.079
 20
259.662
 21
260.019
  0
LINE
  8
0
 10
146.079
 11
146.73
 20
260.019
 21
260.151
  0
LINE
  8
0
 10
146.73
 11
147.384
 20
260.151
 21
260.019
  0
LINE
  8
0
 10
147.384
 11
147.915
 20
260.019
 21
259.662
  0
LINE
  8
0
 10
147.915
 11
148.275
 20
259.662
 21
259.128
  0
LINE
  8
0
 10
148.275
 11
148.407
 20
259.128
 21
258.477
  0
LINE
  8
0
 10
148.407
 11
148.275
 20
258.477
 21
257.826
  0
LINE
  8
0
 10
148.275
 11
147.915
 20
257.826
 21
257.292
  0
LINE
  8
0
 10
147.915
 11
147.384
 20
257.292
 21
256.935
  0
LINE
  8
0
 10
147.384
 11
146.73
 20
256.935
 21
256.803
  0
LINE
  8
0
 10
146.73
 11
146.079
 20
256.803
 21
256.935
  0
LINE
  8
0
 10
146.079
 11
145.548
 20
256.935
 21
257.292
  0
LINE
  8
0
 10
145.548
 11
145.188
 20
257.292
 21
257.826
  0
LINE
  8
0
 10
145.188
 11
145.056
 20
257.826
 21
258.477
  0
LINE
  8
0
 10
149.988
 11
150.12
 20
209.145
 21
209.799
  0
LINE
  8
0
 10
150.12
 11
150.48
 20
209.799
 21
210.333
  0
LINE
  8
0
 10
150.48
 11
151.011
 20
210.333
 21
210.693
  0
LINE
  8
0
 10
151.011
 11
151.665
 20
210.693
 21
210.825
  0
LINE
  8
0
 10
151.665
 11
152.316
 20
210.825
 21
210.693
  0
LINE
  8
0
 10
152.316
 11
152.847
 20
210.693
 21
210.333
  0
LINE
  8
0
 10
152.847
 11
153.207
 20
210.333
 21
209.799
  0
LINE
  8
0
 10
153.207
 11
153.339
 20
209.799
 21
209.145
  0
LINE
  8
0
 10
153.339
 11
153.207
 20
209.145
 21
208.494
  0
LINE
  8
0
 10
153.207
 11
152.847
 20
208.494
 21
207.96
  0
LINE
  8
0
 10
152.847
 11
152.316
 20
207.96
 21
207.603
  0
LINE
  8
0
 10
152.316
 11
151.665
 20
207.603
 21
207.471
  0
LINE
  8
0
 10
151.665
 11
151.011
 20
207.471
 21
207.603
  0
LINE
  8
0
 10
151.011
 11
150.48
 20
207.603
 21
207.96
  0
LINE
  8
0
 10
150.48
 11
150.12
 20
207.96
 21
208.494
  0
LINE
  8
0
 10
150.12
 11
149.988
 20
208.494
 21
209.145
  0
LINE
  8
0
 10
149.988
 11
150.12
 20
228.879
 21
229.533
  0
LINE
  8
0
 10
150.12
 11
150.48
 20
229.533
 21
230.064
  0
LINE
  8
0
 10
150.48
 11
151.011
 20
230.064
 21
230.424
  0
LINE
  8
0
 10
151.011
 11
151.665
 20
230.424
 21
230.556
  0
LINE
  8
0
 10
151.665
 11
152.316
 20
230.556
 21
230.424
  0
LINE
  8
0
 10
152.316
 11
152.847
 20
230.424
 21
230.064
  0
LINE
  8
0
 10
152.847
 11
153.207
 20
230.064
 21
229.533
  0
LINE
  8
0
 10
153.207
 11
153.339
 20
229.533
 21
228.879
  0
LINE
  8
0
 10
153.339
 11
153.207
 20
228.879
 21
228.228
  0
LINE
  8
0
 10
153.207
 11
152.847
 20
228.228
 21
227.697
  0
LINE
  8
0
 10
152.847
 11
152.316
 20
227.697
 21
227.337
  0
LINE
  8
0
 10
152.316
 11
151.665
 20
227.337
 21
227.205
  0
LINE
  8
0
 10
151.665
 11
151.011
 20
227.205
 21
227.337
  0
LINE
  8
0
 10
151.011
 11
150.48
 20
227.337
 21
227.697
  0
LINE
  8
0
 10
150.48
 11
150.12
 20
227.697
 21
228.228
  0
LINE
  8
0
 10
150.12
 11
149.988
 20
228.228
 21
228.879
  0
LINE
  8
0
 10
149.988
 11
150.12
 20
248.613
 21
249.264
  0
LINE
  8
0
 10
150.12
 11
150.48
 20
249.264
 21
249.798
  0
LINE
  8
0
 10
150.48
 11
151.011
 20
249.798
 21
250.155
  0
LINE
  8
0
 10
151.011
 11
151.665
 20
250.155
 21
250.287
  0
LINE
  8
0
 10
151.665
 11
152.316
 20
250.287
 21
250.155
  0
LINE
  8
0
 10
152.316
 11
152.847
 20
250.155
 21
249.798
  0
LINE
  8
0
 10
152.847
 11
153.207
 20
249.798
 21
249.264
  0
LINE
  8
0
 10
153.207
 11
153.339
 20
249.264
 21
248.613
  0
LINE
  8
0
 10
153.339
 11
153.207
 20
248.613
 21
247.959
  0
LINE
  8
0
 10
153.207
 11
152.847
 20
247.959
 21
247.428
  0
LINE
  8
0
 10
152.847
 11
152.316
 20
247.428
 21
247.071
  0
LINE
  8
0
 10
152.316
 11
151.665
 20
247.071
 21
246.939
  0
LINE
  8
0
 10
151.665
 11
151.011
 20
246.939
 21
247.071
  0
LINE
  8
0
 10
151.011
 11
150.48
 20
247.071
 21
247.428
  0
LINE
  8
0
 10
150.48
 11
150.12
 20
247.428
 21
247.959
  0
LINE
  8
0
 10
150.12
 11
149.988
 20
247.959
 21
248.613
  0
LINE
  8
0
 10
149.988
 11
150.12
 20
268.341
 21
268.995
  0
LINE
  8
0
 10
150.12
 11
150.48
 20
268.995
 21
269.529
  0
LINE
  8
0
 10
150.48
 11
151.011
 20
269.529
 21
269.886
  0
LINE
  8
0
 10
151.011
 11
151.665
 20
269.886
 21
270.018
  0
LINE
  8
0
 10
151.665
 11
152.316
 20
270.018
 21
269.886
  0
LINE
  8
0
 10
152.316
 11
152.847
 20
269.886
 21
269.529
  0
LINE
  8
0
 10
152.847
 11
153.207
 20
269.529
 21
268.995
  0
LINE
  8
0
 10
153.207
 11
153.339
 20
268.995
 21
268.341
  0
LINE
  8
0
 10
153.339
 11
153.207
 20
268.341
 21
267.69
  0
LINE
  8
0
 10
153.207
 11
152.847
 20
267.69
 21
267.159
  0
LINE
  8
0
 10
152.847
 11
152.316
 20
267.159
 21
266.799
  0
LINE
  8
0
 10
152.316
 11
151.665
 20
266.799
 21
266.67
  0
LINE
  8
0
 10
151.665
 11
151.011
 20
266.67
 21
266.799
  0
LINE
  8
0
 10
151.011
 11
150.48
 20
266.799
 21
267.159
  0
LINE
  8
0
 10
150.48
 11
150.12
 20
267.159
 21
267.69
  0
LINE
  8
0
 10
150.12
 11
149.988
 20
267.69
 21
268.341
  0
LINE
  8
0
 10
154.923
 11
155.055
 20
219.015
 21
219.669
  0
LINE
  8
0
 10
155.055
 11
155.412
 20
219.669
 21
220.2
  0
LINE
  8
0
 10
155.412
 11
155.946
 20
220.2
 21
220.56
  0
LINE
  8
0
 10
155.946
 11
156.597
 20
220.56
 21
220.692
  0
LINE
  8
0
 10
156.597
 11
157.248
 20
220.692
 21
220.56
  0
LINE
  8
0
 10
157.248
 11
157.782
 20
220.56
 21
220.2
  0
LINE
  8
0
 10
157.782
 11
158.139
 20
220.2
 21
219.669
  0
LINE
  8
0
 10
158.139
 11
158.271
 20
219.669
 21
219.015
  0
LINE
  8
0
 10
158.271
 11
158.139
 20
219.015
 21
218.364
  0
LINE
  8
0
 10
158.139
 11
157.782
 20
218.364
 21
217.833
  0
LINE
  8
0
 10
157.782
 11
157.248
 20
217.833
 21
217.473
  0
LINE
  8
0
 10
157.248
 11
156.597
 20
217.473
 21
217.341
  0
LINE
  8
0
 10
156.597
 11
155.946
 20
217.341
 21
217.473
  0
LINE
  8
0
 10
155.946
 11
155.412
 20
217.473
 21
217.833
  0
LINE
  8
0
 10
155.412
 11
155.055
 20
217.833
 21
218.364
  0
LINE
  8
0
 10
155.055
 11
154.923
 20
218.364
 21
219.015
  0
LINE
  8
0
 10
154.923
 11
155.055
 20
238.746
 21
239.397
  0
LINE
  8
0
 10
155.055
 11
155.412
 20
239.397
 21
239.931
  0
LINE
  8
0
 10
155.412
 11
155.946
 20
239.931
 21
240.291
  0
LINE
  8
0
 10
155.946
 11
156.597
 20
240.291
 21
240.42
  0
LINE
  8
0
 10
156.597
 11
157.248
 20
240.42
 21
240.291
  0
LINE
  8
0
 10
157.248
 11
157.782
 20
240.291
 21
239.931
  0
LINE
  8
0
 10
157.782
 11
158.139
 20
239.931
 21
239.397
  0
LINE
  8
0
 10
158.139
 11
158.271
 20
239.397
 21
238.746
  0
LINE
  8
0
 10
158.271
 11
158.139
 20
238.746
 21
238.095
  0
LINE
  8
0
 10
158.139
 11
157.782
 20
238.095
 21
237.561
  0
LINE
  8
0
 10
157.782
 11
157.248
 20
237.561
 21
237.204
  0
LINE
  8
0
 10
157.248
 11
156.597
 20
237.204
 21
237.072
  0
LINE
  8
0
 10
156.597
 11
155.946
 20
237.072
 21
237.204
  0
LINE
  8
0
 10
155.946
 11
155.412
 20
237.204
 21
237.561
  0
LINE
  8
0
 10
155.412
 11
155.055
 20
237.561
 21
238.095
  0
LINE
  8
0
 10
155.055
 11
154.923
 20
238.095
 21
238.746
  0
LINE
  8
0
 10
154.923
 11
155.055
 20
258.477
 21
259.128
  0
LINE
  8
0
 10
155.055
 11
155.412
 20
259.128
 21
259.662
  0
LINE
  8
0
 10
155.412
 11
155.946
 20
259.662
 21
260.019
  0
LINE
  8
0
 10
155.946
 11
156.597
 20
260.019
 21
260.151
  0
LINE
  8
0
 10
156.597
 11
157.248
 20
260.151
 21
260.019
  0
LINE
  8
0
 10
157.248
 11
157.782
 20
260.019
 21
259.662
  0
LINE
  8
0
 10
157.782
 11
158.139
 20
259.662
 21
259.128
  0
LINE
  8
0
 10
158.139
 11
158.271
 20
259.128
 21
258.477
  0
LINE
  8
0
 10
158.271
 11
158.139
 20
258.477
 21
257.826
  0
LINE
  8
0
 10
158.139
 11
157.782
 20
257.826
 21
257.292
  0
LINE
  8
0
 10
157.782
 11
157.248
 20
257.292
 21
256.935
  0
LINE
  8
0
 10
157.248
 11
156.597
 20
256.935
 21
256.803
  0
LINE
  8
0
 10
156.597
 11
155.946
 20
256.803
 21
256.935
  0
LINE
  8
0
 10
155.946
 11
155.412
 20
256.935
 21
257.292
  0
LINE
  8
0
 10
155.412
 11
155.055
 20
257.292
 21
257.826
  0
LINE
  8
0
 10
155.055
 11
154.923
 20
257.826
 21
258.477
  0
LINE
  8
0
 10
159.855
 11
159.987
 20
209.145
 21
209.799
  0
LINE
  8
0
 10
159.987
 11
160.344
 20
209.799
 21
210.333
  0
LINE
  8
0
 10
160.344
 11
160.878
 20
210.333
 21
210.693
  0
LINE
  8
0
 10
160.878
 11
161.529
 20
210.693
 21
210.825
  0
LINE
  8
0
 10
161.529
 11
162.183
 20
210.825
 21
210.693
  0
LINE
  8
0
 10
162.183
 11
162.714
 20
210.693
 21
210.333
  0
LINE
  8
0
 10
162.714
 11
163.074
 20
210.333
 21
209.799
  0
LINE
  8
0
 10
163.074
 11
163.206
 20
209.799
 21
209.145
  0
LINE
  8
0
 10
163.206
 11
163.074
 20
209.145
 21
208.494
  0
LINE
  8
0
 10
163.074
 11
162.714
 20
208.494
 21
207.96
  0
LINE
  8
0
 10
162.714
 11
162.183
 20
207.96
 21
207.603
  0
LINE
  8
0
 10
162.183
 11
161.529
 20
207.603
 21
207.471
  0
LINE
  8
0
 10
161.529
 11
160.878
 20
207.471
 21
207.603
  0
LINE
  8
0
 10
160.878
 11
160.344
 20
207.603
 21
207.96
  0
LINE
  8
0
 10
160.344
 11
159.984
 20
207.96
 21
208.494
  0
LINE
  8
0
 10
159.984
 11
159.855
 20
208.494
 21
209.145
  0
LINE
  8
0
 10
159.855
 11
159.987
 20
228.879
 21
229.533
  0
LINE
  8
0
 10
159.987
 11
160.344
 20
229.533
 21
230.064
  0
LINE
  8
0
 10
160.344
 11
160.878
 20
230.064
 21
230.424
  0
LINE
  8
0
 10
160.878
 11
161.529
 20
230.424
 21
230.556
  0
LINE
  8
0
 10
161.529
 11
162.183
 20
230.556
 21
230.424
  0
LINE
  8
0
 10
162.183
 11
162.714
 20
230.424
 21
230.064
  0
LINE
  8
0
 10
162.714
 11
163.074
 20
230.064
 21
229.533
  0
LINE
  8
0
 10
163.074
 11
163.206
 20
229.533
 21
228.879
  0
LINE
  8
0
 10
163.206
 11
163.074
 20
228.879
 21
228.228
  0
LINE
  8
0
 10
163.074
 11
162.714
 20
228.228
 21
227.697
  0
LINE
  8
0
 10
162.714
 11
162.183
 20
227.697
 21
227.337
  0
LINE
  8
0
 10
162.183
 11
161.529
 20
227.337
 21
227.205
  0
LINE
  8
0
 10
161.529
 11
160.878
 20
227.205
 21
227.337
  0
LINE
  8
0
 10
160.878
 11
160.344
 20
227.337
 21
227.697
  0
LINE
  8
0
 10
160.344
 11
159.984
 20
227.697
 21
228.228
  0
LINE
  8
0
 10
159.984
 11
159.855
 20
228.228
 21
228.879
  0
LINE
  8
0
 10
159.855
 11
159.987
 20
248.613
 21
249.264
  0
LINE
  8
0
 10
159.987
 11
160.344
 20
249.264
 21
249.798
  0
LINE
  8
0
 10
160.344
 11
160.878
 20
249.798
 21
250.155
  0
LINE
  8
0
 10
160.878
 11
161.529
 20
250.155
 21
250.287
  0
LINE
  8
0
 10
161.529
 11
162.183
 20
250.287
 21
250.155
  0
LINE
  8
0
 10
162.183
 11
162.714
 20
250.155
 21
249.798
  0
LINE
  8
0
 10
162.714
 11
163.074
 20
249.798
 21
249.264
  0
LINE
  8
0
 10
163.074
 11
163.206
 20
249.264
 21
248.613
  0
LINE
  8
0
 10
163.206
 11
163.074
 20
248.613
 21
247.959
  0
LINE
  8
0
 10
163.074
 11
162.714
 20
247.959
 21
247.428
  0
LINE
  8
0
 10
162.714
 11
162.183
 20
247.428
 21
247.071
  0
LINE
  8
0
 10
162.183
 11
161.529
 20
247.071
 21
246.939
  0
LINE
  8
0
 10
161.529
 11
160.878
 20
246.939
 21
247.071
  0
LINE
  8
0
 10
160.878
 11
160.344
 20
247.071
 21
247.428
  0
LINE
  8
0
 10
160.344
 11
159.984
 20
247.428
 21
247.959
  0
LINE
  8
0
 10
159.984
 11
159.855
 20
247.959
 21
248.613
  0
LINE
  8
0
 10
159.855
 11
159.987
 20
268.341
 21
268.995
  0
LINE
  8
0
 10
159.987
 11
160.344
 20
268.995
 21
269.529
  0
LINE
  8
0
 10
160.344
 11
160.878
 20
269.529
 21
269.886
  0
LINE
  8
0
 10
160.878
 11
161.529
 20
269.886
 21
270.018
  0
LINE
  8
0
 10
161.529
 11
162.183
 20
270.018
 21
269.886
  0
LINE
  8
0
 10
162.183
 11
162.714
 20
269.886
 21
269.529
  0
LINE
  8
0
 10
162.714
 11
163.074
 20
269.529
 21
268.995
  0
LINE
  8
0
 10
163.074
 11
163.206
 20
268.995
 21
268.341
  0
LINE
  8
0
 10
163.206
 11
163.074
 20
268.341
 21
267.69
  0
LINE
  8
0
 10
163.074
 11
162.714
 20
267.69
 21
267.159
  0
LINE
  8
0
 10
162.714
 11
162.183
 20
267.159
 21
266.799
  0
LINE
  8
0
 10
162.183
 11
161.529
 20
266.799
 21
266.67
  0
LINE
  8
0
 10
161.529
 11
160.878
 20
266.67
 21
266.799
  0
LINE
  8
0
 10
160.878
 11
160.344
 20
266.799
 21
267.159
  0
LINE
  8
0
 10
160.344
 11
159.984
 20
267.159
 21
267.69
  0
LINE
  8
0
 10
159.984
 11
159.855
 20
267.69
 21
268.341
  0
LINE
  8
0
 10
164.787
 11
164.919
 20
199.281
 21
199.932
  0
LINE
  8
0
 10
164.919
 11
165.276
 20
199.932
 21
200.463
  0
LINE
  8
0
 10
165.276
 11
165.81
 20
200.463
 21
200.823
  0
LINE
  8
0
 10
165.81
 11
166.461
 20
200.823
 21
200.955
  0
LINE
  8
0
 10
166.461
 11
167.115
 20
200.955
 21
200.823
  0
LINE
  8
0
 10
167.115
 11
167.646
 20
200.823
 21
200.463
  0
LINE
  8
0
 10
167.646
 11
168.006
 20
200.463
 21
199.932
  0
LINE
  8
0
 10
168.006
 11
168.138
 20
199.932
 21
199.281
  0
LINE
  8
0
 10
168.138
 11
168.006
 20
199.281
 21
198.627
  0
LINE
  8
0
 10
168.006
 11
167.646
 20
198.627
 21
198.096
  0
LINE
  8
0
 10
167.646
 11
167.115
 20
198.096
 21
197.736
  0
LINE
  8
0
 10
167.115
 11
166.461
 20
197.736
 21
197.604
  0
LINE
  8
0
 10
166.461
 11
165.81
 20
197.604
 21
197.736
  0
LINE
  8
0
 10
165.81
 11
165.276
 20
197.736
 21
198.096
  0
LINE
  8
0
 10
165.276
 11
164.919
 20
198.096
 21
198.627
  0
LINE
  8
0
 10
164.919
 11
164.787
 20
198.627
 21
199.281
  0
LINE
  8
0
 10
164.787
 11
164.919
 20
219.015
 21
219.669
  0
LINE
  8
0
 10
164.919
 11
165.276
 20
219.669
 21
220.2
  0
LINE
  8
0
 10
165.276
 11
165.81
 20
220.2
 21
220.56
  0
LINE
  8
0
 10
165.81
 11
166.461
 20
220.56
 21
220.692
  0
LINE
  8
0
 10
166.461
 11
167.115
 20
220.692
 21
220.56
  0
LINE
  8
0
 10
167.115
 11
167.646
 20
220.56
 21
220.2
  0
LINE
  8
0
 10
167.646
 11
168.006
 20
220.2
 21
219.669
  0
LINE
  8
0
 10
168.006
 11
168.138
 20
219.669
 21
219.015
  0
LINE
  8
0
 10
168.138
 11
168.006
 20
219.015
 21
218.364
  0
LINE
  8
0
 10
168.006
 11
167.646
 20
218.364
 21
217.833
  0
LINE
  8
0
 10
167.646
 11
167.115
 20
217.833
 21
217.473
  0
LINE
  8
0
 10
167.115
 11
166.461
 20
217.473
 21
217.341
  0
LINE
  8
0
 10
166.461
 11
165.81
 20
217.341
 21
217.473
  0
LINE
  8
0
 10
165.81
 11
165.276
 20
217.473
 21
217.833
  0
LINE
  8
0
 10
165.276
 11
164.919
 20
217.833
 21
218.364
  0
LINE
  8
0
 10
164.919
 11
164.787
 20
218.364
 21
219.015
  0
LINE
  8
0
 10
164.787
 11
164.919
 20
238.746
 21
239.397
  0
LINE
  8
0
 10
164.919
 11
165.276
 20
239.397
 21
239.931
  0
LINE
  8
0
 10
165.276
 11
165.81
 20
239.931
 21
240.291
  0
LINE
  8
0
 10
165.81
 11
166.461
 20
240.291
 21
240.42
  0
LINE
  8
0
 10
166.461
 11
167.115
 20
240.42
 21
240.291
  0
LINE
  8
0
 10
167.115
 11
167.646
 20
240.291
 21
239.931
  0
LINE
  8
0
 10
167.646
 11
168.006
 20
239.931
 21
239.397
  0
LINE
  8
0
 10
168.006
 11
168.138
 20
239.397
 21
238.746
  0
LINE
  8
0
 10
168.138
 11
168.006
 20
238.746
 21
238.095
  0
LINE
  8
0
 10
168.006
 11
167.646
 20
238.095
 21
237.561
  0
LINE
  8
0
 10
167.646
 11
167.115
 20
237.561
 21
237.204
  0
LINE
  8
0
 10
167.115
 11
166.461
 20
237.204
 21
237.072
  0
LINE
  8
0
 10
166.461
 11
165.81
 20
237.072
 21
237.204
  0
LINE
  8
0
 10
165.81
 11
165.276
 20
237.204
 21
237.561
  0
LINE
  8
0
 10
165.276
 11
164.919
 20
237.561
 21
238.095
  0
LINE
  8
0
 10
164.919
 11
164.787
 20
238.095
 21
238.746
  0
LINE
  8
0
 10
164.787
 11
164.919
 20
258.477
 21
259.128
  0
LINE
  8
0
 10
164.919
 11
165.276
 20
259.128
 21
259.662
  0
LINE
  8
0
 10
165.276
 11
165.81
 20
259.662
 21
260.019
  0
LINE
  8
0
 10
165.81
 11
166.461
 20
260.019
 21
260.151
  0
LINE
  8
0
 10
166.461
 11
167.115
 20
260.151
 21
260.019
  0
LINE
  8
0
 10
167.115
 11
167.646
 20
260.019
 21
259.662
  0
LINE
  8
0
 10
167.646
 11
168.006
 20
259.662
 21
259.128
  0
LINE
  8
0
 10
168.006
 11
168.138
 20
259.128
 21
258.477
  0
LINE
  8
0
 10
168.138
 11
168.006
 20
258.477
 21
257.826
  0
LINE
  8
0
 10
168.006
 11
167.646
 20
257.826
 21
257.292
  0
LINE
  8
0
 10
167.646
 11
167.115
 20
257.292
 21
256.935
  0
LINE
  8
0
 10
167.115
 11
166.461
 20
256.935
 21
256.803
  0
LINE
  8
0
 10
166.461
 11
165.81
 20
256.803
 21
256.935
  0
LINE
  8
0
 10
165.81
 11
165.276
 20
256.935
 21
257.292
  0
LINE
  8
0
 10
165.276
 11
164.919
 20
257.292
 21
257.826
  0
LINE
  8
0
 10
164.919
 11
164.787
 20
257.826
 21
258.477
  0
LINE
  8
0
 10
169.719
 11
169.851
 20
209.145
 21
209.799
  0
LINE
  8
0
 10
169.851
 11
170.211
 20
209.799
 21
210.333
  0
LINE
  8
0
 10
170.211
 11
170.742
 20
210.333
 21
210.693
  0
LINE
  8
0
 10
170.742
 11
171.396
 20
210.693
 21
210.825
  0
LINE
  8
0
 10
171.396
 11
172.047
 20
210.825
 21
210.693
  0
LINE
  8
0
 10
172.047
 11
172.581
 20
210.693
 21
210.333
  0
LINE
  8
0
 10
172.581
 11
172.941
 20
210.333
 21
209.799
  0
LINE
  8
0
 10
172.941
 11
173.073
 20
209.799
 21
209.145
  0
LINE
  8
0
 10
173.073
 11
172.941
 20
209.145
 21
208.494
  0
LINE
  8
0
 10
172.941
 11
172.581
 20
208.494
 21
207.96
  0
LINE
  8
0
 10
172.581
 11
172.047
 20
207.96
 21
207.603
  0
LINE
  8
0
 10
172.047
 11
171.396
 20
207.603
 21
207.471
  0
LINE
  8
0
 10
171.396
 11
170.742
 20
207.471
 21
207.603
  0
LINE
  8
0
 10
170.742
 11
170.211
 20
207.603
 21
207.96
  0
LINE
  8
0
 10
170.211
 11
169.851
 20
207.96
 21
208.494
  0
LINE
  8
0
 10
169.851
 11
169.719
 20
208.494
 21
209.145
  0
LINE
  8
0
 10
169.719
 11
169.851
 20
228.879
 21
229.533
  0
LINE
  8
0
 10
169.851
 11
170.211
 20
229.533
 21
230.064
  0
LINE
  8
0
 10
170.211
 11
170.742
 20
230.064
 21
230.424
  0
LINE
  8
0
 10
170.742
 11
171.396
 20
230.424
 21
230.556
  0
LINE
  8
0
 10
171.396
 11
172.047
 20
230.556
 21
230.424
  0
LINE
  8
0
 10
172.047
 11
172.581
 20
230.424
 21
230.064
  0
LINE
  8
0
 10
172.581
 11
172.941
 20
230.064
 21
229.533
  0
LINE
  8
0
 10
172.941
 11
173.073
 20
229.533
 21
228.879
  0
LINE
  8
0
 10
173.073
 11
172.941
 20
228.879
 21
228.228
  0
LINE
  8
0
 10
172.941
 11
172.581
 20
228.228
 21
227.697
  0
LINE
  8
0
 10
172.581
 11
172.047
 20
227.697
 21
227.337
  0
LINE
  8
0
 10
172.047
 11
171.396
 20
227.337
 21
227.205
  0
LINE
  8
0
 10
171.396
 11
170.742
 20
227.205
 21
227.337
  0
LINE
  8
0
 10
170.742
 11
170.211
 20
227.337
 21
227.697
  0
LINE
  8
0
 10
170.211
 11
169.851
 20
227.697
 21
228.228
  0
LINE
  8
0
 10
169.851
 11
169.719
 20
228.228
 21
228.879
  0
LINE
  8
0
 10
169.719
 11
169.851
 20
248.613
 21
249.264
  0
LINE
  8
0
 10
169.851
 11
170.211
 20
249.264
 21
249.798
  0
LINE
  8
0
 10
170.211
 11
170.742
 20
249.798
 21
250.155
  0
LINE
  8
0
 10
170.742
 11
171.396
 20
250.155
 21
250.287
  0
LINE
  8
0
 10
171.396
 11
172.047
 20
250.287
 21
250.155
  0
LINE
  8
0
 10
172.047
 11
172.581
 20
250.155
 21
249.798
  0
LINE
  8
0
 10
172.581
 11
172.941
 20
249.798
 21
249.264
  0
LINE
  8
0
 10
172.941
 11
173.073
 20
249.264
 21
248.613
  0
LINE
  8
0
 10
173.073
 11
172.941
 20
248.613
 21
247.959
  0
LINE
  8
0
 10
172.941
 11
172.581
 20
247.959
 21
247.428
  0
LINE
  8
0
 10
172.581
 11
172.047
 20
247.428
 21
247.071
  0
LINE
  8
0
 10
172.047
 11
171.396
 20
247.071
 21
246.939
  0
LINE
  8
0
 10
171.396
 11
170.742
 20
246.939
 21
247.071
  0
LINE
  8
0
 10
170.742
 11
170.211
 20
247.071
 21
247.428
  0
LINE
  8
0
 10
170.211
 11
169.851
 20
247.428
 21
247.959
  0
LINE
  8
0
 10
169.851
 11
169.719
 20
247.959
 21
248.613
  0
LINE
  8
0
 10
169.719
 11
169.851
 20
268.341
 21
268.995
  0
LINE
  8
0
 10
169.851
 11
170.211
 20
268.995
 21
269.529
  0
LINE
  8
0
 10
170.211
 11
170.742
 20
269.529
 21
269.886
  0
LINE
  8
0
 10
170.742
 11
171.396
 20
269.886
 21
270.018
  0
LINE
  8
0
 10
171.396
 11
172.047
 20
270.018
 21
269.886
  0
LINE
  8
0
 10
172.047
 11
172.581
 20
269.886
 21
269.529
  0
LINE
  8
0
 10
172.581
 11
172.941
 20
269.529
 21
268.995
  0
LINE
  8
0
 10
172.941
 11
173.073
 20
268.995
 21
268.341
  0
LINE
  8
0
 10
173.073
 11
172.941
 20
268.341
 21
267.69
  0
LINE
  8
0
 10
172.941
 11
172.581
 20
267.69
 21
267.159
  0
LINE
  8
0
 10
172.581
 11
172.047
 20
267.159
 21
266.799
  0
LINE
  8
0
 10
172.047
 11
171.396
 20
266.799
 21
266.67
  0
LINE
  8
0
 10
171.396
 11
170.742
 20
266.67
 21
266.799
  0
LINE
  8
0
 10
170.742
 11
170.211
 20
266.799
 21
267.159
  0
LINE
  8
0
 10
170.211
 11
169.851
 20
267.159
 21
267.69
  0
LINE
  8
0
 10
169.851
 11
169.719
 20
267.69
 21
268.341
  0
LINE
  8
0
 10
174.651
 11
174.783
 20
199.281
 21
199.932
  0
LINE
  8
0
 10
174.783
 11
175.143
 20
199.932
 21
200.463
  0
LINE
  8
0
 10
175.143
 11
175.674
 20
200.463
 21
200.823
  0
LINE
  8
0
 10
175.674
 11
176.325
 20
200.823
 21
200.955
  0
LINE
  8
0
 10
176.325
 11
176.979
 20
200.955
 21
200.823
  0
LINE
  8
0
 10
176.979
 11
177.513
 20
200.823
 21
200.463
  0
LINE
  8
0
 10
177.513
 11
177.87
 20
200.463
 21
199.932
  0
LINE
  8
0
 10
177.87
 11
178.002
 20
199.932
 21
199.281
  0
LINE
  8
0
 10
178.002
 11
177.87
 20
199.281
 21
198.627
  0
LINE
  8
0
 10
177.87
 11
177.513
 20
198.627
 21
198.096
  0
LINE
  8
0
 10
177.513
 11
176.979
 20
198.096
 21
197.736
  0
LINE
  8
0
 10
176.979
 11
176.325
 20
197.736
 21
197.604
  0
LINE
  8
0
 10
176.325
 11
175.674
 20
197.604
 21
197.736
  0
LINE
  8
0
 10
175.674
 11
175.143
 20
197.736
 21
198.096
  0
LINE
  8
0
 10
175.143
 11
174.783
 20
198.096
 21
198.627
  0
LINE
  8
0
 10
174.783
 11
174.651
 20
198.627
 21
199.281
  0
LINE
  8
0
 10
174.651
 11
174.783
 20
219.015
 21
219.669
  0
LINE
  8
0
 10
174.783
 11
175.143
 20
219.669
 21
220.2
  0
LINE
  8
0
 10
175.143
 11
175.674
 20
220.2
 21
220.56
  0
LINE
  8
0
 10
175.674
 11
176.325
 20
220.56
 21
220.692
  0
LINE
  8
0
 10
176.325
 11
176.979
 20
220.692
 21
220.56
  0
LINE
  8
0
 10
176.979
 11
177.513
 20
220.56
 21
220.2
  0
LINE
  8
0
 10
177.513
 11
177.87
 20
220.2
 21
219.669
  0
LINE
  8
0
 10
177.87
 11
178.002
 20
219.669
 21
219.015
  0
LINE
  8
0
 10
178.002
 11
177.87
 20
219.015
 21
218.364
  0
LINE
  8
0
 10
177.87
 11
177.513
 20
218.364
 21
217.833
  0
LINE
  8
0
 10
177.513
 11
176.979
 20
217.833
 21
217.473
  0
LINE
  8
0
 10
176.979
 11
176.325
 20
217.473
 21
217.341
  0
LINE
  8
0
 10
176.325
 11
175.674
 20
217.341
 21
217.473
  0
LINE
  8
0
 10
175.674
 11
175.143
 20
217.473
 21
217.833
  0
LINE
  8
0
 10
175.143
 11
174.783
 20
217.833
 21
218.364
  0
LINE
  8
0
 10
174.783
 11
174.651
 20
218.364
 21
219.015
  0
LINE
  8
0
 10
174.651
 11
174.783
 20
238.746
 21
239.397
  0
LINE
  8
0
 10
174.783
 11
175.143
 20
239.397
 21
239.931
  0
LINE
  8
0
 10
175.143
 11
175.674
 20
239.931
 21
240.291
  0
LINE
  8
0
 10
175.674
 11
176.325
 20
240.291
 21
240.42
  0
LINE
  8
0
 10
176.325
 11
176.979
 20
240.42
 21
240.291
  0
LINE
  8
0
 10
176.979
 11
177.513
 20
240.291
 21
239.931
  0
LINE
  8
0
 10
177.513
 11
177.87
 20
239.931
 21
239.397
  0
LINE
  8
0
 10
177.87
 11
178.002
 20
239.397
 21
238.746
  0
LINE
  8
0
 10
178.002
 11
177.87
 20
238.746
 21
238.095
  0
LINE
  8
0
 10
177.87
 11
177.513
 20
238.095
 21
237.561
  0
LINE
  8
0
 10
177.513
 11
176.979
 20
237.561
 21
237.204
  0
LINE
  8
0
 10
176.979
 11
176.325
 20
237.204
 21
237.072
  0
LINE
  8
0
 10
176.325
 11
175.674
 20
237.072
 21
237.204
  0
LINE
  8
0
 10
175.674
 11
175.143
 20
237.204
 21
237.561
  0
LINE
  8
0
 10
175.143
 11
174.783
 20
237.561
 21
238.095
  0
LINE
  8
0
 10
174.783
 11
174.651
 20
238.095
 21
238.746
  0
LINE
  8
0
 10
174.651
 11
174.783
 20
258.477
 21
259.128
  0
LINE
  8
0
 10
174.783
 11
175.143
 20
259.128
 21
259.662
  0
LINE
  8
0
 10
175.143
 11
175.674
 20
259.662
 21
260.019
  0
LINE
  8
0
 10
175.674
 11
176.325
 20
260.019
 21
260.151
  0
LINE
  8
0
 10
176.325
 11
176.979
 20
260.151
 21
260.019
  0
LINE
  8
0
 10
176.979
 11
177.513
 20
260.019
 21
259.662
  0
LINE
  8
0
 10
177.513
 11
177.87
 20
259.662
 21
259.128
  0
LINE
  8
0
 10
177.87
 11
178.002
 20
259.128
 21
258.477
  0
LINE
  8
0
 10
178.002
 11
177.87
 20
258.477
 21
257.826
  0
LINE
  8
0
 10
177.87
 11
177.513
 20
257.826
 21
257.292
  0
LINE
  8
0
 10
177.513
 11
176.979
 20
257.292
 21
256.935
  0
LINE
  8
0
 10
176.979
 11
176.325
 20
256.935
 21
256.803
  0
LINE
  8
0
 10
176.325
 11
175.674
 20
256.803
 21
256.935
  0
LINE
  8
0
 10
175.674
 11
175.143
 20
256.935
 21
257.292
  0
LINE
  8
0
 10
175.143
 11
174.783
 20
257.292
 21
257.826
  0
LINE
  8
0
 10
174.783
 11
174.651
 20
257.826
 21
258.477
  0
LINE
  8
0
 10
179.586
 11
179.718
 20
189.414
 21
190.065
  0
LINE
  8
0
 10
179.718
 11
180.075
 20
190.065
 21
190.599
  0
LINE
  8
0
 10
180.075
 11
180.609
 20
190.599
 21
190.959
  0
LINE
  8
0
 10
180.609
 11
181.26
 20
190.959
 21
191.091
  0
LINE
  8
0
 10
181.26
 11
181.911
 20
191.091
 21
190.959
  0
LINE
  8
0
 10
181.911
 11
182.442
 20
190.959
 21
190.599
  0
LINE
  8
0
 10
182.442
 11
182.802
 20
190.599
 21
190.065
  0
LINE
  8
0
 10
182.802
 11
182.934
 20
190.065
 21
189.414
  0
LINE
  8
0
 10
182.934
 11
182.802
 20
189.414
 21
188.76
  0
LINE
  8
0
 10
182.802
 11
182.442
 20
188.76
 21
188.229
  0
LINE
  8
0
 10
182.442
 11
181.911
 20
188.229
 21
187.869
  0
LINE
  8
0
 10
181.911
 11
181.26
 20
187.869
 21
187.74
  0
LINE
  8
0
 10
181.26
 11
180.609
 20
187.74
 21
187.869
  0
LINE
  8
0
 10
180.609
 11
180.075
 20
187.869
 21
188.229
  0
LINE
  8
0
 10
180.075
 11
179.718
 20
188.229
 21
188.76
  0
LINE
  8
0
 10
179.718
 11
179.586
 20
188.76
 21
189.414
  0
LINE
  8
0
 10
179.586
 11
179.718
 20
209.145
 21
209.799
  0
LINE
  8
0
 10
179.718
 11
180.075
 20
209.799
 21
210.333
  0
LINE
  8
0
 10
180.075
 11
180.609
 20
210.333
 21
210.693
  0
LINE
  8
0
 10
180.609
 11
181.26
 20
210.693
 21
210.825
  0
LINE
  8
0
 10
181.26
 11
181.911
 20
210.825
 21
210.693
  0
LINE
  8
0
 10
181.911
 11
182.442
 20
210.693
 21
210.333
  0
LINE
  8
0
 10
182.442
 11
182.802
 20
210.333
 21
209.799
  0
LINE
  8
0
 10
182.802
 11
182.934
 20
209.799
 21
209.145
  0
LINE
  8
0
 10
182.934
 11
182.802
 20
209.145
 21
208.494
  0
LINE
  8
0
 10
182.802
 11
182.442
 20
208.494
 21
207.96
  0
LINE
  8
0
 10
182.442
 11
181.911
 20
207.96
 21
207.603
  0
LINE
  8
0
 10
181.911
 11
181.26
 20
207.603
 21
207.471
  0
LINE
  8
0
 10
181.26
 11
180.609
 20
207.471
 21
207.603
  0
LINE
  8
0
 10
180.609
 11
180.075
 20
207.603
 21
207.96
  0
LINE
  8
0
 10
180.075
 11
179.718
 20
207.96
 21
208.494
  0
LINE
  8
0
 10
179.718
 11
179.586
 20
208.494
 21
209.145
  0
LINE
  8
0
 10
179.586
 11
179.718
 20
228.879
 21
229.533
  0
LINE
  8
0
 10
179.718
 11
180.075
 20
229.533
 21
230.064
  0
LINE
  8
0
 10
180.075
 11
180.609
 20
230.064
 21
230.424
  0
LINE
  8
0
 10
180.609
 11
181.26
 20
230.424
 21
230.556
  0
LINE
  8
0
 10
181.26
 11
181.911
 20
230.556
 21
230.424
  0
LINE
  8
0
 10
181.911
 11
182.442
 20
230.424
 21
230.064
  0
LINE
  8
0
 10
182.442
 11
182.802
 20
230.064
 21
229.533
  0
LINE
  8
0
 10
182.802
 11
182.934
 20
229.533
 21
228.879
  0
LINE
  8
0
 10
182.934
 11
182.802
 20
228.879
 21
228.228
  0
LINE
  8
0
 10
182.802
 11
182.442
 20
228.228
 21
227.697
  0
LINE
  8
0
 10
182.442
 11
181.911
 20
227.697
 21
227.337
  0
LINE
  8
0
 10
181.911
 11
181.26
 20
227.337
 21
227.205
  0
LINE
  8
0
 10
181.26
 11
180.609
 20
227.205
 21
227.337
  0
LINE
  8
0
 10
180.609
 11
180.075
 20
227.337
 21
227.697
  0
LINE
  8
0
 10
180.075
 11
179.718
 20
227.697
 21
228.228
  0
LINE
  8
0
 10
179.718
 11
179.586
 20
228.228
 21
228.879
  0
LINE
  8
0
 10
179.586
 11
179.718
 20
248.613
 21
249.264
  0
LINE
  8
0
 10
179.718
 11
180.075
 20
249.264
 21
249.798
  0
LINE
  8
0
 10
180.075
 11
180.609
 20
249.798
 21
250.155
  0
LINE
  8
0
 10
180.609
 11
181.26
 20
250.155
 21
250.287
  0
LINE
  8
0
 10
181.26
 11
181.911
 20
250.287
 21
250.155
  0
LINE
  8
0
 10
181.911
 11
182.442
 20
250.155
 21
249.798
  0
LINE
  8
0
 10
182.442
 11
182.802
 20
249.798
 21
249.264
  0
LINE
  8
0
 10
182.802
 11
182.934
 20
249.264
 21
248.613
  0
LINE
  8
0
 10
182.934
 11
182.802
 20
248.613
 21
247.959
  0
LINE
  8
0
 10
182.802
 11
182.442
 20
247.959
 21
247.428
  0
LINE
  8
0
 10
182.442
 11
181.911
 20
247.428
 21
247.071
  0
LINE
  8
0
 10
181.911
 11
181.26
 20
247.071
 21
246.939
  0
LINE
  8
0
 10
181.26
 11
180.609
 20
246.939
 21
247.071
  0
LINE
  8
0
 10
180.609
 11
180.075
 20
247.071
 21
247.428
  0
LINE
  8
0
 10
180.075
 11
179.718
 20
247.428
 21
247.959
  0
LINE
  8
0
 10
179.718
 11
179.586
 20
247.959
 21
248.613
  0
LINE
  8
0
 10
179.586
 11
179.718
 20
268.341
 21
268.995
  0
LINE
  8
0
 10
179.718
 11
180.075
 20
268.995
 21
269.529
  0
LINE
  8
0
 10
180.075
 11
180.609
 20
269.529
 21
269.886
  0
LINE
  8
0
 10
180.609
 11
181.26
 20
269.886
 21
270.018
  0
LINE
  8
0
 10
181.26
 11
181.911
 20
270.018
 21
269.886
  0
LINE
  8
0
 10
181.911
 11
182.442
 20
269.886
 21
269.529
  0
LINE
  8
0
 10
182.442
 11
182.802
 20
269.529
 21
268.995
  0
LINE
  8
0
 10
182.802
 11
182.934
 20
268.995
 21
268.341
  0
LINE
  8
0
 10
182.934
 11
182.802
 20
268.341
 21
267.69
  0
LINE
  8
0
 10
182.802
 11
182.442
 20
267.69
 21
267.159
  0
LINE
  8
0
 10
182.442
 11
181.911
 20
267.159
 21
266.799
  0
LINE
  8
0
 10
181.911
 11
181.26
 20
266.799
 21
266.67
  0
LINE
  8
0
 10
181.26
 11
180.609
 20
266.67
 21
266.799
  0
LINE
  8
0
 10
180.609
 11
180.075
 20
266.799
 21
267.159
  0
LINE
  8
0
 10
180.075
 11
179.718
 20
267.159
 21
267.69
  0
LINE
  8
0
 10
179.718
 11
179.586
 20
267.69
 21
268.341
  0
LINE
  8
0
 10
184.518
 11
184.647
 20
199.281
 21
199.932
  0
LINE
  8
0
 10
184.647
 11
185.007
 20
199.932
 21
200.463
  0
LINE
  8
0
 10
185.007
 11
185.541
 20
200.463
 21
200.823
  0
LINE
  8
0
 10
185.541
 11
186.192
 20
200.823
 21
200.955
  0
LINE
  8
0
 10
186.192
 11
186.846
 20
200.955
 21
200.823
  0
LINE
  8
0
 10
186.846
 11
187.377
 20
200.823
 21
200.463
  0
LINE
  8
0
 10
187.377
 11
187.737
 20
200.463
 21
199.932
  0
LINE
  8
0
 10
187.737
 11
187.866
 20
199.932
 21
199.281
  0
LINE
  8
0
 10
187.866
 11
187.737
 20
199.281
 21
198.627
  0
LINE
  8
0
 10
187.737
 11
187.377
 20
198.627
 21
198.096
  0
LINE
  8
0
 10
187.377
 11
186.846
 20
198.096
 21
197.736
  0
LINE
  8
0
 10
186.846
 11
186.192
 20
197.736
 21
197.604
  0
LINE
  8
0
 10
186.192
 11
185.541
 20
197.604
 21
197.736
  0
LINE
  8
0
 10
185.541
 11
185.007
 20
197.736
 21
198.096
  0
LINE
  8
0
 10
185.007
 11
184.647
 20
198.096
 21
198.627
  0
LINE
  8
0
 10
184.647
 11
184.518
 20
198.627
 21
199.281
  0
LINE
  8
0
 10
184.518
 11
184.647
 20
219.015
 21
219.669
  0
LINE
  8
0
 10
184.647
 11
185.007
 20
219.669
 21
220.2
  0
LINE
  8
0
 10
185.007
 11
185.541
 20
220.2
 21
220.56
  0
LINE
  8
0
 10
185.541
 11
186.192
 20
220.56
 21
220.692
  0
LINE
  8
0
 10
186.192
 11
186.846
 20
220.692
 21
220.56
  0
LINE
  8
0
 10
186.846
 11
187.377
 20
220.56
 21
220.2
  0
LINE
  8
0
 10
187.377
 11
187.737
 20
220.2
 21
219.669
  0
LINE
  8
0
 10
187.737
 11
187.866
 20
219.669
 21
219.015
  0
LINE
  8
0
 10
187.866
 11
187.737
 20
219.015
 21
218.364
  0
LINE
  8
0
 10
187.737
 11
187.377
 20
218.364
 21
217.833
  0
LINE
  8
0
 10
187.377
 11
186.846
 20
217.833
 21
217.473
  0
LINE
  8
0
 10
186.846
 11
186.192
 20
217.473
 21
217.341
  0
LINE
  8
0
 10
186.192
 11
185.541
 20
217.341
 21
217.473
  0
LINE
  8
0
 10
185.541
 11
185.007
 20
217.473
 21
217.833
  0
LINE
  8
0
 10
185.007
 11
184.647
 20
217.833
 21
218.364
  0
LINE
  8
0
 10
184.647
 11
184.518
 20
218.364
 21
219.015
  0
LINE
  8
0
 10
184.518
 11
184.647
 20
238.746
 21
239.397
  0
LINE
  8
0
 10
184.647
 11
185.007
 20
239.397
 21
239.931
  0
LINE
  8
0
 10
185.007
 11
185.541
 20
239.931
 21
240.291
  0
LINE
  8
0
 10
185.541
 11
186.192
 20
240.291
 21
240.42
  0
LINE
  8
0
 10
186.192
 11
186.846
 20
240.42
 21
240.291
  0
LINE
  8
0
 10
186.846
 11
187.377
 20
240.291
 21
239.931
  0
LINE
  8
0
 10
187.377
 11
187.737
 20
239.931
 21
239.397
  0
LINE
  8
0
 10
187.737
 11
187.866
 20
239.397
 21
238.746
  0
LINE
  8
0
 10
187.866
 11
187.737
 20
238.746
 21
238.095
  0
LINE
  8
0
 10
187.737
 11
187.377
 20
238.095
 21
237.561
  0
LINE
  8
0
 10
187.377
 11
186.846
 20
237.561
 21
237.204
  0
LINE
  8
0
 10
186.846
 11
186.192
 20
237.204
 21
237.072
  0
LINE
  8
0
 10
186.192
 11
185.541
 20
237.072
 21
237.204
  0
LINE
  8
0
 10
185.541
 11
185.007
 20
237.204
 21
237.561
  0
LINE
  8
0
 10
185.007
 11
184.647
 20
237.561
 21
238.095
  0
LINE
  8
0
 10
184.647
 11
184.518
 20
238.095
 21
238.746
  0
LINE
  8
0
 10
184.518
 11
184.647
 20
258.477
 21
259.128
  0
LINE
  8
0
 10
184.647
 11
185.007
 20
259.128
 21
259.662
  0
LINE
  8
0
 10
185.007
 11
185.541
 20
259.662
 21
260.019
  0
LINE
  8
0
 10
185.541
 11
186.192
 20
260.019
 21
260.151
  0
LINE
  8
0
 10
186.192
 11
186.846
 20
260.151
 21
260.019
  0
LINE
  8
0
 10
186.846
 11
187.377
 20
260.019
 21
259.662
  0
LINE
  8
0
 10
187.377
 11
187.737
 20
259.662
 21
259.128
  0
LINE
  8
0
 10
187.737
 11
187.866
 20
259.128
 21
258.477
  0
LINE
  8
0
 10
187.866
 11
187.737
 20
258.477
 21
257.826
  0
LINE
  8
0
 10
187.737
 11
187.377
 20
257.826
 21
257.292
  0
LINE
  8
0
 10
187.377
 11
186.846
 20
257.292
 21
256.935
  0
LINE
  8
0
 10
186.846
 11
186.192
 20
256.935
 21
256.803
  0
LINE
  8
0
 10
186.192
 11
185.541
 20
256.803
 21
256.935
  0
LINE
  8
0
 10
185.541
 11
185.007
 20
256.935
 21
257.292
  0
LINE
  8
0
 10
185.007
 11
184.647
 20
257.292
 21
257.826
  0
LINE
  8
0
 10
184.647
 11
184.518
 20
257.826
 21
258.477
  0
LINE
  8
0
 10
189.45
 11
189.582
 20
189.414
 21
190.065
  0
LINE
  8
0
 10
189.582
 11
189.942
 20
190.065
 21
190.599
  0
LINE
  8
0
 10
189.942
 11
190.473
 20
190.599
 21
190.959
  0
LINE
  8
0
 10
190.473
 11
191.124
 20
190.959
 21
191.091
  0
LINE
  8
0
 10
191.124
 11
191.778
 20
191.091
 21
190.959
  0
LINE
  8
0
 10
191.778
 11
192.312
 20
190.959
 21
190.599
  0
LINE
  8
0
 10
192.312
 11
192.672
 20
190.599
 21
190.065
  0
LINE
  8
0
 10
192.672
 11
192.801
 20
190.065
 21
189.414
  0
LINE
  8
0
 10
192.801
 11
192.672
 20
189.414
 21
188.76
  0
LINE
  8
0
 10
192.672
 11
192.312
 20
188.76
 21
188.229
  0
LINE
  8
0
 10
192.312
 11
191.778
 20
188.229
 21
187.869
  0
LINE
  8
0
 10
191.778
 11
191.124
 20
187.869
 21
187.74
  0
LINE
  8
0
 10
191.124
 11
190.473
 20
187.74
 21
187.869
  0
LINE
  8
0
 10
190.473
 11
189.942
 20
187.869
 21
188.229
  0
LINE
  8
0
 10
189.942
 11
189.582
 20
188.229
 21
188.76
  0
LINE
  8
0
 10
189.582
 11
189.45
 20
188.76
 21
189.414
  0
LINE
  8
0
 10
189.45
 11
189.582
 20
209.145
 21
209.799
  0
LINE
  8
0
 10
189.582
 11
189.942
 20
209.799
 21
210.333
  0
LINE
  8
0
 10
189.942
 11
190.473
 20
210.333
 21
210.693
  0
LINE
  8
0
 10
190.473
 11
191.124
 20
210.693
 21
210.825
  0
LINE
  8
0
 10
191.124
 11
191.778
 20
210.825
 21
210.693
  0
LINE
  8
0
 10
191.778
 11
192.312
 20
210.693
 21
210.333
  0
LINE
  8
0
 10
192.312
 11
192.672
 20
210.333
 21
209.799
  0
LINE
  8
0
 10
192.672
 11
192.801
 20
209.799
 21
209.145
  0
LINE
  8
0
 10
192.801
 11
192.672
 20
209.145
 21
208.494
  0
LINE
  8
0
 10
192.672
 11
192.312
 20
208.494
 21
207.96
  0
LINE
  8
0
 10
192.312
 11
191.778
 20
207.96
 21
207.603
  0
LINE
  8
0
 10
191.778
 11
191.124
 20
207.603
 21
207.471
  0
LINE
  8
0
 10
191.124
 11
190.473
 20
207.471
 21
207.603
  0
LINE
  8
0
 10
190.473
 11
189.942
 20
207.603
 21
207.96
  0
LINE
  8
0
 10
189.942
 11
189.582
 20
207.96
 21
208.494
  0
LINE
  8
0
 10
189.582
 11
189.45
 20
208.494
 21
209.145
  0
LINE
  8
0
 10
189.45
 11
189.582
 20
228.879
 21
229.533
  0
LINE
  8
0
 10
189.582
 11
189.942
 20
229.533
 21
230.064
  0
LINE
  8
0
 10
189.942
 11
190.473
 20
230.064
 21
230.424
  0
LINE
  8
0
 10
190.473
 11
191.124
 20
230.424
 21
230.556
  0
LINE
  8
0
 10
191.124
 11
191.778
 20
230.556
 21
230.424
  0
LINE
  8
0
 10
191.778
 11
192.312
 20
230.424
 21
230.064
  0
LINE
  8
0
 10
192.312
 11
192.672
 20
230.064
 21
229.533
  0
LINE
  8
0
 10
192.672
 11
192.801
 20
229.533
 21
228.879
  0
LINE
  8
0
 10
192.801
 11
192.672
 20
228.879
 21
228.228
  0
LINE
  8
0
 10
192.672
 11
192.312
 20
228.228
 21
227.697
  0
LINE
  8
0
 10
192.312
 11
191.778
 20
227.697
 21
227.337
  0
LINE
  8
0
 10
191.778
 11
191.124
 20
227.337
 21
227.205
  0
LINE
  8
0
 10
191.124
 11
190.473
 20
227.205
 21
227.337
  0
LINE
  8
0
 10
190.473
 11
189.942
 20
227.337
 21
227.697
  0
LINE
  8
0
 10
189.942
 11
189.582
 20
227.697
 21
228.228
  0
LINE
  8
0
 10
189.582
 11
189.45
 20
228.228
 21
228.879
  0
LINE
  8
0
 10
189.45
 11
189.582
 20
248.613
 21
249.264
  0
LINE
  8
0
 10
189.582
 11
189.942
 20
249.264
 21
249.798
  0
LINE
  8
0
 10
189.942
 11
190.473
 20
249.798
 21
250.155
  0
LINE
  8
0
 10
190.473
 11
191.124
 20
250.155
 21
250.287
  0
LINE
  8
0
 10
191.124
 11
191.778
 20
250.287
 21
250.155
  0
LINE
  8
0
 10
191.778
 11
192.312
 20
250.155
 21
249.798
  0
LINE
  8
0
 10
192.312
 11
192.672
 20
249.798
 21
249.264
  0
LINE
  8
0
 10
192.672
 11
192.801
 20
249.264
 21
248.613
  0
LINE
  8
0
 10
192.801
 11
192.672
 20
248.613
 21
247.959
  0
LINE
  8
0
 10
192.672
 11
192.312
 20
247.959
 21
247.428
  0
LINE
  8
0
 10
192.312
 11
191.778
 20
247.428
 21
247.071
  0
LINE
  8
0
 10
191.778
 11
191.124
 20
247.071
 21
246.939
  0
LINE
  8
0
 10
191.124
 11
190.473
 20
246.939
 21
247.071
  0
LINE
  8
0
 10
190.473
 11
189.942
 20
247.071
 21
247.428
  0
LINE
  8
0
 10
189.942
 11
189.582
 20
247.428
 21
247.959
  0
LINE
  8
0
 10
189.582
 11
189.45
 20
247.959
 21
248.613
  0
LINE
  8
0
 10
189.45
 11
189.582
 20
268.341
 21
268.995
  0
LINE
  8
0
 10
189.582
 11
189.942
 20
268.995
 21
269.529
  0
LINE
  8
0
 10
189.942
 11
190.473
 20
269.529
 21
269.886
  0
LINE
  8
0
 10
190.473
 11
191.124
 20
269.886
 21
270.018
  0
LINE
  8
0
 10
191.124
 11
191.778
 20
270.018
 21
269.886
  0
LINE
  8
0
 10
191.778
 11
192.312
 20
269.886
 21
269.529
  0
LINE
  8
0
 10
192.312
 11
192.672
 20
269.529
 21
268.995
  0
LINE
  8
0
 10
192.672
 11
192.801
 20
268.995
 21
268.341
  0
LINE
  8
0
 10
192.801
 11
192.672
 20
268.341
 21
267.69
  0
LINE
  8
0
 10
192.672
 11
192.312
 20
267.69
 21
267.159
  0
LINE
  8
0
 10
192.312
 11
191.778
 20
267.159
 21
266.799
  0
LINE
  8
0
 10
191.778
 11
191.124
 20
266.799
 21
266.67
  0
LINE
  8
0
 10
191.124
 11
190.473
 20
266.67
 21
266.799
  0
LINE
  8
0
 10
190.473
 11
189.942
 20
266.799
 21
267.159
  0
LINE
  8
0
 10
189.942
 11
189.582
 20
267.159
 21
267.69
  0
LINE
  8
0
 10
189.582
 11
189.45
 20
267.69
 21
268.341
  0
LINE
  8
0
 10
194.382
 11
194.514
 20
179.547
 21
180.201
  0
LINE
  8
0
 10
194.514
 11
194.874
 20
180.201
 21
180.735
  0
LINE
  8
0
 10
194.874
 11
195.405
 20
180.735
 21
181.092
  0
LINE
  8
0
 10
195.405
 11
196.056
 20
181.092
 21
181.224
  0
LINE
  8
0
 10
196.056
 11
196.71
 20
181.224
 21
181.092
  0
LINE
  8
0
 10
196.71
 11
197.244
 20
181.092
 21
180.735
  0
LINE
  8
0
 10
197.244
 11
197.604
 20
180.735
 21
180.201
  0
LINE
  8
0
 10
197.604
 11
197.736
 20
180.201
 21
179.547
  0
LINE
  8
0
 10
197.736
 11
197.604
 20
179.547
 21
178.896
  0
LINE
  8
0
 10
197.604
 11
197.244
 20
178.896
 21
178.365
  0
LINE
  8
0
 10
197.244
 11
196.71
 20
178.365
 21
178.005
  0
LINE
  8
0
 10
196.71
 11
196.056
 20
178.005
 21
177.873
  0
LINE
  8
0
 10
196.056
 11
195.405
 20
177.873
 21
178.005
  0
LINE
  8
0
 10
195.405
 11
194.874
 20
178.005
 21
178.365
  0
LINE
  8
0
 10
194.874
 11
194.514
 20
178.365
 21
178.896
  0
LINE
  8
0
 10
194.514
 11
194.382
 20
178.896
 21
179.547
  0
LINE
  8
0
 10
194.382
 11
194.514
 20
199.281
 21
199.932
  0
LINE
  8
0
 10
194.514
 11
194.874
 20
199.932
 21
200.463
  0
LINE
  8
0
 10
194.874
 11
195.405
 20
200.463
 21
200.823
  0
LINE
  8
0
 10
195.405
 11
196.056
 20
200.823
 21
200.955
  0
LINE
  8
0
 10
196.056
 11
196.71
 20
200.955
 21
200.823
  0
LINE
  8
0
 10
196.71
 11
197.244
 20
200.823
 21
200.463
  0
LINE
  8
0
 10
197.244
 11
197.604
 20
200.463
 21
199.932
  0
LINE
  8
0
 10
197.604
 11
197.736
 20
199.932
 21
199.281
  0
LINE
  8
0
 10
197.736
 11
197.604
 20
199.281
 21
198.627
  0
LINE
  8
0
 10
197.604
 11
197.244
 20
198.627
 21
198.096
  0
LINE
  8
0
 10
197.244
 11
196.71
 20
198.096
 21
197.736
  0
LINE
  8
0
 10
196.71
 11
196.056
 20
197.736
 21
197.604
  0
LINE
  8
0
 10
196.056
 11
195.405
 20
197.604
 21
197.736
  0
LINE
  8
0
 10
195.405
 11
194.874
 20
197.736
 21
198.096
  0
LINE
  8
0
 10
194.874
 11
194.514
 20
198.096
 21
198.627
  0
LINE
  8
0
 10
194.514
 11
194.382
 20
198.627
 21
199.281
  0
LINE
  8
0
 10
194.382
 11
194.514
 20
219.015
 21
219.669
  0
LINE
  8
0
 10
194.514
 11
194.874
 20
219.669
 21
220.2
  0
LINE
  8
0
 10
194.874
 11
195.405
 20
220.2
 21
220.56
  0
LINE
  8
0
 10
195.405
 11
196.056
 20
220.56
 21
220.692
  0
LINE
  8
0
 10
196.056
 11
196.71
 20
220.692
 21
220.56
  0
LINE
  8
0
 10
196.71
 11
197.244
 20
220.56
 21
220.2
  0
LINE
  8
0
 10
197.244
 11
197.604
 20
220.2
 21
219.669
  0
LINE
  8
0
 10
197.604
 11
197.736
 20
219.669
 21
219.015
  0
LINE
  8
0
 10
197.736
 11
197.604
 20
219.015
 21
218.364
  0
LINE
  8
0
 10
197.604
 11
197.244
 20
218.364
 21
217.833
  0
LINE
  8
0
 10
197.244
 11
196.71
 20
217.833
 21
217.473
  0
LINE
  8
0
 10
196.71
 11
196.056
 20
217.473
 21
217.341
  0
LINE
  8
0
 10
196.056
 11
195.405
 20
217.341
 21
217.473
  0
LINE
  8
0
 10
195.405
 11
194.874
 20
217.473
 21
217.833
  0
LINE
  8
0
 10
194.874
 11
194.514
 20
217.833
 21
218.364
  0
LINE
  8
0
 10
194.514
 11
194.382
 20
218.364
 21
219.015
  0
LINE
  8
0
 10
194.382
 11
194.514
 20
238.746
 21
239.397
  0
LINE
  8
0
 10
194.514
 11
194.874
 20
239.397
 21
239.931
  0
LINE
  8
0
 10
194.874
 11
195.405
 20
239.931
 21
240.291
  0
LINE
  8
0
 10
195.405
 11
196.056
 20
240.291
 21
240.42
  0
LINE
  8
0
 10
196.056
 11
196.71
 20
240.42
 21
240.291
  0
LINE
  8
0
 10
196.71
 11
197.244
 20
240.291
 21
239.931
  0
LINE
  8
0
 10
197.244
 11
197.604
 20
239.931
 21
239.397
  0
LINE
  8
0
 10
197.604
 11
197.736
 20
239.397
 21
238.746
  0
LINE
  8
0
 10
197.736
 11
197.604
 20
238.746
 21
238.095
  0
LINE
  8
0
 10
197.604
 11
197.244
 20
238.095
 21
237.561
  0
LINE
  8
0
 10
197.244
 11
196.71
 20
237.561
 21
237.204
  0
LINE
  8
0
 10
196.71
 11
196.056
 20
237.204
 21
237.072
  0
LINE
  8
0
 10
196.056
 11
195.405
 20
237.072
 21
237.204
  0
LINE
  8
0
 10
195.405
 11
194.874
 20
237.204
 21
237.561
  0
LINE
  8
0
 10
194.874
 11
194.514
 20
237.561
 21
238.095
  0
LINE
  8
0
 10
194.514
 11
194.382
 20
238.095
 21
238.746
  0
LINE
  8
0
 10
194.382
 11
194.514
 20
258.477
 21
259.128
  0
LINE
  8
0
 10
194.514
 11
194.874
 20
259.128
 21
259.662
  0
LINE
  8
0
 10
194.874
 11
195.405
 20
259.662
 21
260.019
  0
LINE
  8
0
 10
195.405
 11
196.056
 20
260.019
 21
260.151
  0
LINE
  8
0
 10
196.056
 11
196.71
 20
260.151
 21
260.019
  0
LINE
  8
0
 10
196.71
 11
197.244
 20
260.019
 21
259.662
  0
LINE
  8
0
 10
197.244
 11
197.604
 20
259.662
 21
259.128
  0
LINE
  8
0
 10
197.604
 11
197.736
 20
259.128
 21
258.477
  0
LINE
  8
0
 10
197.736
 11
197.604
 20
258.477
 21
257.826
  0
LINE
  8
0
 10
197.604
 11
197.244
 20
257.826
 21
257.292
  0
LINE
  8
0
 10
197.244
 11
196.71
 20
257.292
 21
256.935
  0
LINE
  8
0
 10
196.71
 11
196.056
 20
256.935
 21
256.803
  0
LINE
  8
0
 10
196.056
 11
195.405
 20
256.803
 21
256.935
  0
LINE
  8
0
 10
195.405
 11
194.874
 20
256.935
 21
257.292
  0
LINE
  8
0
 10
194.874
 11
194.514
 20
257.292
 21
257.826
  0
LINE
  8
0
 10
194.514
 11
194.382
 20
257.826
 21
258.477
  0
LINE
  8
0
 10
199.317
 11
199.449
 20
169.68
 21
170.334
  0
LINE
  8
0
 10
199.449
 11
199.806
 20
170.334
 21
170.868
  0
LINE
  8
0
 10
199.806
 11
200.34
 20
170.868
 21
171.225
  0
LINE
  8
0
 10
200.34
 11
200.991
 20
171.225
 21
171.357
  0
LINE
  8
0
 10
200.991
 11
201.642
 20
171.357
 21
171.225
  0
LINE
  8
0
 10
201.642
 11
202.176
 20
171.225
 21
170.868
  0
LINE
  8
0
 10
202.176
 11
202.533
 20
170.868
 21
170.334
  0
LINE
  8
0
 10
202.533
 11
202.665
 20
170.334
 21
169.68
  0
LINE
  8
0
 10
202.665
 11
202.533
 20
169.68
 21
169.029
  0
LINE
  8
0
 10
202.533
 11
202.176
 20
169.029
 21
168.498
  0
LINE
  8
0
 10
202.176
 11
201.642
 20
168.498
 21
168.141
  0
LINE
  8
0
 10
201.642
 11
200.991
 20
168.141
 21
168.009
  0
LINE
  8
0
 10
200.991
 11
200.34
 20
168.009
 21
168.141
  0
LINE
  8
0
 10
200.34
 11
199.806
 20
168.141
 21
168.498
  0
LINE
  8
0
 10
199.806
 11
199.449
 20
168.498
 21
169.032
  0
LINE
  8
0
 10
199.449
 11
199.317
 20
169.032
 21
169.68
  0
LINE
  8
0
 10
199.317
 11
199.449
 20
189.414
 21
190.065
  0
LINE
  8
0
 10
199.449
 11
199.806
 20
190.065
 21
190.599
  0
LINE
  8
0
 10
199.806
 11
200.34
 20
190.599
 21
190.959
  0
LINE
  8
0
 10
200.34
 11
200.991
 20
190.959
 21
191.091
  0
LINE
  8
0
 10
200.991
 11
201.642
 20
191.091
 21
190.959
  0
LINE
  8
0
 10
201.642
 11
202.176
 20
190.959
 21
190.599
  0
LINE
  8
0
 10
202.176
 11
202.533
 20
190.599
 21
190.065
  0
LINE
  8
0
 10
202.533
 11
202.665
 20
190.065
 21
189.414
  0
LINE
  8
0
 10
202.665
 11
202.533
 20
189.414
 21
188.76
  0
LINE
  8
0
 10
202.533
 11
202.176
 20
188.76
 21
188.229
  0
LINE
  8
0
 10
202.176
 11
201.642
 20
188.229
 21
187.869
  0
LINE
  8
0
 10
201.642
 11
200.991
 20
187.869
 21
187.74
  0
LINE
  8
0
 10
200.991
 11
200.34
 20
187.74
 21
187.869
  0
LINE
  8
0
 10
200.34
 11
199.806
 20
187.869
 21
188.229
  0
LINE
  8
0
 10
199.806
 11
199.449
 20
188.229
 21
188.76
  0
LINE
  8
0
 10
199.449
 11
199.317
 20
188.76
 21
189.414
  0
LINE
  8
0
 10
199.317
 11
199.449
 20
209.145
 21
209.799
  0
LINE
  8
0
 10
199.449
 11
199.806
 20
209.799
 21
210.333
  0
LINE
  8
0
 10
199.806
 11
200.34
 20
210.333
 21
210.693
  0
LINE
  8
0
 10
200.34
 11
200.991
 20
210.693
 21
210.825
  0
LINE
  8
0
 10
200.991
 11
201.642
 20
210.825
 21
210.693
  0
LINE
  8
0
 10
201.642
 11
202.176
 20
210.693
 21
210.333
  0
LINE
  8
0
 10
202.176
 11
202.533
 20
210.333
 21
209.799
  0
LINE
  8
0
 10
202.533
 11
202.665
 20
209.799
 21
209.145
  0
LINE
  8
0
 10
202.665
 11
202.533
 20
209.145
 21
208.494
  0
LINE
  8
0
 10
202.533
 11
202.176
 20
208.494
 21
207.96
  0
LINE
  8
0
 10
202.176
 11
201.642
 20
207.96
 21
207.603
  0
LINE
  8
0
 10
201.642
 11
200.991
 20
207.603
 21
207.471
  0
LINE
  8
0
 10
200.991
 11
200.34
 20
207.471
 21
207.603
  0
LINE
  8
0
 10
200.34
 11
199.806
 20
207.603
 21
207.96
  0
LINE
  8
0
 10
199.806
 11
199.449
 20
207.96
 21
208.494
  0
LINE
  8
0
 10
199.449
 11
199.317
 20
208.494
 21
209.145
  0
LINE
  8
0
 10
199.317
 11
199.449
 20
228.879
 21
229.533
  0
LINE
  8
0
 10
199.449
 11
199.806
 20
229.533
 21
230.064
  0
LINE
  8
0
 10
199.806
 11
200.34
 20
230.064
 21
230.424
  0
LINE
  8
0
 10
200.34
 11
200.991
 20
230.424
 21
230.556
  0
LINE
  8
0
 10
200.991
 11
201.642
 20
230.556
 21
230.424
  0
LINE
  8
0
 10
201.642
 11
202.176
 20
230.424
 21
230.064
  0
LINE
  8
0
 10
202.176
 11
202.533
 20
230.064
 21
229.533
  0
LINE
  8
0
 10
202.533
 11
202.665
 20
229.533
 21
228.879
  0
LINE
  8
0
 10
202.665
 11
202.533
 20
228.879
 21
228.228
  0
LINE
  8
0
 10
202.533
 11
202.176
 20
228.228
 21
227.697
  0
LINE
  8
0
 10
202.176
 11
201.642
 20
227.697
 21
227.337
  0
LINE
  8
0
 10
201.642
 11
200.991
 20
227.337
 21
227.205
  0
LINE
  8
0
 10
200.991
 11
200.34
 20
227.205
 21
227.337
  0
LINE
  8
0
 10
200.34
 11
199.806
 20
227.337
 21
227.697
  0
LINE
  8
0
 10
199.806
 11
199.449
 20
227.697
 21
228.228
  0
LINE
  8
0
 10
199.449
 11
199.317
 20
228.228
 21
228.879
  0
LINE
  8
0
 10
199.317
 11
199.449
 20
248.613
 21
249.264
  0
LINE
  8
0
 10
199.449
 11
199.806
 20
249.264
 21
249.798
  0
LINE
  8
0
 10
199.806
 11
200.34
 20
249.798
 21
250.155
  0
LINE
  8
0
 10
200.34
 11
200.991
 20
250.155
 21
250.287
  0
LINE
  8
0
 10
200.991
 11
201.642
 20
250.287
 21
250.155
  0
LINE
  8
0
 10
201.642
 11
202.176
 20
250.155
 21
249.798
  0
LINE
  8
0
 10
202.176
 11
202.533
 20
249.798
 21
249.264
  0
LINE
  8
0
 10
202.533
 11
202.665
 20
249.264
 21
248.613
  0
LINE
  8
0
 10
202.665
 11
202.533
 20
248.613
 21
247.959
  0
LINE
  8
0
 10
202.533
 11
202.176
 20
247.959
 21
247.428
  0
LINE
  8
0
 10
202.176
 11
201.642
 20
247.428
 21
247.071
  0
LINE
  8
0
 10
201.642
 11
200.991
 20
247.071
 21
246.939
  0
LINE
  8
0
 10
200.991
 11
200.34
 20
246.939
 21
247.071
  0
LINE
  8
0
 10
200.34
 11
199.806
 20
247.071
 21
247.428
  0
LINE
  8
0
 10
199.806
 11
199.449
 20
247.428
 21
247.959
  0
LINE
  8
0
 10
199.449
 11
199.317
 20
247.959
 21
248.613
  0
LINE
  8
0
 10
199.317
 11
199.449
 20
268.341
 21
268.995
  0
LINE
  8
0
 10
199.449
 11
199.806
 20
268.995
 21
269.529
  0
LINE
  8
0
 10
199.806
 11
200.34
 20
269.529
 21
269.886
  0
LINE
  8
0
 10
200.34
 11
200.991
 20
269.886
 21
270.018
  0
LINE
  8
0
 10
200.991
 11
201.642
 20
270.018
 21
269.886
  0
LINE
  8
0
 10
201.642
 11
202.176
 20
269.886
 21
269.529
  0
LINE
  8
0
 10
202.176
 11
202.533
 20
269.529
 21
268.995
  0
LINE
  8
0
 10
202.533
 11
202.665
 20
268.995
 21
268.341
  0
LINE
  8
0
 10
202.665
 11
202.533
 20
268.341
 21
267.69
  0
LINE
  8
0
 10
202.533
 11
202.176
 20
267.69
 21
267.159
  0
LINE
  8
0
 10
202.176
 11
201.642
 20
267.159
 21
266.799
  0
LINE
  8
0
 10
201.642
 11
200.991
 20
266.799
 21
266.67
  0
LINE
  8
0
 10
200.991
 11
200.34
 20
266.67
 21
266.799
  0
LINE
  8
0
 10
200.34
 11
199.806
 20
266.799
 21
267.159
  0
LINE
  8
0
 10
199.806
 11
199.449
 20
267.159
 21
267.69
  0
LINE
  8
0
 10
199.449
 11
199.317
 20
267.69
 21
268.341
  0
LINE
  8
0
 10
251
 11
251
 20
15
 21
45
  0
LINE
  8
0
 10
251
 11
267.667
 20
45
 21
45
  0
LINE
  8
0
 10
267.667
 11
267.667
 20
45
 21
75
  0
LINE
  8
0
 10
267.667
 11
251
 20
75
 21
75
  0
LINE
  8
0
 10
251
 11
251
 20
75
 21
105
  0
LINE
  8
0
 10
251
 11
267.667
 20
105
 21
105
  0
LINE
  8
0
 10
267.667
 11
267.667
 20
105
 21
135
  0
LINE
  8
0
 10
267.667
 11
251
 20
135
 21
135
  0
LINE
  8
0
 10
251
 11
251
 20
135
 21
165
  0
LINE
  8
0
 10
251
 11
267.667
 20
165
 21
165
  0
LINE
  8
0
 10
267.667
 11
267.667
 20
165
 21
195
  0
LINE
  8
0
 10
267.667
 11
251
 20
195
 21
195
  0
LINE
  8
0
 10
251
 11
251
 20
195
 21
225
  0
LINE
  8
0
 10
251
 11
267.667
 20
225
 21
225
  0
LINE
  8
0
 10
267.667
 11
267.667
 20
225
 21
255
  0
LINE
  8
0
 10
267.667
 11
251
 20
255
 21
255
  0
LINE
  8
0
 10
251
 11
251
 20
255
 21
285
  0
LINE
  8
0
 10
251
 11
267.667
 20
285
 21
285
  0
LINE
  8
0
 10
267.667
 11
267.667
 20
285
 21
300
  0
LINE
  8
0
 10
267.667
 11
501
 20
300
 21
300
  0
LINE
  8
0
 10
501
 11
501
 20
300
 21
285
  0
LINE
  8
0
 10
501
 11
484.333
 20
285
 21
285
  0
LINE
  8
0
 10
484.333
 11
484.333
 20
285
 21
255
  0
LINE
  8
0
 10
484.333
 11
501
 20
255
 21
255
  0
LINE
  8
0
 10
501
 11
501
 20
255
 21
225
  0
LINE
  8
0
 10
501
 11
484.333
 20
225
 21
225
  0
LINE
  8
0
 10
484.333
 11
484.333
 20
225
 21
195
  0
LINE
  8
0
 10
484.333
 11
501
 20
195
 21
195
  0
LINE
  8
0
 10
501
 11
501
 20
195
 21
165
  0
LINE
  8
0
 10
501
 11
484.333
 20
165
 21
165
  0
LINE
  8
0
 10
484.333
 11
484.333
 20
165
 21
135
  0
LINE
  8
0
 10
484.333
 11
501
 20
135
 21
135
  0
LINE
  8
0
 10
501
 11
501
 20
135
 21
105
  0
LINE
  8
0
 10
501
 11
484.333
 20
105
 21
105
  0
LINE
  8
0
 10
484.333
 11
484.333
 20
105
 21
75
  0
LINE
  8
0
 10
484.333
 11
501
 20
75
 21
75
  0
LINE
  8
0
 10
501
 11
501
 20
75
 21
45
  0
LINE
  8
0
 10
501
 11
484.333
 20
45
 21
45
  0
LINE
  8
0
 10
484.333
 11
484.333
 20
45
 21
15
  0
LINE
  8
0
 10
484.333
 11
501
 20
15
 21
15
  0
LINE
  8
0
 10
501
 11
501
 20
15
 21
0
  0
LINE
  8
0
 10
501
 11
267.667
 20
0
 21
0
  0
LINE
  8
0
 10
267.667
 11
267.667
 20
0
 21
15
  0
LINE
  8
0
 10
267.667
 11
251
 20
15
 21
15
  0
LINE
  8
0
 10
502
 11
502
 20
15
 21
45
  0
LINE
  8
0
 10
502
 11
518.667
 20
45
 21
45
  0
LINE
  8
0
 10
518.667
 11
518.667
 20
45
 21
75
  0
LINE
  8
0
 10
518.667
 11
502
 20
75
 21
75
  0
LINE
  8
0
 10
502
 11
502
 20
75
 21
105
  0
LINE
  8
0
 10
502
 11
518.667
 20
105
 21
105
  0
LINE
  8
0
 10
518.667
 11
518.667
 20
105
 21
135
  0
LINE
  8
0
 10
518.667
 11
502
 20
135
 21
135
  0
LINE
  8
0
 10
502
 11
502
 20
135
 21
165
  0
LINE
  8
0
 10
502
 11
518.667
 20
165
 21
165
  0
LINE
  8
0
 10
518.667
 11
518.667
 20
165
 21
195
  0
LINE
  8
0
 10
518.667
 11
502
 20
195
 21
195
  0
LINE
  8
0
 10
502
 11
502
 20
195
 21
225
  0
LINE
  8
0
 10
502
 11
518.667
 20
225
 21
225
  0
LINE
  8
0
 10
518.667
 11
518.667
 20
225
 21
255
  0
LINE
  8
0
 10
518.667
 11
502
 20
255
 21
255
  0
LINE
  8
0
 10
502
 11
502
 20
255
 21
285
  0
LINE
  8
0
 10
502
 11
518.667
 20
285
 21
285
  0
LINE
  8
0
 10
518.667
 11
518.667
 20
285
 21
300
  0
LINE
  8
0
 10
518.667
 11
752
 20
300
 21
300
  0
LINE
  8
0
 10
752
 11
752
 20
300
 21
285
  0
LINE
  8
0
 10
752
 11
735.333
 20
285
 21
285
  0
LINE
  8
0
 10
735.333
 11
735.333
 20
285
 21
255
  0
LINE
  8
0
 10
735.333
 11
752
 20
255
 21
255
  0
LINE
  8
0
 10
752
 11
752
 20
255
 21
225
  0
LINE
  8
0
 10
752
 11
735.333
 20
225
 21
225
  0
LINE
  8
0
 10
735.333
 11
735.333
 20
225
 21
195
  0
LINE
  8
0
 10
735.333
 11
752
 20
195
 21
195
  0
LINE
  8
0
 10
752
 11
752
 20
195
 21
165
  0
LINE
  8
0
 10
752
 11
735.333
 20
165
 21
165
  0
LINE
  8
0
 10
735.333
 11
735.333
 20
165
 21
135
  0
LINE
  8
0
 10
735.333
 11
752
 20
135
 21
135
  0
LINE
  8
0
 10
752
 11
752
 20
135
 21
105
  0
LINE
  8
0
 10
752
 11
735.333
 20
105
 21
105
  0
LINE
  8
0
 10
735.333
 11
735.333
 20
105
 21
75
  0
LINE
  8
0
 10
735.333
 11
752
 20
75
 21
75
  0
LINE
  8
0
 10
752
 11
752
 20
75
 21
45
  0
LINE
  8
0
 10
752
 11
735.333
 20
45
 21
45
  0
LINE
  8
0
 10
735.333
 11
735.333
 20
45
 21
15
  0
LINE
  8
0
 10
735.333
 11
752
 20
15
 21
15
  0
LINE
  8
0
 10
752
 11
752
 20
15
 21
0
  0
LINE
  8
0
 10
752
 11
518.667
 20
0
 21
0
  0
LINE
  8
0
 10
518.667
 11
518.667
 20
0
 21
15
  0
LINE
  8
0
 10
518.667
 11
502
 20
15
 21
15
  0
ENDSEC
  0
SECTION
  2
OBJECTS
  0
DICTIONARY
  0
ENDSEC
  0
EOF
