<?xml version="1.0" encoding="UTF-8" standalone="no"?>
<!-- Created with Inkscape (http://www.inkscape.org/) -->

<svg
   xmlns:dc="http://purl.org/dc/elements/1.1/"
   xmlns:cc="http://creativecommons.org/ns#"
   xmlns:rdf="http://www.w3.org/1999/02/22-rdf-syntax-ns#"
   xmlns:svg="http://www.w3.org/2000/svg"
   xmlns="http://www.w3.org/2000/svg"
   xmlns:sodipodi="http://sodipodi.sourceforge.net/DTD/sodipodi-0.dtd"
   xmlns:inkscape="http://www.inkscape.org/namespaces/inkscape"
   width="300mm"
   height="300mm"
   id="svg9133"
   version="1.1"
   inkscape:version="0.48+devel r12693"
   viewBox="0 0 299.99999 299.99999"
   sodipodi:docname="logo_garoa.svg">
  <defs
     id="defs9135" />
  <sodipodi:namedview
     id="base"
     pagecolor="#ffffff"
     bordercolor="#666666"
     borderopacity="1.0"
     inkscape:pageopacity="0.0"
     inkscape:pageshadow="2"
     inkscape:zoom="0.35"
     inkscape:cx="350"
     inkscape:cy="520"
     inkscape:document-units="px"
     inkscape:current-layer="layer1"
     showgrid="false"
     inkscape:window-width="1358"
     inkscape:window-height="698"
     inkscape:window-x="0"
     inkscape:window-y="0"
     inkscape:window-maximized="1" />
  <metadata
     id="metadata9138">
    <rdf:RDF>
      <cc:Work
         rdf:about="">
        <dc:format>image/svg+xml</dc:format>
        <dc:type
           rdf:resource="http://purl.org/dc/dcmitype/StillImage" />
        <dc:title></dc:title>
      </cc:Work>
    </rdf:RDF>
  </metadata>
  <g
     inkscape:label="Camada 1"
     inkscape:groupmode="layer"
     id="layer1"
     transform="translate(0,3)">
    <path
       inkscape:connector-curvature="0"
       id="path5944"
       style="fill:#1d1d1b"
       d="m 62.61067,18.650789 0.76894,-0.155251 0.62821,-0.42344 0.42369,-0.628157 0.15541,-0.769401 -0.15533,-0.771456 -0.42357,-0.628924 -0.62818,-0.423487 -0.76917,-0.155142 -0.76975,0.155218 -0.62891,0.423615 -0.4242,0.62895 -0.15559,0.771226 0.15559,0.769401 0.4242,0.628157 0.62891,0.42344 0.76975,0.155251 m 93.21715,0 0.7698,-0.155251 0.62851,-0.42344 0.42369,-0.628157 0.15535,-0.769401 -0.15527,-0.771456 -0.42356,-0.628924 -0.62848,-0.423487 -0.77004,-0.155142 -0.77047,0.155218 -0.62942,0.423615 -0.42451,0.62895 -0.1557,0.771226 0.15554,0.769401 0.42467,0.628157 0.62958,0.42344 0.77031,0.155251 m 11.6529,0 0.76934,-0.155251 0.62856,-0.42344 0.42395,-0.628157 0.1555,-0.769401 -0.15542,-0.771456 -0.42382,-0.628924 -0.62854,-0.423487 -0.76957,-0.155142 -0.77177,0.155218 -0.62909,0.423615 -0.42354,0.62895 -0.15515,0.771226 0.15515,0.769401 0.42354,0.628157 0.62909,0.42344 0.77177,0.155251 m 11.65015,0 0.76975,-0.155251 0.62891,-0.42344 0.4242,-0.628157 0.15559,-0.769401 -0.15559,-0.771456 -0.4242,-0.628924 -0.62891,-0.423487 -0.76975,-0.155142 -0.76992,0.155218 -0.62929,0.423615 -0.42457,0.62895 -0.15577,0.771226 0.15546,0.769401 0.42447,0.628157 0.62939,0.42344 0.77023,0.155251 m 11.6518,0 0.77032,-0.155251 0.62965,-0.42344 0.42482,-0.628157 0.15586,-0.769401 -0.15586,-0.771456 -0.42482,-0.628924 -0.62965,-0.423487 -0.77032,-0.155142 -0.76983,0.155218 -0.6291,0.423615 -0.42439,0.62895 -0.15568,0.771226 0.15545,0.769401 0.42441,0.628157 0.62923,0.42344 0.76991,0.155251 m 11.6518,0 0.77003,-0.155251 0.63008,-0.42344 0.42545,-0.628157 0.15619,-0.769401 -0.15619,-0.771456 -0.42545,-0.628924 -0.63008,-0.423487 -0.77003,-0.155142 -0.76989,0.155218 -0.6287,0.423615 -0.42388,0.62895 -0.15543,0.771226 0.15543,0.769401 0.42388,0.628157 0.6287,0.42344 0.76989,0.155251 m 11.65126,0 0.76989,-0.155251 0.6287,-0.42344 0.42388,-0.628157 0.15543,-0.769401 -0.15543,-0.771456 -0.42388,-0.628924 -0.6287,-0.423487 -0.76989,-0.155142 -0.76935,0.155218 -0.62856,0.423615 -0.42395,0.62895 -0.1555,0.771226 0.1555,0.769401 0.42395,0.628157 0.62856,0.42344 0.76935,0.155251 m 11.65289,0 0.77148,-0.155251 0.62951,-0.42344 0.42418,-0.628157 0.15548,-0.769401 -0.15548,-0.771456 -0.42418,-0.628924 -0.62951,-0.423487 -0.77148,-0.155142 -0.76951,0.155218 -0.62894,0.423615 -0.42433,0.62895 -0.15567,0.771226 0.15536,0.769401 0.42423,0.628157 0.62904,0.42344 0.76982,0.155251 m 11.65125,0 0.77037,-0.155251 0.62865,-0.42344 0.42362,-0.628157 0.15528,-0.769401 -0.15528,-0.771456 -0.42362,-0.628924 -0.62865,-0.423487 -0.77037,-0.155142 -0.76911,0.155218 -0.62858,0.423615 -0.42408,0.62895 -0.15558,0.771226 0.15558,0.769401 0.42408,0.628157 0.62858,0.42344 0.76911,0.155251 m -163.12576,0 0.76911,-0.155251 0.62859,-0.42344 0.42408,-0.628157 0.15558,-0.769401 -0.15558,-0.771456 -0.42408,-0.628924 -0.62859,-0.423487 -0.76911,-0.155142 -0.77006,0.155218 -0.62908,0.423615 -0.42426,0.62895 -0.1556,0.771226 0.15537,0.769401 0.42429,0.628157 0.6292,0.42344 0.77014,0.155251 m 11.64961,0 0.76995,-0.155251 0.6283,-0.42344 0.42338,-0.628157 0.15518,-0.769401 -0.15511,-0.771456 -0.42324,-0.628924 -0.62828,-0.423487 -0.77018,-0.155142 -0.76966,0.155218 -0.62872,0.423615 -0.42401,0.62895 -0.15551,0.771226 0.15551,0.769401 0.42401,0.628157 0.62872,0.42344 0.76966,0.155251 m 11.65235,0 0.770269,-0.155251 0.628461,-0.42344 0.423441,-0.628157 0.155188,-0.769401 -0.155188,-0.771456 -0.423441,-0.628924 -0.628461,-0.423487 -0.770269,-0.155142 -0.769981,0.155218 -0.628879,0.423615 -0.42407,0.62895 -0.155521,0.771226 0.155521,0.769401 0.42407,0.628157 0.628879,0.42344 0.769981,0.155251 m 11.65071,0 0.77116,-0.155251 0.62934,-0.42344 0.42412,-0.628157 0.15547,-0.769401 -0.15547,-0.771456 -0.42412,-0.628924 -0.62934,-0.423487 -0.77116,-0.155142 -0.76926,0.155218 -0.62838,0.423615 -0.42375,0.62895 -0.15542,0.771226 0.15542,0.769401 0.42375,0.628157 0.62838,0.42344 0.76926,0.155251 m 11.65289,0 0.76958,-0.155251 0.62854,-0.42344 0.42382,-0.628157 0.15542,-0.769401 -0.15542,-0.771456 -0.42382,-0.628924 -0.62854,-0.423487 -0.76958,-0.155142 -0.76966,0.155218 -0.62872,0.423615 -0.42401,0.62895 -0.15551,0.771226 0.15551,0.769401 0.42401,0.628157 0.62872,0.42344 0.76966,0.155251 m 11.6518,0 0.76958,-0.155251 0.62854,-0.42344 0.42382,-0.628157 0.15542,-0.769401 -0.15542,-0.771456 -0.42382,-0.628924 -0.62854,-0.423487 -0.76958,-0.155142 -0.76925,0.155218 -0.62838,0.423615 -0.42375,0.62895 -0.15542,0.771226 0.15565,0.769401 0.42373,0.628157 0.62824,0.42344 0.76918,0.155251 m 11.6518,0 0.76926,-0.155251 0.62837,-0.42344 0.42376,-0.628157 0.15542,-0.769401 -0.15534,-0.771456 -0.42363,-0.628924 -0.62835,-0.423487 -0.76949,-0.155142 -0.76949,0.155218 -0.62834,0.423615 -0.42363,0.62895 -0.15534,0.771226 0.15526,0.769401 0.4235,0.628157 0.62832,0.42344 0.76972,0.155251 m -75.73533,11.652903 0.76862,-0.155425 0.62805,-0.423821 0.42364,-0.628538 0.1554,-0.769574 -0.15532,-0.77027 -0.42351,-0.62846 -0.62802,-0.423434 -0.76886,-0.155192 -0.77006,0.155271 -0.62908,0.423566 -0.42426,0.628487 -0.1556,0.770032 0.15529,0.769574 0.42416,0.628538 0.62918,0.423821 0.77037,0.155425 m 93.21605,0 0.76975,-0.155425 0.62892,-0.423821 0.42419,-0.628538 0.1556,-0.769574 -0.1556,-0.77027 -0.42419,-0.62846 -0.62892,-0.423434 -0.76975,-0.155192 -0.77032,0.155271 -0.62964,0.423566 -0.42482,0.628487 -0.15586,0.770032 0.15586,0.769574 0.42482,0.628538 0.62964,0.423821 0.77032,0.155425 m 11.65071,0 0.76974,-0.155425 0.62892,-0.423821 0.42419,-0.628538 0.1556,-0.769574 -0.1556,-0.77027 -0.42419,-0.62846 -0.62892,-0.423434 -0.76974,-0.155192 -0.7705,0.155271 -0.62844,0.423566 -0.4233,0.628487 -0.15512,0.770032 0.15535,0.769574 0.42328,0.628538 0.62831,0.423821 0.77042,0.155425 m 11.6518,0 0.76974,-0.155425 0.62892,-0.423821 0.42419,-0.628538 0.1556,-0.769574 -0.1556,-0.77027 -0.42419,-0.62846 -0.62892,-0.423434 -0.76974,-0.155192 -0.76949,0.155271 -0.62835,0.423566 -0.42363,0.628487 -0.15534,0.770032 0.15526,0.769574 0.4235,0.628538 0.62833,0.423821 0.76972,0.155425 m 11.6518,0 0.77064,-0.155425 0.6298,-0.423821 0.42488,-0.628538 0.15587,-0.769574 -0.15587,-0.77027 -0.42488,-0.62846 -0.6298,-0.423434 -0.77064,-0.155192 -0.76998,0.155271 -0.62888,0.423566 -0.42407,0.628487 -0.15552,0.770032 0.15552,0.769574 0.42407,0.628538 0.62888,0.423821 0.76998,0.155425 m 11.6507,0 0.77064,-0.155425 0.6298,-0.423821 0.42489,-0.628538 0.15587,-0.769574 -0.15587,-0.77027 -0.42489,-0.62846 -0.6298,-0.423434 -0.77064,-0.155192 -0.76949,0.155271 -0.62834,0.423566 -0.42363,0.628487 -0.15534,0.770032 0.15557,0.769574 0.4236,0.628538 0.62822,0.423821 0.76941,0.155425 m 11.65455,0 0.76949,-0.155425 0.62834,-0.423821 0.42363,-0.628538 0.15534,-0.769574 -0.15526,-0.77027 -0.4235,-0.62846 -0.62832,-0.423434 -0.76972,-0.155192 -0.77032,0.155271 -0.62965,0.423566 -0.42482,0.628487 -0.15586,0.770032 0.15563,0.769574 0.42485,0.628538 0.62977,0.423821 0.7704,0.155425 m 11.6496,0 0.77275,-0.155425 0.63016,-0.423821 0.42442,-0.628538 0.15551,-0.769574 -0.15551,-0.77027 -0.42442,-0.62846 -0.63016,-0.423434 -0.77275,-0.155192 -0.76865,0.155271 -0.62864,0.423566 -0.42433,0.628487 -0.15573,0.770032 0.1555,0.769574 0.42436,0.628538 0.62876,0.423821 0.76873,0.155425 m -151.47396,0 0.77015,-0.155425 0.62927,-0.423821 0.42444,-0.628538 0.15569,-0.769574 -0.15569,-0.77027 -0.42444,-0.62846 -0.62927,-0.423434 -0.77015,-0.155192 -0.77076,0.155271 -0.629,0.423566 -0.42387,0.628487 -0.15537,0.770032 0.15514,0.769574 0.4239,0.628538 0.62912,0.423821 0.77084,0.155425 m 11.65071,0 0.770269,-0.155425 0.628461,-0.423821 0.423429,-0.628538 0.155191,-0.769574 -0.155109,-0.77027 -0.423311,-0.62846 -0.62843,-0.423434 -0.7705,-0.155192 -0.7699,0.155271 -0.6287,0.423566 -0.423881,0.628487 -0.155428,0.770032 0.155428,0.769574 0.423881,0.628538 0.6287,0.423821 0.7699,0.155425 m 11.6518,0 0.77044,-0.155425 0.62884,-0.423821 0.42381,-0.628538 0.15536,-0.769574 -0.15536,-0.77027 -0.42381,-0.62846 -0.62884,-0.423434 -0.77044,-0.155192 -0.77004,0.155271 -0.62849,0.423566 -0.42356,0.628487 -0.15527,0.770032 0.15519,0.769574 0.42344,0.628538 0.62846,0.423821 0.77027,0.155425 m 11.6518,0 0.77035,-0.155425 0.62865,-0.423821 0.42362,-0.628538 0.15528,-0.769574 -0.15528,-0.77027 -0.42362,-0.62846 -0.62865,-0.423434 -0.77035,-0.155192 -0.7699,0.155271 -0.6287,0.423566 -0.42388,0.628487 -0.15543,0.770032 0.1552,0.769574 0.42391,0.628538 0.62883,0.423821 0.76997,0.155425 m 11.65235,0 0.7698,-0.155425 0.62851,-0.423821 0.42369,-0.628538 0.15535,-0.769574 -0.15535,-0.77027 -0.42369,-0.62846 -0.62851,-0.423434 -0.7698,-0.155192 -0.76966,0.155271 -0.62873,0.423566 -0.42401,0.628487 -0.15551,0.770032 0.15551,0.769574 0.42401,0.628538 0.62873,0.423821 0.76966,0.155425 m 11.65125,0 0.77006,-0.155425 0.62908,-0.423821 0.42426,-0.628538 0.1556,-0.769574 -0.1556,-0.77027 -0.42426,-0.62846 -0.62908,-0.423434 -0.77006,-0.155192 -0.76972,0.155271 -0.62832,0.423566 -0.42351,0.628487 -0.15526,0.770032 0.15518,0.769574 0.42338,0.628538 0.6283,0.423821 0.76995,0.155425 m 11.65235,0 0.7698,-0.155425 0.62851,-0.423821 0.42369,-0.628538 0.15535,-0.769574 -0.15527,-0.77027 -0.42356,-0.62846 -0.62848,-0.423434 -0.77004,-0.155192 -0.76975,0.155271 -0.62891,0.423566 -0.4242,0.628487 -0.15559,0.770032 0.15536,0.769574 0.42422,0.628538 0.62904,0.423821 0.76983,0.155425 m -87.38878,11.650703 0.76894,-0.155039 0.62821,-0.423177 0.42369,-0.62841 0.15541,-0.770734 -0.15533,-0.770207 -0.42357,-0.628858 -0.62818,-0.423936 -0.76917,-0.155439 -0.76975,0.155439 -0.62891,0.423936 -0.4242,0.628858 -0.15559,0.770207 0.15559,0.770734 0.4242,0.62841 0.62891,0.423177 0.76975,0.155039 m 93.21715,0 0.7698,-0.155039 0.62851,-0.423177 0.42369,-0.62841 0.15535,-0.770734 -0.15527,-0.770207 -0.42356,-0.628858 -0.62848,-0.423936 -0.77004,-0.155439 -0.77047,0.155439 -0.62943,0.423936 -0.4245,0.628858 -0.1557,0.770207 0.15554,0.770734 0.42467,0.62841 0.62958,0.423177 0.77031,0.155039 m 11.6529,0 0.76934,-0.155039 0.62856,-0.423177 0.42395,-0.62841 0.1555,-0.770734 -0.15542,-0.770207 -0.42382,-0.628858 -0.62854,-0.423936 -0.76957,-0.155439 -0.77177,0.155439 -0.62909,0.423936 -0.42354,0.628858 -0.15515,0.770207 0.15515,0.770734 0.42354,0.62841 0.62909,0.423177 0.77177,0.155039 m 11.65015,0 0.76975,-0.155039 0.62891,-0.423177 0.4242,-0.62841 0.15559,-0.770734 -0.15559,-0.770207 -0.4242,-0.628858 -0.62891,-0.423936 -0.76975,-0.155439 -0.76992,0.155439 -0.62929,0.423936 -0.42457,0.628858 -0.15577,0.770207 0.15546,0.770734 0.42447,0.62841 0.62939,0.423177 0.77023,0.155039 m 11.6518,0 0.77032,-0.155039 0.62965,-0.423177 0.42482,-0.62841 0.15586,-0.770734 -0.15586,-0.770207 -0.42482,-0.628858 -0.62965,-0.423936 -0.77032,-0.155439 -0.76983,0.155439 -0.6291,0.423936 -0.42439,0.628858 -0.15568,0.770207 0.15545,0.770734 0.42441,0.62841 0.62923,0.423177 0.76991,0.155039 m 11.6518,0 0.77003,-0.155039 0.63007,-0.423177 0.42546,-0.62841 0.15619,-0.770734 -0.15619,-0.770207 -0.42546,-0.628858 -0.63007,-0.423936 -0.77003,-0.155439 -0.76989,0.155439 -0.6287,0.423936 -0.42388,0.628858 -0.15543,0.770207 0.15543,0.770734 0.42388,0.62841 0.6287,0.423177 0.76989,0.155039 m 11.65126,0 0.76989,-0.155039 0.6287,-0.423177 0.42388,-0.62841 0.15543,-0.770734 -0.15543,-0.770207 -0.42388,-0.628858 -0.6287,-0.423936 -0.76989,-0.155439 -0.76935,0.155439 -0.62856,0.423936 -0.42395,0.628858 -0.1555,0.770207 0.1555,0.770734 0.42395,0.62841 0.62856,0.423177 0.76935,0.155039 m 11.65289,0 0.77148,-0.155039 0.62951,-0.423177 0.42418,-0.62841 0.15548,-0.770734 -0.15548,-0.770207 -0.42418,-0.628858 -0.62951,-0.423936 -0.77148,-0.155439 -0.76951,0.155439 -0.62894,0.423936 -0.42433,0.628858 -0.15567,0.770207 0.15536,0.770734 0.42423,0.62841 0.62904,0.423177 0.76982,0.155039 m 11.65125,0 0.77037,-0.155039 0.62865,-0.423177 0.42362,-0.62841 0.15528,-0.770734 -0.15528,-0.770207 -0.42362,-0.628858 -0.62865,-0.423936 -0.77037,-0.155439 -0.76911,0.155439 -0.62859,0.423936 -0.42407,0.628858 -0.15558,0.770207 0.15558,0.770734 0.42407,0.62841 0.62859,0.423177 0.76911,0.155039 m -163.12576,0 0.76911,-0.155039 0.62859,-0.423177 0.42408,-0.62841 0.15558,-0.770734 -0.15558,-0.770207 -0.42408,-0.628858 -0.62859,-0.423936 -0.76911,-0.155439 -0.77006,0.155439 -0.62908,0.423936 -0.42426,0.628858 -0.1556,0.770207 0.15537,0.770734 0.42428,0.62841 0.62921,0.423177 0.77014,0.155039 m 11.64961,0 0.76995,-0.155039 0.6283,-0.423177 0.42338,-0.62841 0.15518,-0.770734 -0.15511,-0.770207 -0.42324,-0.628858 -0.62828,-0.423936 -0.77018,-0.155439 -0.76966,0.155439 -0.62872,0.423936 -0.42401,0.628858 -0.15551,0.770207 0.15551,0.770734 0.42401,0.62841 0.62872,0.423177 0.76966,0.155039 m 11.65235,0 0.770269,-0.155039 0.628461,-0.423177 0.423441,-0.62841 0.155188,-0.770734 -0.155188,-0.770207 -0.423441,-0.628858 -0.628461,-0.423936 -0.770269,-0.155439 -0.769981,0.155439 -0.628879,0.423936 -0.42407,0.628858 -0.155521,0.770207 0.155521,0.770734 0.42407,0.62841 0.628879,0.423177 0.769981,0.155039 m 11.65071,0 0.77116,-0.155039 0.62934,-0.423177 0.42412,-0.62841 0.15547,-0.770734 -0.15547,-0.770207 -0.42412,-0.628858 -0.62934,-0.423936 -0.77116,-0.155439 -0.76926,0.155439 -0.62838,0.423936 -0.42375,0.628858 -0.15542,0.770207 0.15542,0.770734 0.42375,0.62841 0.62838,0.423177 0.76926,0.155039 m 11.65289,0 0.76958,-0.155039 0.62854,-0.423177 0.42382,-0.62841 0.15542,-0.770734 -0.15542,-0.770207 -0.42382,-0.628858 -0.62854,-0.423936 -0.76958,-0.155439 -0.76966,0.155439 -0.62872,0.423936 -0.42401,0.628858 -0.15551,0.770207 0.15551,0.770734 0.42401,0.62841 0.62872,0.423177 0.76966,0.155039 m 11.6518,0 0.76958,-0.155039 0.62854,-0.423177 0.42382,-0.62841 0.15542,-0.770734 -0.15542,-0.770207 -0.42382,-0.628858 -0.62854,-0.423936 -0.76958,-0.155439 -0.76925,0.155439 -0.62838,0.423936 -0.42375,0.628858 -0.15542,0.770207 0.15565,0.770734 0.42373,0.62841 0.62824,0.423177 0.76918,0.155039 m 11.6518,0 0.76926,-0.155039 0.62837,-0.423177 0.42376,-0.62841 0.15542,-0.770734 -0.15534,-0.770207 -0.42363,-0.628858 -0.62835,-0.423936 -0.76949,-0.155439 -0.76949,0.155439 -0.62834,0.423936 -0.42363,0.628858 -0.15534,0.770207 0.15526,0.770734 0.4235,0.62841 0.62832,0.423177 0.76972,0.155039 m -75.73533,11.653449 0.76862,-0.155344 0.62805,-0.423689 0.42364,-0.628512 0.1554,-0.769814 -0.15532,-0.76997 -0.42351,-0.628885 -0.62802,-0.424067 -0.76886,-0.155518 -0.77006,0.155518 -0.62908,0.424067 -0.42426,0.628885 -0.1556,0.76997 0.15553,0.769814 0.42412,0.628512 0.62906,0.423689 0.77029,0.155344 m 93.21605,0 0.76975,-0.155344 0.62892,-0.423689 0.42419,-0.628512 0.1556,-0.769814 -0.1556,-0.76997 -0.42419,-0.628885 -0.62892,-0.424067 -0.76975,-0.155518 -0.77032,0.155518 -0.62964,0.424067 -0.42482,0.628885 -0.15586,0.76997 0.15586,0.769814 0.42482,0.628512 0.62964,0.423689 0.77032,0.155344 m 11.65071,0 0.76974,-0.155344 0.62892,-0.423689 0.42419,-0.628512 0.1556,-0.769814 -0.1556,-0.76997 -0.42419,-0.628885 -0.62892,-0.424067 -0.76974,-0.155518 -0.7705,0.155518 -0.62844,0.424067 -0.4233,0.628885 -0.15512,0.76997 0.15512,0.769814 0.4233,0.628512 0.62844,0.423689 0.7705,0.155344 m 11.6518,0 0.76974,-0.155344 0.62892,-0.423689 0.42419,-0.628512 0.1556,-0.769814 -0.1556,-0.76997 -0.42419,-0.628885 -0.62892,-0.424067 -0.76974,-0.155518 -0.76949,0.155518 -0.62835,0.424067 -0.42363,0.628885 -0.15534,0.76997 0.15526,0.769814 0.4235,0.628512 0.62833,0.423689 0.76972,0.155344 m 11.6518,0 0.77064,-0.155344 0.6298,-0.423689 0.42488,-0.628512 0.15587,-0.769814 -0.15587,-0.76997 -0.42488,-0.628885 -0.6298,-0.424067 -0.77064,-0.155518 -0.76998,0.155518 -0.62888,0.424067 -0.42407,0.628885 -0.15552,0.76997 0.15552,0.769814 0.42407,0.628512 0.62888,0.423689 0.76998,0.155344 m 11.6507,0 0.77064,-0.155344 0.6298,-0.423689 0.42489,-0.628512 0.15587,-0.769814 -0.15587,-0.76997 -0.42489,-0.628885 -0.6298,-0.424067 -0.77064,-0.155518 -0.76949,0.155518 -0.62834,0.424067 -0.42363,0.628885 -0.15534,0.76997 0.15534,0.769814 0.42363,0.628512 0.62834,0.423689 0.76949,0.155344 m 11.65455,0 0.76949,-0.155344 0.62834,-0.423689 0.42363,-0.628512 0.15534,-0.769814 -0.15526,-0.76997 -0.4235,-0.628885 -0.62832,-0.424067 -0.76972,-0.155518 -0.77032,0.155518 -0.62965,0.424067 -0.42482,0.628885 -0.15586,0.76997 0.15586,0.769814 0.42482,0.628512 0.62965,0.423689 0.77032,0.155344 m 11.6496,0 0.77275,-0.155344 0.63016,-0.423689 0.42442,-0.628512 0.15551,-0.769814 -0.15551,-0.76997 -0.42442,-0.628885 -0.63016,-0.424067 -0.77275,-0.155518 -0.76865,0.155518 -0.62864,0.424067 -0.42433,0.628885 -0.15573,0.76997 0.15573,0.769814 0.42433,0.628512 0.62864,0.423689 0.76865,0.155344 m -151.47396,0 0.77015,-0.155344 0.62927,-0.423689 0.42444,-0.628512 0.15569,-0.769814 -0.15569,-0.76997 -0.42444,-0.628885 -0.62927,-0.424067 -0.77015,-0.155518 -0.77076,0.155518 -0.629,0.424067 -0.42387,0.628885 -0.15537,0.76997 0.15537,0.769814 0.42387,0.628512 0.629,0.423689 0.77076,0.155344 m 11.65071,0 0.770269,-0.155344 0.628461,-0.423689 0.423429,-0.628512 0.155191,-0.769814 -0.155109,-0.76997 -0.423311,-0.628885 -0.62843,-0.424067 -0.7705,-0.155518 -0.7699,0.155518 -0.6287,0.424067 -0.423881,0.628885 -0.155428,0.76997 0.155428,0.769814 0.423881,0.628512 0.6287,0.423689 0.7699,0.155344 m 11.6518,0 0.77044,-0.155344 0.62884,-0.423689 0.42381,-0.628512 0.15536,-0.769814 -0.15536,-0.76997 -0.42381,-0.628885 -0.62884,-0.424067 -0.77044,-0.155518 -0.77004,0.155518 -0.62849,0.424067 -0.42356,0.628885 -0.15527,0.76997 0.15519,0.769814 0.42344,0.628512 0.62846,0.423689 0.77027,0.155344 m 11.6518,0 0.77035,-0.155344 0.62865,-0.423689 0.42362,-0.628512 0.15528,-0.769814 -0.15528,-0.76997 -0.42362,-0.628885 -0.62865,-0.424067 -0.77035,-0.155518 -0.7699,0.155518 -0.6287,0.424067 -0.42388,0.628885 -0.15543,0.76997 0.15543,0.769814 0.42388,0.628512 0.6287,0.423689 0.7699,0.155344 m 11.65235,0 0.7698,-0.155344 0.62851,-0.423689 0.42369,-0.628512 0.15535,-0.769814 -0.15535,-0.76997 -0.42369,-0.628885 -0.62851,-0.424067 -0.7698,-0.155518 -0.76966,0.155518 -0.62873,0.424067 -0.42401,0.628885 -0.15551,0.76997 0.15551,0.769814 0.42401,0.628512 0.62873,0.423689 0.76966,0.155344 m 11.65125,0 0.77006,-0.155344 0.62908,-0.423689 0.42426,-0.628512 0.1556,-0.769814 -0.1556,-0.76997 -0.42426,-0.628885 -0.62908,-0.424067 -0.77006,-0.155518 -0.76972,0.155518 -0.62832,0.424067 -0.42351,0.628885 -0.15526,0.76997 0.15518,0.769814 0.42338,0.628512 0.6283,0.423689 0.76995,0.155344 m 11.65235,0 0.7698,-0.155344 0.62851,-0.423689 0.42369,-0.628512 0.15535,-0.769814 -0.15527,-0.76997 -0.42356,-0.628885 -0.62848,-0.424067 -0.77004,-0.155518 -0.76975,0.155518 -0.62891,0.424067 -0.4242,0.628885 -0.15559,0.76997 0.15559,0.769814 0.4242,0.628512 0.62891,0.423689 0.76975,0.155344 m -87.38878,11.652902 0.76894,-0.155493 0.62821,-0.42389 0.42369,-0.628401 0.15541,-0.769028 -0.15533,-0.770376 -0.42357,-0.629243 -0.62818,-0.424324 -0.76917,-0.155617 -0.76975,0.155694 -0.62891,0.424448 -0.4242,0.629268 -0.15559,0.77015 0.15559,0.768796 0.4242,0.628427 0.62891,0.424017 0.76975,0.155572 m 93.21715,0 0.7698,-0.155493 0.62851,-0.42389 0.42369,-0.628401 0.15535,-0.769028 -0.15527,-0.770376 -0.42356,-0.629243 -0.62848,-0.424324 -0.77004,-0.155617 -0.77047,0.155694 -0.62943,0.424448 -0.4245,0.629268 -0.1557,0.77015 0.15554,0.768796 0.42467,0.628427 0.62958,0.424017 0.77031,0.155572 m 11.6529,0 0.76934,-0.155493 0.62856,-0.42389 0.42395,-0.628401 0.1555,-0.769028 -0.15542,-0.770376 -0.42382,-0.629243 -0.62854,-0.424324 -0.76957,-0.155617 -0.77177,0.155694 -0.62909,0.424448 -0.42354,0.629268 -0.15515,0.77015 0.15515,0.768796 0.42354,0.628427 0.62909,0.424017 0.77177,0.155572 m 11.65015,0 0.76975,-0.155493 0.62891,-0.42389 0.4242,-0.628401 0.15559,-0.769028 -0.15559,-0.770376 -0.4242,-0.629243 -0.62891,-0.424324 -0.76975,-0.155617 -0.76992,0.155694 -0.62929,0.424448 -0.42457,0.629268 -0.15577,0.77015 0.15546,0.768796 0.42447,0.628427 0.62939,0.424017 0.77023,0.155572 m 11.6518,0 0.77032,-0.155493 0.62965,-0.42389 0.42482,-0.628401 0.15586,-0.769028 -0.15586,-0.770376 -0.42482,-0.629243 -0.62965,-0.424324 -0.77032,-0.155617 -0.76983,0.155694 -0.6291,0.424448 -0.42439,0.629268 -0.15568,0.77015 0.15545,0.768796 0.42441,0.628427 0.62923,0.424017 0.76991,0.155572 m 11.6518,0 0.77003,-0.155493 0.63007,-0.42389 0.42546,-0.628401 0.15619,-0.769028 -0.15619,-0.770376 -0.42546,-0.629243 -0.63007,-0.424324 -0.77003,-0.155617 -0.76989,0.155694 -0.6287,0.424448 -0.42388,0.629268 -0.15543,0.77015 0.15543,0.768796 0.42388,0.628427 0.6287,0.424017 0.76989,0.155572 m 11.65126,0 0.76989,-0.155493 0.6287,-0.42389 0.42388,-0.628401 0.15543,-0.769028 -0.15543,-0.770376 -0.42388,-0.629243 -0.6287,-0.424324 -0.76989,-0.155617 -0.76935,0.155694 -0.62856,0.424448 -0.42395,0.629268 -0.1555,0.77015 0.1555,0.768796 0.42395,0.628427 0.62856,0.424017 0.76935,0.155572 m 11.65289,0 0.77148,-0.155493 0.62951,-0.42389 0.42418,-0.628401 0.15548,-0.769028 -0.15548,-0.770376 -0.42418,-0.629243 -0.62951,-0.424324 -0.77148,-0.155617 -0.76951,0.155694 -0.62894,0.424448 -0.42433,0.629268 -0.15567,0.77015 0.15536,0.768796 0.42423,0.628427 0.62904,0.424017 0.76982,0.155572 m 11.65125,0 0.77037,-0.155493 0.62865,-0.42389 0.42362,-0.628401 0.15528,-0.769028 -0.15528,-0.770376 -0.42362,-0.629243 -0.62865,-0.424324 -0.77037,-0.155617 -0.76911,0.155694 -0.62859,0.424448 -0.42407,0.629268 -0.15558,0.77015 0.15558,0.768796 0.42407,0.628427 0.62859,0.424017 0.76911,0.155572 m -163.12576,0 0.76911,-0.155493 0.62859,-0.42389 0.42408,-0.628401 0.15558,-0.769028 -0.15558,-0.770376 -0.42408,-0.629243 -0.62859,-0.424324 -0.76911,-0.155617 -0.77006,0.155694 -0.62908,0.424448 -0.42426,0.629268 -0.1556,0.77015 0.15537,0.768796 0.42428,0.628427 0.62921,0.424017 0.77014,0.155572 m 11.64961,0 0.76995,-0.155493 0.6283,-0.42389 0.42338,-0.628401 0.15518,-0.769028 -0.15511,-0.770376 -0.42324,-0.629243 -0.62828,-0.424324 -0.77018,-0.155617 -0.76966,0.155694 -0.62872,0.424448 -0.42401,0.629268 -0.15551,0.77015 0.15551,0.768796 0.42401,0.628427 0.62872,0.424017 0.76966,0.155572 m 11.65235,0 0.770269,-0.155493 0.628461,-0.42389 0.423441,-0.628401 0.155188,-0.769028 -0.155188,-0.770376 -0.423441,-0.629243 -0.628461,-0.424324 -0.770269,-0.155617 -0.769981,0.155694 -0.628879,0.424448 -0.42407,0.629268 -0.155521,0.77015 0.155521,0.768796 0.42407,0.628427 0.628879,0.424017 0.769981,0.155572 m 11.65071,0 0.77116,-0.155493 0.62934,-0.42389 0.42412,-0.628401 0.15547,-0.769028 -0.15547,-0.770376 -0.42412,-0.629243 -0.62934,-0.424324 -0.77116,-0.155617 -0.76926,0.155694 -0.62838,0.424448 -0.42375,0.629268 -0.15542,0.77015 0.15542,0.768796 0.42375,0.628427 0.62838,0.424017 0.76926,0.155572 m 11.65289,0 0.76958,-0.155493 0.62854,-0.42389 0.42382,-0.628401 0.15542,-0.769028 -0.15542,-0.770376 -0.42382,-0.629243 -0.62854,-0.424324 -0.76958,-0.155617 -0.76966,0.155694 -0.62872,0.424448 -0.42401,0.629268 -0.15551,0.77015 0.15551,0.768796 0.42401,0.628427 0.62872,0.424017 0.76966,0.155572 m 11.6518,0 0.76958,-0.155493 0.62854,-0.42389 0.42382,-0.628401 0.15542,-0.769028 -0.15542,-0.770376 -0.42382,-0.629243 -0.62854,-0.424324 -0.76958,-0.155617 -0.76925,0.155694 -0.62838,0.424448 -0.42375,0.629268 -0.15542,0.77015 0.15565,0.768796 0.42373,0.628427 0.62824,0.424017 0.76918,0.155572 m 11.6518,0 0.76926,-0.155493 0.62837,-0.42389 0.42376,-0.628401 0.15542,-0.769028 -0.15534,-0.770376 -0.42363,-0.629243 -0.62835,-0.424324 -0.76949,-0.155617 -0.76949,0.155694 -0.62834,0.424448 -0.42363,0.629268 -0.15534,0.77015 0.15526,0.768796 0.4235,0.628427 0.62832,0.424017 0.76972,0.155572 m -75.73533,11.651248 0.76862,-0.15551 0.62805,-0.424008 0.42364,-0.628723 0.1554,-0.769657 -0.15532,-0.7703 -0.42351,-0.629056 -0.62802,-0.424127 -0.76886,-0.155527 -0.77006,0.155527 -0.62908,0.424127 -0.42426,0.629056 -0.1556,0.7703 0.15529,0.769886 0.42416,0.628698 0.62918,0.42388 0.77037,0.155434 m 93.21605,0 0.76975,-0.15551 0.62892,-0.424008 0.42419,-0.628723 0.1556,-0.769657 -0.1556,-0.7703 -0.42419,-0.629056 -0.62892,-0.424127 -0.76975,-0.155527 -0.77032,0.155527 -0.62964,0.424127 -0.42482,0.629056 -0.15586,0.7703 0.15586,0.769886 0.42482,0.628698 0.62964,0.42388 0.77032,0.155434 m 11.65071,0 0.76974,-0.15551 0.62892,-0.424008 0.42419,-0.628723 0.1556,-0.769657 -0.1556,-0.7703 -0.42419,-0.629056 -0.62892,-0.424127 -0.76974,-0.155527 -0.7705,0.155527 -0.62844,0.424127 -0.4233,0.629056 -0.15512,0.7703 0.15535,0.769886 0.42328,0.628698 0.62831,0.42388 0.77042,0.155434 m 11.6518,0 0.76974,-0.15551 0.62892,-0.424008 0.42419,-0.628723 0.1556,-0.769657 -0.1556,-0.7703 -0.42419,-0.629056 -0.62892,-0.424127 -0.76974,-0.155527 -0.76949,0.155527 -0.62835,0.424127 -0.42363,0.629056 -0.15534,0.7703 0.15526,0.769886 0.4235,0.628698 0.62833,0.42388 0.76972,0.155434 m 11.6518,0 0.77064,-0.15551 0.6298,-0.424008 0.42488,-0.628723 0.15587,-0.769657 -0.15587,-0.7703 -0.42488,-0.629056 -0.6298,-0.424127 -0.77064,-0.155527 -0.76998,0.155527 -0.62888,0.424127 -0.42407,0.629056 -0.15552,0.7703 0.15552,0.769886 0.42407,0.628698 0.62888,0.42388 0.76998,0.155434 m 11.6507,0 0.77064,-0.15551 0.6298,-0.424008 0.42489,-0.628723 0.15587,-0.769657 -0.15587,-0.7703 -0.42489,-0.629056 -0.6298,-0.424127 -0.77064,-0.155527 -0.76949,0.155527 -0.62834,0.424127 -0.42363,0.629056 -0.15534,0.7703 0.15557,0.769886 0.4236,0.628698 0.62822,0.42388 0.76941,0.155434 m 11.65455,0 0.76949,-0.15551 0.62834,-0.424008 0.42363,-0.628723 0.15534,-0.769657 -0.15526,-0.7703 -0.4235,-0.629056 -0.62832,-0.424127 -0.76972,-0.155527 -0.77032,0.155527 -0.62965,0.424127 -0.42482,0.629056 -0.15586,0.7703 0.15563,0.769886 0.42485,0.628698 0.62977,0.42388 0.7704,0.155434 m 11.6496,0 0.77275,-0.15551 0.63016,-0.424008 0.42442,-0.628723 0.15551,-0.769657 -0.15551,-0.7703 -0.42442,-0.629056 -0.63016,-0.424127 -0.77275,-0.155527 -0.76865,0.155527 -0.62864,0.424127 -0.42433,0.629056 -0.15573,0.7703 0.1555,0.769886 0.42436,0.628698 0.62876,0.42388 0.76873,0.155434 m -151.47396,0 0.77015,-0.15551 0.62927,-0.424008 0.42444,-0.628723 0.15569,-0.769657 -0.15569,-0.7703 -0.42444,-0.629056 -0.62927,-0.424127 -0.77015,-0.155527 -0.77076,0.155527 -0.629,0.424127 -0.42387,0.629056 -0.15537,0.7703 0.15514,0.769886 0.4239,0.628698 0.62912,0.42388 0.77084,0.155434 m 11.65071,0 0.770269,-0.15551 0.628461,-0.424008 0.423429,-0.628723 0.155191,-0.769657 -0.155109,-0.7703 -0.423311,-0.629056 -0.62843,-0.424127 -0.7705,-0.155527 -0.7699,0.155527 -0.6287,0.424127 -0.423881,0.629056 -0.155428,0.7703 0.155428,0.769886 0.423881,0.628698 0.6287,0.42388 0.7699,0.155434 m 11.6518,0 0.77044,-0.15551 0.62884,-0.424008 0.42381,-0.628723 0.15536,-0.769657 -0.15536,-0.7703 -0.42381,-0.629056 -0.62884,-0.424127 -0.77044,-0.155527 -0.77004,0.155527 -0.62849,0.424127 -0.42356,0.629056 -0.15527,0.7703 0.15519,0.769886 0.42344,0.628698 0.62846,0.42388 0.77027,0.155434 m 11.6518,0 0.77035,-0.15551 0.62865,-0.424008 0.42362,-0.628723 0.15528,-0.769657 -0.15528,-0.7703 -0.42362,-0.629056 -0.62865,-0.424127 -0.77035,-0.155527 -0.7699,0.155527 -0.6287,0.424127 -0.42388,0.629056 -0.15543,0.7703 0.1552,0.769886 0.42391,0.628698 0.62883,0.42388 0.76997,0.155434 m 11.65235,0 0.7698,-0.15551 0.62851,-0.424008 0.42369,-0.628723 0.15535,-0.769657 -0.15535,-0.7703 -0.42369,-0.629056 -0.62851,-0.424127 -0.7698,-0.155527 -0.76966,0.155527 -0.62873,0.424127 -0.42401,0.629056 -0.15551,0.7703 0.15551,0.769886 0.42401,0.628698 0.62873,0.42388 0.76966,0.155434 m 11.65125,0 0.77006,-0.15551 0.62908,-0.424008 0.42426,-0.628723 0.1556,-0.769657 -0.1556,-0.7703 -0.42426,-0.629056 -0.62908,-0.424127 -0.77006,-0.155527 -0.76972,0.155527 -0.62832,0.424127 -0.42351,0.629056 -0.15526,0.7703 0.15518,0.769886 0.42338,0.628698 0.6283,0.42388 0.76995,0.155434 m -75.73643,11.65838 0.76894,-0.155354 0.62821,-0.423746 0.42369,-0.628672 0.15541,-0.770128 -0.15533,-0.772366 -0.42357,-0.630403 -0.62818,-0.42486 -0.76917,-0.15575 -0.76975,0.15575 -0.62891,0.42486 -0.4242,0.630403 -0.15559,0.772366 0.15559,0.770128 0.4242,0.628672 0.62891,0.423746 0.76975,0.155354 m 104.87005,0 0.76934,-0.155354 0.62856,-0.423746 0.42395,-0.628672 0.1555,-0.770128 -0.15542,-0.772366 -0.42382,-0.630403 -0.62854,-0.42486 -0.76957,-0.15575 -0.77177,0.15575 -0.62909,0.42486 -0.42354,0.630403 -0.15515,0.772366 0.15515,0.770128 0.42354,0.628672 0.62909,0.423746 0.77177,0.155354 m 11.65015,0 0.76975,-0.155354 0.62891,-0.423746 0.4242,-0.628672 0.15559,-0.770128 -0.15559,-0.772366 -0.4242,-0.630403 -0.62891,-0.42486 -0.76975,-0.15575 -0.76992,0.15575 -0.62929,0.42486 -0.42457,0.630403 -0.15577,0.772366 0.15546,0.770128 0.42447,0.628672 0.62939,0.423746 0.77023,0.155354 m 11.6518,0 0.77032,-0.155354 0.62965,-0.423746 0.42482,-0.628672 0.15586,-0.770128 -0.15586,-0.772366 -0.42482,-0.630403 -0.62965,-0.42486 -0.77032,-0.15575 -0.76983,0.15575 -0.6291,0.42486 -0.42439,0.630403 -0.15568,0.772366 0.15545,0.770128 0.42441,0.628672 0.62923,0.423746 0.76991,0.155354 m 11.6518,0 0.77003,-0.155354 0.63007,-0.423746 0.42546,-0.628672 0.15619,-0.770128 -0.15619,-0.772366 -0.42546,-0.630403 -0.63007,-0.42486 -0.77003,-0.15575 -0.76989,0.15575 -0.6287,0.42486 -0.42388,0.630403 -0.15543,0.772366 0.15543,0.770128 0.42388,0.628672 0.6287,0.423746 0.76989,0.155354 m 11.65126,0 0.76989,-0.155354 0.6287,-0.423746 0.42388,-0.628672 0.15543,-0.770128 -0.15543,-0.772366 -0.42388,-0.630403 -0.6287,-0.42486 -0.76989,-0.15575 -0.76935,0.15575 -0.62856,0.42486 -0.42395,0.630403 -0.1555,0.772366 0.1555,0.770128 0.42395,0.628672 0.62856,0.423746 0.76935,0.155354 m 11.65289,0 0.77148,-0.155354 0.62951,-0.423746 0.42418,-0.628672 0.15548,-0.770128 -0.15548,-0.772366 -0.42418,-0.630403 -0.62951,-0.42486 -0.77148,-0.15575 -0.76951,0.15575 -0.62894,0.42486 -0.42433,0.630403 -0.15567,0.772366 0.15536,0.770128 0.42423,0.628672 0.62904,0.423746 0.76982,0.155354 m 11.65125,0 0.77037,-0.155354 0.62865,-0.423746 0.42362,-0.628672 0.15528,-0.770128 -0.15528,-0.772366 -0.42362,-0.630403 -0.62865,-0.42486 -0.77037,-0.15575 -0.76911,0.15575 -0.62859,0.42486 -0.42407,0.630403 -0.15558,0.772366 0.15558,0.770128 0.42407,0.628672 0.62859,0.423746 0.76911,0.155354 m -163.12576,0 0.76911,-0.155354 0.62859,-0.423746 0.42408,-0.628672 0.15558,-0.770128 -0.15558,-0.772366 -0.42408,-0.630403 -0.62859,-0.42486 -0.76911,-0.15575 -0.77006,0.15575 -0.62908,0.42486 -0.42426,0.630403 -0.1556,0.772366 0.15537,0.770128 0.42428,0.628672 0.62921,0.423746 0.77014,0.155354 m 11.64961,0 0.76995,-0.155354 0.6283,-0.423746 0.42338,-0.628672 0.15518,-0.770128 -0.15511,-0.772366 -0.42324,-0.630403 -0.62828,-0.42486 -0.77018,-0.15575 -0.76966,0.15575 -0.62872,0.42486 -0.42401,0.630403 -0.15551,0.772366 0.15551,0.770128 0.42401,0.628672 0.62872,0.423746 0.76966,0.155354 m 11.65235,0 0.770269,-0.155354 0.628461,-0.423746 0.423441,-0.628672 0.155188,-0.770128 -0.155188,-0.772366 -0.423441,-0.630403 -0.628461,-0.42486 -0.770269,-0.15575 -0.769981,0.15575 -0.628879,0.42486 -0.42407,0.630403 -0.155521,0.772366 0.155521,0.770128 0.42407,0.628672 0.628879,0.423746 0.769981,0.155354 m 11.65071,0 0.77116,-0.155354 0.62934,-0.423746 0.42412,-0.628672 0.15547,-0.770128 -0.15547,-0.772366 -0.42412,-0.630403 -0.62934,-0.42486 -0.77116,-0.15575 -0.76926,0.15575 -0.62838,0.42486 -0.42375,0.630403 -0.15542,0.772366 0.15542,0.770128 0.42375,0.628672 0.62838,0.423746 0.76926,0.155354 m 11.65289,0 0.76958,-0.155354 0.62854,-0.423746 0.42382,-0.628672 0.15542,-0.770128 -0.15542,-0.772366 -0.42382,-0.630403 -0.62854,-0.42486 -0.76958,-0.15575 -0.76966,0.15575 -0.62872,0.42486 -0.42401,0.630403 -0.15551,0.772366 0.15551,0.770128 0.42401,0.628672 0.62872,0.423746 0.76966,0.155354 m 11.6518,0 0.76958,-0.155354 0.62854,-0.423746 0.42382,-0.628672 0.15542,-0.770128 -0.15542,-0.772366 -0.42382,-0.630403 -0.62854,-0.42486 -0.76958,-0.15575 -0.76925,0.15575 -0.62838,0.42486 -0.42375,0.630403 -0.15542,0.772366 0.15565,0.770128 0.42373,0.628672 0.62824,0.423746 0.76918,0.155354 m -64.08353,11.651806 0.76862,-0.15551 0.62805,-0.424012 0.42364,-0.628726 0.1554,-0.769657 -0.15532,-0.770204 -0.42351,-0.628862 -0.62802,-0.423943 -0.76886,-0.155442 -0.77006,0.155442 -0.62908,0.423943 -0.42426,0.628862 -0.1556,0.770204 0.15529,0.769657 0.42416,0.628726 0.62918,0.424012 0.77037,0.15551 m 128.17036,0 0.77064,-0.15551 0.6298,-0.424012 0.42488,-0.628726 0.15587,-0.769657 -0.15587,-0.770204 -0.42488,-0.628862 -0.6298,-0.423943 -0.77064,-0.155442 -0.76998,0.155442 -0.62888,0.423943 -0.42407,0.628862 -0.15552,0.770204 0.15552,0.769657 0.42407,0.628726 0.62888,0.424012 0.76998,0.15551 m 11.6507,0 0.77064,-0.15551 0.6298,-0.424012 0.42489,-0.628726 0.15587,-0.769657 -0.15587,-0.770204 -0.42489,-0.628862 -0.6298,-0.423943 -0.77064,-0.155442 -0.76949,0.155442 -0.62834,0.423943 -0.42363,0.628862 -0.15534,0.770204 0.15557,0.769657 0.4236,0.628726 0.62822,0.424012 0.76941,0.15551 m 11.65455,0 0.76949,-0.15551 0.62834,-0.424012 0.42363,-0.628726 0.15534,-0.769657 -0.15526,-0.770204 -0.4235,-0.628862 -0.62832,-0.423943 -0.76972,-0.155442 -0.77032,0.155442 -0.62965,0.423943 -0.42482,0.628862 -0.15586,0.770204 0.15563,0.769657 0.42485,0.628726 0.62977,0.424012 0.7704,0.15551 m 11.6496,0 0.77275,-0.15551 0.63016,-0.424012 0.42442,-0.628726 0.15551,-0.769657 -0.15551,-0.770204 -0.42442,-0.628862 -0.63016,-0.423943 -0.77275,-0.155442 -0.76865,0.155442 -0.62864,0.423943 -0.42433,0.628862 -0.15573,0.770204 0.1555,0.769657 0.42436,0.628726 0.62876,0.424012 0.76873,0.15551 m -151.47396,0 0.77015,-0.15551 0.62927,-0.424012 0.42444,-0.628726 0.15569,-0.769657 -0.15569,-0.770204 -0.42444,-0.628862 -0.62927,-0.423943 -0.77015,-0.155442 -0.77076,0.155442 -0.629,0.423943 -0.42387,0.628862 -0.15537,0.770204 0.15514,0.769657 0.4239,0.628726 0.62912,0.424012 0.77084,0.15551 m 11.65071,0 0.770269,-0.15551 0.628461,-0.424012 0.423429,-0.628726 0.155191,-0.769657 -0.155109,-0.770204 -0.423311,-0.628862 -0.62843,-0.423943 -0.7705,-0.155442 -0.7699,0.155442 -0.6287,0.423943 -0.423881,0.628862 -0.155428,0.770204 0.155428,0.769657 0.423881,0.628726 0.6287,0.424012 0.7699,0.15551 m 11.6518,0 0.77044,-0.15551 0.62884,-0.424012 0.42381,-0.628726 0.15536,-0.769657 -0.15536,-0.770204 -0.42381,-0.628862 -0.62884,-0.423943 -0.77044,-0.155442 -0.77004,0.155442 -0.62849,0.423943 -0.42356,0.628862 -0.15527,0.770204 0.15519,0.769657 0.42344,0.628726 0.62846,0.424012 0.77027,0.15551 m -40.78103,11.65343 0.76894,-0.15534 0.62821,-0.42369 0.42369,-0.62851 0.15541,-0.76981 -0.15533,-0.77132 -0.42357,-0.62973 -0.62818,-0.4245 -0.76917,-0.15563 -0.76975,0.15571 -0.62891,0.42462 -0.4242,0.62976 -0.15559,0.77109 0.15559,0.76981 0.4242,0.62851 0.62891,0.42369 0.76975,0.15534 m 151.47506,0 0.76989,-0.15534 0.6287,-0.42369 0.42388,-0.62851 0.15543,-0.76981 -0.15543,-0.77132 -0.42388,-0.62973 -0.6287,-0.4245 -0.76989,-0.15563 -0.76935,0.15571 -0.62856,0.42462 -0.42395,0.62976 -0.1555,0.77109 0.1555,0.76981 0.42395,0.62851 0.62856,0.42369 0.76935,0.15534 m 11.65289,0 0.77148,-0.15534 0.62951,-0.42369 0.42418,-0.62851 0.15548,-0.76981 -0.15548,-0.77132 -0.42418,-0.62973 -0.62951,-0.4245 -0.77148,-0.15563 -0.76951,0.15571 -0.62894,0.42462 -0.42433,0.62976 -0.15567,0.77109 0.15536,0.76981 0.42423,0.62851 0.62904,0.42369 0.76982,0.15534 m 11.65125,0 0.77037,-0.15534 0.62865,-0.42369 0.42362,-0.62851 0.15528,-0.76981 -0.15528,-0.77132 -0.42362,-0.62973 -0.62865,-0.4245 -0.77037,-0.15563 -0.76911,0.15571 -0.62859,0.42462 -0.42407,0.62976 -0.15558,0.77109 0.15558,0.76981 0.42407,0.62851 0.62859,0.42369 0.76911,0.15534 m -163.12576,0 0.76911,-0.15534 0.62859,-0.42369 0.42408,-0.62851 0.15558,-0.76981 -0.15558,-0.77132 -0.42408,-0.62973 -0.62859,-0.4245 -0.76911,-0.15563 -0.77006,0.15571 -0.62908,0.42462 -0.42426,0.62976 -0.1556,0.77109 0.15537,0.76981 0.42428,0.62851 0.62921,0.42369 0.77014,0.15534 m 11.64961,0 0.76995,-0.15534 0.6283,-0.42369 0.42338,-0.62851 0.15518,-0.76981 -0.15511,-0.77132 -0.42324,-0.62973 -0.62828,-0.4245 -0.77018,-0.15563 -0.76966,0.15571 -0.62872,0.42462 -0.42401,0.62976 -0.15551,0.77109 0.15551,0.76981 0.42401,0.62851 0.62872,0.42369 0.76966,0.15534 m -17.47578,11.65071 0.76862,-0.15502 0.62805,-0.42312 0.42364,-0.62824 0.1554,-0.77041 -0.15532,-0.77093 -0.42351,-0.62938 -0.62802,-0.42424 -0.76886,-0.15555 -0.77006,0.15555 -0.62908,0.42424 -0.42426,0.62938 -0.1556,0.77093 0.15529,0.77041 0.42416,0.62824 0.62918,0.42312 0.77037,0.15502 m 163.12521,0 0.77275,-0.15502 0.63016,-0.42312 0.42442,-0.62824 0.15551,-0.77041 -0.15551,-0.77093 -0.42442,-0.62938 -0.63016,-0.42424 -0.77275,-0.15555 -0.76865,0.15555 -0.62864,0.42424 -0.42433,0.62938 -0.15573,0.77093 0.1555,0.77041 0.42436,0.62824 0.62876,0.42312 0.76873,0.15502 m -168.95248,11.6529 0.76894,-0.15548 0.62821,-0.42376 0.42369,-0.62807 0.15541,-0.76839 -0.15533,-0.77116 -0.42357,-0.62935 -0.62818,-0.42412 -0.76917,-0.15547 -0.76975,0.15547 -0.62891,0.42412 -0.4242,0.62935 -0.15559,0.77116 0.15559,0.76816 0.4242,0.6281 0.62891,0.42389 0.76975,0.15555 m 174.7792,0 0.77037,-0.15548 0.62865,-0.42376 0.42362,-0.62807 0.15528,-0.76839 -0.15528,-0.77116 -0.42362,-0.62935 -0.62865,-0.42412 -0.77037,-0.15547 -0.76911,0.15547 -0.62859,0.42412 -0.42407,0.62935 -0.15558,0.77116 0.15558,0.76816 0.42407,0.6281 0.62859,0.42389 0.76911,0.15555 m -18.04034,-16.03721 -6.64954,-5.97408 -7.33997,-5.35722 -7.92214,-4.69698 -8.3961,-3.993324 -8.7618,-3.24629 -9.01929,-2.455858 -9.16852,-1.622033 -9.20954,-0.744821 0,-1.727237 0,-1.727236 0,-1.72724 0,-1.727237 0,-1.727236 0,-1.727237 0,-1.72724 0,-1.727236 -0.0592,-0.587917 -0.16974,-0.54708 -0.26858,-0.494662 -0.35573,-0.430677 -0.43115,-0.355117 -0.49488,-0.267984 -0.5469,-0.169277 -0.5872,-0.059 -0.58752,0.05902 -0.54704,0.169333 -0.4949,0.268052 -0.43108,0.35518 -0.35561,0.430713 -0.26845,0.494654 -0.16962,0.547 -0.0591,0.587759 0,1.727237 0,1.727239 0,1.727237 0,1.727237 0,1.727236 0,1.72724 0,1.727237 0,1.727236 -9.26304,0.740532 -9.20839,1.609914 -9.04543,2.436413 -8.7741,3.220012 -8.39446,3.960728 -7.906461,4.65854 -7.31014,5.31347 -6.60547,5.92551 -4.42598,4.81873 -3.86315,5.03226 -3.29186,5.22669 -2.71211,5.40206 -2.12391,5.55835 -1.52725,5.69557 -0.92214,5.8137 -0.30857,5.91276 0.0591,0.58681 0.16944,0.54656 0.26816,0.4946 0.35526,0.43092 0.43072,0.35555 0.49454,0.26845 0.54672,0.16966 0.58727,0.0592 0.58772,-0.0591 0.54724,-0.16961 0.49509,-0.26839 0.43125,-0.35548 0.35574,-0.43089 0.26856,-0.49461 0.1697,-0.54663 0.0592,-0.58697 0.28937,-2.86145 0.82966,-2.66694 1.31233,-2.41478 1.73733,-2.10499 2.10468,-1.73755 2.4144,-1.31247 2.66647,-0.82976 2.86088,-0.28939 2.86168,0.28939 2.66719,0.82976 2.415051,1.31247 2.105259,1.73755 1.737789,2.10499 1.312661,2.41478 0.829891,2.66694 0.289439,2.86145 0.0591,0.58681 0.169449,0.54656 0.26823,0.4946 0.35538,0.43092 0.430911,0.35555 0.494831,0.26845 0.54713,0.16966 0.58781,0.0592 0.58637,-0.0591 0.546399,-0.16961 0.494651,-0.26839 0.43113,-0.35548 0.35583,-0.43089 0.26875,-0.49461 0.16988,-0.54663 0.0592,-0.58697 0.2893,-2.86145 0.82952,-2.66694 1.31216,-2.41478 1.73723,-2.10499 2.10471,-1.73755 2.41463,-1.31247 2.66695,-0.82976 2.86172,-0.28939 2.86192,0.28939 2.66716,0.82973 2.41481,1.31241 2.10488,1.73743 1.73737,2.10479 1.31226,2.41449 0.82959,2.66653 0.28933,2.8609 0.0591,0.58752 0.16963,0.54704 0.26847,0.4949 0.35565,0.43109 0.43115,0.3556 0.49499,0.26846 0.54718,0.16962 0.5877,0.0591 0.58697,-0.0591 0.54664,-0.16962 0.4946,-0.26846 0.43089,-0.3556 0.35549,-0.43109 0.26838,-0.4949 0.16961,-0.54704 0.0591,-0.58752 0.22214,-2.51069 0.64072,-2.36768 1.02077,-2.18613 1.36229,-1.96602 1.66528,-1.70738 1.92973,-1.41018 2.15565,-1.07444 2.34304,-0.70016 0,14.10347 0,14.10347 0,14.10347 0,14.10347 0,14.10347 0,14.10347 0,14.10347 0,14.10347 0.36678,3.62725 1.05166,3.38087 1.66348,3.06139 2.20225,2.66875 2.66799,2.203 3.06067,1.66411 3.38031,1.0521 3.62691,0.36695 3.62733,-0.36693 3.38041,-1.05204 3.06052,-1.66404 2.66768,-2.20294 2.20187,-2.66872 1.6631,-3.06139 1.05137,-3.38095 0.36667,-3.62741 -0.0541,-1.41019 -0.16142,-1.39064 -0.26728,-1.36649 -0.3717,-1.3377 -0.47468,-1.30428 -0.57621,-1.26626 -0.6763,-1.22361 -0.77496,-1.17632 -0.38909,-0.44317 -0.4556,-0.34593 -0.50575,-0.24605 -0.53954,-0.1435 -0.55698,-0.0383 -0.55806,0.0695 -0.54278,0.18001 -0.51115,0.29314 -0.44412,0.38962 -0.34671,0.45601 -0.24662,0.50611 -0.14388,0.53996 -0.0385,0.55752 0.0696,0.55881 0.18039,0.54383 0.29381,0.51258 0.52359,0.79446 0.45701,0.82701 0.38943,0.85632 0.32086,0.88238 0.25129,0.90519 0.18073,0.92476 0.10917,0.94108 0.0366,0.95415 -0.24822,2.45437 -0.71172,2.28771 -1.12578,2.07154 -1.49041,1.80589 -1.80562,1.49074 -2.07139,1.12609 -2.28773,0.71195 -2.45464,0.24832 -2.45379,-0.24834 -2.28717,-0.712 -2.07108,-1.12616 -1.8055,-1.4908 -1.49041,-1.80592 -1.12586,-2.07154 -0.7118,-2.28763 -0.24827,-2.45422 0,-14.10052 0,-14.10052 0,-14.10052 0,-14.10052 0,-14.10052 0,-14.10052 0,-14.10052 0,-14.10052 2.32945,0.70774 2.14268,1.07783 1.91775,1.40997 1.65465,1.70416 1.35339,1.96038 1.01396,2.17866 0.63636,2.35899 0.2206,2.50135 0.0591,0.58752 0.16963,0.54704 0.26847,0.4949 0.35565,0.43109 0.43115,0.3556 0.49499,0.26846 0.54718,0.16962 0.5877,0.0591 0.58587,-0.0591 0.54612,-0.16962 0.49454,-0.26846 0.43114,-0.3556 0.35591,-0.43109 0.26886,-0.4949 0.16999,-0.54704 0.0593,-0.58752 0.28935,-2.86152 0.82965,-2.66712 1.31236,-2.41504 1.73746,-2.10529 2.10498,-1.73784 2.4149,-1.31274 2.66722,-0.82994 2.86194,-0.28946 2.86107,0.28944 2.66696,0.82988 2.41511,1.31267 2.10549,1.73779 1.73813,2.10525 1.31303,2.41505 0.83016,2.66719 0.28956,2.86168 0.0589,0.58752 0.16915,0.54704 0.26781,0.4949 0.35492,0.43109 0.43048,0.3556 0.49448,0.26846 0.54696,0.16962 0.58787,0.0591 0.58663,-0.0591 0.54643,-0.16962 0.4945,-0.26846 0.43086,-0.3556 0.35551,-0.43109 0.26843,-0.4949 0.16966,-0.54704 0.0591,-0.58752 0.28946,-2.86152 0.82989,-2.66712 1.31261,-2.41504 1.73761,-2.10529 2.1049,-1.73784 2.41445,-1.31274 2.66631,-0.82994 2.86043,-0.28946 2.88788,0.28944 2.69155,0.82988 2.43705,1.31267 2.1244,1.73779 1.75356,2.10525 1.32456,2.41505 0.83739,2.66719 0.29206,2.86168 0.0591,0.58752 0.16958,0.54704 0.26841,0.4949 0.35558,0.43109 0.43111,0.3556 0.49501,0.26846 0.54725,0.16962 0.58786,0.0591 0.5859,-0.0591 0.54618,-0.16962 0.49462,-0.26846 0.43124,-0.3556 0.35602,-0.43109 0.26895,-0.4949 0.17005,-0.54704 0.0593,-0.58752 -0.3116,-5.84086 -0.92774,-5.75404 -1.53555,-5.64824 -2.13503,-5.52345 -2.72617,-5.37969 -3.30898,-5.21695 -3.88345,-5.03522 -4.4496,-4.83452" />
  </g>
</svg>
