  0
SECTION
  2
HEADER
  9
$ACADVER
  1
AC1014
  9
$HANDSEED
  5
FFFF
  9
$MEASUREMENT
 70
     1
  0
ENDSEC
  0
SECTION
  2
TABLES
  0
TABLE
  2
VPORT
  5
8
330
0
100
AcDbSymbolTable
 70
     4
  0
VPORT
  5
2E
330
8
100
AcDbSymbolTableRecord
100
AcDbViewportTableRecord
  2
*ACTIVE
 70
     0
 10
0.0
 20
0.0
 11
1.0
 21
1.0
 12
210.0
 22
148.5
 13
0.0
 23
0.0
 14
10.0
 24
10.0
 15
10.0
 25
10.0
 16
0.0
 26
0.0
 36
1.0
 17
0.0
 27
0.0
 37
0.0
 40
341.0
 41
1.24
 42
50.0
 43
0.0
 44
0.0
 50
0.0
 51
0.0
 71
     0
 72
   100
 73
     1
 74
     3
 75
     0
 76
     0
 77
     0
 78
     0
  0
ENDTAB
  0
TABLE
  2
LTYPE
  5
5
330
0
100
AcDbSymbolTable
 70
     1
  0
LTYPE
  5
14
330
5
100
AcDbSymbolTableRecord
100
AcDbLinetypeTableRecord
  2
BYBLOCK
 70
     0
  3

 72
    65
 73
     0
 40
0.0
  0
LTYPE
  5
15
330
5
100
AcDbSymbolTableRecord
100
AcDbLinetypeTableRecord
  2
BYLAYER
 70
     0
  3

 72
    65
 73
     0
 40
0.0
  0
LTYPE
  5
16
330
5
100
AcDbSymbolTableRecord
100
AcDbLinetypeTableRecord
  2
CONTINUOUS
 70
     0
  3
Solid line
 72
    65
 73
     0
 40
0.0
  0
ENDTAB
  0
TABLE
  2
LAYER
  5
2
100
AcDbSymbolTable
 70
2
  0
LAYER
  5
50
100
AcDbSymbolTableRecord
100
AcDbLayerTableRecord
  2
0
 70
0
  6
CONTINUOUS
  0
LAYER
  5
51
100
AcDbSymbolTableRecord
100
AcDbLayerTableRecord
  2
Camada_1
 70
0
  6
CONTINUOUS
  0
ENDTAB
  0
TABLE
  2
STYLE
  5
3
330
0
100
AcDbSymbolTable
 70
     1
  0
STYLE
  5
11
330
3
100
AcDbSymbolTableRecord
100
AcDbTextStyleTableRecord
  2
STANDARD
 70
     0
 40
0.0
 41
1.0
 50
0.0
 71
     0
 42
2.5
  3
txt
  4

  0
ENDTAB
  0
TABLE
  2
VIEW
  5
6
330
0
100
AcDbSymbolTable
 70
     0
  0
ENDTAB
  0
TABLE
  2
UCS
  5
7
330
0
100
AcDbSymbolTable
 70
     0
  0
ENDTAB
  0
TABLE
  2
APPID
  5
9
330
0
100
AcDbSymbolTable
 70
     2
  0
APPID
  5
12
330
9
100
AcDbSymbolTableRecord
100
AcDbRegAppTableRecord
  2
ACAD
 70
     0
  0
ENDTAB
  0
TABLE
  2
DIMSTYLE
  5
A
330
0
100
AcDbSymbolTable
 70
     1
  0
DIMSTYLE
105
27
330
A
100
AcDbSymbolTableRecord
100
AcDbDimStyleTableRecord
  2
ISO-25
 70
     0
  3

  4

  5

  6

  7

 40
1.0
 41
2.5
 42
0.625
 43
3.75
 44
1.25
 45
0.0
 46
0.0
 47
0.0
 48
0.0
140
2.5
141
2.5
142
0.0
143
0.03937007874016
144
1.0
145
0.0
146
1.0
147
0.625
 71
     0
 72
     0
 73
     0
 74
     0
 75
     0
 76
     0
 77
     1
 78
     8
170
     0
171
     3
172
     1
173
     0
174
     0
175
     0
176
     0
177
     0
178
     0
270
     2
271
     2
272
     2
273
     2
274
     3
340
11
275
     0
280
     0
281
     0
282
     0
283
     0
284
     8
285
     0
286
     0
287
     3
288
     0
  0
ENDTAB
  0
TABLE
  2
BLOCK_RECORD
  5
1
330
0
100
AcDbSymbolTable
 70
     1
  0
BLOCK_RECORD
  5
1F
330
1
100
AcDbSymbolTableRecord
100
AcDbBlockTableRecord
  2
*MODEL_SPACE
  0
BLOCK_RECORD
  5
1B
330
1
100
AcDbSymbolTableRecord
100
AcDbBlockTableRecord
  2
*PAPER_SPACE
  0
ENDTAB
  0
ENDSEC
  0
SECTION
  2
BLOCKS
  0
BLOCK
  5
20
330
1F
100
AcDbEntity
  8
0
100
AcDbBlockBegin
  2
*MODEL_SPACE
 70
     0
 10
0.0
 20
0.0
 30
0.0
  3
*MODEL_SPACE
  1

  0
ENDBLK
  5
21
330
1F
100
AcDbEntity
  8
0
100
AcDbBlockEnd
  0
BLOCK
  5
1C
330
1B
100
AcDbEntity
 67
     1
  8
0
100
AcDbBlockBegin
  2
*PAPER_SPACE
  1

  0
ENDBLK
  5
1D
330
1B
100
AcDbEntity
 67
     1
  8
0
100
AcDbBlockEnd
  0
ENDSEC
  0
SECTION
  2
ENTITIES
  0
LWPOLYLINE
  5
100
100
AcDbEntity
  8
Camada_1
 62
7
100
AcDbPolyline
 90
17
 70
0
 10
17.670122
 20
293.889666
 30
0.0
 10
17.887134
 20
293.933481
 30
0.0
 10
18.064429
 20
294.052986
 30
0.0
 10
18.184004
 20
294.230266
 30
0.0
 10
18.227864
 20
294.447408
 30
0.0
 10
18.184027
 20
294.665130
 30
0.0
 10
18.064486
 20
294.842626
 30
0.0
 10
17.887199
 20
294.962143
 30
0.0
 10
17.670122
 20
295.005928
 30
0.0
 10
17.452882
 20
294.962122
 30
0.0
 10
17.275389
 20
294.842568
 30
0.0
 10
17.155671
 20
294.665065
 30
0.0
 10
17.111760
 20
294.447408
 30
0.0
 10
17.155671
 20
294.230266
 30
0.0
 10
17.275389
 20
294.052986
 30
0.0
 10
17.452882
 20
293.933481
 30
0.0
 10
17.670122
 20
293.889666
 30
0.0
  0
LWPOLYLINE
  5
101
100
AcDbEntity
  8
Camada_1
 62
7
100
AcDbPolyline
 90
17
 70
0
 10
43.978074
 20
293.889666
 30
0.0
 10
44.195328
 20
293.933481
 30
0.0
 10
44.372708
 20
294.052986
 30
0.0
 10
44.492283
 20
294.230266
 30
0.0
 10
44.536126
 20
294.447408
 30
0.0
 10
44.492305
 20
294.665130
 30
0.0
 10
44.372767
 20
294.842626
 30
0.0
 10
44.195396
 20
294.962143
 30
0.0
 10
43.978074
 20
295.005928
 30
0.0
 10
43.760630
 20
294.962122
 30
0.0
 10
43.582994
 20
294.842568
 30
0.0
 10
43.463187
 20
294.665065
 30
0.0
 10
43.419245
 20
294.447408
 30
0.0
 10
43.463142
 20
294.230266
 30
0.0
 10
43.582994
 20
294.052986
 30
0.0
 10
43.760675
 20
293.933481
 30
0.0
 10
43.978074
 20
293.889666
 30
0.0
  0
LWPOLYLINE
  5
102
100
AcDbEntity
  8
Camada_1
 62
7
100
AcDbPolyline
 90
17
 70
0
 10
47.266781
 20
293.889666
 30
0.0
 10
47.483906
 20
293.933481
 30
0.0
 10
47.661299
 20
294.052986
 30
0.0
 10
47.780948
 20
294.230266
 30
0.0
 10
47.824833
 20
294.447408
 30
0.0
 10
47.780970
 20
294.665130
 30
0.0
 10
47.661359
 20
294.842626
 30
0.0
 10
47.483971
 20
294.962143
 30
0.0
 10
47.266781
 20
295.005928
 30
0.0
 10
47.048970
 20
294.962122
 30
0.0
 10
46.871427
 20
294.842568
 30
0.0
 10
46.751895
 20
294.665065
 30
0.0
 10
46.708108
 20
294.447408
 30
0.0
 10
46.751895
 20
294.230266
 30
0.0
 10
46.871427
 20
294.052986
 30
0.0
 10
47.048970
 20
293.933481
 30
0.0
 10
47.266781
 20
293.889666
 30
0.0
  0
LWPOLYLINE
  5
103
100
AcDbEntity
  8
Camada_1
 62
7
100
AcDbPolyline
 90
17
 70
0
 10
50.554712
 20
293.889666
 30
0.0
 10
50.771953
 20
293.933481
 30
0.0
 10
50.949445
 20
294.052986
 30
0.0
 10
51.069164
 20
294.230266
 30
0.0
 10
51.113075
 20
294.447408
 30
0.0
 10
51.069164
 20
294.665130
 30
0.0
 10
50.949445
 20
294.842626
 30
0.0
 10
50.771953
 20
294.962143
 30
0.0
 10
50.554712
 20
295.005928
 30
0.0
 10
50.337424
 20
294.962122
 30
0.0
 10
50.159824
 20
294.842568
 30
0.0
 10
50.040001
 20
294.665065
 30
0.0
 10
49.996039
 20
294.447408
 30
0.0
 10
50.039913
 20
294.230266
 30
0.0
 10
50.159708
 20
294.052986
 30
0.0
 10
50.337336
 20
293.933481
 30
0.0
 10
50.554712
 20
293.889666
 30
0.0
  0
LWPOLYLINE
  5
104
100
AcDbEntity
  8
Camada_1
 62
7
100
AcDbPolyline
 90
17
 70
0
 10
53.843109
 20
293.889666
 30
0.0
 10
54.060511
 20
293.933481
 30
0.0
 10
54.238212
 20
294.052986
 30
0.0
 10
54.358105
 20
294.230266
 30
0.0
 10
54.402093
 20
294.447408
 30
0.0
 10
54.358105
 20
294.665130
 30
0.0
 10
54.238212
 20
294.842626
 30
0.0
 10
54.060511
 20
294.962143
 30
0.0
 10
53.843109
 20
295.005928
 30
0.0
 10
53.625846
 20
294.962122
 30
0.0
 10
53.448300
 20
294.842568
 30
0.0
 10
53.328528
 20
294.665065
 30
0.0
 10
53.284591
 20
294.447408
 30
0.0
 10
53.328463
 20
294.230266
 30
0.0
 10
53.448241
 20
294.052986
 30
0.0
 10
53.625823
 20
293.933481
 30
0.0
 10
53.843109
 20
293.889666
 30
0.0
  0
LWPOLYLINE
  5
105
100
AcDbEntity
  8
Camada_1
 62
7
100
AcDbPolyline
 90
17
 70
0
 10
57.131506
 20
293.889666
 30
0.0
 10
57.348826
 20
293.933481
 30
0.0
 10
57.526648
 20
294.052986
 30
0.0
 10
57.646720
 20
294.230266
 30
0.0
 10
57.690800
 20
294.447408
 30
0.0
 10
57.646720
 20
294.665130
 30
0.0
 10
57.526648
 20
294.842626
 30
0.0
 10
57.348826
 20
294.962143
 30
0.0
 10
57.131506
 20
295.005928
 30
0.0
 10
56.914226
 20
294.962122
 30
0.0
 10
56.736793
 20
294.842568
 30
0.0
 10
56.617164
 20
294.665065
 30
0.0
 10
56.573299
 20
294.447408
 30
0.0
 10
56.617164
 20
294.230266
 30
0.0
 10
56.736793
 20
294.052986
 30
0.0
 10
56.914226
 20
293.933481
 30
0.0
 10
57.131506
 20
293.889666
 30
0.0
  0
LWPOLYLINE
  5
106
100
AcDbEntity
  8
Camada_1
 62
7
100
AcDbPolyline
 90
17
 70
0
 10
60.419750
 20
293.889666
 30
0.0
 10
60.637031
 20
293.933481
 30
0.0
 10
60.814464
 20
294.052986
 30
0.0
 10
60.934092
 20
294.230266
 30
0.0
 10
60.977958
 20
294.447408
 30
0.0
 10
60.934092
 20
294.665130
 30
0.0
 10
60.814464
 20
294.842626
 30
0.0
 10
60.637031
 20
294.962143
 30
0.0
 10
60.419750
 20
295.005928
 30
0.0
 10
60.202623
 20
294.962122
 30
0.0
 10
60.025229
 20
294.842568
 30
0.0
 10
59.905581
 20
294.665065
 30
0.0
 10
59.861696
 20
294.447408
 30
0.0
 10
59.905581
 20
294.230266
 30
0.0
 10
60.025229
 20
294.052986
 30
0.0
 10
60.202623
 20
293.933481
 30
0.0
 10
60.419750
 20
293.889666
 30
0.0
  0
LWPOLYLINE
  5
107
100
AcDbEntity
  8
Camada_1
 62
7
100
AcDbPolyline
 90
17
 70
0
 10
63.708455
 20
293.889666
 30
0.0
 10
63.926184
 20
293.933481
 30
0.0
 10
64.103845
 20
294.052986
 30
0.0
 10
64.223559
 20
294.230266
 30
0.0
 10
64.267438
 20
294.447408
 30
0.0
 10
64.223559
 20
294.665130
 30
0.0
 10
64.103845
 20
294.842626
 30
0.0
 10
63.926184
 20
294.962143
 30
0.0
 10
63.708455
 20
295.005928
 30
0.0
 10
63.491282
 20
294.962122
 30
0.0
 10
63.313781
 20
294.842568
 30
0.0
 10
63.194026
 20
294.665065
 30
0.0
 10
63.150092
 20
294.447408
 30
0.0
 10
63.193938
 20
294.230266
 30
0.0
 10
63.313666
 20
294.052986
 30
0.0
 10
63.491195
 20
293.933481
 30
0.0
 10
63.708455
 20
293.889666
 30
0.0
  0
LWPOLYLINE
  5
108
100
AcDbEntity
  8
Camada_1
 62
7
100
AcDbPolyline
 90
17
 70
0
 10
66.996697
 20
293.889666
 30
0.0
 10
67.214112
 20
293.933481
 30
0.0
 10
67.391531
 20
294.052986
 30
0.0
 10
67.511086
 20
294.230266
 30
0.0
 10
67.554910
 20
294.447408
 30
0.0
 10
67.511086
 20
294.665130
 30
0.0
 10
67.391531
 20
294.842626
 30
0.0
 10
67.214112
 20
294.962143
 30
0.0
 10
66.996697
 20
295.005928
 30
0.0
 10
66.779637
 20
294.962122
 30
0.0
 10
66.602237
 20
294.842568
 30
0.0
 10
66.482553
 20
294.665065
 30
0.0
 10
66.438645
 20
294.447408
 30
0.0
 10
66.482553
 20
294.230266
 30
0.0
 10
66.602237
 20
294.052986
 30
0.0
 10
66.779637
 20
293.933481
 30
0.0
 10
66.996697
 20
293.889666
 30
0.0
  0
LWPOLYLINE
  5
109
100
AcDbEntity
  8
Camada_1
 62
7
100
AcDbPolyline
 90
17
 70
0
 10
20.958982
 20
293.889666
 30
0.0
 10
21.176042
 20
293.933481
 30
0.0
 10
21.353444
 20
294.052986
 30
0.0
 10
21.473129
 20
294.230266
 30
0.0
 10
21.517037
 20
294.447408
 30
0.0
 10
21.473129
 20
294.665130
 30
0.0
 10
21.353444
 20
294.842626
 30
0.0
 10
21.176042
 20
294.962143
 30
0.0
 10
20.958982
 20
295.005928
 30
0.0
 10
20.741654
 20
294.962122
 30
0.0
 10
20.564114
 20
294.842568
 30
0.0
 10
20.444378
 20
294.665065
 30
0.0
 10
20.400464
 20
294.447408
 30
0.0
 10
20.444313
 20
294.230266
 30
0.0
 10
20.564057
 20
294.052986
 30
0.0
 10
20.741632
 20
293.933481
 30
0.0
 10
20.958982
 20
293.889666
 30
0.0
  0
LWPOLYLINE
  5
10a
100
AcDbEntity
  8
Camada_1
 62
7
100
AcDbPolyline
 90
17
 70
0
 10
24.246761
 20
293.889666
 30
0.0
 10
24.464058
 20
293.933481
 30
0.0
 10
24.641378
 20
294.052986
 30
0.0
 10
24.760865
 20
294.230266
 30
0.0
 10
24.804661
 20
294.447408
 30
0.0
 10
24.760885
 20
294.665130
 30
0.0
 10
24.641437
 20
294.842626
 30
0.0
 10
24.464123
 20
294.962143
 30
0.0
 10
24.246761
 20
295.005928
 30
0.0
 10
24.029546
 20
294.962122
 30
0.0
 10
23.852107
 20
294.842568
 30
0.0
 10
23.732442
 20
294.665065
 30
0.0
 10
23.688554
 20
294.447408
 30
0.0
 10
23.732442
 20
294.230266
 30
0.0
 10
23.852107
 20
294.052986
 30
0.0
 10
24.029546
 20
293.933481
 30
0.0
 10
24.246761
 20
293.889666
 30
0.0
  0
LWPOLYLINE
  5
10b
100
AcDbEntity
  8
Camada_1
 62
7
100
AcDbPolyline
 90
17
 70
0
 10
27.535313
 20
293.889666
 30
0.0
 10
27.752700
 20
293.933481
 30
0.0
 10
27.930066
 20
294.052986
 30
0.0
 10
28.049570
 20
294.230266
 30
0.0
 10
28.093368
 20
294.447408
 30
0.0
 10
28.049570
 20
294.665130
 30
0.0
 10
27.930066
 20
294.842626
 30
0.0
 10
27.752700
 20
294.962143
 30
0.0
 10
27.535313
 20
295.005928
 30
0.0
 10
27.318007
 20
294.962122
 30
0.0
 10
27.140524
 20
294.842568
 30
0.0
 10
27.020842
 20
294.665065
 30
0.0
 10
26.976950
 20
294.447408
 30
0.0
 10
27.020842
 20
294.230266
 30
0.0
 10
27.140524
 20
294.052986
 30
0.0
 10
27.318007
 20
293.933481
 30
0.0
 10
27.535313
 20
293.889666
 30
0.0
  0
LWPOLYLINE
  5
10c
100
AcDbEntity
  8
Camada_1
 62
7
100
AcDbPolyline
 90
17
 70
0
 10
30.823402
 20
293.889666
 30
0.0
 10
31.041041
 20
293.933481
 30
0.0
 10
31.218655
 20
294.052986
 30
0.0
 10
31.338351
 20
294.230266
 30
0.0
 10
31.382228
 20
294.447408
 30
0.0
 10
31.338351
 20
294.665130
 30
0.0
 10
31.218655
 20
294.842626
 30
0.0
 10
31.041041
 20
294.962143
 30
0.0
 10
30.823402
 20
295.005928
 30
0.0
 10
30.606300
 20
294.962122
 30
0.0
 10
30.428957
 20
294.842568
 30
0.0
 10
30.309366
 20
294.665065
 30
0.0
 10
30.265503
 20
294.447408
 30
0.0
 10
30.309366
 20
294.230266
 30
0.0
 10
30.428957
 20
294.052986
 30
0.0
 10
30.606300
 20
293.933481
 30
0.0
 10
30.823402
 20
293.889666
 30
0.0
  0
LWPOLYLINE
  5
10d
100
AcDbEntity
  8
Camada_1
 62
7
100
AcDbPolyline
 90
17
 70
0
 10
34.112107
 20
293.889666
 30
0.0
 10
34.329299
 20
293.933481
 30
0.0
 10
34.506687
 20
294.052986
 30
0.0
 10
34.626299
 20
294.230266
 30
0.0
 10
34.670162
 20
294.447408
 30
0.0
 10
34.626299
 20
294.665130
 30
0.0
 10
34.506687
 20
294.842626
 30
0.0
 10
34.329299
 20
294.962143
 30
0.0
 10
34.112107
 20
295.005928
 30
0.0
 10
33.894892
 20
294.962122
 30
0.0
 10
33.717453
 20
294.842568
 30
0.0
 10
33.597788
 20
294.665065
 30
0.0
 10
33.553900
 20
294.447408
 30
0.0
 10
33.597788
 20
294.230266
 30
0.0
 10
33.717453
 20
294.052986
 30
0.0
 10
33.894892
 20
293.933481
 30
0.0
 10
34.112107
 20
293.889666
 30
0.0
  0
LWPOLYLINE
  5
10e
100
AcDbEntity
  8
Camada_1
 62
7
100
AcDbPolyline
 90
17
 70
0
 10
37.400504
 20
293.889666
 30
0.0
 10
37.617696
 20
293.933481
 30
0.0
 10
37.795084
 20
294.052986
 30
0.0
 10
37.914696
 20
294.230266
 30
0.0
 10
37.958559
 20
294.447408
 30
0.0
 10
37.914696
 20
294.665130
 30
0.0
 10
37.795084
 20
294.842626
 30
0.0
 10
37.617696
 20
294.962143
 30
0.0
 10
37.400504
 20
295.005928
 30
0.0
 10
37.183404
 20
294.962122
 30
0.0
 10
37.006062
 20
294.842568
 30
0.0
 10
36.886470
 20
294.665065
 30
0.0
 10
36.842607
 20
294.447408
 30
0.0
 10
36.886535
 20
294.230266
 30
0.0
 10
37.006121
 20
294.052986
 30
0.0
 10
37.183424
 20
293.933481
 30
0.0
 10
37.400504
 20
293.889666
 30
0.0
  0
LWPOLYLINE
  5
10f
100
AcDbEntity
  8
Camada_1
 62
7
100
AcDbPolyline
 90
17
 70
0
 10
40.688901
 20
293.889666
 30
0.0
 10
40.906003
 20
293.933481
 30
0.0
 10
41.083343
 20
294.052986
 30
0.0
 10
41.202937
 20
294.230266
 30
0.0
 10
41.246800
 20
294.447408
 30
0.0
 10
41.202960
 20
294.665130
 30
0.0
 10
41.083402
 20
294.842626
 30
0.0
 10
40.906068
 20
294.962143
 30
0.0
 10
40.688901
 20
295.005928
 30
0.0
 10
40.471733
 20
294.962122
 30
0.0
 10
40.294402
 20
294.842568
 30
0.0
 10
40.174844
 20
294.665065
 30
0.0
 10
40.131004
 20
294.447408
 30
0.0
 10
40.174822
 20
294.230266
 30
0.0
 10
40.294343
 20
294.052986
 30
0.0
 10
40.471669
 20
293.933481
 30
0.0
 10
40.688901
 20
293.889666
 30
0.0
  0
LWPOLYLINE
  5
110
100
AcDbEntity
  8
Camada_1
 62
7
100
AcDbPolyline
 90
17
 70
0
 10
19.314708
 20
290.600958
 30
0.0
 10
19.531629
 20
290.644822
 30
0.0
 10
19.708879
 20
290.764434
 30
0.0
 10
19.828439
 20
290.941822
 30
0.0
 10
19.872297
 20
291.159012
 30
0.0
 10
19.828462
 20
291.376400
 30
0.0
 10
19.708938
 20
291.553765
 30
0.0
 10
19.531697
 20
291.673268
 30
0.0
 10
19.314708
 20
291.717066
 30
0.0
 10
19.097379
 20
291.673245
 30
0.0
 10
18.919839
 20
291.553706
 30
0.0
 10
18.800104
 20
291.376333
 30
0.0
 10
18.756190
 20
291.159012
 30
0.0
 10
18.800016
 20
290.941822
 30
0.0
 10
18.919723
 20
290.764434
 30
0.0
 10
19.097292
 20
290.644822
 30
0.0
 10
19.314708
 20
290.600958
 30
0.0
  0
LWPOLYLINE
  5
111
100
AcDbEntity
  8
Camada_1
 62
7
100
AcDbPolyline
 90
17
 70
0
 10
45.622348
 20
290.600958
 30
0.0
 10
45.839589
 20
290.644822
 30
0.0
 10
46.017084
 20
290.764434
 30
0.0
 10
46.136800
 20
290.941822
 30
0.0
 10
46.180714
 20
291.159012
 30
0.0
 10
46.136800
 20
291.376400
 30
0.0
 10
46.017084
 20
291.553765
 30
0.0
 10
45.839589
 20
291.673268
 30
0.0
 10
45.622348
 20
291.717066
 30
0.0
 10
45.404947
 20
291.673245
 30
0.0
 10
45.227248
 20
291.553706
 30
0.0
 10
45.107355
 20
291.376333
 30
0.0
 10
45.063368
 20
291.159012
 30
0.0
 10
45.107355
 20
290.941822
 30
0.0
 10
45.227248
 20
290.764434
 30
0.0
 10
45.404947
 20
290.644822
 30
0.0
 10
45.622348
 20
290.600958
 30
0.0
  0
LWPOLYLINE
  5
112
100
AcDbEntity
  8
Camada_1
 62
7
100
AcDbPolyline
 90
17
 70
0
 10
48.910438
 20
290.600958
 30
0.0
 10
49.127675
 20
290.644822
 30
0.0
 10
49.305170
 20
290.764434
 30
0.0
 10
49.424886
 20
290.941822
 30
0.0
 10
49.468800
 20
291.159012
 30
0.0
 10
49.424886
 20
291.376400
 30
0.0
 10
49.305170
 20
291.553765
 30
0.0
 10
49.127675
 20
291.673268
 30
0.0
 10
48.910438
 20
291.717066
 30
0.0
 10
48.692985
 20
291.673245
 30
0.0
 10
48.515626
 20
291.553706
 30
0.0
 10
48.396161
 20
291.376333
 30
0.0
 10
48.352383
 20
291.159012
 30
0.0
 10
48.396226
 20
290.941822
 30
0.0
 10
48.515685
 20
290.764434
 30
0.0
 10
48.693008
 20
290.644822
 30
0.0
 10
48.910438
 20
290.600958
 30
0.0
  0
LWPOLYLINE
  5
113
100
AcDbEntity
  8
Camada_1
 62
7
100
AcDbPolyline
 90
17
 70
0
 10
52.198834
 20
290.600958
 30
0.0
 10
52.416072
 20
290.644822
 30
0.0
 10
52.593567
 20
290.764434
 30
0.0
 10
52.713283
 20
290.941822
 30
0.0
 10
52.757197
 20
291.159012
 30
0.0
 10
52.713283
 20
291.376400
 30
0.0
 10
52.593567
 20
291.553765
 30
0.0
 10
52.416072
 20
291.673268
 30
0.0
 10
52.198834
 20
291.717066
 30
0.0
 10
51.981667
 20
291.673245
 30
0.0
 10
51.804333
 20
291.553706
 30
0.0
 10
51.684775
 20
291.376333
 30
0.0
 10
51.640935
 20
291.159012
 30
0.0
 10
51.684753
 20
290.941822
 30
0.0
 10
51.804274
 20
290.764434
 30
0.0
 10
51.981602
 20
290.644822
 30
0.0
 10
52.198834
 20
290.600958
 30
0.0
  0
LWPOLYLINE
  5
114
100
AcDbEntity
  8
Camada_1
 62
7
100
AcDbPolyline
 90
17
 70
0
 10
55.487231
 20
290.600958
 30
0.0
 10
55.704723
 20
290.644822
 30
0.0
 10
55.882467
 20
290.764434
 30
0.0
 10
56.002377
 20
290.941822
 30
0.0
 10
56.046367
 20
291.159012
 30
0.0
 10
56.002377
 20
291.376400
 30
0.0
 10
55.882467
 20
291.553765
 30
0.0
 10
55.704723
 20
291.673268
 30
0.0
 10
55.487231
 20
291.717066
 30
0.0
 10
55.269926
 20
291.673245
 30
0.0
 10
55.092442
 20
291.553706
 30
0.0
 10
54.972760
 20
291.376333
 30
0.0
 10
54.928869
 20
291.159012
 30
0.0
 10
54.972760
 20
290.941822
 30
0.0
 10
55.092442
 20
290.764434
 30
0.0
 10
55.269926
 20
290.644822
 30
0.0
 10
55.487231
 20
290.600958
 30
0.0
  0
LWPOLYLINE
  5
115
100
AcDbEntity
  8
Camada_1
 62
7
100
AcDbPolyline
 90
17
 70
0
 10
58.775318
 20
290.600958
 30
0.0
 10
58.992810
 20
290.644822
 30
0.0
 10
59.170553
 20
290.764434
 30
0.0
 10
59.290466
 20
290.941822
 30
0.0
 10
59.334456
 20
291.159012
 30
0.0
 10
59.290466
 20
291.376400
 30
0.0
 10
59.170553
 20
291.553765
 30
0.0
 10
58.992810
 20
291.673268
 30
0.0
 10
58.775318
 20
291.717066
 30
0.0
 10
58.558151
 20
291.673245
 30
0.0
 10
58.380819
 20
291.553706
 30
0.0
 10
58.261261
 20
291.376333
 30
0.0
 10
58.217421
 20
291.159012
 30
0.0
 10
58.261326
 20
290.941822
 30
0.0
 10
58.380876
 20
290.764434
 30
0.0
 10
58.558173
 20
290.644822
 30
0.0
 10
58.775318
 20
290.600958
 30
0.0
  0
LWPOLYLINE
  5
116
100
AcDbEntity
  8
Camada_1
 62
7
100
AcDbPolyline
 90
17
 70
0
 10
62.064491
 20
290.600958
 30
0.0
 10
62.281658
 20
290.644822
 30
0.0
 10
62.458989
 20
290.764434
 30
0.0
 10
62.578547
 20
290.941822
 30
0.0
 10
62.622388
 20
291.159012
 30
0.0
 10
62.578570
 20
291.376400
 30
0.0
 10
62.459049
 20
291.553765
 30
0.0
 10
62.281723
 20
291.673268
 30
0.0
 10
62.064491
 20
291.717066
 30
0.0
 10
61.847089
 20
291.673245
 30
0.0
 10
61.669388
 20
291.553706
 30
0.0
 10
61.549494
 20
291.376333
 30
0.0
 10
61.505507
 20
291.159012
 30
0.0
 10
61.549430
 20
290.941822
 30
0.0
 10
61.669332
 20
290.764434
 30
0.0
 10
61.847067
 20
290.644822
 30
0.0
 10
62.064491
 20
290.600958
 30
0.0
  0
LWPOLYLINE
  5
117
100
AcDbEntity
  8
Camada_1
 62
7
100
AcDbPolyline
 90
17
 70
0
 10
65.352267
 20
290.600958
 30
0.0
 10
65.570354
 20
290.644822
 30
0.0
 10
65.748199
 20
290.764434
 30
0.0
 10
65.867980
 20
290.941822
 30
0.0
 10
65.911868
 20
291.159012
 30
0.0
 10
65.867980
 20
291.376400
 30
0.0
 10
65.748199
 20
291.553765
 30
0.0
 10
65.570354
 20
291.673268
 30
0.0
 10
65.352267
 20
291.717066
 30
0.0
 10
65.135337
 20
291.673245
 30
0.0
 10
64.957920
 20
291.553706
 30
0.0
 10
64.838165
 20
291.376333
 30
0.0
 10
64.794215
 20
291.159012
 30
0.0
 10
64.838100
 20
290.941822
 30
0.0
 10
64.957864
 20
290.764434
 30
0.0
 10
65.135314
 20
290.644822
 30
0.0
 10
65.352267
 20
290.600958
 30
0.0
  0
LWPOLYLINE
  5
118
100
AcDbEntity
  8
Camada_1
 62
7
100
AcDbPolyline
 90
17
 70
0
 10
22.602949
 20
290.600958
 30
0.0
 10
22.820303
 20
290.644822
 30
0.0
 10
22.997897
 20
290.764434
 30
0.0
 10
23.117683
 20
290.941822
 30
0.0
 10
23.161622
 20
291.159012
 30
0.0
 10
23.117683
 20
291.376400
 30
0.0
 10
22.997897
 20
291.553765
 30
0.0
 10
22.820303
 20
291.673268
 30
0.0
 10
22.602949
 20
291.717066
 30
0.0
 10
22.385424
 20
291.673245
 30
0.0
 10
22.207906
 20
291.553706
 30
0.0
 10
22.088280
 20
291.376333
 30
0.0
 10
22.044431
 20
291.159012
 30
0.0
 10
22.088215
 20
290.941822
 30
0.0
 10
22.207849
 20
290.764434
 30
0.0
 10
22.385401
 20
290.644822
 30
0.0
 10
22.602949
 20
290.600958
 30
0.0
  0
LWPOLYLINE
  5
119
100
AcDbEntity
  8
Camada_1
 62
7
100
AcDbPolyline
 90
17
 70
0
 10
25.891038
 20
290.600958
 30
0.0
 10
26.108425
 20
290.644822
 30
0.0
 10
26.285791
 20
290.764434
 30
0.0
 10
26.405292
 20
290.941822
 30
0.0
 10
26.449091
 20
291.159012
 30
0.0
 10
26.405315
 20
291.376400
 30
0.0
 10
26.285848
 20
291.553765
 30
0.0
 10
26.108491
 20
291.673268
 30
0.0
 10
25.891038
 20
291.717066
 30
0.0
 10
25.673756
 20
291.673245
 30
0.0
 10
25.496322
 20
291.553706
 30
0.0
 10
25.376694
 20
291.376333
 30
0.0
 10
25.332829
 20
291.159012
 30
0.0
 10
25.376694
 20
290.941822
 30
0.0
 10
25.496322
 20
290.764434
 30
0.0
 10
25.673756
 20
290.644822
 30
0.0
 10
25.891038
 20
290.600958
 30
0.0
  0
LWPOLYLINE
  5
11a
100
AcDbEntity
  8
Camada_1
 62
7
100
AcDbPolyline
 90
17
 70
0
 10
29.179435
 20
290.600958
 30
0.0
 10
29.396871
 20
290.644822
 30
0.0
 10
29.574343
 20
290.764434
 30
0.0
 10
29.693952
 20
290.941822
 30
0.0
 10
29.737798
 20
291.159012
 30
0.0
 10
29.693952
 20
291.376400
 30
0.0
 10
29.574343
 20
291.553765
 30
0.0
 10
29.396871
 20
291.673268
 30
0.0
 10
29.179435
 20
291.717066
 30
0.0
 10
28.962113
 20
291.673245
 30
0.0
 10
28.784739
 20
291.553706
 30
0.0
 10
28.665201
 20
291.376333
 30
0.0
 10
28.621380
 20
291.159012
 30
0.0
 10
28.665178
 20
290.941822
 30
0.0
 10
28.784683
 20
290.764434
 30
0.0
 10
28.962048
 20
290.644822
 30
0.0
 10
29.179435
 20
290.600958
 30
0.0
  0
LWPOLYLINE
  5
11b
100
AcDbEntity
  8
Camada_1
 62
7
100
AcDbPolyline
 90
17
 70
0
 10
32.467832
 20
290.600958
 30
0.0
 10
32.685242
 20
290.644822
 30
0.0
 10
32.862661
 20
290.764434
 30
0.0
 10
32.982216
 20
290.941822
 30
0.0
 10
33.026040
 20
291.159012
 30
0.0
 10
32.982216
 20
291.376400
 30
0.0
 10
32.862661
 20
291.553765
 30
0.0
 10
32.685242
 20
291.673268
 30
0.0
 10
32.467832
 20
291.717066
 30
0.0
 10
32.250549
 20
291.673245
 30
0.0
 10
32.073116
 20
291.553706
 30
0.0
 10
31.953488
 20
291.376333
 30
0.0
 10
31.909622
 20
291.159012
 30
0.0
 10
31.953423
 20
290.941822
 30
0.0
 10
32.073060
 20
290.764434
 30
0.0
 10
32.250530
 20
290.644822
 30
0.0
 10
32.467832
 20
290.600958
 30
0.0
  0
LWPOLYLINE
  5
11c
100
AcDbEntity
  8
Camada_1
 62
7
100
AcDbPolyline
 90
17
 70
0
 10
35.756384
 20
290.600958
 30
0.0
 10
35.973639
 20
290.644822
 30
0.0
 10
36.151018
 20
290.764434
 30
0.0
 10
36.270593
 20
290.941822
 30
0.0
 10
36.314436
 20
291.159012
 30
0.0
 10
36.270593
 20
291.376400
 30
0.0
 10
36.151018
 20
291.553765
 30
0.0
 10
35.973639
 20
291.673268
 30
0.0
 10
35.756384
 20
291.717066
 30
0.0
 10
35.539169
 20
291.673245
 30
0.0
 10
35.361728
 20
291.553706
 30
0.0
 10
35.242063
 20
291.376333
 30
0.0
 10
35.198174
 20
291.159012
 30
0.0
 10
35.242063
 20
290.941822
 30
0.0
 10
35.361728
 20
290.764434
 30
0.0
 10
35.539169
 20
290.644822
 30
0.0
 10
35.756384
 20
290.600958
 30
0.0
  0
LWPOLYLINE
  5
11d
100
AcDbEntity
  8
Camada_1
 62
7
100
AcDbPolyline
 90
17
 70
0
 10
39.044626
 20
290.600958
 30
0.0
 10
39.261954
 20
290.644822
 30
0.0
 10
39.439494
 20
290.764434
 30
0.0
 10
39.559230
 20
290.941822
 30
0.0
 10
39.603144
 20
291.159012
 30
0.0
 10
39.559230
 20
291.376400
 30
0.0
 10
39.439494
 20
291.553765
 30
0.0
 10
39.261954
 20
291.673268
 30
0.0
 10
39.044626
 20
291.717066
 30
0.0
 10
38.827394
 20
291.673245
 30
0.0
 10
38.650068
 20
291.553706
 30
0.0
 10
38.530544
 20
291.376333
 30
0.0
 10
38.486726
 20
291.159012
 30
0.0
 10
38.530522
 20
290.941822
 30
0.0
 10
38.650009
 20
290.764434
 30
0.0
 10
38.827329
 20
290.644822
 30
0.0
 10
39.044626
 20
290.600958
 30
0.0
  0
LWPOLYLINE
  5
11e
100
AcDbEntity
  8
Camada_1
 62
7
100
AcDbPolyline
 90
17
 70
0
 10
42.333178
 20
290.600958
 30
0.0
 10
42.550433
 20
290.644822
 30
0.0
 10
42.727812
 20
290.764434
 30
0.0
 10
42.847387
 20
290.941822
 30
0.0
 10
42.891230
 20
291.159012
 30
0.0
 10
42.847410
 20
291.376400
 30
0.0
 10
42.727872
 20
291.553765
 30
0.0
 10
42.550501
 20
291.673268
 30
0.0
 10
42.333178
 20
291.717066
 30
0.0
 10
42.115938
 20
291.673245
 30
0.0
 10
41.938445
 20
291.553706
 30
0.0
 10
41.818727
 20
291.376333
 30
0.0
 10
41.774816
 20
291.159012
 30
0.0
 10
41.818662
 20
290.941822
 30
0.0
 10
41.938386
 20
290.764434
 30
0.0
 10
42.115915
 20
290.644822
 30
0.0
 10
42.333178
 20
290.600958
 30
0.0
  0
LWPOLYLINE
  5
11f
100
AcDbEntity
  8
Camada_1
 62
7
100
AcDbPolyline
 90
17
 70
0
 10
17.670122
 20
287.312871
 30
0.0
 10
17.887134
 20
287.356626
 30
0.0
 10
18.064429
 20
287.476056
 30
0.0
 10
18.184004
 20
287.653407
 30
0.0
 10
18.227864
 20
287.870926
 30
0.0
 10
18.184027
 20
288.088295
 30
0.0
 10
18.064486
 20
288.265773
 30
0.0
 10
17.887199
 20
288.385417
 30
0.0
 10
17.670122
 20
288.429285
 30
0.0
 10
17.452882
 20
288.385417
 30
0.0
 10
17.275389
 20
288.265773
 30
0.0
 10
17.155671
 20
288.088295
 30
0.0
 10
17.111760
 20
287.870926
 30
0.0
 10
17.155671
 20
287.653407
 30
0.0
 10
17.275389
 20
287.476056
 30
0.0
 10
17.452882
 20
287.356626
 30
0.0
 10
17.670122
 20
287.312871
 30
0.0
  0
LWPOLYLINE
  5
120
100
AcDbEntity
  8
Camada_1
 62
7
100
AcDbPolyline
 90
17
 70
0
 10
43.978074
 20
287.312871
 30
0.0
 10
44.195328
 20
287.356626
 30
0.0
 10
44.372708
 20
287.476056
 30
0.0
 10
44.492283
 20
287.653407
 30
0.0
 10
44.536126
 20
287.870926
 30
0.0
 10
44.492305
 20
288.088295
 30
0.0
 10
44.372767
 20
288.265773
 30
0.0
 10
44.195396
 20
288.385417
 30
0.0
 10
43.978074
 20
288.429285
 30
0.0
 10
43.760630
 20
288.385417
 30
0.0
 10
43.582991
 20
288.265773
 30
0.0
 10
43.463187
 20
288.088295
 30
0.0
 10
43.419245
 20
287.870926
 30
0.0
 10
43.463142
 20
287.653407
 30
0.0
 10
43.582994
 20
287.476056
 30
0.0
 10
43.760675
 20
287.356626
 30
0.0
 10
43.978074
 20
287.312871
 30
0.0
  0
LWPOLYLINE
  5
121
100
AcDbEntity
  8
Camada_1
 62
7
100
AcDbPolyline
 90
17
 70
0
 10
47.266781
 20
287.312871
 30
0.0
 10
47.483906
 20
287.356626
 30
0.0
 10
47.661299
 20
287.476056
 30
0.0
 10
47.780948
 20
287.653407
 30
0.0
 10
47.824833
 20
287.870926
 30
0.0
 10
47.780970
 20
288.088295
 30
0.0
 10
47.661359
 20
288.265773
 30
0.0
 10
47.483971
 20
288.385417
 30
0.0
 10
47.266781
 20
288.429285
 30
0.0
 10
47.048970
 20
288.385417
 30
0.0
 10
46.871427
 20
288.265773
 30
0.0
 10
46.751895
 20
288.088295
 30
0.0
 10
46.708108
 20
287.870926
 30
0.0
 10
46.751895
 20
287.653407
 30
0.0
 10
46.871427
 20
287.476056
 30
0.0
 10
47.048970
 20
287.356626
 30
0.0
 10
47.266781
 20
287.312871
 30
0.0
  0
LWPOLYLINE
  5
122
100
AcDbEntity
  8
Camada_1
 62
7
100
AcDbPolyline
 90
17
 70
0
 10
50.554712
 20
287.312871
 30
0.0
 10
50.771953
 20
287.356626
 30
0.0
 10
50.949445
 20
287.476056
 30
0.0
 10
51.069164
 20
287.653407
 30
0.0
 10
51.113075
 20
287.870926
 30
0.0
 10
51.069164
 20
288.088295
 30
0.0
 10
50.949445
 20
288.265773
 30
0.0
 10
50.771953
 20
288.385417
 30
0.0
 10
50.554712
 20
288.429285
 30
0.0
 10
50.337424
 20
288.385417
 30
0.0
 10
50.159824
 20
288.265773
 30
0.0
 10
50.040001
 20
288.088295
 30
0.0
 10
49.996039
 20
287.870926
 30
0.0
 10
50.039913
 20
287.653407
 30
0.0
 10
50.159708
 20
287.476056
 30
0.0
 10
50.337336
 20
287.356626
 30
0.0
 10
50.554712
 20
287.312871
 30
0.0
  0
LWPOLYLINE
  5
123
100
AcDbEntity
  8
Camada_1
 62
7
100
AcDbPolyline
 90
17
 70
0
 10
53.843109
 20
287.312871
 30
0.0
 10
54.060511
 20
287.356626
 30
0.0
 10
54.238212
 20
287.476056
 30
0.0
 10
54.358105
 20
287.653407
 30
0.0
 10
54.402093
 20
287.870926
 30
0.0
 10
54.358105
 20
288.088295
 30
0.0
 10
54.238212
 20
288.265773
 30
0.0
 10
54.060511
 20
288.385417
 30
0.0
 10
53.843109
 20
288.429285
 30
0.0
 10
53.625846
 20
288.385417
 30
0.0
 10
53.448300
 20
288.265773
 30
0.0
 10
53.328528
 20
288.088295
 30
0.0
 10
53.284591
 20
287.870926
 30
0.0
 10
53.328463
 20
287.653407
 30
0.0
 10
53.448241
 20
287.476056
 30
0.0
 10
53.625823
 20
287.356626
 30
0.0
 10
53.843109
 20
287.312871
 30
0.0
  0
LWPOLYLINE
  5
124
100
AcDbEntity
  8
Camada_1
 62
7
100
AcDbPolyline
 90
17
 70
0
 10
57.131506
 20
287.312871
 30
0.0
 10
57.348826
 20
287.356626
 30
0.0
 10
57.526645
 20
287.476056
 30
0.0
 10
57.646720
 20
287.653407
 30
0.0
 10
57.690800
 20
287.870926
 30
0.0
 10
57.646720
 20
288.088295
 30
0.0
 10
57.526645
 20
288.265773
 30
0.0
 10
57.348826
 20
288.385417
 30
0.0
 10
57.131506
 20
288.429285
 30
0.0
 10
56.914226
 20
288.385417
 30
0.0
 10
56.736793
 20
288.265773
 30
0.0
 10
56.617164
 20
288.088295
 30
0.0
 10
56.573299
 20
287.870926
 30
0.0
 10
56.617164
 20
287.653407
 30
0.0
 10
56.736793
 20
287.476056
 30
0.0
 10
56.914226
 20
287.356626
 30
0.0
 10
57.131506
 20
287.312871
 30
0.0
  0
LWPOLYLINE
  5
125
100
AcDbEntity
  8
Camada_1
 62
7
100
AcDbPolyline
 90
17
 70
0
 10
60.419750
 20
287.312871
 30
0.0
 10
60.637031
 20
287.356626
 30
0.0
 10
60.814464
 20
287.476056
 30
0.0
 10
60.934092
 20
287.653407
 30
0.0
 10
60.977958
 20
287.870926
 30
0.0
 10
60.934092
 20
288.088295
 30
0.0
 10
60.814464
 20
288.265773
 30
0.0
 10
60.637031
 20
288.385417
 30
0.0
 10
60.419750
 20
288.429285
 30
0.0
 10
60.202623
 20
288.385417
 30
0.0
 10
60.025229
 20
288.265773
 30
0.0
 10
59.905581
 20
288.088295
 30
0.0
 10
59.861696
 20
287.870926
 30
0.0
 10
59.905581
 20
287.653407
 30
0.0
 10
60.025229
 20
287.476056
 30
0.0
 10
60.202623
 20
287.356626
 30
0.0
 10
60.419750
 20
287.312871
 30
0.0
  0
LWPOLYLINE
  5
126
100
AcDbEntity
  8
Camada_1
 62
7
100
AcDbPolyline
 90
17
 70
0
 10
63.708455
 20
287.312871
 30
0.0
 10
63.926184
 20
287.356626
 30
0.0
 10
64.103845
 20
287.476056
 30
0.0
 10
64.223559
 20
287.653407
 30
0.0
 10
64.267438
 20
287.870926
 30
0.0
 10
64.223559
 20
288.088295
 30
0.0
 10
64.103845
 20
288.265773
 30
0.0
 10
63.926184
 20
288.385417
 30
0.0
 10
63.708455
 20
288.429285
 30
0.0
 10
63.491282
 20
288.385417
 30
0.0
 10
63.313781
 20
288.265773
 30
0.0
 10
63.194026
 20
288.088295
 30
0.0
 10
63.150092
 20
287.870926
 30
0.0
 10
63.193938
 20
287.653407
 30
0.0
 10
63.313666
 20
287.476056
 30
0.0
 10
63.491195
 20
287.356626
 30
0.0
 10
63.708455
 20
287.312871
 30
0.0
  0
LWPOLYLINE
  5
127
100
AcDbEntity
  8
Camada_1
 62
7
100
AcDbPolyline
 90
17
 70
0
 10
66.996697
 20
287.312871
 30
0.0
 10
67.214112
 20
287.356626
 30
0.0
 10
67.391531
 20
287.476056
 30
0.0
 10
67.511086
 20
287.653407
 30
0.0
 10
67.554910
 20
287.870926
 30
0.0
 10
67.511086
 20
288.088295
 30
0.0
 10
67.391531
 20
288.265773
 30
0.0
 10
67.214112
 20
288.385417
 30
0.0
 10
66.996697
 20
288.429285
 30
0.0
 10
66.779637
 20
288.385417
 30
0.0
 10
66.602235
 20
288.265773
 30
0.0
 10
66.482553
 20
288.088295
 30
0.0
 10
66.438645
 20
287.870926
 30
0.0
 10
66.482553
 20
287.653407
 30
0.0
 10
66.602235
 20
287.476056
 30
0.0
 10
66.779637
 20
287.356626
 30
0.0
 10
66.996697
 20
287.312871
 30
0.0
  0
LWPOLYLINE
  5
128
100
AcDbEntity
  8
Camada_1
 62
7
100
AcDbPolyline
 90
17
 70
0
 10
20.958982
 20
287.312871
 30
0.0
 10
21.176042
 20
287.356626
 30
0.0
 10
21.353444
 20
287.476056
 30
0.0
 10
21.473129
 20
287.653407
 30
0.0
 10
21.517037
 20
287.870926
 30
0.0
 10
21.473129
 20
288.088295
 30
0.0
 10
21.353444
 20
288.265773
 30
0.0
 10
21.176042
 20
288.385417
 30
0.0
 10
20.958982
 20
288.429285
 30
0.0
 10
20.741654
 20
288.385417
 30
0.0
 10
20.564114
 20
288.265773
 30
0.0
 10
20.444378
 20
288.088295
 30
0.0
 10
20.400464
 20
287.870926
 30
0.0
 10
20.444313
 20
287.653407
 30
0.0
 10
20.564054
 20
287.476056
 30
0.0
 10
20.741632
 20
287.356626
 30
0.0
 10
20.958982
 20
287.312871
 30
0.0
  0
LWPOLYLINE
  5
129
100
AcDbEntity
  8
Camada_1
 62
7
100
AcDbPolyline
 90
17
 70
0
 10
24.246761
 20
287.312871
 30
0.0
 10
24.464058
 20
287.356626
 30
0.0
 10
24.641378
 20
287.476056
 30
0.0
 10
24.760865
 20
287.653407
 30
0.0
 10
24.804661
 20
287.870926
 30
0.0
 10
24.760885
 20
288.088295
 30
0.0
 10
24.641437
 20
288.265773
 30
0.0
 10
24.464123
 20
288.385417
 30
0.0
 10
24.246761
 20
288.429285
 30
0.0
 10
24.029546
 20
288.385417
 30
0.0
 10
23.852107
 20
288.265773
 30
0.0
 10
23.732442
 20
288.088295
 30
0.0
 10
23.688554
 20
287.870926
 30
0.0
 10
23.732442
 20
287.653407
 30
0.0
 10
23.852107
 20
287.476056
 30
0.0
 10
24.029546
 20
287.356626
 30
0.0
 10
24.246761
 20
287.312871
 30
0.0
  0
LWPOLYLINE
  5
12a
100
AcDbEntity
  8
Camada_1
 62
7
100
AcDbPolyline
 90
17
 70
0
 10
27.535313
 20
287.312871
 30
0.0
 10
27.752700
 20
287.356626
 30
0.0
 10
27.930066
 20
287.476056
 30
0.0
 10
28.049570
 20
287.653407
 30
0.0
 10
28.093368
 20
287.870926
 30
0.0
 10
28.049570
 20
288.088295
 30
0.0
 10
27.930066
 20
288.265773
 30
0.0
 10
27.752700
 20
288.385417
 30
0.0
 10
27.535313
 20
288.429285
 30
0.0
 10
27.318007
 20
288.385417
 30
0.0
 10
27.140524
 20
288.265773
 30
0.0
 10
27.020842
 20
288.088295
 30
0.0
 10
26.976950
 20
287.870926
 30
0.0
 10
27.020842
 20
287.653407
 30
0.0
 10
27.140524
 20
287.476056
 30
0.0
 10
27.318007
 20
287.356626
 30
0.0
 10
27.535313
 20
287.312871
 30
0.0
  0
LWPOLYLINE
  5
12b
100
AcDbEntity
  8
Camada_1
 62
7
100
AcDbPolyline
 90
17
 70
0
 10
30.823402
 20
287.312871
 30
0.0
 10
31.041041
 20
287.356626
 30
0.0
 10
31.218655
 20
287.476056
 30
0.0
 10
31.338351
 20
287.653407
 30
0.0
 10
31.382228
 20
287.870926
 30
0.0
 10
31.338351
 20
288.088295
 30
0.0
 10
31.218655
 20
288.265773
 30
0.0
 10
31.041041
 20
288.385417
 30
0.0
 10
30.823402
 20
288.429285
 30
0.0
 10
30.606300
 20
288.385417
 30
0.0
 10
30.428957
 20
288.265773
 30
0.0
 10
30.309366
 20
288.088295
 30
0.0
 10
30.265503
 20
287.870926
 30
0.0
 10
30.309366
 20
287.653407
 30
0.0
 10
30.428957
 20
287.476056
 30
0.0
 10
30.606300
 20
287.356626
 30
0.0
 10
30.823402
 20
287.312871
 30
0.0
  0
LWPOLYLINE
  5
12c
100
AcDbEntity
  8
Camada_1
 62
7
100
AcDbPolyline
 90
17
 70
0
 10
34.112107
 20
287.312871
 30
0.0
 10
34.329299
 20
287.356626
 30
0.0
 10
34.506687
 20
287.476056
 30
0.0
 10
34.626299
 20
287.653407
 30
0.0
 10
34.670162
 20
287.870926
 30
0.0
 10
34.626299
 20
288.088295
 30
0.0
 10
34.506687
 20
288.265773
 30
0.0
 10
34.329299
 20
288.385417
 30
0.0
 10
34.112107
 20
288.429285
 30
0.0
 10
33.894892
 20
288.385417
 30
0.0
 10
33.717453
 20
288.265773
 30
0.0
 10
33.597788
 20
288.088295
 30
0.0
 10
33.553900
 20
287.870926
 30
0.0
 10
33.597788
 20
287.653407
 30
0.0
 10
33.717453
 20
287.476056
 30
0.0
 10
33.894892
 20
287.356626
 30
0.0
 10
34.112107
 20
287.312871
 30
0.0
  0
LWPOLYLINE
  5
12d
100
AcDbEntity
  8
Camada_1
 62
7
100
AcDbPolyline
 90
17
 70
0
 10
37.400504
 20
287.312871
 30
0.0
 10
37.617696
 20
287.356626
 30
0.0
 10
37.795084
 20
287.476056
 30
0.0
 10
37.914696
 20
287.653407
 30
0.0
 10
37.958559
 20
287.870926
 30
0.0
 10
37.914696
 20
288.088295
 30
0.0
 10
37.795084
 20
288.265773
 30
0.0
 10
37.617696
 20
288.385417
 30
0.0
 10
37.400504
 20
288.429285
 30
0.0
 10
37.183404
 20
288.385417
 30
0.0
 10
37.006062
 20
288.265773
 30
0.0
 10
36.886470
 20
288.088295
 30
0.0
 10
36.842607
 20
287.870926
 30
0.0
 10
36.886535
 20
287.653407
 30
0.0
 10
37.006121
 20
287.476056
 30
0.0
 10
37.183424
 20
287.356626
 30
0.0
 10
37.400504
 20
287.312871
 30
0.0
  0
LWPOLYLINE
  5
12e
100
AcDbEntity
  8
Camada_1
 62
7
100
AcDbPolyline
 90
17
 70
0
 10
40.688901
 20
287.312871
 30
0.0
 10
40.906003
 20
287.356626
 30
0.0
 10
41.083343
 20
287.476056
 30
0.0
 10
41.202937
 20
287.653407
 30
0.0
 10
41.246800
 20
287.870926
 30
0.0
 10
41.202960
 20
288.088295
 30
0.0
 10
41.083402
 20
288.265773
 30
0.0
 10
40.906068
 20
288.385417
 30
0.0
 10
40.688901
 20
288.429285
 30
0.0
 10
40.471733
 20
288.385417
 30
0.0
 10
40.294402
 20
288.265773
 30
0.0
 10
40.174844
 20
288.088295
 30
0.0
 10
40.131004
 20
287.870926
 30
0.0
 10
40.174822
 20
287.653407
 30
0.0
 10
40.294343
 20
287.476056
 30
0.0
 10
40.471669
 20
287.356626
 30
0.0
 10
40.688901
 20
287.312871
 30
0.0
  0
LWPOLYLINE
  5
12f
100
AcDbEntity
  8
Camada_1
 62
7
100
AcDbPolyline
 90
17
 70
0
 10
19.314708
 20
284.024008
 30
0.0
 10
19.531629
 20
284.067850
 30
0.0
 10
19.708879
 20
284.187424
 30
0.0
 10
19.828439
 20
284.364805
 30
0.0
 10
19.872297
 20
284.582063
 30
0.0
 10
19.828462
 20
284.799366
 30
0.0
 10
19.708938
 20
284.976851
 30
0.0
 10
19.531697
 20
285.096532
 30
0.0
 10
19.314708
 20
285.140423
 30
0.0
 10
19.097379
 20
285.096532
 30
0.0
 10
18.919839
 20
284.976851
 30
0.0
 10
18.800104
 20
284.799366
 30
0.0
 10
18.756190
 20
284.582063
 30
0.0
 10
18.800084
 20
284.364805
 30
0.0
 10
18.919780
 20
284.187424
 30
0.0
 10
19.097315
 20
284.067850
 30
0.0
 10
19.314708
 20
284.024008
 30
0.0
  0
LWPOLYLINE
  5
130
100
AcDbEntity
  8
Camada_1
 62
7
100
AcDbPolyline
 90
17
 70
0
 10
45.622348
 20
284.024008
 30
0.0
 10
45.839589
 20
284.067850
 30
0.0
 10
46.017084
 20
284.187424
 30
0.0
 10
46.136800
 20
284.364805
 30
0.0
 10
46.180714
 20
284.582063
 30
0.0
 10
46.136800
 20
284.799366
 30
0.0
 10
46.017084
 20
284.976851
 30
0.0
 10
45.839589
 20
285.096532
 30
0.0
 10
45.622348
 20
285.140423
 30
0.0
 10
45.404947
 20
285.096532
 30
0.0
 10
45.227248
 20
284.976851
 30
0.0
 10
45.107355
 20
284.799366
 30
0.0
 10
45.063368
 20
284.582063
 30
0.0
 10
45.107355
 20
284.364805
 30
0.0
 10
45.227248
 20
284.187424
 30
0.0
 10
45.404947
 20
284.067850
 30
0.0
 10
45.622348
 20
284.024008
 30
0.0
  0
LWPOLYLINE
  5
131
100
AcDbEntity
  8
Camada_1
 62
7
100
AcDbPolyline
 90
17
 70
0
 10
48.910438
 20
284.024008
 30
0.0
 10
49.127675
 20
284.067850
 30
0.0
 10
49.305170
 20
284.187424
 30
0.0
 10
49.424886
 20
284.364805
 30
0.0
 10
49.468800
 20
284.582063
 30
0.0
 10
49.424886
 20
284.799366
 30
0.0
 10
49.305170
 20
284.976851
 30
0.0
 10
49.127675
 20
285.096532
 30
0.0
 10
48.910438
 20
285.140423
 30
0.0
 10
48.692985
 20
285.096532
 30
0.0
 10
48.515626
 20
284.976851
 30
0.0
 10
48.396161
 20
284.799366
 30
0.0
 10
48.352383
 20
284.582063
 30
0.0
 10
48.396161
 20
284.364805
 30
0.0
 10
48.515626
 20
284.187424
 30
0.0
 10
48.692985
 20
284.067850
 30
0.0
 10
48.910438
 20
284.024008
 30
0.0
  0
LWPOLYLINE
  5
132
100
AcDbEntity
  8
Camada_1
 62
7
100
AcDbPolyline
 90
17
 70
0
 10
52.198834
 20
284.024008
 30
0.0
 10
52.416072
 20
284.067850
 30
0.0
 10
52.593567
 20
284.187424
 30
0.0
 10
52.713283
 20
284.364805
 30
0.0
 10
52.757197
 20
284.582063
 30
0.0
 10
52.713283
 20
284.799366
 30
0.0
 10
52.593567
 20
284.976851
 30
0.0
 10
52.416072
 20
285.096532
 30
0.0
 10
52.198834
 20
285.140423
 30
0.0
 10
51.981667
 20
285.096532
 30
0.0
 10
51.804333
 20
284.976851
 30
0.0
 10
51.684775
 20
284.799366
 30
0.0
 10
51.640935
 20
284.582063
 30
0.0
 10
51.684753
 20
284.364805
 30
0.0
 10
51.804274
 20
284.187424
 30
0.0
 10
51.981602
 20
284.067850
 30
0.0
 10
52.198834
 20
284.024008
 30
0.0
  0
LWPOLYLINE
  5
133
100
AcDbEntity
  8
Camada_1
 62
7
100
AcDbPolyline
 90
17
 70
0
 10
55.487231
 20
284.024008
 30
0.0
 10
55.704723
 20
284.067850
 30
0.0
 10
55.882467
 20
284.187424
 30
0.0
 10
56.002377
 20
284.364805
 30
0.0
 10
56.046367
 20
284.582063
 30
0.0
 10
56.002377
 20
284.799366
 30
0.0
 10
55.882467
 20
284.976851
 30
0.0
 10
55.704723
 20
285.096532
 30
0.0
 10
55.487231
 20
285.140423
 30
0.0
 10
55.269926
 20
285.096532
 30
0.0
 10
55.092442
 20
284.976851
 30
0.0
 10
54.972760
 20
284.799366
 30
0.0
 10
54.928869
 20
284.582063
 30
0.0
 10
54.972760
 20
284.364805
 30
0.0
 10
55.092442
 20
284.187424
 30
0.0
 10
55.269926
 20
284.067850
 30
0.0
 10
55.487231
 20
284.024008
 30
0.0
  0
LWPOLYLINE
  5
134
100
AcDbEntity
  8
Camada_1
 62
7
100
AcDbPolyline
 90
17
 70
0
 10
58.775318
 20
284.024008
 30
0.0
 10
58.992810
 20
284.067850
 30
0.0
 10
59.170553
 20
284.187424
 30
0.0
 10
59.290466
 20
284.364805
 30
0.0
 10
59.334456
 20
284.582063
 30
0.0
 10
59.290466
 20
284.799366
 30
0.0
 10
59.170553
 20
284.976851
 30
0.0
 10
58.992810
 20
285.096532
 30
0.0
 10
58.775318
 20
285.140423
 30
0.0
 10
58.558151
 20
285.096532
 30
0.0
 10
58.380819
 20
284.976851
 30
0.0
 10
58.261261
 20
284.799366
 30
0.0
 10
58.217421
 20
284.582063
 30
0.0
 10
58.261261
 20
284.364805
 30
0.0
 10
58.380819
 20
284.187424
 30
0.0
 10
58.558151
 20
284.067850
 30
0.0
 10
58.775318
 20
284.024008
 30
0.0
  0
LWPOLYLINE
  5
135
100
AcDbEntity
  8
Camada_1
 62
7
100
AcDbPolyline
 90
17
 70
0
 10
62.064491
 20
284.024008
 30
0.0
 10
62.281658
 20
284.067850
 30
0.0
 10
62.458989
 20
284.187424
 30
0.0
 10
62.578547
 20
284.364805
 30
0.0
 10
62.622388
 20
284.582063
 30
0.0
 10
62.578570
 20
284.799366
 30
0.0
 10
62.459049
 20
284.976851
 30
0.0
 10
62.281723
 20
285.096532
 30
0.0
 10
62.064491
 20
285.140423
 30
0.0
 10
61.847089
 20
285.096532
 30
0.0
 10
61.669388
 20
284.976851
 30
0.0
 10
61.549494
 20
284.799366
 30
0.0
 10
61.505507
 20
284.582063
 30
0.0
 10
61.549494
 20
284.364805
 30
0.0
 10
61.669388
 20
284.187424
 30
0.0
 10
61.847089
 20
284.067850
 30
0.0
 10
62.064491
 20
284.024008
 30
0.0
  0
LWPOLYLINE
  5
136
100
AcDbEntity
  8
Camada_1
 62
7
100
AcDbPolyline
 90
17
 70
0
 10
65.352267
 20
284.024008
 30
0.0
 10
65.570354
 20
284.067850
 30
0.0
 10
65.748199
 20
284.187424
 30
0.0
 10
65.867980
 20
284.364805
 30
0.0
 10
65.911868
 20
284.582063
 30
0.0
 10
65.867980
 20
284.799366
 30
0.0
 10
65.748199
 20
284.976851
 30
0.0
 10
65.570354
 20
285.096532
 30
0.0
 10
65.352267
 20
285.140423
 30
0.0
 10
65.135337
 20
285.096532
 30
0.0
 10
64.957920
 20
284.976851
 30
0.0
 10
64.838165
 20
284.799366
 30
0.0
 10
64.794215
 20
284.582063
 30
0.0
 10
64.838165
 20
284.364805
 30
0.0
 10
64.957920
 20
284.187424
 30
0.0
 10
65.135337
 20
284.067850
 30
0.0
 10
65.352267
 20
284.024008
 30
0.0
  0
LWPOLYLINE
  5
137
100
AcDbEntity
  8
Camada_1
 62
7
100
AcDbPolyline
 90
17
 70
0
 10
22.602949
 20
284.024008
 30
0.0
 10
22.820303
 20
284.067850
 30
0.0
 10
22.997897
 20
284.187424
 30
0.0
 10
23.117683
 20
284.364805
 30
0.0
 10
23.161622
 20
284.582063
 30
0.0
 10
23.117683
 20
284.799366
 30
0.0
 10
22.997897
 20
284.976851
 30
0.0
 10
22.820303
 20
285.096532
 30
0.0
 10
22.602949
 20
285.140423
 30
0.0
 10
22.385424
 20
285.096532
 30
0.0
 10
22.207906
 20
284.976851
 30
0.0
 10
22.088280
 20
284.799366
 30
0.0
 10
22.044431
 20
284.582063
 30
0.0
 10
22.088280
 20
284.364805
 30
0.0
 10
22.207906
 20
284.187424
 30
0.0
 10
22.385424
 20
284.067850
 30
0.0
 10
22.602949
 20
284.024008
 30
0.0
  0
LWPOLYLINE
  5
138
100
AcDbEntity
  8
Camada_1
 62
7
100
AcDbPolyline
 90
17
 70
0
 10
25.891038
 20
284.024008
 30
0.0
 10
26.108425
 20
284.067850
 30
0.0
 10
26.285791
 20
284.187424
 30
0.0
 10
26.405292
 20
284.364805
 30
0.0
 10
26.449091
 20
284.582063
 30
0.0
 10
26.405315
 20
284.799366
 30
0.0
 10
26.285848
 20
284.976851
 30
0.0
 10
26.108491
 20
285.096532
 30
0.0
 10
25.891038
 20
285.140423
 30
0.0
 10
25.673756
 20
285.096532
 30
0.0
 10
25.496322
 20
284.976851
 30
0.0
 10
25.376694
 20
284.799366
 30
0.0
 10
25.332829
 20
284.582063
 30
0.0
 10
25.376694
 20
284.364805
 30
0.0
 10
25.496322
 20
284.187424
 30
0.0
 10
25.673756
 20
284.067850
 30
0.0
 10
25.891038
 20
284.024008
 30
0.0
  0
LWPOLYLINE
  5
139
100
AcDbEntity
  8
Camada_1
 62
7
100
AcDbPolyline
 90
17
 70
0
 10
29.179435
 20
284.024008
 30
0.0
 10
29.396871
 20
284.067850
 30
0.0
 10
29.574343
 20
284.187424
 30
0.0
 10
29.693952
 20
284.364805
 30
0.0
 10
29.737798
 20
284.582063
 30
0.0
 10
29.693952
 20
284.799366
 30
0.0
 10
29.574343
 20
284.976851
 30
0.0
 10
29.396871
 20
285.096532
 30
0.0
 10
29.179435
 20
285.140423
 30
0.0
 10
28.962113
 20
285.096532
 30
0.0
 10
28.784739
 20
284.976851
 30
0.0
 10
28.665201
 20
284.799366
 30
0.0
 10
28.621380
 20
284.582063
 30
0.0
 10
28.665178
 20
284.364805
 30
0.0
 10
28.784683
 20
284.187424
 30
0.0
 10
28.962048
 20
284.067850
 30
0.0
 10
29.179435
 20
284.024008
 30
0.0
  0
LWPOLYLINE
  5
13a
100
AcDbEntity
  8
Camada_1
 62
7
100
AcDbPolyline
 90
17
 70
0
 10
32.467832
 20
284.024008
 30
0.0
 10
32.685242
 20
284.067850
 30
0.0
 10
32.862661
 20
284.187424
 30
0.0
 10
32.982216
 20
284.364805
 30
0.0
 10
33.026040
 20
284.582063
 30
0.0
 10
32.982216
 20
284.799366
 30
0.0
 10
32.862661
 20
284.976851
 30
0.0
 10
32.685242
 20
285.096532
 30
0.0
 10
32.467832
 20
285.140423
 30
0.0
 10
32.250549
 20
285.096532
 30
0.0
 10
32.073116
 20
284.976851
 30
0.0
 10
31.953488
 20
284.799366
 30
0.0
 10
31.909622
 20
284.582063
 30
0.0
 10
31.953488
 20
284.364805
 30
0.0
 10
32.073116
 20
284.187424
 30
0.0
 10
32.250549
 20
284.067850
 30
0.0
 10
32.467832
 20
284.024008
 30
0.0
  0
LWPOLYLINE
  5
13b
100
AcDbEntity
  8
Camada_1
 62
7
100
AcDbPolyline
 90
17
 70
0
 10
35.756384
 20
284.024008
 30
0.0
 10
35.973639
 20
284.067850
 30
0.0
 10
36.151018
 20
284.187424
 30
0.0
 10
36.270593
 20
284.364805
 30
0.0
 10
36.314436
 20
284.582063
 30
0.0
 10
36.270593
 20
284.799366
 30
0.0
 10
36.151018
 20
284.976851
 30
0.0
 10
35.973639
 20
285.096532
 30
0.0
 10
35.756384
 20
285.140423
 30
0.0
 10
35.539169
 20
285.096532
 30
0.0
 10
35.361728
 20
284.976851
 30
0.0
 10
35.242063
 20
284.799366
 30
0.0
 10
35.198174
 20
284.582063
 30
0.0
 10
35.242063
 20
284.364805
 30
0.0
 10
35.361728
 20
284.187424
 30
0.0
 10
35.539169
 20
284.067850
 30
0.0
 10
35.756384
 20
284.024008
 30
0.0
  0
LWPOLYLINE
  5
13c
100
AcDbEntity
  8
Camada_1
 62
7
100
AcDbPolyline
 90
17
 70
0
 10
39.044626
 20
284.024008
 30
0.0
 10
39.261954
 20
284.067850
 30
0.0
 10
39.439494
 20
284.187424
 30
0.0
 10
39.559230
 20
284.364805
 30
0.0
 10
39.603144
 20
284.582063
 30
0.0
 10
39.559230
 20
284.799366
 30
0.0
 10
39.439494
 20
284.976851
 30
0.0
 10
39.261954
 20
285.096532
 30
0.0
 10
39.044626
 20
285.140423
 30
0.0
 10
38.827394
 20
285.096532
 30
0.0
 10
38.650068
 20
284.976851
 30
0.0
 10
38.530544
 20
284.799366
 30
0.0
 10
38.486726
 20
284.582063
 30
0.0
 10
38.530522
 20
284.364805
 30
0.0
 10
38.650009
 20
284.187424
 30
0.0
 10
38.827329
 20
284.067850
 30
0.0
 10
39.044626
 20
284.024008
 30
0.0
  0
LWPOLYLINE
  5
13d
100
AcDbEntity
  8
Camada_1
 62
7
100
AcDbPolyline
 90
17
 70
0
 10
42.333178
 20
284.024008
 30
0.0
 10
42.550433
 20
284.067850
 30
0.0
 10
42.727812
 20
284.187424
 30
0.0
 10
42.847387
 20
284.364805
 30
0.0
 10
42.891230
 20
284.582063
 30
0.0
 10
42.847410
 20
284.799366
 30
0.0
 10
42.727872
 20
284.976851
 30
0.0
 10
42.550501
 20
285.096532
 30
0.0
 10
42.333178
 20
285.140423
 30
0.0
 10
42.115938
 20
285.096532
 30
0.0
 10
41.938445
 20
284.976851
 30
0.0
 10
41.818727
 20
284.799366
 30
0.0
 10
41.774816
 20
284.582063
 30
0.0
 10
41.818727
 20
284.364805
 30
0.0
 10
41.938445
 20
284.187424
 30
0.0
 10
42.115938
 20
284.067850
 30
0.0
 10
42.333178
 20
284.024008
 30
0.0
  0
LWPOLYLINE
  5
13e
100
AcDbEntity
  8
Camada_1
 62
7
100
AcDbPolyline
 90
17
 70
0
 10
17.670122
 20
280.735301
 30
0.0
 10
17.887134
 20
280.779184
 30
0.0
 10
18.064429
 20
280.898815
 30
0.0
 10
18.184004
 20
281.076164
 30
0.0
 10
18.227864
 20
281.293201
 30
0.0
 10
18.184027
 20
281.510618
 30
0.0
 10
18.064486
 20
281.688204
 30
0.0
 10
17.887199
 20
281.807958
 30
0.0
 10
17.670122
 20
281.851877
 30
0.0
 10
17.452882
 20
281.807936
 30
0.0
 10
17.275389
 20
281.688148
 30
0.0
 10
17.155671
 20
281.510554
 30
0.0
 10
17.111760
 20
281.293201
 30
0.0
 10
17.155671
 20
281.076230
 30
0.0
 10
17.275389
 20
280.898873
 30
0.0
 10
17.452882
 20
280.779206
 30
0.0
 10
17.670122
 20
280.735301
 30
0.0
  0
LWPOLYLINE
  5
13f
100
AcDbEntity
  8
Camada_1
 62
7
100
AcDbPolyline
 90
17
 70
0
 10
43.978074
 20
280.735301
 30
0.0
 10
44.195328
 20
280.779184
 30
0.0
 10
44.372708
 20
280.898815
 30
0.0
 10
44.492283
 20
281.076164
 30
0.0
 10
44.536126
 20
281.293201
 30
0.0
 10
44.492305
 20
281.510618
 30
0.0
 10
44.372767
 20
281.688204
 30
0.0
 10
44.195396
 20
281.807958
 30
0.0
 10
43.978074
 20
281.851877
 30
0.0
 10
43.760630
 20
281.807936
 30
0.0
 10
43.582991
 20
281.688148
 30
0.0
 10
43.463187
 20
281.510554
 30
0.0
 10
43.419245
 20
281.293201
 30
0.0
 10
43.463142
 20
281.076230
 30
0.0
 10
43.582994
 20
280.898873
 30
0.0
 10
43.760675
 20
280.779206
 30
0.0
 10
43.978074
 20
280.735301
 30
0.0
  0
LWPOLYLINE
  5
140
100
AcDbEntity
  8
Camada_1
 62
7
100
AcDbPolyline
 90
17
 70
0
 10
47.266781
 20
280.735301
 30
0.0
 10
47.483906
 20
280.779184
 30
0.0
 10
47.661299
 20
280.898815
 30
0.0
 10
47.780948
 20
281.076164
 30
0.0
 10
47.824833
 20
281.293201
 30
0.0
 10
47.780970
 20
281.510618
 30
0.0
 10
47.661359
 20
281.688204
 30
0.0
 10
47.483971
 20
281.807958
 30
0.0
 10
47.266781
 20
281.851877
 30
0.0
 10
47.048970
 20
281.807936
 30
0.0
 10
46.871427
 20
281.688148
 30
0.0
 10
46.751895
 20
281.510554
 30
0.0
 10
46.708108
 20
281.293201
 30
0.0
 10
46.751895
 20
281.076230
 30
0.0
 10
46.871427
 20
280.898873
 30
0.0
 10
47.048970
 20
280.779206
 30
0.0
 10
47.266781
 20
280.735301
 30
0.0
  0
LWPOLYLINE
  5
141
100
AcDbEntity
  8
Camada_1
 62
7
100
AcDbPolyline
 90
17
 70
0
 10
50.554712
 20
280.735301
 30
0.0
 10
50.771953
 20
280.779184
 30
0.0
 10
50.949445
 20
280.898815
 30
0.0
 10
51.069164
 20
281.076164
 30
0.0
 10
51.113075
 20
281.293201
 30
0.0
 10
51.069164
 20
281.510618
 30
0.0
 10
50.949445
 20
281.688204
 30
0.0
 10
50.771953
 20
281.807958
 30
0.0
 10
50.554712
 20
281.851877
 30
0.0
 10
50.337424
 20
281.807936
 30
0.0
 10
50.159824
 20
281.688148
 30
0.0
 10
50.040001
 20
281.510554
 30
0.0
 10
49.996039
 20
281.293201
 30
0.0
 10
50.039913
 20
281.076230
 30
0.0
 10
50.159708
 20
280.898873
 30
0.0
 10
50.337336
 20
280.779206
 30
0.0
 10
50.554712
 20
280.735301
 30
0.0
  0
LWPOLYLINE
  5
142
100
AcDbEntity
  8
Camada_1
 62
7
100
AcDbPolyline
 90
17
 70
0
 10
53.843109
 20
280.735301
 30
0.0
 10
54.060511
 20
280.779184
 30
0.0
 10
54.238212
 20
280.898815
 30
0.0
 10
54.358105
 20
281.076164
 30
0.0
 10
54.402093
 20
281.293201
 30
0.0
 10
54.358105
 20
281.510618
 30
0.0
 10
54.238212
 20
281.688204
 30
0.0
 10
54.060511
 20
281.807958
 30
0.0
 10
53.843109
 20
281.851877
 30
0.0
 10
53.625846
 20
281.807936
 30
0.0
 10
53.448300
 20
281.688148
 30
0.0
 10
53.328528
 20
281.510554
 30
0.0
 10
53.284591
 20
281.293201
 30
0.0
 10
53.328463
 20
281.076230
 30
0.0
 10
53.448241
 20
280.898873
 30
0.0
 10
53.625823
 20
280.779206
 30
0.0
 10
53.843109
 20
280.735301
 30
0.0
  0
LWPOLYLINE
  5
143
100
AcDbEntity
  8
Camada_1
 62
7
100
AcDbPolyline
 90
17
 70
0
 10
57.131506
 20
280.735301
 30
0.0
 10
57.348826
 20
280.779184
 30
0.0
 10
57.526645
 20
280.898815
 30
0.0
 10
57.646720
 20
281.076164
 30
0.0
 10
57.690800
 20
281.293201
 30
0.0
 10
57.646720
 20
281.510618
 30
0.0
 10
57.526645
 20
281.688204
 30
0.0
 10
57.348826
 20
281.807958
 30
0.0
 10
57.131506
 20
281.851877
 30
0.0
 10
56.914226
 20
281.807936
 30
0.0
 10
56.736793
 20
281.688148
 30
0.0
 10
56.617164
 20
281.510554
 30
0.0
 10
56.573299
 20
281.293201
 30
0.0
 10
56.617164
 20
281.076230
 30
0.0
 10
56.736793
 20
280.898873
 30
0.0
 10
56.914226
 20
280.779206
 30
0.0
 10
57.131506
 20
280.735301
 30
0.0
  0
LWPOLYLINE
  5
144
100
AcDbEntity
  8
Camada_1
 62
7
100
AcDbPolyline
 90
17
 70
0
 10
60.419750
 20
280.735301
 30
0.0
 10
60.637031
 20
280.779184
 30
0.0
 10
60.814464
 20
280.898815
 30
0.0
 10
60.934092
 20
281.076164
 30
0.0
 10
60.977958
 20
281.293201
 30
0.0
 10
60.934092
 20
281.510618
 30
0.0
 10
60.814464
 20
281.688204
 30
0.0
 10
60.637031
 20
281.807958
 30
0.0
 10
60.419750
 20
281.851877
 30
0.0
 10
60.202623
 20
281.807936
 30
0.0
 10
60.025229
 20
281.688148
 30
0.0
 10
59.905581
 20
281.510554
 30
0.0
 10
59.861696
 20
281.293201
 30
0.0
 10
59.905581
 20
281.076230
 30
0.0
 10
60.025229
 20
280.898873
 30
0.0
 10
60.202623
 20
280.779206
 30
0.0
 10
60.419750
 20
280.735301
 30
0.0
  0
LWPOLYLINE
  5
145
100
AcDbEntity
  8
Camada_1
 62
7
100
AcDbPolyline
 90
17
 70
0
 10
63.708455
 20
280.735301
 30
0.0
 10
63.926184
 20
280.779184
 30
0.0
 10
64.103845
 20
280.898815
 30
0.0
 10
64.223559
 20
281.076164
 30
0.0
 10
64.267438
 20
281.293201
 30
0.0
 10
64.223559
 20
281.510618
 30
0.0
 10
64.103845
 20
281.688204
 30
0.0
 10
63.926184
 20
281.807958
 30
0.0
 10
63.708455
 20
281.851877
 30
0.0
 10
63.491282
 20
281.807936
 30
0.0
 10
63.313781
 20
281.688148
 30
0.0
 10
63.194026
 20
281.510554
 30
0.0
 10
63.150092
 20
281.293201
 30
0.0
 10
63.193938
 20
281.076230
 30
0.0
 10
63.313666
 20
280.898873
 30
0.0
 10
63.491195
 20
280.779206
 30
0.0
 10
63.708455
 20
280.735301
 30
0.0
  0
LWPOLYLINE
  5
146
100
AcDbEntity
  8
Camada_1
 62
7
100
AcDbPolyline
 90
17
 70
0
 10
66.996697
 20
280.735301
 30
0.0
 10
67.214112
 20
280.779184
 30
0.0
 10
67.391531
 20
280.898815
 30
0.0
 10
67.511086
 20
281.076164
 30
0.0
 10
67.554910
 20
281.293201
 30
0.0
 10
67.511086
 20
281.510618
 30
0.0
 10
67.391531
 20
281.688204
 30
0.0
 10
67.214112
 20
281.807958
 30
0.0
 10
66.996697
 20
281.851877
 30
0.0
 10
66.779637
 20
281.807936
 30
0.0
 10
66.602235
 20
281.688148
 30
0.0
 10
66.482553
 20
281.510554
 30
0.0
 10
66.438645
 20
281.293201
 30
0.0
 10
66.482553
 20
281.076230
 30
0.0
 10
66.602235
 20
280.898873
 30
0.0
 10
66.779637
 20
280.779206
 30
0.0
 10
66.996697
 20
280.735301
 30
0.0
  0
LWPOLYLINE
  5
147
100
AcDbEntity
  8
Camada_1
 62
7
100
AcDbPolyline
 90
17
 70
0
 10
20.958982
 20
280.735301
 30
0.0
 10
21.176042
 20
280.779184
 30
0.0
 10
21.353444
 20
280.898815
 30
0.0
 10
21.473129
 20
281.076164
 30
0.0
 10
21.517037
 20
281.293201
 30
0.0
 10
21.473129
 20
281.510618
 30
0.0
 10
21.353444
 20
281.688204
 30
0.0
 10
21.176042
 20
281.807958
 30
0.0
 10
20.958982
 20
281.851877
 30
0.0
 10
20.741654
 20
281.807936
 30
0.0
 10
20.564114
 20
281.688148
 30
0.0
 10
20.444378
 20
281.510554
 30
0.0
 10
20.400464
 20
281.293201
 30
0.0
 10
20.444313
 20
281.076230
 30
0.0
 10
20.564054
 20
280.898873
 30
0.0
 10
20.741632
 20
280.779206
 30
0.0
 10
20.958982
 20
280.735301
 30
0.0
  0
LWPOLYLINE
  5
148
100
AcDbEntity
  8
Camada_1
 62
7
100
AcDbPolyline
 90
17
 70
0
 10
24.246761
 20
280.735301
 30
0.0
 10
24.464058
 20
280.779184
 30
0.0
 10
24.641378
 20
280.898815
 30
0.0
 10
24.760865
 20
281.076164
 30
0.0
 10
24.804661
 20
281.293201
 30
0.0
 10
24.760885
 20
281.510618
 30
0.0
 10
24.641437
 20
281.688204
 30
0.0
 10
24.464123
 20
281.807958
 30
0.0
 10
24.246761
 20
281.851877
 30
0.0
 10
24.029546
 20
281.807936
 30
0.0
 10
23.852107
 20
281.688148
 30
0.0
 10
23.732442
 20
281.510554
 30
0.0
 10
23.688554
 20
281.293201
 30
0.0
 10
23.732442
 20
281.076230
 30
0.0
 10
23.852107
 20
280.898873
 30
0.0
 10
24.029546
 20
280.779206
 30
0.0
 10
24.246761
 20
280.735301
 30
0.0
  0
LWPOLYLINE
  5
149
100
AcDbEntity
  8
Camada_1
 62
7
100
AcDbPolyline
 90
17
 70
0
 10
27.535313
 20
280.735301
 30
0.0
 10
27.752700
 20
280.779184
 30
0.0
 10
27.930066
 20
280.898815
 30
0.0
 10
28.049570
 20
281.076164
 30
0.0
 10
28.093368
 20
281.293201
 30
0.0
 10
28.049570
 20
281.510618
 30
0.0
 10
27.930066
 20
281.688204
 30
0.0
 10
27.752700
 20
281.807958
 30
0.0
 10
27.535313
 20
281.851877
 30
0.0
 10
27.318007
 20
281.807936
 30
0.0
 10
27.140524
 20
281.688148
 30
0.0
 10
27.020842
 20
281.510554
 30
0.0
 10
26.976950
 20
281.293201
 30
0.0
 10
27.020842
 20
281.076230
 30
0.0
 10
27.140524
 20
280.898873
 30
0.0
 10
27.318007
 20
280.779206
 30
0.0
 10
27.535313
 20
280.735301
 30
0.0
  0
LWPOLYLINE
  5
14a
100
AcDbEntity
  8
Camada_1
 62
7
100
AcDbPolyline
 90
17
 70
0
 10
30.823402
 20
280.735301
 30
0.0
 10
31.041041
 20
280.779184
 30
0.0
 10
31.218655
 20
280.898815
 30
0.0
 10
31.338351
 20
281.076164
 30
0.0
 10
31.382228
 20
281.293201
 30
0.0
 10
31.338351
 20
281.510618
 30
0.0
 10
31.218655
 20
281.688204
 30
0.0
 10
31.041041
 20
281.807958
 30
0.0
 10
30.823402
 20
281.851877
 30
0.0
 10
30.606300
 20
281.807936
 30
0.0
 10
30.428957
 20
281.688148
 30
0.0
 10
30.309366
 20
281.510554
 30
0.0
 10
30.265503
 20
281.293201
 30
0.0
 10
30.309366
 20
281.076230
 30
0.0
 10
30.428957
 20
280.898873
 30
0.0
 10
30.606300
 20
280.779206
 30
0.0
 10
30.823402
 20
280.735301
 30
0.0
  0
LWPOLYLINE
  5
14b
100
AcDbEntity
  8
Camada_1
 62
7
100
AcDbPolyline
 90
17
 70
0
 10
34.112107
 20
280.735301
 30
0.0
 10
34.329299
 20
280.779184
 30
0.0
 10
34.506687
 20
280.898815
 30
0.0
 10
34.626299
 20
281.076164
 30
0.0
 10
34.670162
 20
281.293201
 30
0.0
 10
34.626299
 20
281.510618
 30
0.0
 10
34.506687
 20
281.688204
 30
0.0
 10
34.329299
 20
281.807958
 30
0.0
 10
34.112107
 20
281.851877
 30
0.0
 10
33.894892
 20
281.807936
 30
0.0
 10
33.717453
 20
281.688148
 30
0.0
 10
33.597788
 20
281.510554
 30
0.0
 10
33.553900
 20
281.293201
 30
0.0
 10
33.597788
 20
281.076230
 30
0.0
 10
33.717453
 20
280.898873
 30
0.0
 10
33.894892
 20
280.779206
 30
0.0
 10
34.112107
 20
280.735301
 30
0.0
  0
LWPOLYLINE
  5
14c
100
AcDbEntity
  8
Camada_1
 62
7
100
AcDbPolyline
 90
17
 70
0
 10
37.400504
 20
280.735301
 30
0.0
 10
37.617696
 20
280.779184
 30
0.0
 10
37.795084
 20
280.898815
 30
0.0
 10
37.914696
 20
281.076164
 30
0.0
 10
37.958559
 20
281.293201
 30
0.0
 10
37.914696
 20
281.510618
 30
0.0
 10
37.795084
 20
281.688204
 30
0.0
 10
37.617696
 20
281.807958
 30
0.0
 10
37.400504
 20
281.851877
 30
0.0
 10
37.183404
 20
281.807936
 30
0.0
 10
37.006062
 20
281.688148
 30
0.0
 10
36.886470
 20
281.510554
 30
0.0
 10
36.842607
 20
281.293201
 30
0.0
 10
36.886535
 20
281.076230
 30
0.0
 10
37.006121
 20
280.898873
 30
0.0
 10
37.183424
 20
280.779206
 30
0.0
 10
37.400504
 20
280.735301
 30
0.0
  0
LWPOLYLINE
  5
14d
100
AcDbEntity
  8
Camada_1
 62
7
100
AcDbPolyline
 90
17
 70
0
 10
40.688901
 20
280.735301
 30
0.0
 10
40.906003
 20
280.779184
 30
0.0
 10
41.083343
 20
280.898815
 30
0.0
 10
41.202937
 20
281.076164
 30
0.0
 10
41.246800
 20
281.293201
 30
0.0
 10
41.202960
 20
281.510618
 30
0.0
 10
41.083402
 20
281.688204
 30
0.0
 10
40.906068
 20
281.807958
 30
0.0
 10
40.688901
 20
281.851877
 30
0.0
 10
40.471733
 20
281.807936
 30
0.0
 10
40.294402
 20
281.688148
 30
0.0
 10
40.174844
 20
281.510554
 30
0.0
 10
40.131004
 20
281.293201
 30
0.0
 10
40.174822
 20
281.076230
 30
0.0
 10
40.294343
 20
280.898873
 30
0.0
 10
40.471669
 20
280.779206
 30
0.0
 10
40.688901
 20
280.735301
 30
0.0
  0
LWPOLYLINE
  5
14e
100
AcDbEntity
  8
Camada_1
 62
7
100
AcDbPolyline
 90
17
 70
0
 10
19.314708
 20
277.447059
 30
0.0
 10
19.531629
 20
277.490948
 30
0.0
 10
19.708879
 20
277.610612
 30
0.0
 10
19.828439
 20
277.788052
 30
0.0
 10
19.872297
 20
278.005266
 30
0.0
 10
19.828462
 20
278.222662
 30
0.0
 10
19.708938
 20
278.400196
 30
0.0
 10
19.531697
 20
278.519894
 30
0.0
 10
19.314708
 20
278.563787
 30
0.0
 10
19.097379
 20
278.519894
 30
0.0
 10
18.919839
 20
278.400196
 30
0.0
 10
18.800104
 20
278.222662
 30
0.0
 10
18.756190
 20
278.005266
 30
0.0
 10
18.800016
 20
277.787987
 30
0.0
 10
18.919723
 20
277.610555
 30
0.0
 10
19.097292
 20
277.490926
 30
0.0
 10
19.314708
 20
277.447059
 30
0.0
  0
LWPOLYLINE
  5
14f
100
AcDbEntity
  8
Camada_1
 62
7
100
AcDbPolyline
 90
17
 70
0
 10
45.622348
 20
277.447059
 30
0.0
 10
45.839589
 20
277.490948
 30
0.0
 10
46.017084
 20
277.610612
 30
0.0
 10
46.136800
 20
277.788052
 30
0.0
 10
46.180714
 20
278.005266
 30
0.0
 10
46.136800
 20
278.222662
 30
0.0
 10
46.017084
 20
278.400196
 30
0.0
 10
45.839589
 20
278.519894
 30
0.0
 10
45.622348
 20
278.563787
 30
0.0
 10
45.404947
 20
278.519894
 30
0.0
 10
45.227248
 20
278.400196
 30
0.0
 10
45.107355
 20
278.222662
 30
0.0
 10
45.063368
 20
278.005266
 30
0.0
 10
45.107355
 20
277.787987
 30
0.0
 10
45.227248
 20
277.610555
 30
0.0
 10
45.404947
 20
277.490926
 30
0.0
 10
45.622348
 20
277.447059
 30
0.0
  0
LWPOLYLINE
  5
150
100
AcDbEntity
  8
Camada_1
 62
7
100
AcDbPolyline
 90
17
 70
0
 10
48.910438
 20
277.447059
 30
0.0
 10
49.127675
 20
277.490948
 30
0.0
 10
49.305170
 20
277.610612
 30
0.0
 10
49.424886
 20
277.788052
 30
0.0
 10
49.468800
 20
278.005266
 30
0.0
 10
49.424886
 20
278.222662
 30
0.0
 10
49.305170
 20
278.400196
 30
0.0
 10
49.127675
 20
278.519894
 30
0.0
 10
48.910438
 20
278.563787
 30
0.0
 10
48.692985
 20
278.519894
 30
0.0
 10
48.515626
 20
278.400196
 30
0.0
 10
48.396161
 20
278.222662
 30
0.0
 10
48.352383
 20
278.005266
 30
0.0
 10
48.396226
 20
277.787987
 30
0.0
 10
48.515685
 20
277.610555
 30
0.0
 10
48.693008
 20
277.490926
 30
0.0
 10
48.910438
 20
277.447059
 30
0.0
  0
LWPOLYLINE
  5
151
100
AcDbEntity
  8
Camada_1
 62
7
100
AcDbPolyline
 90
17
 70
0
 10
52.198834
 20
277.447059
 30
0.0
 10
52.416072
 20
277.490948
 30
0.0
 10
52.593567
 20
277.610612
 30
0.0
 10
52.713283
 20
277.788052
 30
0.0
 10
52.757197
 20
278.005266
 30
0.0
 10
52.713283
 20
278.222662
 30
0.0
 10
52.593567
 20
278.400196
 30
0.0
 10
52.416072
 20
278.519894
 30
0.0
 10
52.198834
 20
278.563787
 30
0.0
 10
51.981667
 20
278.519894
 30
0.0
 10
51.804333
 20
278.400196
 30
0.0
 10
51.684775
 20
278.222662
 30
0.0
 10
51.640935
 20
278.005266
 30
0.0
 10
51.684753
 20
277.787987
 30
0.0
 10
51.804274
 20
277.610555
 30
0.0
 10
51.981602
 20
277.490926
 30
0.0
 10
52.198834
 20
277.447059
 30
0.0
  0
LWPOLYLINE
  5
152
100
AcDbEntity
  8
Camada_1
 62
7
100
AcDbPolyline
 90
17
 70
0
 10
55.487231
 20
277.447059
 30
0.0
 10
55.704723
 20
277.490948
 30
0.0
 10
55.882467
 20
277.610612
 30
0.0
 10
56.002377
 20
277.788052
 30
0.0
 10
56.046367
 20
278.005266
 30
0.0
 10
56.002377
 20
278.222662
 30
0.0
 10
55.882467
 20
278.400196
 30
0.0
 10
55.704723
 20
278.519894
 30
0.0
 10
55.487231
 20
278.563787
 30
0.0
 10
55.269926
 20
278.519894
 30
0.0
 10
55.092442
 20
278.400196
 30
0.0
 10
54.972760
 20
278.222662
 30
0.0
 10
54.928869
 20
278.005266
 30
0.0
 10
54.972760
 20
277.787987
 30
0.0
 10
55.092442
 20
277.610555
 30
0.0
 10
55.269926
 20
277.490926
 30
0.0
 10
55.487231
 20
277.447059
 30
0.0
  0
LWPOLYLINE
  5
153
100
AcDbEntity
  8
Camada_1
 62
7
100
AcDbPolyline
 90
17
 70
0
 10
58.775318
 20
277.447059
 30
0.0
 10
58.992810
 20
277.490948
 30
0.0
 10
59.170553
 20
277.610612
 30
0.0
 10
59.290466
 20
277.788052
 30
0.0
 10
59.334456
 20
278.005266
 30
0.0
 10
59.290466
 20
278.222662
 30
0.0
 10
59.170553
 20
278.400196
 30
0.0
 10
58.992810
 20
278.519894
 30
0.0
 10
58.775318
 20
278.563787
 30
0.0
 10
58.558151
 20
278.519894
 30
0.0
 10
58.380819
 20
278.400196
 30
0.0
 10
58.261261
 20
278.222662
 30
0.0
 10
58.217421
 20
278.005266
 30
0.0
 10
58.261326
 20
277.787987
 30
0.0
 10
58.380876
 20
277.610555
 30
0.0
 10
58.558173
 20
277.490926
 30
0.0
 10
58.775318
 20
277.447059
 30
0.0
  0
LWPOLYLINE
  5
154
100
AcDbEntity
  8
Camada_1
 62
7
100
AcDbPolyline
 90
17
 70
0
 10
62.064491
 20
277.447059
 30
0.0
 10
62.281658
 20
277.490948
 30
0.0
 10
62.458989
 20
277.610612
 30
0.0
 10
62.578547
 20
277.788052
 30
0.0
 10
62.622388
 20
278.005266
 30
0.0
 10
62.578570
 20
278.222662
 30
0.0
 10
62.459049
 20
278.400196
 30
0.0
 10
62.281723
 20
278.519894
 30
0.0
 10
62.064491
 20
278.563787
 30
0.0
 10
61.847089
 20
278.519894
 30
0.0
 10
61.669388
 20
278.400196
 30
0.0
 10
61.549494
 20
278.222662
 30
0.0
 10
61.505507
 20
278.005266
 30
0.0
 10
61.549430
 20
277.787987
 30
0.0
 10
61.669332
 20
277.610555
 30
0.0
 10
61.847067
 20
277.490926
 30
0.0
 10
62.064491
 20
277.447059
 30
0.0
  0
LWPOLYLINE
  5
155
100
AcDbEntity
  8
Camada_1
 62
7
100
AcDbPolyline
 90
17
 70
0
 10
65.352267
 20
277.447059
 30
0.0
 10
65.570354
 20
277.490948
 30
0.0
 10
65.748199
 20
277.610612
 30
0.0
 10
65.867980
 20
277.788052
 30
0.0
 10
65.911868
 20
278.005266
 30
0.0
 10
65.867980
 20
278.222662
 30
0.0
 10
65.748199
 20
278.400196
 30
0.0
 10
65.570354
 20
278.519894
 30
0.0
 10
65.352267
 20
278.563787
 30
0.0
 10
65.135337
 20
278.519894
 30
0.0
 10
64.957920
 20
278.400196
 30
0.0
 10
64.838165
 20
278.222662
 30
0.0
 10
64.794215
 20
278.005266
 30
0.0
 10
64.838100
 20
277.787987
 30
0.0
 10
64.957864
 20
277.610555
 30
0.0
 10
65.135314
 20
277.490926
 30
0.0
 10
65.352267
 20
277.447059
 30
0.0
  0
LWPOLYLINE
  5
156
100
AcDbEntity
  8
Camada_1
 62
7
100
AcDbPolyline
 90
17
 70
0
 10
22.602949
 20
277.447059
 30
0.0
 10
22.820303
 20
277.490948
 30
0.0
 10
22.997897
 20
277.610612
 30
0.0
 10
23.117683
 20
277.788052
 30
0.0
 10
23.161622
 20
278.005266
 30
0.0
 10
23.117683
 20
278.222662
 30
0.0
 10
22.997897
 20
278.400196
 30
0.0
 10
22.820303
 20
278.519894
 30
0.0
 10
22.602949
 20
278.563787
 30
0.0
 10
22.385424
 20
278.519894
 30
0.0
 10
22.207906
 20
278.400196
 30
0.0
 10
22.088280
 20
278.222662
 30
0.0
 10
22.044431
 20
278.005266
 30
0.0
 10
22.088215
 20
277.787987
 30
0.0
 10
22.207849
 20
277.610555
 30
0.0
 10
22.385401
 20
277.490926
 30
0.0
 10
22.602949
 20
277.447059
 30
0.0
  0
LWPOLYLINE
  5
157
100
AcDbEntity
  8
Camada_1
 62
7
100
AcDbPolyline
 90
17
 70
0
 10
25.891038
 20
277.447059
 30
0.0
 10
26.108425
 20
277.490948
 30
0.0
 10
26.285791
 20
277.610612
 30
0.0
 10
26.405292
 20
277.788052
 30
0.0
 10
26.449091
 20
278.005266
 30
0.0
 10
26.405315
 20
278.222662
 30
0.0
 10
26.285848
 20
278.400196
 30
0.0
 10
26.108491
 20
278.519894
 30
0.0
 10
25.891038
 20
278.563787
 30
0.0
 10
25.673756
 20
278.519894
 30
0.0
 10
25.496322
 20
278.400196
 30
0.0
 10
25.376694
 20
278.222662
 30
0.0
 10
25.332829
 20
278.005266
 30
0.0
 10
25.376694
 20
277.787987
 30
0.0
 10
25.496322
 20
277.610555
 30
0.0
 10
25.673756
 20
277.490926
 30
0.0
 10
25.891038
 20
277.447059
 30
0.0
  0
LWPOLYLINE
  5
158
100
AcDbEntity
  8
Camada_1
 62
7
100
AcDbPolyline
 90
17
 70
0
 10
29.179435
 20
277.447059
 30
0.0
 10
29.396871
 20
277.490948
 30
0.0
 10
29.574343
 20
277.610612
 30
0.0
 10
29.693952
 20
277.788052
 30
0.0
 10
29.737798
 20
278.005266
 30
0.0
 10
29.693952
 20
278.222662
 30
0.0
 10
29.574343
 20
278.400196
 30
0.0
 10
29.396871
 20
278.519894
 30
0.0
 10
29.179435
 20
278.563787
 30
0.0
 10
28.962113
 20
278.519894
 30
0.0
 10
28.784739
 20
278.400196
 30
0.0
 10
28.665201
 20
278.222662
 30
0.0
 10
28.621380
 20
278.005266
 30
0.0
 10
28.665178
 20
277.787987
 30
0.0
 10
28.784683
 20
277.610555
 30
0.0
 10
28.962048
 20
277.490926
 30
0.0
 10
29.179435
 20
277.447059
 30
0.0
  0
LWPOLYLINE
  5
159
100
AcDbEntity
  8
Camada_1
 62
7
100
AcDbPolyline
 90
17
 70
0
 10
32.467832
 20
277.447059
 30
0.0
 10
32.685242
 20
277.490948
 30
0.0
 10
32.862661
 20
277.610612
 30
0.0
 10
32.982216
 20
277.788052
 30
0.0
 10
33.026040
 20
278.005266
 30
0.0
 10
32.982216
 20
278.222662
 30
0.0
 10
32.862661
 20
278.400196
 30
0.0
 10
32.685242
 20
278.519894
 30
0.0
 10
32.467832
 20
278.563787
 30
0.0
 10
32.250549
 20
278.519894
 30
0.0
 10
32.073116
 20
278.400196
 30
0.0
 10
31.953488
 20
278.222662
 30
0.0
 10
31.909622
 20
278.005266
 30
0.0
 10
31.953423
 20
277.787987
 30
0.0
 10
32.073060
 20
277.610555
 30
0.0
 10
32.250530
 20
277.490926
 30
0.0
 10
32.467832
 20
277.447059
 30
0.0
  0
LWPOLYLINE
  5
15a
100
AcDbEntity
  8
Camada_1
 62
7
100
AcDbPolyline
 90
17
 70
0
 10
35.756384
 20
277.447059
 30
0.0
 10
35.973639
 20
277.490948
 30
0.0
 10
36.151018
 20
277.610612
 30
0.0
 10
36.270593
 20
277.788052
 30
0.0
 10
36.314436
 20
278.005266
 30
0.0
 10
36.270593
 20
278.222662
 30
0.0
 10
36.151018
 20
278.400196
 30
0.0
 10
35.973639
 20
278.519894
 30
0.0
 10
35.756384
 20
278.563787
 30
0.0
 10
35.539169
 20
278.519894
 30
0.0
 10
35.361728
 20
278.400196
 30
0.0
 10
35.242063
 20
278.222662
 30
0.0
 10
35.198174
 20
278.005266
 30
0.0
 10
35.242063
 20
277.787987
 30
0.0
 10
35.361728
 20
277.610555
 30
0.0
 10
35.539169
 20
277.490926
 30
0.0
 10
35.756384
 20
277.447059
 30
0.0
  0
LWPOLYLINE
  5
15b
100
AcDbEntity
  8
Camada_1
 62
7
100
AcDbPolyline
 90
17
 70
0
 10
39.044626
 20
277.447059
 30
0.0
 10
39.261954
 20
277.490948
 30
0.0
 10
39.439494
 20
277.610612
 30
0.0
 10
39.559230
 20
277.788052
 30
0.0
 10
39.603144
 20
278.005266
 30
0.0
 10
39.559230
 20
278.222662
 30
0.0
 10
39.439494
 20
278.400196
 30
0.0
 10
39.261954
 20
278.519894
 30
0.0
 10
39.044626
 20
278.563787
 30
0.0
 10
38.827394
 20
278.519894
 30
0.0
 10
38.650068
 20
278.400196
 30
0.0
 10
38.530544
 20
278.222662
 30
0.0
 10
38.486726
 20
278.005266
 30
0.0
 10
38.530522
 20
277.787987
 30
0.0
 10
38.650009
 20
277.610555
 30
0.0
 10
38.827329
 20
277.490926
 30
0.0
 10
39.044626
 20
277.447059
 30
0.0
  0
LWPOLYLINE
  5
15c
100
AcDbEntity
  8
Camada_1
 62
7
100
AcDbPolyline
 90
17
 70
0
 10
17.670122
 20
274.156806
 30
0.0
 10
17.887134
 20
274.200650
 30
0.0
 10
18.064429
 20
274.320240
 30
0.0
 10
18.184004
 20
274.497666
 30
0.0
 10
18.227864
 20
274.715013
 30
0.0
 10
18.184027
 20
274.932992
 30
0.0
 10
18.064486
 20
275.110905
 30
0.0
 10
17.887199
 20
275.230810
 30
0.0
 10
17.670122
 20
275.274767
 30
0.0
 10
17.452882
 20
275.230810
 30
0.0
 10
17.275389
 20
275.110905
 30
0.0
 10
17.155671
 20
274.932992
 30
0.0
 10
17.111760
 20
274.715013
 30
0.0
 10
17.155671
 20
274.497666
 30
0.0
 10
17.275389
 20
274.320240
 30
0.0
 10
17.452882
 20
274.200650
 30
0.0
 10
17.670122
 20
274.156806
 30
0.0
  0
LWPOLYLINE
  5
15d
100
AcDbEntity
  8
Camada_1
 62
7
100
AcDbPolyline
 90
17
 70
0
 10
47.266781
 20
274.156806
 30
0.0
 10
47.483906
 20
274.200650
 30
0.0
 10
47.661299
 20
274.320240
 30
0.0
 10
47.780948
 20
274.497666
 30
0.0
 10
47.824833
 20
274.715013
 30
0.0
 10
47.780970
 20
274.932992
 30
0.0
 10
47.661359
 20
275.110905
 30
0.0
 10
47.483971
 20
275.230810
 30
0.0
 10
47.266781
 20
275.274767
 30
0.0
 10
47.048970
 20
275.230810
 30
0.0
 10
46.871427
 20
275.110905
 30
0.0
 10
46.751895
 20
274.932992
 30
0.0
 10
46.708108
 20
274.715013
 30
0.0
 10
46.751895
 20
274.497666
 30
0.0
 10
46.871427
 20
274.320240
 30
0.0
 10
47.048970
 20
274.200650
 30
0.0
 10
47.266781
 20
274.156806
 30
0.0
  0
LWPOLYLINE
  5
15e
100
AcDbEntity
  8
Camada_1
 62
7
100
AcDbPolyline
 90
17
 70
0
 10
50.554712
 20
274.156806
 30
0.0
 10
50.771953
 20
274.200650
 30
0.0
 10
50.949445
 20
274.320240
 30
0.0
 10
51.069164
 20
274.497666
 30
0.0
 10
51.113075
 20
274.715013
 30
0.0
 10
51.069164
 20
274.932992
 30
0.0
 10
50.949445
 20
275.110905
 30
0.0
 10
50.771953
 20
275.230810
 30
0.0
 10
50.554712
 20
275.274767
 30
0.0
 10
50.337424
 20
275.230810
 30
0.0
 10
50.159824
 20
275.110905
 30
0.0
 10
50.040001
 20
274.932992
 30
0.0
 10
49.996039
 20
274.715013
 30
0.0
 10
50.039913
 20
274.497666
 30
0.0
 10
50.159708
 20
274.320240
 30
0.0
 10
50.337336
 20
274.200650
 30
0.0
 10
50.554712
 20
274.156806
 30
0.0
  0
LWPOLYLINE
  5
15f
100
AcDbEntity
  8
Camada_1
 62
7
100
AcDbPolyline
 90
17
 70
0
 10
53.843109
 20
274.156806
 30
0.0
 10
54.060511
 20
274.200650
 30
0.0
 10
54.238212
 20
274.320240
 30
0.0
 10
54.358105
 20
274.497666
 30
0.0
 10
54.402093
 20
274.715013
 30
0.0
 10
54.358105
 20
274.932992
 30
0.0
 10
54.238212
 20
275.110905
 30
0.0
 10
54.060511
 20
275.230810
 30
0.0
 10
53.843109
 20
275.274767
 30
0.0
 10
53.625846
 20
275.230810
 30
0.0
 10
53.448300
 20
275.110905
 30
0.0
 10
53.328528
 20
274.932992
 30
0.0
 10
53.284591
 20
274.715013
 30
0.0
 10
53.328463
 20
274.497666
 30
0.0
 10
53.448241
 20
274.320240
 30
0.0
 10
53.625823
 20
274.200650
 30
0.0
 10
53.843109
 20
274.156806
 30
0.0
  0
LWPOLYLINE
  5
160
100
AcDbEntity
  8
Camada_1
 62
7
100
AcDbPolyline
 90
17
 70
0
 10
57.131506
 20
274.156806
 30
0.0
 10
57.348826
 20
274.200650
 30
0.0
 10
57.526645
 20
274.320240
 30
0.0
 10
57.646720
 20
274.497666
 30
0.0
 10
57.690800
 20
274.715013
 30
0.0
 10
57.646720
 20
274.932992
 30
0.0
 10
57.526645
 20
275.110905
 30
0.0
 10
57.348826
 20
275.230810
 30
0.0
 10
57.131506
 20
275.274767
 30
0.0
 10
56.914226
 20
275.230810
 30
0.0
 10
56.736793
 20
275.110905
 30
0.0
 10
56.617164
 20
274.932992
 30
0.0
 10
56.573299
 20
274.715013
 30
0.0
 10
56.617164
 20
274.497666
 30
0.0
 10
56.736793
 20
274.320240
 30
0.0
 10
56.914226
 20
274.200650
 30
0.0
 10
57.131506
 20
274.156806
 30
0.0
  0
LWPOLYLINE
  5
161
100
AcDbEntity
  8
Camada_1
 62
7
100
AcDbPolyline
 90
17
 70
0
 10
60.419750
 20
274.156806
 30
0.0
 10
60.637031
 20
274.200650
 30
0.0
 10
60.814464
 20
274.320240
 30
0.0
 10
60.934092
 20
274.497666
 30
0.0
 10
60.977958
 20
274.715013
 30
0.0
 10
60.934092
 20
274.932992
 30
0.0
 10
60.814464
 20
275.110905
 30
0.0
 10
60.637031
 20
275.230810
 30
0.0
 10
60.419750
 20
275.274767
 30
0.0
 10
60.202623
 20
275.230810
 30
0.0
 10
60.025229
 20
275.110905
 30
0.0
 10
59.905581
 20
274.932992
 30
0.0
 10
59.861696
 20
274.715013
 30
0.0
 10
59.905581
 20
274.497666
 30
0.0
 10
60.025229
 20
274.320240
 30
0.0
 10
60.202623
 20
274.200650
 30
0.0
 10
60.419750
 20
274.156806
 30
0.0
  0
LWPOLYLINE
  5
162
100
AcDbEntity
  8
Camada_1
 62
7
100
AcDbPolyline
 90
17
 70
0
 10
63.708455
 20
274.156806
 30
0.0
 10
63.926184
 20
274.200650
 30
0.0
 10
64.103845
 20
274.320240
 30
0.0
 10
64.223559
 20
274.497666
 30
0.0
 10
64.267438
 20
274.715013
 30
0.0
 10
64.223559
 20
274.932992
 30
0.0
 10
64.103845
 20
275.110905
 30
0.0
 10
63.926184
 20
275.230810
 30
0.0
 10
63.708455
 20
275.274767
 30
0.0
 10
63.491282
 20
275.230810
 30
0.0
 10
63.313781
 20
275.110905
 30
0.0
 10
63.194026
 20
274.932992
 30
0.0
 10
63.150092
 20
274.715013
 30
0.0
 10
63.193938
 20
274.497666
 30
0.0
 10
63.313666
 20
274.320240
 30
0.0
 10
63.491195
 20
274.200650
 30
0.0
 10
63.708455
 20
274.156806
 30
0.0
  0
LWPOLYLINE
  5
163
100
AcDbEntity
  8
Camada_1
 62
7
100
AcDbPolyline
 90
17
 70
0
 10
66.996697
 20
274.156806
 30
0.0
 10
67.214112
 20
274.200650
 30
0.0
 10
67.391531
 20
274.320240
 30
0.0
 10
67.511086
 20
274.497666
 30
0.0
 10
67.554910
 20
274.715013
 30
0.0
 10
67.511086
 20
274.932992
 30
0.0
 10
67.391531
 20
275.110905
 30
0.0
 10
67.214112
 20
275.230810
 30
0.0
 10
66.996697
 20
275.274767
 30
0.0
 10
66.779637
 20
275.230810
 30
0.0
 10
66.602235
 20
275.110905
 30
0.0
 10
66.482553
 20
274.932992
 30
0.0
 10
66.438645
 20
274.715013
 30
0.0
 10
66.482553
 20
274.497666
 30
0.0
 10
66.602235
 20
274.320240
 30
0.0
 10
66.779637
 20
274.200650
 30
0.0
 10
66.996697
 20
274.156806
 30
0.0
  0
LWPOLYLINE
  5
164
100
AcDbEntity
  8
Camada_1
 62
7
100
AcDbPolyline
 90
17
 70
0
 10
20.958982
 20
274.156806
 30
0.0
 10
21.176042
 20
274.200650
 30
0.0
 10
21.353444
 20
274.320240
 30
0.0
 10
21.473129
 20
274.497666
 30
0.0
 10
21.517037
 20
274.715013
 30
0.0
 10
21.473129
 20
274.932992
 30
0.0
 10
21.353444
 20
275.110905
 30
0.0
 10
21.176042
 20
275.230810
 30
0.0
 10
20.958982
 20
275.274767
 30
0.0
 10
20.741654
 20
275.230810
 30
0.0
 10
20.564114
 20
275.110905
 30
0.0
 10
20.444378
 20
274.932992
 30
0.0
 10
20.400464
 20
274.715013
 30
0.0
 10
20.444313
 20
274.497666
 30
0.0
 10
20.564054
 20
274.320240
 30
0.0
 10
20.741632
 20
274.200650
 30
0.0
 10
20.958982
 20
274.156806
 30
0.0
  0
LWPOLYLINE
  5
165
100
AcDbEntity
  8
Camada_1
 62
7
100
AcDbPolyline
 90
17
 70
0
 10
24.246761
 20
274.156806
 30
0.0
 10
24.464058
 20
274.200650
 30
0.0
 10
24.641378
 20
274.320240
 30
0.0
 10
24.760865
 20
274.497666
 30
0.0
 10
24.804661
 20
274.715013
 30
0.0
 10
24.760885
 20
274.932992
 30
0.0
 10
24.641437
 20
275.110905
 30
0.0
 10
24.464123
 20
275.230810
 30
0.0
 10
24.246761
 20
275.274767
 30
0.0
 10
24.029546
 20
275.230810
 30
0.0
 10
23.852107
 20
275.110905
 30
0.0
 10
23.732442
 20
274.932992
 30
0.0
 10
23.688554
 20
274.715013
 30
0.0
 10
23.732442
 20
274.497666
 30
0.0
 10
23.852107
 20
274.320240
 30
0.0
 10
24.029546
 20
274.200650
 30
0.0
 10
24.246761
 20
274.156806
 30
0.0
  0
LWPOLYLINE
  5
166
100
AcDbEntity
  8
Camada_1
 62
7
100
AcDbPolyline
 90
17
 70
0
 10
27.535313
 20
274.156806
 30
0.0
 10
27.752700
 20
274.200650
 30
0.0
 10
27.930066
 20
274.320240
 30
0.0
 10
28.049570
 20
274.497666
 30
0.0
 10
28.093368
 20
274.715013
 30
0.0
 10
28.049570
 20
274.932992
 30
0.0
 10
27.930066
 20
275.110905
 30
0.0
 10
27.752700
 20
275.230810
 30
0.0
 10
27.535313
 20
275.274767
 30
0.0
 10
27.318007
 20
275.230810
 30
0.0
 10
27.140524
 20
275.110905
 30
0.0
 10
27.020842
 20
274.932992
 30
0.0
 10
26.976950
 20
274.715013
 30
0.0
 10
27.020842
 20
274.497666
 30
0.0
 10
27.140524
 20
274.320240
 30
0.0
 10
27.318007
 20
274.200650
 30
0.0
 10
27.535313
 20
274.156806
 30
0.0
  0
LWPOLYLINE
  5
167
100
AcDbEntity
  8
Camada_1
 62
7
100
AcDbPolyline
 90
17
 70
0
 10
30.823402
 20
274.156806
 30
0.0
 10
31.041041
 20
274.200650
 30
0.0
 10
31.218655
 20
274.320240
 30
0.0
 10
31.338351
 20
274.497666
 30
0.0
 10
31.382228
 20
274.715013
 30
0.0
 10
31.338351
 20
274.932992
 30
0.0
 10
31.218655
 20
275.110905
 30
0.0
 10
31.041041
 20
275.230810
 30
0.0
 10
30.823402
 20
275.274767
 30
0.0
 10
30.606300
 20
275.230810
 30
0.0
 10
30.428957
 20
275.110905
 30
0.0
 10
30.309366
 20
274.932992
 30
0.0
 10
30.265503
 20
274.715013
 30
0.0
 10
30.309366
 20
274.497666
 30
0.0
 10
30.428957
 20
274.320240
 30
0.0
 10
30.606300
 20
274.200650
 30
0.0
 10
30.823402
 20
274.156806
 30
0.0
  0
LWPOLYLINE
  5
168
100
AcDbEntity
  8
Camada_1
 62
7
100
AcDbPolyline
 90
17
 70
0
 10
34.112107
 20
274.156806
 30
0.0
 10
34.329299
 20
274.200650
 30
0.0
 10
34.506687
 20
274.320240
 30
0.0
 10
34.626299
 20
274.497666
 30
0.0
 10
34.670162
 20
274.715013
 30
0.0
 10
34.626299
 20
274.932992
 30
0.0
 10
34.506687
 20
275.110905
 30
0.0
 10
34.329299
 20
275.230810
 30
0.0
 10
34.112107
 20
275.274767
 30
0.0
 10
33.894892
 20
275.230810
 30
0.0
 10
33.717453
 20
275.110905
 30
0.0
 10
33.597788
 20
274.932992
 30
0.0
 10
33.553900
 20
274.715013
 30
0.0
 10
33.597788
 20
274.497666
 30
0.0
 10
33.717453
 20
274.320240
 30
0.0
 10
33.894892
 20
274.200650
 30
0.0
 10
34.112107
 20
274.156806
 30
0.0
  0
LWPOLYLINE
  5
169
100
AcDbEntity
  8
Camada_1
 62
7
100
AcDbPolyline
 90
17
 70
0
 10
37.400504
 20
274.156806
 30
0.0
 10
37.617696
 20
274.200650
 30
0.0
 10
37.795084
 20
274.320240
 30
0.0
 10
37.914696
 20
274.497666
 30
0.0
 10
37.958559
 20
274.715013
 30
0.0
 10
37.914696
 20
274.932992
 30
0.0
 10
37.795084
 20
275.110905
 30
0.0
 10
37.617696
 20
275.230810
 30
0.0
 10
37.400504
 20
275.274767
 30
0.0
 10
37.183404
 20
275.230810
 30
0.0
 10
37.006062
 20
275.110905
 30
0.0
 10
36.886470
 20
274.932992
 30
0.0
 10
36.842607
 20
274.715013
 30
0.0
 10
36.886535
 20
274.497666
 30
0.0
 10
37.006121
 20
274.320240
 30
0.0
 10
37.183424
 20
274.200650
 30
0.0
 10
37.400504
 20
274.156806
 30
0.0
  0
LWPOLYLINE
  5
16a
100
AcDbEntity
  8
Camada_1
 62
7
100
AcDbPolyline
 90
17
 70
0
 10
19.314708
 20
270.868407
 30
0.0
 10
19.531629
 20
270.912295
 30
0.0
 10
19.708879
 20
271.031961
 30
0.0
 10
19.828439
 20
271.209401
 30
0.0
 10
19.872297
 20
271.426616
 30
0.0
 10
19.828462
 20
271.643984
 30
0.0
 10
19.708938
 20
271.821463
 30
0.0
 10
19.531697
 20
271.941109
 30
0.0
 10
19.314708
 20
271.984979
 30
0.0
 10
19.097379
 20
271.941109
 30
0.0
 10
18.919839
 20
271.821463
 30
0.0
 10
18.800104
 20
271.643984
 30
0.0
 10
18.756190
 20
271.426616
 30
0.0
 10
18.800016
 20
271.209401
 30
0.0
 10
18.919723
 20
271.031961
 30
0.0
 10
19.097292
 20
270.912295
 30
0.0
 10
19.314708
 20
270.868407
 30
0.0
  0
LWPOLYLINE
  5
16b
100
AcDbEntity
  8
Camada_1
 62
7
100
AcDbPolyline
 90
17
 70
0
 10
55.487231
 20
270.868407
 30
0.0
 10
55.704723
 20
270.912295
 30
0.0
 10
55.882467
 20
271.031961
 30
0.0
 10
56.002377
 20
271.209401
 30
0.0
 10
56.046367
 20
271.426616
 30
0.0
 10
56.002377
 20
271.643984
 30
0.0
 10
55.882467
 20
271.821463
 30
0.0
 10
55.704723
 20
271.941109
 30
0.0
 10
55.487231
 20
271.984979
 30
0.0
 10
55.269926
 20
271.941109
 30
0.0
 10
55.092442
 20
271.821463
 30
0.0
 10
54.972760
 20
271.643984
 30
0.0
 10
54.928869
 20
271.426616
 30
0.0
 10
54.972760
 20
271.209401
 30
0.0
 10
55.092442
 20
271.031961
 30
0.0
 10
55.269926
 20
270.912295
 30
0.0
 10
55.487231
 20
270.868407
 30
0.0
  0
LWPOLYLINE
  5
16c
100
AcDbEntity
  8
Camada_1
 62
7
100
AcDbPolyline
 90
17
 70
0
 10
58.775318
 20
270.868407
 30
0.0
 10
58.992810
 20
270.912295
 30
0.0
 10
59.170553
 20
271.031961
 30
0.0
 10
59.290466
 20
271.209401
 30
0.0
 10
59.334456
 20
271.426616
 30
0.0
 10
59.290466
 20
271.643984
 30
0.0
 10
59.170553
 20
271.821463
 30
0.0
 10
58.992810
 20
271.941109
 30
0.0
 10
58.775318
 20
271.984979
 30
0.0
 10
58.558151
 20
271.941109
 30
0.0
 10
58.380819
 20
271.821463
 30
0.0
 10
58.261261
 20
271.643984
 30
0.0
 10
58.217421
 20
271.426616
 30
0.0
 10
58.261326
 20
271.209401
 30
0.0
 10
58.380876
 20
271.031961
 30
0.0
 10
58.558173
 20
270.912295
 30
0.0
 10
58.775318
 20
270.868407
 30
0.0
  0
LWPOLYLINE
  5
16d
100
AcDbEntity
  8
Camada_1
 62
7
100
AcDbPolyline
 90
17
 70
0
 10
62.064491
 20
270.868407
 30
0.0
 10
62.281658
 20
270.912295
 30
0.0
 10
62.458989
 20
271.031961
 30
0.0
 10
62.578547
 20
271.209401
 30
0.0
 10
62.622388
 20
271.426616
 30
0.0
 10
62.578570
 20
271.643984
 30
0.0
 10
62.459049
 20
271.821463
 30
0.0
 10
62.281723
 20
271.941109
 30
0.0
 10
62.064491
 20
271.984979
 30
0.0
 10
61.847089
 20
271.941109
 30
0.0
 10
61.669388
 20
271.821463
 30
0.0
 10
61.549494
 20
271.643984
 30
0.0
 10
61.505507
 20
271.426616
 30
0.0
 10
61.549430
 20
271.209401
 30
0.0
 10
61.669332
 20
271.031961
 30
0.0
 10
61.847067
 20
270.912295
 30
0.0
 10
62.064491
 20
270.868407
 30
0.0
  0
LWPOLYLINE
  5
16e
100
AcDbEntity
  8
Camada_1
 62
7
100
AcDbPolyline
 90
17
 70
0
 10
65.352267
 20
270.868407
 30
0.0
 10
65.570354
 20
270.912295
 30
0.0
 10
65.748199
 20
271.031961
 30
0.0
 10
65.867980
 20
271.209401
 30
0.0
 10
65.911868
 20
271.426616
 30
0.0
 10
65.867980
 20
271.643984
 30
0.0
 10
65.748199
 20
271.821463
 30
0.0
 10
65.570354
 20
271.941109
 30
0.0
 10
65.352267
 20
271.984979
 30
0.0
 10
65.135337
 20
271.941109
 30
0.0
 10
64.957920
 20
271.821463
 30
0.0
 10
64.838165
 20
271.643984
 30
0.0
 10
64.794215
 20
271.426616
 30
0.0
 10
64.838100
 20
271.209401
 30
0.0
 10
64.957864
 20
271.031961
 30
0.0
 10
65.135314
 20
270.912295
 30
0.0
 10
65.352267
 20
270.868407
 30
0.0
  0
LWPOLYLINE
  5
16f
100
AcDbEntity
  8
Camada_1
 62
7
100
AcDbPolyline
 90
17
 70
0
 10
22.602949
 20
270.868407
 30
0.0
 10
22.820303
 20
270.912295
 30
0.0
 10
22.997897
 20
271.031961
 30
0.0
 10
23.117683
 20
271.209401
 30
0.0
 10
23.161622
 20
271.426616
 30
0.0
 10
23.117683
 20
271.643984
 30
0.0
 10
22.997897
 20
271.821463
 30
0.0
 10
22.820303
 20
271.941109
 30
0.0
 10
22.602949
 20
271.984979
 30
0.0
 10
22.385424
 20
271.941109
 30
0.0
 10
22.207906
 20
271.821463
 30
0.0
 10
22.088280
 20
271.643984
 30
0.0
 10
22.044431
 20
271.426616
 30
0.0
 10
22.088215
 20
271.209401
 30
0.0
 10
22.207849
 20
271.031961
 30
0.0
 10
22.385401
 20
270.912295
 30
0.0
 10
22.602949
 20
270.868407
 30
0.0
  0
LWPOLYLINE
  5
170
100
AcDbEntity
  8
Camada_1
 62
7
100
AcDbPolyline
 90
17
 70
0
 10
25.891038
 20
270.868407
 30
0.0
 10
26.108425
 20
270.912295
 30
0.0
 10
26.285791
 20
271.031961
 30
0.0
 10
26.405292
 20
271.209401
 30
0.0
 10
26.449091
 20
271.426616
 30
0.0
 10
26.405315
 20
271.643984
 30
0.0
 10
26.285848
 20
271.821463
 30
0.0
 10
26.108491
 20
271.941109
 30
0.0
 10
25.891038
 20
271.984979
 30
0.0
 10
25.673756
 20
271.941109
 30
0.0
 10
25.496322
 20
271.821463
 30
0.0
 10
25.376694
 20
271.643984
 30
0.0
 10
25.332829
 20
271.426616
 30
0.0
 10
25.376694
 20
271.209401
 30
0.0
 10
25.496322
 20
271.031961
 30
0.0
 10
25.673756
 20
270.912295
 30
0.0
 10
25.891038
 20
270.868407
 30
0.0
  0
LWPOLYLINE
  5
171
100
AcDbEntity
  8
Camada_1
 62
7
100
AcDbPolyline
 90
17
 70
0
 10
29.179435
 20
270.868407
 30
0.0
 10
29.396871
 20
270.912295
 30
0.0
 10
29.574343
 20
271.031961
 30
0.0
 10
29.693952
 20
271.209401
 30
0.0
 10
29.737798
 20
271.426616
 30
0.0
 10
29.693952
 20
271.643984
 30
0.0
 10
29.574343
 20
271.821463
 30
0.0
 10
29.396871
 20
271.941109
 30
0.0
 10
29.179435
 20
271.984979
 30
0.0
 10
28.962113
 20
271.941109
 30
0.0
 10
28.784739
 20
271.821463
 30
0.0
 10
28.665201
 20
271.643984
 30
0.0
 10
28.621380
 20
271.426616
 30
0.0
 10
28.665178
 20
271.209401
 30
0.0
 10
28.784683
 20
271.031961
 30
0.0
 10
28.962048
 20
270.912295
 30
0.0
 10
29.179435
 20
270.868407
 30
0.0
  0
LWPOLYLINE
  5
172
100
AcDbEntity
  8
Camada_1
 62
7
100
AcDbPolyline
 90
17
 70
0
 10
17.670122
 20
267.579550
 30
0.0
 10
17.887134
 20
267.623390
 30
0.0
 10
18.064429
 20
267.742965
 30
0.0
 10
18.184004
 20
267.920345
 30
0.0
 10
18.227864
 20
268.137602
 30
0.0
 10
18.184027
 20
268.355286
 30
0.0
 10
18.064486
 20
268.533010
 30
0.0
 10
17.887199
 20
268.652813
 30
0.0
 10
17.670122
 20
268.696735
 30
0.0
 10
17.452882
 20
268.652790
 30
0.0
 10
17.275389
 20
268.532953
 30
0.0
 10
17.155671
 20
268.355221
 30
0.0
 10
17.111760
 20
268.137602
 30
0.0
 10
17.155671
 20
267.920345
 30
0.0
 10
17.275389
 20
267.742965
 30
0.0
 10
17.452882
 20
267.623390
 30
0.0
 10
17.670122
 20
267.579550
 30
0.0
  0
LWPOLYLINE
  5
173
100
AcDbEntity
  8
Camada_1
 62
7
100
AcDbPolyline
 90
17
 70
0
 10
60.419750
 20
267.579550
 30
0.0
 10
60.637031
 20
267.623390
 30
0.0
 10
60.814464
 20
267.742965
 30
0.0
 10
60.934092
 20
267.920345
 30
0.0
 10
60.977958
 20
268.137602
 30
0.0
 10
60.934092
 20
268.355286
 30
0.0
 10
60.814464
 20
268.533010
 30
0.0
 10
60.637031
 20
268.652813
 30
0.0
 10
60.419750
 20
268.696735
 30
0.0
 10
60.202623
 20
268.652790
 30
0.0
 10
60.025229
 20
268.532953
 30
0.0
 10
59.905581
 20
268.355221
 30
0.0
 10
59.861696
 20
268.137602
 30
0.0
 10
59.905581
 20
267.920345
 30
0.0
 10
60.025229
 20
267.742965
 30
0.0
 10
60.202623
 20
267.623390
 30
0.0
 10
60.419750
 20
267.579550
 30
0.0
  0
LWPOLYLINE
  5
174
100
AcDbEntity
  8
Camada_1
 62
7
100
AcDbPolyline
 90
17
 70
0
 10
63.708455
 20
267.579550
 30
0.0
 10
63.926184
 20
267.623390
 30
0.0
 10
64.103845
 20
267.742965
 30
0.0
 10
64.223559
 20
267.920345
 30
0.0
 10
64.267438
 20
268.137602
 30
0.0
 10
64.223559
 20
268.355286
 30
0.0
 10
64.103845
 20
268.533010
 30
0.0
 10
63.926184
 20
268.652813
 30
0.0
 10
63.708455
 20
268.696735
 30
0.0
 10
63.491282
 20
268.652790
 30
0.0
 10
63.313781
 20
268.532953
 30
0.0
 10
63.194026
 20
268.355221
 30
0.0
 10
63.150092
 20
268.137602
 30
0.0
 10
63.193938
 20
267.920345
 30
0.0
 10
63.313666
 20
267.742965
 30
0.0
 10
63.491195
 20
267.623390
 30
0.0
 10
63.708455
 20
267.579550
 30
0.0
  0
LWPOLYLINE
  5
175
100
AcDbEntity
  8
Camada_1
 62
7
100
AcDbPolyline
 90
17
 70
0
 10
66.996697
 20
267.579550
 30
0.0
 10
67.214112
 20
267.623390
 30
0.0
 10
67.391531
 20
267.742965
 30
0.0
 10
67.511086
 20
267.920345
 30
0.0
 10
67.554910
 20
268.137602
 30
0.0
 10
67.511086
 20
268.355286
 30
0.0
 10
67.391531
 20
268.533010
 30
0.0
 10
67.214112
 20
268.652813
 30
0.0
 10
66.996697
 20
268.696735
 30
0.0
 10
66.779637
 20
268.652790
 30
0.0
 10
66.602235
 20
268.532953
 30
0.0
 10
66.482553
 20
268.355221
 30
0.0
 10
66.438645
 20
268.137602
 30
0.0
 10
66.482553
 20
267.920345
 30
0.0
 10
66.602235
 20
267.742965
 30
0.0
 10
66.779637
 20
267.623390
 30
0.0
 10
66.996697
 20
267.579550
 30
0.0
  0
LWPOLYLINE
  5
176
100
AcDbEntity
  8
Camada_1
 62
7
100
AcDbPolyline
 90
17
 70
0
 10
20.958982
 20
267.579550
 30
0.0
 10
21.176042
 20
267.623390
 30
0.0
 10
21.353444
 20
267.742965
 30
0.0
 10
21.473129
 20
267.920345
 30
0.0
 10
21.517037
 20
268.137602
 30
0.0
 10
21.473129
 20
268.355286
 30
0.0
 10
21.353444
 20
268.533010
 30
0.0
 10
21.176042
 20
268.652813
 30
0.0
 10
20.958982
 20
268.696735
 30
0.0
 10
20.741654
 20
268.652790
 30
0.0
 10
20.564114
 20
268.532953
 30
0.0
 10
20.444378
 20
268.355221
 30
0.0
 10
20.400464
 20
268.137602
 30
0.0
 10
20.444313
 20
267.920345
 30
0.0
 10
20.564054
 20
267.742965
 30
0.0
 10
20.741632
 20
267.623390
 30
0.0
 10
20.958982
 20
267.579550
 30
0.0
  0
LWPOLYLINE
  5
177
100
AcDbEntity
  8
Camada_1
 62
7
100
AcDbPolyline
 90
17
 70
0
 10
24.246761
 20
267.579550
 30
0.0
 10
24.464058
 20
267.623390
 30
0.0
 10
24.641378
 20
267.742965
 30
0.0
 10
24.760865
 20
267.920345
 30
0.0
 10
24.804661
 20
268.137602
 30
0.0
 10
24.760885
 20
268.355286
 30
0.0
 10
24.641437
 20
268.533010
 30
0.0
 10
24.464123
 20
268.652813
 30
0.0
 10
24.246761
 20
268.696735
 30
0.0
 10
24.029546
 20
268.652790
 30
0.0
 10
23.852107
 20
268.532953
 30
0.0
 10
23.732442
 20
268.355221
 30
0.0
 10
23.688554
 20
268.137602
 30
0.0
 10
23.732442
 20
267.920345
 30
0.0
 10
23.852107
 20
267.742965
 30
0.0
 10
24.029546
 20
267.623390
 30
0.0
 10
24.246761
 20
267.579550
 30
0.0
  0
LWPOLYLINE
  5
178
100
AcDbEntity
  8
Camada_1
 62
7
100
AcDbPolyline
 90
17
 70
0
 10
19.314708
 20
264.291461
 30
0.0
 10
19.531629
 20
264.335211
 30
0.0
 10
19.708879
 20
264.454625
 30
0.0
 10
19.828439
 20
264.631928
 30
0.0
 10
19.872297
 20
264.849355
 30
0.0
 10
19.828462
 20
265.066928
 30
0.0
 10
19.708938
 20
265.244553
 30
0.0
 10
19.531697
 20
265.364283
 30
0.0
 10
19.314708
 20
265.408183
 30
0.0
 10
19.097379
 20
265.364283
 30
0.0
 10
18.919839
 20
265.244553
 30
0.0
 10
18.800104
 20
265.066928
 30
0.0
 10
18.756190
 20
264.849355
 30
0.0
 10
18.800016
 20
264.631928
 30
0.0
 10
18.919723
 20
264.454625
 30
0.0
 10
19.097292
 20
264.335211
 30
0.0
 10
19.314708
 20
264.291461
 30
0.0
  0
LWPOLYLINE
  5
179
100
AcDbEntity
  8
Camada_1
 62
7
100
AcDbPolyline
 90
17
 70
0
 10
65.352267
 20
264.291461
 30
0.0
 10
65.570354
 20
264.335211
 30
0.0
 10
65.748199
 20
264.454625
 30
0.0
 10
65.867980
 20
264.631928
 30
0.0
 10
65.911868
 20
264.849355
 30
0.0
 10
65.867980
 20
265.066928
 30
0.0
 10
65.748199
 20
265.244553
 30
0.0
 10
65.570354
 20
265.364283
 30
0.0
 10
65.352267
 20
265.408183
 30
0.0
 10
65.135337
 20
265.364283
 30
0.0
 10
64.957920
 20
265.244553
 30
0.0
 10
64.838165
 20
265.066928
 30
0.0
 10
64.794215
 20
264.849355
 30
0.0
 10
64.838100
 20
264.631928
 30
0.0
 10
64.957864
 20
264.454625
 30
0.0
 10
65.135314
 20
264.335211
 30
0.0
 10
65.352267
 20
264.291461
 30
0.0
  0
LWPOLYLINE
  5
17a
100
AcDbEntity
  8
Camada_1
 62
7
100
AcDbPolyline
 90
17
 70
0
 10
17.670122
 20
261.002753
 30
0.0
 10
17.887134
 20
261.046633
 30
0.0
 10
18.064429
 20
261.166228
 30
0.0
 10
18.184004
 20
261.343483
 30
0.0
 10
18.227864
 20
261.560340
 30
0.0
 10
18.184027
 20
261.777978
 30
0.0
 10
18.064486
 20
261.955595
 30
0.0
 10
17.887199
 20
262.075291
 30
0.0
 10
17.670122
 20
262.119168
 30
0.0
 10
17.452882
 20
262.075291
 30
0.0
 10
17.275389
 20
261.955595
 30
0.0
 10
17.155671
 20
261.777978
 30
0.0
 10
17.111760
 20
261.560340
 30
0.0
 10
17.155671
 20
261.343548
 30
0.0
 10
17.275389
 20
261.166284
 30
0.0
 10
17.452882
 20
261.046653
 30
0.0
 10
17.670122
 20
261.002753
 30
0.0
  0
LWPOLYLINE
  5
17b
100
AcDbEntity
  8
Camada_1
 62
7
100
AcDbPolyline
 90
17
 70
0
 10
66.996697
 20
261.002753
 30
0.0
 10
67.214112
 20
261.046633
 30
0.0
 10
67.391531
 20
261.166228
 30
0.0
 10
67.511086
 20
261.343483
 30
0.0
 10
67.554910
 20
261.560340
 30
0.0
 10
67.511086
 20
261.777978
 30
0.0
 10
67.391531
 20
261.955595
 30
0.0
 10
67.214112
 20
262.075291
 30
0.0
 10
66.996697
 20
262.119168
 30
0.0
 10
66.779637
 20
262.075291
 30
0.0
 10
66.602235
 20
261.955595
 30
0.0
 10
66.482553
 20
261.777978
 30
0.0
 10
66.438645
 20
261.560340
 30
0.0
 10
66.482553
 20
261.343548
 30
0.0
 10
66.602235
 20
261.166284
 30
0.0
 10
66.779637
 20
261.046653
 30
0.0
 10
66.996697
 20
261.002753
 30
0.0
  0
LWPOLYLINE
  5
17c
100
AcDbEntity
  8
Camada_1
 62
7
100
AcDbPolyline
 90
321
 70
0
 10
61.905312
 20
265.528811
 30
0.0
 10
60.028664
 20
267.214829
 30
0.0
 10
57.957161
 20
268.726755
 30
0.0
 10
55.721357
 20
270.052347
 30
0.0
 10
53.351791
 20
271.179352
 30
0.0
 10
50.879017
 20
272.095527
 30
0.0
 10
48.333573
 20
272.788625
 30
0.0
 10
45.746012
 20
273.246399
 30
0.0
 10
43.146876
 20
273.456604
 30
0.0
 10
43.146876
 20
273.944068
 30
0.0
 10
43.146876
 20
274.431533
 30
0.0
 10
43.146876
 20
274.918998
 30
0.0
 10
43.146876
 20
275.406463
 30
0.0
 10
43.146876
 20
275.893927
 30
0.0
 10
43.146876
 20
276.381392
 30
0.0
 10
43.146876
 20
276.868858
 30
0.0
 10
43.146876
 20
277.356322
 30
0.0
 10
43.130168
 20
277.522245
 30
0.0
 10
43.082264
 20
277.676643
 30
0.0
 10
43.006464
 20
277.816248
 30
0.0
 10
42.906069
 20
277.937795
 30
0.0
 10
42.784389
 20
278.038016
 30
0.0
 10
42.644723
 20
278.113647
 30
0.0
 10
42.490376
 20
278.161421
 30
0.0
 10
42.324655
 20
278.178072
 30
0.0
 10
42.158844
 20
278.161416
 30
0.0
 10
42.004457
 20
278.113626
 30
0.0
 10
41.864785
 20
278.037976
 30
0.0
 10
41.743125
 20
277.937736
 30
0.0
 10
41.642764
 20
277.816179
 30
0.0
 10
41.567001
 20
277.676577
 30
0.0
 10
41.519131
 20
277.522201
 30
0.0
 10
41.502451
 20
277.356323
 30
0.0
 10
41.502451
 20
276.868858
 30
0.0
 10
41.502451
 20
276.381393
 30
0.0
 10
41.502451
 20
275.893928
 30
0.0
 10
41.502451
 20
275.406464
 30
0.0
 10
41.502451
 20
274.918999
 30
0.0
 10
41.502451
 20
274.431534
 30
0.0
 10
41.502451
 20
273.944069
 30
0.0
 10
41.502451
 20
273.456605
 30
0.0
 10
38.888216
 20
273.247610
 30
0.0
 10
36.289403
 20
272.793257
 30
0.0
 10
33.736582
 20
272.105647
 30
0.0
 10
31.260336
 20
271.196888
 30
0.0
 10
28.891233
 20
270.079082
 30
0.0
 10
26.659854
 20
268.764339
 30
0.0
 10
24.596770
 20
267.264759
 30
0.0
 10
22.732559
 20
265.592449
 30
0.0
 10
21.483450
 20
264.232496
 30
0.0
 10
20.393183
 20
262.812281
 30
0.0
 10
19.464147
 20
261.337192
 30
0.0
 10
18.698729
 20
259.812611
 30
0.0
 10
18.099314
 20
258.243921
 30
0.0
 10
17.668291
 20
256.636505
 30
0.0
 10
17.408042
 20
254.995749
 30
0.0
 10
17.320957
 20
253.327037
 30
0.0
 10
17.337636
 20
253.161426
 30
0.0
 10
17.385456
 20
253.007175
 30
0.0
 10
17.461137
 20
252.867588
 30
0.0
 10
17.561399
 20
252.745973
 30
0.0
 10
17.682958
 20
252.645629
 30
0.0
 10
17.822528
 20
252.569866
 30
0.0
 10
17.976824
 20
252.521984
 30
0.0
 10
18.142565
 20
252.505277
 30
0.0
 10
18.308433
 20
252.521956
 30
0.0
 10
18.462876
 20
252.569824
 30
0.0
 10
18.602601
 20
252.645569
 30
0.0
 10
18.724310
 20
252.745894
 30
0.0
 10
18.824707
 20
252.867500
 30
0.0
 10
18.900501
 20
253.007090
 30
0.0
 10
18.948394
 20
253.161361
 30
0.0
 10
18.965102
 20
253.327017
 30
0.0
 10
19.046768
 20
254.134582
 30
0.0
 10
19.280917
 20
254.887252
 30
0.0
 10
19.651285
 20
255.568756
 30
0.0
 10
20.141599
 20
256.162831
 30
0.0
 10
20.735586
 20
256.653207
 30
0.0
 10
21.416983
 20
257.023615
 30
0.0
 10
22.169520
 20
257.257792
 30
0.0
 10
22.976924
 20
257.339464
 30
0.0
 10
23.784554
 20
257.257792
 30
0.0
 10
24.537294
 20
257.023615
 30
0.0
 10
25.218875
 20
256.653207
 30
0.0
 10
25.813026
 20
256.162831
 30
0.0
 10
26.303469
 20
255.568756
 30
0.0
 10
26.673931
 20
254.887252
 30
0.0
 10
26.908145
 20
254.134582
 30
0.0
 10
26.989831
 20
253.327017
 30
0.0
 10
27.006510
 20
253.161407
 30
0.0
 10
27.054332
 20
253.007155
 30
0.0
 10
27.130033
 20
252.867568
 30
0.0
 10
27.230329
 20
252.745953
 30
0.0
 10
27.351942
 20
252.645609
 30
0.0
 10
27.491594
 20
252.569846
 30
0.0
 10
27.646006
 20
252.521964
 30
0.0
 10
27.811899
 20
252.505257
 30
0.0
 10
27.977386
 20
252.521936
 30
0.0
 10
28.131592
 20
252.569804
 30
0.0
 10
28.271193
 20
252.645550
 30
0.0
 10
28.392868
 20
252.745874
 30
0.0
 10
28.493291
 20
252.867481
 30
0.0
 10
28.569138
 20
253.007071
 30
0.0
 10
28.617082
 20
253.161342
 30
0.0
 10
28.633790
 20
253.326998
 30
0.0
 10
28.715437
 20
254.134562
 30
0.0
 10
28.949546
 20
254.887232
 30
0.0
 10
29.319866
 20
255.568737
 30
0.0
 10
29.810151
 20
256.162812
 30
0.0
 10
30.404147
 20
256.653187
 30
0.0
 10
31.085609
 20
257.023595
 30
0.0
 10
31.838282
 20
257.257772
 30
0.0
 10
32.645923
 20
257.339444
 30
0.0
 10
33.453620
 20
257.257772
 30
0.0
 10
34.206352
 20
257.023604
 30
0.0
 10
34.887865
 20
256.653212
 30
0.0
 10
35.481909
 20
256.162871
 30
0.0
 10
35.972234
 20
255.568852
 30
0.0
 10
36.342582
 20
254.887430
 30
0.0
 10
36.576711
 20
254.134876
 30
0.0
 10
36.658367
 20
253.327466
 30
0.0
 10
36.675046
 20
253.161655
 30
0.0
 10
36.722919
 20
253.007268
 30
0.0
 10
36.798687
 20
252.867596
 30
0.0
 10
36.899060
 20
252.745933
 30
0.0
 10
37.020740
 20
252.645575
 30
0.0
 10
37.160437
 20
252.569810
 30
0.0
 10
37.314863
 20
252.521939
 30
0.0
 10
37.480725
 20
252.505260
 30
0.0
 10
37.646381
 20
252.521939
 30
0.0
 10
37.800655
 20
252.569810
 30
0.0
 10
37.940242
 20
252.645575
 30
0.0
 10
38.061849
 20
252.745933
 30
0.0
 10
38.162176
 20
252.867596
 30
0.0
 10
38.237919
 20
253.007268
 30
0.0
 10
38.285787
 20
253.161655
 30
0.0
 10
38.302466
 20
253.327466
 30
0.0
 10
38.365159
 20
254.036039
 30
0.0
 10
38.545984
 20
254.704251
 30
0.0
 10
38.834068
 20
255.321225
 30
0.0
 10
39.218537
 20
255.876080
 30
0.0
 10
39.688516
 20
256.357940
 30
0.0
 10
40.233129
 20
256.755924
 30
0.0
 10
40.841501
 20
257.059155
 30
0.0
 10
41.502759
 20
257.256756
 30
0.0
 10
41.502759
 20
253.276443
 30
0.0
 10
41.502759
 20
249.296131
 30
0.0
 10
41.502759
 20
245.315818
 30
0.0
 10
41.502759
 20
241.335505
 30
0.0
 10
41.502759
 20
237.355193
 30
0.0
 10
41.502759
 20
233.374880
 30
0.0
 10
41.502759
 20
229.394567
 30
0.0
 10
41.502759
 20
225.414255
 30
0.0
 10
41.606272
 20
224.390564
 30
0.0
 10
41.903074
 20
223.436407
 30
0.0
 10
42.372545
 20
222.572415
 30
0.0
 10
42.994069
 20
221.819235
 30
0.0
 10
43.747035
 20
221.197499
 30
0.0
 10
44.610824
 20
220.727850
 30
0.0
 10
45.564823
 20
220.430924
 30
0.0
 10
46.588418
 20
220.327363
 30
0.0
 10
47.612131
 20
220.430919
 30
0.0
 10
48.566157
 20
220.727828
 30
0.0
 10
49.429904
 20
221.197457
 30
0.0
 10
50.182783
 20
221.819175
 30
0.0
 10
50.804199
 20
222.572347
 30
0.0
 10
51.273563
 20
223.436340
 30
0.0
 10
51.570283
 20
224.390519
 30
0.0
 10
51.673766
 20
225.414255
 30
0.0
 10
51.658497
 20
225.812242
 30
0.0
 10
51.612941
 20
226.204711
 30
0.0
 10
51.537509
 20
226.590365
 30
0.0
 10
51.432607
 20
226.967894
 30
0.0
 10
51.298642
 20
227.335990
 30
0.0
 10
51.136022
 20
227.693357
 30
0.0
 10
50.945155
 20
228.038687
 30
0.0
 10
50.726444
 20
228.370671
 30
0.0
 10
50.616635
 20
228.495743
 30
0.0
 10
50.488054
 20
228.593372
 30
0.0
 10
50.345320
 20
228.662813
 30
0.0
 10
50.193050
 20
228.703312
 30
0.0
 10
50.035858
 20
228.714121
 30
0.0
 10
49.878361
 20
228.694507
 30
0.0
 10
49.725176
 20
228.643704
 30
0.0
 10
49.580919
 20
228.560973
 30
0.0
 10
49.455578
 20
228.451014
 30
0.0
 10
49.357729
 20
228.322318
 30
0.0
 10
49.288127
 20
228.179482
 30
0.0
 10
49.247521
 20
228.027093
 30
0.0
 10
49.236655
 20
227.869749
 30
0.0
 10
49.256298
 20
227.712040
 30
0.0
 10
49.307208
 20
227.558559
 30
0.0
 10
49.390128
 20
227.413898
 30
0.0
 10
49.537897
 20
227.189684
 30
0.0
 10
49.666875
 20
226.956283
 30
0.0
 10
49.776781
 20
226.714610
 30
0.0
 10
49.867335
 20
226.465583
 30
0.0
 10
49.938254
 20
226.210119
 30
0.0
 10
49.989260
 20
225.949131
 30
0.0
 10
50.020070
 20
225.683537
 30
0.0
 10
50.030400
 20
225.414255
 30
0.0
 10
49.960347
 20
224.721577
 30
0.0
 10
49.759483
 20
224.075934
 30
0.0
 10
49.441763
 20
223.491300
 30
0.0
 10
49.021136
 20
222.981637
 30
0.0
 10
48.511550
 20
222.560917
 30
0.0
 10
47.926958
 20
222.243110
 30
0.0
 10
47.281310
 20
222.042182
 30
0.0
 10
46.588556
 20
221.972100
 30
0.0
 10
45.896042
 20
222.042187
 30
0.0
 10
45.250552
 20
222.243130
 30
0.0
 10
44.666047
 20
222.560957
 30
0.0
 10
44.156495
 20
222.981694
 30
0.0
 10
43.735868
 20
223.491365
 30
0.0
 10
43.418125
 20
224.075999
 30
0.0
 10
43.217239
 20
224.721619
 30
0.0
 10
43.147172
 20
225.414255
 30
0.0
 10
43.147172
 20
229.393735
 30
0.0
 10
43.147172
 20
233.373215
 30
0.0
 10
43.147172
 20
237.352695
 30
0.0
 10
43.147172
 20
241.332175
 30
0.0
 10
43.147172
 20
245.311655
 30
0.0
 10
43.147172
 20
249.291135
 30
0.0
 10
43.147172
 20
253.270615
 30
0.0
 10
43.147172
 20
257.250095
 30
0.0
 10
43.804594
 20
257.050355
 30
0.0
 10
44.409306
 20
256.746168
 30
0.0
 10
44.950538
 20
256.348243
 30
0.0
 10
45.417517
 20
255.867291
 30
0.0
 10
45.799474
 20
255.314028
 30
0.0
 10
46.085636
 20
254.699162
 30
0.0
 10
46.265231
 20
254.033403
 30
0.0
 10
46.327489
 20
253.327466
 30
0.0
 10
46.344168
 20
253.161655
 30
0.0
 10
46.392042
 20
253.007268
 30
0.0
 10
46.467810
 20
252.867596
 30
0.0
 10
46.568182
 20
252.745933
 30
0.0
 10
46.689862
 20
252.645575
 30
0.0
 10
46.829559
 20
252.569810
 30
0.0
 10
46.983986
 20
252.521939
 30
0.0
 10
47.149848
 20
252.505260
 30
0.0
 10
47.315193
 20
252.521939
 30
0.0
 10
47.469321
 20
252.569810
 30
0.0
 10
47.608891
 20
252.645575
 30
0.0
 10
47.730568
 20
252.745933
 30
0.0
 10
47.831014
 20
252.867596
 30
0.0
 10
47.906892
 20
253.007268
 30
0.0
 10
47.954867
 20
253.161655
 30
0.0
 10
47.971603
 20
253.327466
 30
0.0
 10
48.053264
 20
254.135051
 30
0.0
 10
48.287409
 20
254.887771
 30
0.0
 10
48.657787
 20
255.569349
 30
0.0
 10
49.148136
 20
256.163509
 30
0.0
 10
49.742209
 20
256.653966
 30
0.0
 10
50.423747
 20
257.024450
 30
0.0
 10
51.176496
 20
257.258678
 30
0.0
 10
51.984199
 20
257.340370
 30
0.0
 10
52.791656
 20
257.258683
 30
0.0
 10
53.544332
 20
257.024473
 30
0.0
 10
54.225929
 20
256.654008
 30
0.0
 10
54.820145
 20
256.163565
 30
0.0
 10
55.310684
 20
255.569417
 30
0.0
 10
55.681251
 20
254.887836
 30
0.0
 10
55.915540
 20
254.135096
 30
0.0
 10
55.997261
 20
253.327466
 30
0.0
 10
56.013883
 20
253.161655
 30
0.0
 10
56.061621
 20
253.007268
 30
0.0
 10
56.137203
 20
252.867596
 30
0.0
 10
56.237370
 20
252.745933
 30
0.0
 10
56.358861
 20
252.645575
 30
0.0
 10
56.498414
 20
252.569810
 30
0.0
 10
56.652778
 20
252.521939
 30
0.0
 10
56.818688
 20
252.505260
 30
0.0
 10
56.984248
 20
252.521939
 30
0.0
 10
57.138463
 20
252.569810
 30
0.0
 10
57.278022
 20
252.645575
 30
0.0
 10
57.399620
 20
252.745933
 30
0.0
 10
57.499953
 20
252.867596
 30
0.0
 10
57.575710
 20
253.007268
 30
0.0
 10
57.623591
 20
253.161655
 30
0.0
 10
57.640271
 20
253.327466
 30
0.0
 10
57.721963
 20
254.135051
 30
0.0
 10
57.956176
 20
254.887771
 30
0.0
 10
58.326624
 20
255.569349
 30
0.0
 10
58.817016
 20
256.163509
 30
0.0
 10
59.411066
 20
256.653966
 30
0.0
 10
60.092477
 20
257.024450
 30
0.0
 10
60.844969
 20
257.258678
 30
0.0
 10
61.652246
 20
257.340370
 30
0.0
 10
62.467270
 20
257.258683
 30
0.0
 10
63.226885
 20
257.024473
 30
0.0
 10
63.914675
 20
256.654008
 30
0.0
 10
64.514228
 20
256.163565
 30
0.0
 10
65.009121
 20
255.569417
 30
0.0
 10
65.382942
 20
254.887836
 30
0.0
 10
65.619272
 20
254.135096
 30
0.0
 10
65.701697
 20
253.327466
 30
0.0
 10
65.718377
 20
253.161655
 30
0.0
 10
65.766236
 20
253.007268
 30
0.0
 10
65.841987
 20
252.867596
 30
0.0
 10
65.942340
 20
252.745933
 30
0.0
 10
66.064009
 20
252.645575
 30
0.0
 10
66.203711
 20
252.569810
 30
0.0
 10
66.358158
 20
252.521939
 30
0.0
 10
66.524065
 20
252.505260
 30
0.0
 10
66.689419
 20
252.521939
 30
0.0
 10
66.843563
 20
252.569810
 30
0.0
 10
66.983156
 20
252.645575
 30
0.0
 10
67.104861
 20
252.745933
 30
0.0
 10
67.205338
 20
252.867596
 30
0.0
 10
67.281242
 20
253.007268
 30
0.0
 10
67.329233
 20
253.161655
 30
0.0
 10
67.345969
 20
253.327466
 30
0.0
 10
67.258029
 20
254.975887
 30
0.0
 10
66.996200
 20
256.599805
 30
0.0
 10
66.562834
 20
258.193863
 30
0.0
 10
65.960281
 20
259.752704
 30
0.0
 10
65.190895
 20
261.270972
 30
0.0
 10
64.257027
 20
262.743311
 30
0.0
 10
63.161031
 20
264.164362
 30
0.0
 10
61.905255
 20
265.528771
 30
0.0
  0
ENDSEC
  0
SECTION
  2
OBJECTS
  0
DICTIONARY
  5
C
330
0
100
AcDbDictionary
  3
ACAD_GROUP
350
D
  3
ACAD_MLINESTYLE
350
17
  0
DICTIONARY
  5
D
330
C
100
AcDbDictionary
  0
DICTIONARY
  5
1A
330
C
100
AcDbDictionary
  0
DICTIONARY
  5
17
330
C
100
AcDbDictionary
  3
STANDARD
350
18
  0
DICTIONARY
  5
19
330
C
100
AcDbDictionary
  0
ENDSEC
  0
EOF
